<svg width="512" height="512" version="1.1" xmlns="http://www.w3.org/2000/svg" desc="Created with imagetracer.js version 1.2.6" ><path fill="rgb(0,0,0)" stroke="rgb(0,0,0)" stroke-width="1" opacity="0.3843137254901961" d="M 312.5 1 L 313 6.5 L 312 6.5 L 312.5 1 Z " /><path fill="rgb(0,0,0)" stroke="rgb(0,0,0)" stroke-width="1" opacity="0.3843137254901961" d="M 270.5 5 L 271 10.5 L 270 10.5 L 270.5 5 Z " /><path fill="rgb(0,0,0)" stroke="rgb(0,0,0)" stroke-width="1" opacity="0.3843137254901961" d="M 313.5 11 L 314 16.5 L 313 16.5 L 313.5 11 Z " /><path fill="rgb(0,0,0)" stroke="rgb(0,0,0)" stroke-width="1" opacity="0.3843137254901961" d="M 269.5 15 L 270 20.5 L 269 20.5 L 269.5 15 Z " /><path fill="rgb(0,0,0)" stroke="rgb(0,0,0)" stroke-width="1" opacity="0.3843137254901961" d="M 314.5 20 L 315 25.5 L 314 25.5 L 314.5 20 Z " /><path fill="rgb(0,0,0)" stroke="rgb(0,0,0)" stroke-width="1" opacity="0.3843137254901961" d="M 268.5 24 L 269 29.5 L 268 29.5 L 268.5 24 Z " /><path fill="rgb(0,0,0)" stroke="rgb(0,0,0)" stroke-width="1" opacity="0.3843137254901961" d="M 205.5 27 L 208 28.5 L 206.5 28 L 178 55.5 L 181 59.5 L 177 56.5 L 205.5 27 Z " /><path fill="rgb(0,0,0)" stroke="rgb(0,0,0)" stroke-width="1" opacity="0.3843137254901961" d="M 376.5 27 L 406 55.5 L 404.5 58 L 405 56.5 L 377.5 28 L 373.5 31 L 376.5 27 Z " /><path fill="rgb(0,0,0)" stroke="rgb(0,0,0)" stroke-width="1" opacity="0.3843137254901961" d="M 210.5 30 L 212.5 33 L 210.5 30 Z " /><path fill="rgb(0,0,0)" stroke="rgb(0,0,0)" stroke-width="1" opacity="0.3843137254901961" d="M 315.5 30 L 316 35.5 L 315 35.5 L 315.5 30 Z " /><path fill="rgb(0,0,0)" stroke="rgb(0,0,0)" stroke-width="1" opacity="0.3843137254901961" d="M 371.5 31 L 368.5 35 L 371.5 31 Z " /><path fill="rgb(0,0,0)" stroke="rgb(0,0,0)" stroke-width="1" opacity="0.3843137254901961" d="M 215.5 34 L 218.5 38 L 215.5 34 Z " /><path fill="rgb(0,0,0)" stroke="rgb(0,0,0)" stroke-width="1" opacity="0.3843137254901961" d="M 267.5 34 L 268 39.5 L 267 39.5 L 267.5 34 Z " /><path fill="rgb(0,0,0)" stroke="rgb(0,0,0)" stroke-width="1" opacity="0.3843137254901961" d="M 365.5 36 L 363.5 39 L 365.5 36 Z " /><path fill="rgb(0,0,0)" stroke="rgb(0,0,0)" stroke-width="1" opacity="0.3843137254901961" d="M 220.5 38 L 223.5 42 L 220.5 38 Z " /><path fill="rgb(0,0,0)" stroke="rgb(0,0,0)" stroke-width="1" opacity="0.3843137254901961" d="M 360.5 40 L 357.5 44 L 360.5 40 Z " /><path fill="rgb(0,0,0)" stroke="rgb(0,0,0)" stroke-width="1" opacity="0.3843137254901961" d="M 263.5 41 L 266 41.5 L 263.5 42 L 263.5 41 Z " /><path fill="rgb(0,0,0)" stroke="rgb(0,0,0)" stroke-width="1" opacity="0.3843137254901961" d="M 225.5 42 L 228.5 46 L 225.5 42 Z " /><path fill="rgb(0,0,0)" stroke="rgb(0,0,0)" stroke-width="1" opacity="0.3843137254901961" d="M 321.5 42 L 324 42.5 L 321.5 43 L 321.5 42 Z " /><path fill="rgb(0,0,0)" stroke="rgb(0,0,0)" stroke-width="1" opacity="0.3843137254901961" d="M 355.5 44 L 352.5 48 L 355.5 44 Z " /><path fill="rgb(0,0,0)" stroke="rgb(0,0,0)" stroke-width="1" opacity="0.3843137254901961" d="M 230.5 46 L 233.5 50 L 230.5 46 Z " /><path fill="rgb(0,0,0)" stroke="rgb(0,0,0)" stroke-width="1" opacity="0.3843137254901961" d="M 247.5 47 L 249 47.5 L 245.5 49 L 245.5 48 L 247.5 47 Z " /><path fill="rgb(0,0,0)" stroke="rgb(0,0,0)" stroke-width="1" opacity="0.3843137254901961" d="M 350.5 48 L 347.5 52 L 350.5 48 Z " /><path fill="rgb(0,0,0)" stroke="rgb(0,0,0)" stroke-width="1" opacity="0.3843137254901961" d="M 243.5 49 L 242.5 51 L 240.5 52 L 241.5 50 L 243.5 49 Z " /><path fill="rgb(0,0,0)" stroke="rgb(0,0,0)" stroke-width="1" opacity="0.3843137254901961" d="M 236.5 51 L 239 52.5 L 237.5 53 L 236.5 51 Z " /><path fill="rgb(0,0,0)" stroke="rgb(0,0,0)" stroke-width="1" opacity="0.3843137254901961" d="M 343.5 51 L 346 52.5 L 344.5 53 L 343.5 51 Z " /><path fill="rgb(0,0,0)" stroke="rgb(0,0,0)" stroke-width="1" opacity="0.3843137254901961" d="M 403.5 59 L 400.5 63 L 403.5 59 Z " /><path fill="rgb(0,0,0)" stroke="rgb(0,0,0)" stroke-width="1" opacity="0.3843137254901961" d="M 181.5 61 L 184.5 65 L 181.5 61 Z " /><path fill="rgb(0,0,0)" stroke="rgb(0,0,0)" stroke-width="1" opacity="0.3843137254901961" d="M 399.5 64 L 396.5 68 L 399.5 64 Z " /><path fill="rgb(0,0,0)" stroke="rgb(0,0,0)" stroke-width="1" opacity="0.3843137254901961" d="M 186.5 67 L 188.5 70 L 186.5 67 Z " /><path fill="rgb(0,0,0)" stroke="rgb(0,0,0)" stroke-width="1" opacity="0.3843137254901961" d="M 395.5 69 L 392.5 73 L 395.5 69 Z " /><path fill="rgb(0,0,0)" stroke="rgb(0,0,0)" stroke-width="1" opacity="0.3843137254901961" d="M 190.5 72 L 193.5 76 L 190.5 72 Z " /><path fill="rgb(0,0,0)" stroke="rgb(0,0,0)" stroke-width="1" opacity="0.3843137254901961" d="M 390.5 75 L 388.5 78 L 390.5 75 Z " /><path fill="rgb(0,0,0)" stroke="rgb(0,0,0)" stroke-width="1" opacity="0.3843137254901961" d="M 194.5 77 L 197.5 81 L 194.5 77 Z " /><path fill="rgb(0,0,0)" stroke="rgb(0,0,0)" stroke-width="1" opacity="0.3843137254901961" d="M 386.5 80 L 383.5 84 L 386.5 80 Z " /><path fill="rgb(0,0,0)" stroke="rgb(0,0,0)" stroke-width="1" opacity="0.3843137254901961" d="M 198.5 82 L 201.5 86 L 198.5 82 Z " /><path fill="rgb(0,0,0)" stroke="rgb(0,0,0)" stroke-width="1" opacity="0.3843137254901961" d="M 382.5 85 L 380.5 88 L 382.5 85 Z " /><path fill="rgb(0,0,0)" stroke="rgb(0,0,0)" stroke-width="1" opacity="0.3843137254901961" d="M 200.5 92 L 200 93.5 L 198.5 97 L 198 95.5 L 200.5 92 Z " /><path fill="rgb(0,0,0)" stroke="rgb(0,0,0)" stroke-width="1" opacity="0.3843137254901961" d="M 383.5 93 L 385 95.5 L 384 95.5 L 383.5 93 Z " /><path fill="rgb(0,0,0)" stroke="rgb(0,0,0)" stroke-width="1" opacity="0.3843137254901961" d="M 282.5 94 L 288 94.5 L 282.5 95 L 282.5 94 Z " /><path fill="rgb(0,0,0)" stroke="rgb(0,0,0)" stroke-width="1" opacity="0.3843137254901961" d="M 295.5 94 L 301 94.5 L 295.5 95 L 295.5 94 Z " /><path fill="rgb(0,0,0)" stroke="rgb(0,0,0)" stroke-width="1" opacity="0.3843137254901961" d="M 309.5 97 L 314 99.5 L 312.5 99 Q 308.8 98.8 309.5 97 Z " /><path fill="rgb(0,0,0)" stroke="rgb(0,0,0)" stroke-width="1" opacity="0.3843137254901961" d="M 267.5 100 L 266.5 102 L 263.5 104 L 265.5 101 L 267.5 100 Z " /><path fill="rgb(0,0,0)" stroke="rgb(0,0,0)" stroke-width="1" opacity="0.3843137254901961" d="M 320.5 103 L 323.5 107 L 320.5 103 Z " /><path fill="rgb(0,0,0)" stroke="rgb(0,0,0)" stroke-width="1" opacity="0.3843137254901961" d="M 260.5 105 L 255.5 111 L 260.5 105 Z " /><path fill="rgb(0,0,0)" stroke="rgb(0,0,0)" stroke-width="1" opacity="0.3843137254901961" d="M 326.5 109 L 330.5 114 L 326.5 109 Z " /><path fill="rgb(0,0,0)" stroke="rgb(0,0,0)" stroke-width="1" opacity="0.3843137254901961" d="M 253.5 113 L 252.5 115 L 253.5 113 Z " /><path fill="rgb(0,0,0)" stroke="rgb(0,0,0)" stroke-width="1" opacity="0.3843137254901961" d="M 251.5 116 L 251 117.5 L 249.5 120 L 250 118.5 L 251.5 116 Z " /><path fill="rgb(0,0,0)" stroke="rgb(0,0,0)" stroke-width="1" opacity="0.3843137254901961" d="M 182.5 117 L 188 117.5 L 182.5 118 L 182.5 117 Z " /><path fill="rgb(0,0,0)" stroke="rgb(0,0,0)" stroke-width="1" opacity="0.3843137254901961" d="M 332.5 117 L 335 120.5 L 333 119.5 L 332.5 117 Z " /><path fill="rgb(0,0,0)" stroke="rgb(0,0,0)" stroke-width="1" opacity="0.3843137254901961" d="M 396.5 117 L 402 117.5 L 396.5 118 L 396.5 117 Z " /><path fill="rgb(0,0,0)" stroke="rgb(0,0,0)" stroke-width="1" opacity="0.3843137254901961" d="M 173.5 118 L 179 118.5 L 173.5 119 L 173.5 118 Z " /><path fill="rgb(0,0,0)" stroke="rgb(0,0,0)" stroke-width="1" opacity="0.3843137254901961" d="M 405.5 118 L 411 118.5 L 405.5 119 L 405.5 118 Z " /><path fill="rgb(0,0,0)" stroke="rgb(0,0,0)" stroke-width="1" opacity="0.3843137254901961" d="M 163.5 119 L 169 119.5 L 163.5 120 L 163.5 119 Z " /><path fill="rgb(0,0,0)" stroke="rgb(0,0,0)" stroke-width="1" opacity="0.3843137254901961" d="M 414.5 119 L 420 119.5 L 414.5 120 L 414.5 119 Z " /><path fill="rgb(0,0,0)" stroke="rgb(0,0,0)" stroke-width="1" opacity="0.3843137254901961" d="M 154.5 120 L 160 120.5 L 154.5 121 L 154.5 120 Z " /><path fill="rgb(0,0,0)" stroke="rgb(0,0,0)" stroke-width="1" opacity="0.3843137254901961" d="M 424.5 120 L 430 120.5 L 424.5 121 L 424.5 120 Z " /><path fill="rgb(0,0,0)" stroke="rgb(0,0,0)" stroke-width="1" opacity="0.3843137254901961" d="M 150.5 121 L 151 161.5 L 150 161.5 L 150.5 121 Z " /><path fill="rgb(0,0,0)" stroke="rgb(0,0,0)" stroke-width="1" opacity="0.3843137254901961" d="M 433.5 121 L 434 161.5 L 433 161.5 L 433.5 121 Z " /><path fill="rgb(0,0,0)" stroke="rgb(0,0,0)" stroke-width="1" opacity="0.3843137254901961" d="M 338.5 131 L 339 135.5 L 338 135.5 L 338.5 131 Z " /><path fill="rgb(0,0,0)" stroke="rgb(0,0,0)" stroke-width="1" opacity="0.3843137254901961" d="M 244.5 134 L 245 139.5 L 244 139.5 L 244.5 134 Z " /><path fill="rgb(0,0,0)" stroke="rgb(0,0,0)" stroke-width="1" opacity="0.3843137254901961" d="M 339.5 139 L 340 143.5 L 339 143.5 L 339.5 139 Z " /><path fill="rgb(0,0,0)" stroke="rgb(0,0,0)" stroke-width="1" opacity="0.3843137254901961" d="M 244.5 143 L 245 148.5 L 244 148.5 L 244.5 143 Z " /><path fill="rgb(0,0,0)" stroke="rgb(0,0,0)" stroke-width="1" opacity="0.3843137254901961" d="M 338.5 147 L 339 151.5 L 338 151.5 L 338.5 147 Z " /><path fill="rgb(0,0,0)" stroke="rgb(0,0,0)" stroke-width="1" opacity="0.3843137254901961" d="M 153.5 162 L 159 162.5 L 153.5 163 L 153.5 162 Z " /><path fill="rgb(0,0,0)" stroke="rgb(0,0,0)" stroke-width="1" opacity="0.3843137254901961" d="M 334.5 162 L 334 163.5 L 331.5 168 L 332 166.5 L 334.5 162 Z " /><path fill="rgb(0,0,0)" stroke="rgb(0,0,0)" stroke-width="1" opacity="0.3843137254901961" d="M 424.5 162 L 430 162.5 L 424.5 163 L 424.5 162 Z " /><path fill="rgb(0,0,0)" stroke="rgb(0,0,0)" stroke-width="1" opacity="0.3843137254901961" d="M 163.5 163 L 169 163.5 L 163.5 164 L 163.5 163 Z " /><path fill="rgb(0,0,0)" stroke="rgb(0,0,0)" stroke-width="1" opacity="0.3843137254901961" d="M 415.5 163 L 421 163.5 L 415.5 164 L 415.5 163 Z " /><path fill="rgb(0,0,0)" stroke="rgb(0,0,0)" stroke-width="1" opacity="0.3843137254901961" d="M 172.5 164 L 178 164.5 L 172.5 165 L 172.5 164 Z " /><path fill="rgb(0,0,0)" stroke="rgb(0,0,0)" stroke-width="1" opacity="0.3843137254901961" d="M 405.5 164 L 411 164.5 L 405.5 165 L 405.5 164 Z " /><path fill="rgb(0,0,0)" stroke="rgb(0,0,0)" stroke-width="1" opacity="0.3843137254901961" d="M 182.5 165 L 187 165.5 L 182.5 166 L 182.5 165 Z " /><path fill="rgb(0,0,0)" stroke="rgb(0,0,0)" stroke-width="1" opacity="0.3843137254901961" d="M 250.5 165 L 254 169.5 L 251 167.5 L 250.5 165 Z " /><path fill="rgb(0,0,0)" stroke="rgb(0,0,0)" stroke-width="1" opacity="0.3843137254901961" d="M 396.5 165 L 402 165.5 L 396.5 166 L 396.5 165 Z " /><path fill="rgb(0,0,0)" stroke="rgb(0,0,0)" stroke-width="1" opacity="0.3843137254901961" d="M 330.5 169 L 327.5 173 L 330.5 169 Z " /><path fill="rgb(0,0,0)" stroke="rgb(0,0,0)" stroke-width="1" opacity="0.3843137254901961" d="M 255.5 172 L 260.5 178 L 255.5 172 Z " /><path fill="rgb(0,0,0)" stroke="rgb(0,0,0)" stroke-width="1" opacity="0.3843137254901961" d="M 323.5 176 L 319.5 181 L 323.5 176 Z " /><path fill="rgb(0,0,0)" stroke="rgb(0,0,0)" stroke-width="1" opacity="0.3843137254901961" d="M 263.5 179 L 265.5 182 L 263.5 179 Z " /><path fill="rgb(0,0,0)" stroke="rgb(0,0,0)" stroke-width="1" opacity="0.3843137254901961" d="M 315.5 182 L 314.5 184 L 309.5 186 L 309.5 185 L 315.5 182 Z " /><path fill="rgb(0,0,0)" stroke="rgb(0,0,0)" stroke-width="1" opacity="0.3843137254901961" d="M 198.5 186 L 201 190.5 L 199 189.5 L 198.5 186 Z " /><path fill="rgb(0,0,0)" stroke="rgb(0,0,0)" stroke-width="1" opacity="0.3843137254901961" d="M 384.5 187 L 385 188.5 L 383 189.5 L 384.5 187 Z " /><path fill="rgb(0,0,0)" stroke="rgb(0,0,0)" stroke-width="1" opacity="0.3843137254901961" d="M 282.5 188 L 288 188.5 L 282.5 189 L 282.5 188 Z " /><path fill="rgb(0,0,0)" stroke="rgb(0,0,0)" stroke-width="1" opacity="0.3843137254901961" d="M 296.5 188 L 302 188.5 L 296.5 189 L 296.5 188 Z " /><path fill="rgb(0,0,0)" stroke="rgb(0,0,0)" stroke-width="1" opacity="0.3843137254901961" d="M 380.5 195 L 382.5 198 L 380.5 195 Z " /><path fill="rgb(0,0,0)" stroke="rgb(0,0,0)" stroke-width="1" opacity="0.3843137254901961" d="M 201.5 197 L 199.5 200 L 201.5 197 Z " /><path fill="rgb(0,0,0)" stroke="rgb(0,0,0)" stroke-width="1" opacity="0.3843137254901961" d="M 383.5 199 L 386.5 203 L 383.5 199 Z " /><path fill="rgb(0,0,0)" stroke="rgb(0,0,0)" stroke-width="1" opacity="0.3843137254901961" d="M 197.5 202 L 194.5 206 L 197.5 202 Z " /><path fill="rgb(0,0,0)" stroke="rgb(0,0,0)" stroke-width="1" opacity="0.3843137254901961" d="M 452.5 202 L 463 202.5 L 452.5 203 L 452.5 202 Z " /><path fill="rgb(0,0,0)" stroke="rgb(0,0,0)" stroke-width="1" opacity="0.3843137254901961" d="M 387.5 204 L 390.5 208 L 387.5 204 Z " /><path fill="rgb(0,0,0)" stroke="rgb(0,0,0)" stroke-width="1" opacity="0.3843137254901961" d="M 193.5 207 L 190.5 211 L 193.5 207 Z " /><path fill="rgb(0,0,0)" stroke="rgb(0,0,0)" stroke-width="1" opacity="0.3843137254901961" d="M 228.5 207 L 331 207.5 L 228.5 208 L 228.5 207 Z " /><path fill="rgb(0,0,0)" stroke="rgb(0,0,0)" stroke-width="1" opacity="0.3843137254901961" d="M 475.5 207 L 476.5 209 L 475.5 207 Z " /><path fill="rgb(0,0,0)" stroke="rgb(0,0,0)" stroke-width="1" opacity="0.3843137254901961" d="M 220.5 208 L 225 208.5 L 220.5 209 L 220.5 208 Z " /><path fill="rgb(0,0,0)" stroke="rgb(0,0,0)" stroke-width="1" opacity="0.3843137254901961" d="M 334.5 208 L 337 208.5 L 334.5 209 L 334.5 208 Z " /><path fill="rgb(0,0,0)" stroke="rgb(0,0,0)" stroke-width="1" opacity="0.3843137254901961" d="M 436.5 208 L 433.5 212 L 436.5 208 Z " /><path fill="rgb(0,0,0)" stroke="rgb(0,0,0)" stroke-width="1" opacity="0.3843137254901961" d="M 214.5 209 L 218 209.5 L 214.5 210 L 214.5 209 Z " /><path fill="rgb(0,0,0)" stroke="rgb(0,0,0)" stroke-width="1" opacity="0.3843137254901961" d="M 391.5 209 L 392 210.5 L 372.5 230 L 366 223.5 L 372.5 229 L 391 210.5 L 391.5 209 Z " /><path fill="rgb(0,0,0)" stroke="rgb(0,0,0)" stroke-width="1" opacity="0.3843137254901961" d="M 478.5 209 L 485.5 217 L 478.5 209 Z " /><path fill="rgb(0,0,0)" stroke="rgb(0,0,0)" stroke-width="1" opacity="0.3843137254901961" d="M 210.5 210 L 213 210.5 L 210.5 211 L 210.5 210 Z " /><path fill="rgb(0,0,0)" stroke="rgb(0,0,0)" stroke-width="1" opacity="0.3843137254901961" d="M 206.5 211 L 209 211.5 L 206.5 212 L 206.5 211 Z " /><path fill="rgb(0,0,0)" stroke="rgb(0,0,0)" stroke-width="1" opacity="0.3843137254901961" d="M 189.5 212 L 186.5 216 L 189.5 212 Z " /><path fill="rgb(0,0,0)" stroke="rgb(0,0,0)" stroke-width="1" opacity="0.3843137254901961" d="M 348.5 212 L 355 215.5 L 353.5 215 L 348.5 213 L 348.5 212 Z " /><path fill="rgb(0,0,0)" stroke="rgb(0,0,0)" stroke-width="1" opacity="0.3843137254901961" d="M 431.5 212 L 353.5 291 L 354 289.5 Q 353.3 287.3 355.5 288 L 355.5 286 L 356.5 287 L 431.5 212 Z " /><path fill="rgb(0,0,0)" stroke="rgb(0,0,0)" stroke-width="1" opacity="0.3843137254901961" d="M 358.5 217 L 359.5 219 L 358.5 217 Z " /><path fill="rgb(0,0,0)" stroke="rgb(0,0,0)" stroke-width="1" opacity="0.3843137254901961" d="M 184.5 218 L 187 219.5 L 182.5 222 L 182 220.5 L 184.5 218 Z " /><path fill="rgb(0,0,0)" stroke="rgb(0,0,0)" stroke-width="1" opacity="0.3843137254901961" d="M 361.5 219 L 363.5 222 L 361.5 219 Z " /><path fill="rgb(0,0,0)" stroke="rgb(0,0,0)" stroke-width="1" opacity="0.3843137254901961" d="M 487.5 220 L 490 224.5 L 489 224.5 L 487.5 220 Z " /><path fill="rgb(0,0,0)" stroke="rgb(0,0,0)" stroke-width="1" opacity="0.3843137254901961" d="M 491.5 229 L 492 233.5 L 491 233.5 L 491.5 229 Z " /><path fill="rgb(0,0,0)" stroke="rgb(0,0,0)" stroke-width="1" opacity="0.3843137254901961" d="M 229.5 237 L 328 237.5 L 229.5 238 L 229.5 237 Z " /><path fill="rgb(0,0,0)" stroke="rgb(0,0,0)" stroke-width="1" opacity="0.3843137254901961" d="M 223.5 238 L 227 238.5 L 223.5 239 L 223.5 238 Z " /><path fill="rgb(0,0,0)" stroke="rgb(0,0,0)" stroke-width="1" opacity="0.3843137254901961" d="M 218.5 239 L 221 239.5 L 218.5 240 L 218.5 239 Z " /><path fill="rgb(0,0,0)" stroke="rgb(0,0,0)" stroke-width="1" opacity="0.3843137254901961" d="M 214.5 240 L 217 240.5 L 214.5 241 L 214.5 240 Z " /><path fill="rgb(0,0,0)" stroke="rgb(0,0,0)" stroke-width="1" opacity="0.3843137254901961" d="M 491.5 240 L 492 244.5 L 491 244.5 L 491.5 240 Z " /><path fill="rgb(0,0,0)" stroke="rgb(0,0,0)" stroke-width="1" opacity="0.3843137254901961" d="M 343.5 243 L 347.5 248 L 343.5 243 Z " /><path fill="rgb(0,0,0)" stroke="rgb(0,0,0)" stroke-width="1" opacity="0.3843137254901961" d="M 196.5 247 L 198 247.5 L 195.5 249 L 196.5 247 Z " /><path fill="rgb(0,0,0)" stroke="rgb(0,0,0)" stroke-width="1" opacity="0.3843137254901961" d="M 349.5 249 L 351.5 252 L 349.5 249 Z " /><path fill="rgb(0,0,0)" stroke="rgb(0,0,0)" stroke-width="1" opacity="0.3843137254901961" d="M 191.5 250 L 190.5 252 L 191.5 250 Z " /><path fill="rgb(0,0,0)" stroke="rgb(0,0,0)" stroke-width="1" opacity="0.3843137254901961" d="M 188.5 252 L 187.5 254 L 188.5 252 Z " /><path fill="rgb(0,0,0)" stroke="rgb(0,0,0)" stroke-width="1" opacity="0.3843137254901961" d="M 352.5 253 L 353.5 255 L 352.5 253 Z " /><path fill="rgb(0,0,0)" stroke="rgb(0,0,0)" stroke-width="1" opacity="0.3843137254901961" d="M 185.5 254 L 183.5 257 L 185.5 254 Z " /><path fill="rgb(0,0,0)" stroke="rgb(0,0,0)" stroke-width="1" opacity="0.3843137254901961" d="M 486.5 256 L 484.5 259 L 486.5 256 Z " /><path fill="rgb(0,0,0)" stroke="rgb(0,0,0)" stroke-width="1" opacity="0.3843137254901961" d="M 181.5 257 L 176.5 263 L 181.5 257 Z " /><path fill="rgb(0,0,0)" stroke="rgb(0,0,0)" stroke-width="1" opacity="0.3843137254901961" d="M 356.5 260 L 357 262.5 L 356 262.5 L 356.5 260 Z " /><path fill="rgb(0,0,0)" stroke="rgb(0,0,0)" stroke-width="1" opacity="0.3843137254901961" d="M 483.5 260 L 373.5 371 L 483.5 260 Z " /><path fill="rgb(0,0,0)" stroke="rgb(0,0,0)" stroke-width="1" opacity="0.3843137254901961" d="M 358.5 270 L 359 275.5 L 358 275.5 L 358.5 270 Z " /><path fill="rgb(0,0,0)" stroke="rgb(0,0,0)" stroke-width="1" opacity="0.3843137254901961" d="M 357.5 279 L 358 281.5 L 357 281.5 L 357.5 279 Z " /><path fill="rgb(0,0,0)" stroke="rgb(0,0,0)" stroke-width="1" opacity="0.3843137254901961" d="M 109.5 329 L 186.5 407 L 109.5 329 Z " /><path fill="rgb(0,0,0)" stroke="rgb(0,0,0)" stroke-width="1" opacity="0.3843137254901961" d="M 75.5 339 L 193 455.5 L 137.5 512 L 20 395.5 L 75.5 339 Z M 76 340 L 21 396 L 138 511 L 192 456 L 76 340 Z " /><path fill="rgb(0,0,0)" stroke="rgb(0,0,0)" stroke-width="1" opacity="0.3843137254901961" d="M 369.5 373 L 368.5 375 L 369.5 373 Z " /><path fill="rgb(0,0,0)" stroke="rgb(0,0,0)" stroke-width="1" opacity="0.3843137254901961" d="M 365.5 376 L 364.5 378 L 365.5 376 Z " /><path fill="rgb(0,0,0)" stroke="rgb(0,0,0)" stroke-width="1" opacity="0.3843137254901961" d="M 362.5 378 L 361.5 380 L 362.5 378 Z " /><path fill="rgb(0,0,0)" stroke="rgb(0,0,0)" stroke-width="1" opacity="0.3843137254901961" d="M 357.5 381 L 356.5 383 L 357.5 381 Z " /><path fill="rgb(0,0,0)" stroke="rgb(0,0,0)" stroke-width="1" opacity="0.3843137254901961" d="M 351.5 384 L 353 384.5 L 347.5 387 L 347.5 386 L 351.5 384 Z " /><path fill="rgb(0,0,0)" stroke="rgb(0,0,0)" stroke-width="1" opacity="0.3843137254901961" d="M 334.5 390 L 337 390.5 L 334.5 391 L 334.5 390 Z " /><path fill="rgb(0,0,0)" stroke="rgb(0,0,0)" stroke-width="1" opacity="0.3843137254901961" d="M 330.5 391 L 333 391.5 L 330.5 392 L 330.5 391 Z " /><path fill="rgb(0,0,0)" stroke="rgb(0,0,0)" stroke-width="1" opacity="0.3843137254901961" d="M 324.5 392 L 328 392.5 L 324.5 393 L 324.5 392 Z " /><path fill="rgb(0,0,0)" stroke="rgb(0,0,0)" stroke-width="1" opacity="0.3843137254901961" d="M 201.5 393 L 319 393.5 L 201.5 394 L 188.5 407 L 201.5 393 Z " /><path fill="rgb(0,0,0)" stroke="rgb(0,0,0)" stroke-width="1" opacity="0.3843137254901961" d="M 149.5 453 L 152 453.5 L 149.5 454 L 149.5 453 Z " /><path fill="rgb(0,0,0)" stroke="rgb(0,0,0)" stroke-width="1" opacity="0.3843137254901961" d="M 153.5 454 L 154.5 456 L 153.5 454 Z " /><path fill="rgb(0,0,0)" stroke="rgb(0,0,0)" stroke-width="1" opacity="0.3843137254901961" d="M 139.5 455 L 136.5 459 L 139.5 455 Z " /><path fill="rgb(0,0,0)" stroke="rgb(0,0,0)" stroke-width="1" opacity="0.3843137254901961" d="M 157.5 458 L 158.5 460 L 157.5 458 Z " /><path fill="rgb(0,0,0)" stroke="rgb(0,0,0)" stroke-width="1" opacity="0.3843137254901961" d="M 160.5 463 L 161 468.5 L 160 468.5 L 160.5 463 Z " /><path fill="rgb(0,0,0)" stroke="rgb(0,0,0)" stroke-width="1" opacity="0.3843137254901961" d="M 159.5 470 L 160 471.5 L 158 472.5 L 159.5 470 Z " /><path fill="rgb(0,0,0)" stroke="rgb(0,0,0)" stroke-width="1" opacity="0.3843137254901961" d="M 135.5 472 L 136.5 474 L 135.5 472 Z " /><path fill="rgb(0,0,0)" stroke="rgb(0,0,0)" stroke-width="1" opacity="0.3843137254901961" d="M 157.5 474 L 155.5 477 L 157.5 474 Z " /><path fill="rgb(0,0,0)" stroke="rgb(0,0,0)" stroke-width="1" opacity="0.3843137254901961" d="M 139.5 476 L 143 478.5 L 141.5 479 L 139.5 476 Z " /><path fill="rgb(0,0,0)" stroke="rgb(0,0,0)" stroke-width="1" opacity="0.3843137254901961" d="M 153.5 477 L 152.5 479 L 153.5 477 Z " /><path fill="rgb(0,0,0)" stroke="rgb(0,0,0)" stroke-width="1" opacity="0.3843137254901961" d="M 144.5 479 L 150 479.5 L 144.5 480 L 144.5 479 Z " /><path fill="rgb(0,0,0)" stroke="rgb(0,0,0)" stroke-width="1" opacity="0" d="M 0 0 L 270.5 0 Q 271.5 0 271 4.5 L 270 5.5 L 270 14.5 L 269 15.5 L 267 41 L 254.5 44 L 237.5 52 L 205.5 27 L 177 56.5 L 202 86.5 L 202 89.5 Q 193.8 101 191 117 L 150 121 L 150 161.5 L 152.5 162 L 153.5 163 L 162.5 163 L 163.5 164 L 191 166 Q 194.1 183.1 203 195.5 L 182 221.5 L 183.5 221 L 205.5 212 L 225.5 208 L 333.5 208 Q 358.8 213.2 372.5 230 L 392 209.5 L 381 194.5 L 389 179.5 L 392 167.5 L 393.5 166 L 401.5 166 L 402.5 165 L 420.5 164 L 421.5 163 Q 429.5 163.7 434 162 L 434 121.5 L 430.5 121 L 429.5 120 L 393.5 117 L 392 115.5 L 389 103.5 L 381 87.5 L 406 55.5 L 376.5 27 L 346.5 52 L 344.5 52 Q 333 43.8 317 41 L 316 38.5 L 315 20.5 L 314 19.5 L 313 1.5 L 312 0.5 L 512 0 L 512 512 L 138.5 512 L 193 456.5 L 76.5 339 L 20 394.5 L 136 511.5 L 0 512 L 0 0 Z M 453 202 Q 439 204 432 212 L 355 288 L 358 282 Q 357 277 359 276 L 357 261 L 352 252 Q 344 240 328 237 L 230 237 L 206 243 Q 192 248 182 257 L 109 330 L 187 407 L 189 407 L 202 394 L 319 394 L 320 393 L 328 393 L 349 387 Q 363 381 374 371 L 484 261 L 492 245 L 492 230 L 486 217 Q 480 208 470 204 L 463 202 L 453 202 Z " /><path fill="rgb(0,0,0)" stroke="rgb(0,0,0)" stroke-width="1" opacity="0" d="M 288.5 94 Q 314.2 94.3 326 108.5 L 336 123.5 L 339 136.5 L 339 146.5 L 336 159.5 Q 331.8 169.3 324.5 176 Q 312.7 188.7 288.5 189 L 277.5 187 L 266.5 182 L 254 170.5 L 248 160.5 L 245 151.5 L 244 140.5 L 245 139.5 L 245 131.5 L 249 120.5 Q 254 110.5 262.5 104 L 274.5 97 L 288.5 94 Z " /><path fill="rgb(0,0,0)" stroke="rgb(0,0,0)" stroke-width="1" opacity="0" d="M 145.5 453 Q 153.8 452.8 157 457.5 Q 161.3 460.7 160 469.5 L 154.5 477 Q 151.6 480.6 143.5 479 L 137 474.5 Q 133.3 471.7 134 464.5 Q 135.5 458 140.5 455 L 145.5 453 Z " /><path fill="rgb(151,148,179)" stroke="rgb(151,148,179)" stroke-width="1" opacity="1" d="M 272 0 L 311.5 0 Q 312.8 0.3 312 6.5 L 313 7.5 L 313 16.5 L 314 17.5 L 316 41 Q 332.7 44.6 345.5 53 L 377.5 28 L 405 56.5 L 380 87.5 Q 388.6 100.2 392 117 L 395.5 118 L 404.5 118 L 405.5 119 L 433 121 L 433 161.5 L 432.5 162 L 424.5 162 L 423.5 163 L 405.5 164 L 404.5 165 Q 396.5 164.3 392 166 Q 388.6 182.9 380 195.5 L 391 208.5 L 391 210.5 L 372.5 229 L 365.5 222 L 349.5 212 L 330.5 207 L 227.5 207 L 206.5 211 L 185.5 219 L 186 217.5 L 203 196.5 L 203 194.5 L 196 181.5 L 192 167.5 L 190.5 166 L 151 162 L 151 121.5 L 151.5 121 L 159.5 121 L 169.5 119 L 187.5 118 L 192 115.5 L 194 106.5 L 203 87.5 L 178 55.5 L 206.5 28 L 238.5 53 Q 249.2 44.7 265.5 42 L 268 39.5 L 271 2.5 L 272 0 Z M 283 94 Q 270 97 262 104 Q 248 114 244 134 Q 242 146 245 154 L 254 172 Q 262 182 276 187 L 292 190 L 293 189 L 302 189 L 311 186 L 326 176 L 337 159 L 340 144 L 339 132 L 336 123 L 326 107 L 313 98 L 305 95 Q 296 92 283 94 Z " /><path fill="rgb(151,148,179)" stroke="rgb(151,148,179)" stroke-width="1" opacity="1" d="M 449.5 203 Q 461 201.5 468.5 204 Q 479.5 208.5 486 217.5 Q 492.2 225.3 492 239.5 L 490 249.5 L 484 259.5 L 371.5 372 Q 360.8 381.3 346.5 387 L 329.5 392 L 310.5 393 L 308.5 393 L 201.5 393 L 187.5 407 L 110 328.5 L 175.5 263 Q 187.6 251.1 204.5 244 L 227.5 238 L 330.5 238 Q 344.6 241.9 352 252.5 L 358 266.5 L 358 278.5 L 354 289.5 L 432.5 212 Q 439 205.5 449.5 203 Z " /><path fill="rgb(151,148,179)" stroke="rgb(151,148,179)" stroke-width="1" opacity="1" d="M 75.5 340 L 192 455.5 L 137.5 511 L 21 395.5 L 75.5 340 Z M 144 453 L 140 455 L 134 462 Q 132 472 137 476 L 145 480 Q 152 481 155 478 Q 159 475 161 469 L 161 464 L 157 456 L 152 453 L 144 453 Z " /></svg>