<svg width="500" height="500" version="1.1" xmlns="http://www.w3.org/2000/svg" desc="Created with imagetracer.js version 1.2.6" ><path fill="rgb(0,0,0)" stroke="rgb(0,0,0)" stroke-width="1" opacity="0" d="M 0 0 L 499.5 0 L 500 0.5 L 500 45.5 L 499 45.5 L 493.5 39 Q 485.5 35 471.5 37 L 470.5 38 L 409.5 40 L 408.5 41 L 386.5 41 Q 379.9 41.9 377 46.5 L 375 50.5 L 375 63.5 L 377 67.5 L 392.5 83 L 402 91.5 L 370.5 125 L 333 161.5 L 329.5 166 L 291 203.5 L 287.5 208 L 250 244.5 L 245.5 250 L 227.5 266 L 209 248.5 L 169.5 208 L 167 206.5 L 149.5 188 Q 144.7 182.8 136.5 181 L 125.5 181 L 114.5 186 L 84 215.5 L 50.5 250 L 42 257.5 L 8.5 292 L 3 296.5 L 0.5 302 L 0 0 Z " /><path fill="rgb(0,0,0)" stroke="rgb(0,0,0)" stroke-width="1" opacity="0" d="M 499.5 98 L 500 500 L 0 500 L 0 323.5 L 1 323.5 Q 2.5 330 7.5 333 L 20.5 342 L 36.5 343 Q 45.2 340.2 50.5 334 L 84 300.5 L 91.5 292 L 125 259.5 L 129.5 254 L 210.5 334 Q 218 341 234.5 339 L 248 332 L 248 330.5 L 288.5 290 Q 290.8 290.8 290 288.5 L 413.5 165 L 415 165 L 415 163.5 L 444.5 134 L 467.5 158 Q 471.5 163 480.5 163 Q 490.5 161 495 153.5 L 498 138.5 L 499.5 98 Z M 444 174 L 416 203 L 410 208 L 369 250 L 369 456 L 370 459 L 377 463 L 445 463 L 449 461 L 452 456 L 452 180 L 447 174 L 444 174 Z M 338 280 L 333 286 L 327 291 L 291 328 L 259 358 L 257 359 L 257 458 L 265 463 L 333 463 L 339 458 L 339 281 L 338 280 Z M 145 309 L 145 458 L 153 463 L 220 463 L 227 459 L 228 455 L 228 368 L 212 366 L 202 361 L 196 357 L 171 333 L 167 329 L 148 309 L 145 309 Z M 114 310 L 89 334 L 84 340 Q 73 354 58 364 L 41 371 Q 35 370 33 372 L 33 456 L 34 457 L 34 459 Q 37 458 36 461 L 42 463 L 109 463 L 113 461 L 116 456 L 116 311 L 114 310 Z " /><path fill="rgb(202,200,216)" stroke="rgb(202,200,216)" stroke-width="1" opacity="0.9137254901960784" d="M 378.5 117 L 377.5 119 L 378.5 117 Z " /><path fill="rgb(202,200,216)" stroke="rgb(202,200,216)" stroke-width="1" opacity="0.9137254901960784" d="M 368.5 127 L 367.5 129 L 368.5 127 Z " /><path fill="rgb(202,200,216)" stroke="rgb(202,200,216)" stroke-width="1" opacity="0.9137254901960784" d="M 442.5 134 L 437.5 140 L 442.5 134 Z " /><path fill="rgb(202,200,216)" stroke="rgb(202,200,216)" stroke-width="1" opacity="0.9137254901960784" d="M 430.5 146 L 426.5 151 L 430.5 146 Z " /><path fill="rgb(202,200,216)" stroke="rgb(202,200,216)" stroke-width="1" opacity="0.9137254901960784" d="M 336.5 159 L 335.5 161 L 336.5 159 Z " /><path fill="rgb(202,200,216)" stroke="rgb(202,200,216)" stroke-width="1" opacity="0.9137254901960784" d="M 327.5 168 L 326.5 170 L 327.5 168 Z " /><path fill="rgb(202,200,216)" stroke="rgb(202,200,216)" stroke-width="1" opacity="0.9137254901960784" d="M 400.5 176 L 396.5 181 L 400.5 176 Z " /><path fill="rgb(202,200,216)" stroke="rgb(202,200,216)" stroke-width="1" opacity="0.9137254901960784" d="M 114.5 187 L 105.5 197 L 114.5 187 Z " /><path fill="rgb(202,200,216)" stroke="rgb(202,200,216)" stroke-width="1" opacity="0.9137254901960784" d="M 388.5 188 L 384.5 193 L 388.5 188 Z " /><path fill="rgb(202,200,216)" stroke="rgb(202,200,216)" stroke-width="1" opacity="0.9137254901960784" d="M 160.5 200 L 161.5 202 L 160.5 200 Z " /><path fill="rgb(202,200,216)" stroke="rgb(202,200,216)" stroke-width="1" opacity="0.9137254901960784" d="M 294.5 201 L 293.5 203 L 294.5 201 Z " /><path fill="rgb(202,200,216)" stroke="rgb(202,200,216)" stroke-width="1" opacity="0.9137254901960784" d="M 417.5 201 L 409.5 210 L 417.5 201 Z " /><path fill="rgb(202,200,216)" stroke="rgb(202,200,216)" stroke-width="1" opacity="0.9137254901960784" d="M 285.5 210 L 284.5 212 L 285.5 210 Z " /><path fill="rgb(202,200,216)" stroke="rgb(202,200,216)" stroke-width="1" opacity="0.9137254901960784" d="M 173.5 213 L 174.5 215 L 173.5 213 Z " /><path fill="rgb(202,200,216)" stroke="rgb(202,200,216)" stroke-width="1" opacity="0.9137254901960784" d="M 359.5 217 L 355.5 222 L 359.5 217 Z " /><path fill="rgb(202,200,216)" stroke="rgb(202,200,216)" stroke-width="1" opacity="0.9137254901960784" d="M 70.5 231 L 64.5 238 L 70.5 231 Z " /><path fill="rgb(202,200,216)" stroke="rgb(202,200,216)" stroke-width="1" opacity="0.9137254901960784" d="M 345.5 231 L 342.5 235 L 345.5 231 Z " /><path fill="rgb(202,200,216)" stroke="rgb(202,200,216)" stroke-width="1" opacity="0.9137254901960784" d="M 202.5 242 L 203.5 244 L 202.5 242 Z " /><path fill="rgb(202,200,216)" stroke="rgb(202,200,216)" stroke-width="1" opacity="0.9137254901960784" d="M 253.5 242 L 252.5 244 L 253.5 242 Z " /><path fill="rgb(202,200,216)" stroke="rgb(202,200,216)" stroke-width="1" opacity="0.9137254901960784" d="M 375.5 243 L 370.5 249 L 375.5 243 Z " /><path fill="rgb(202,200,216)" stroke="rgb(202,200,216)" stroke-width="1" opacity="0.9137254901960784" d="M 369.5 250 L 370 323.5 L 369 323.5 L 369.5 250 Z " /><path fill="rgb(202,200,216)" stroke="rgb(202,200,216)" stroke-width="1" opacity="0.9137254901960784" d="M 243.5 252 L 242.5 254 L 243.5 252 Z " /><path fill="rgb(202,200,216)" stroke="rgb(202,200,216)" stroke-width="1" opacity="0.9137254901960784" d="M 215.5 255 L 216.5 257 L 215.5 255 Z " /><path fill="rgb(202,200,216)" stroke="rgb(202,200,216)" stroke-width="1" opacity="0.9137254901960784" d="M 134.5 256 L 137.5 260 L 134.5 256 Z " /><path fill="rgb(202,200,216)" stroke="rgb(202,200,216)" stroke-width="1" opacity="0.9137254901960784" d="M 318.5 258 L 314.5 263 L 318.5 258 Z " /><path fill="rgb(202,200,216)" stroke="rgb(202,200,216)" stroke-width="1" opacity="0.9137254901960784" d="M 304.5 272 L 300.5 277 L 304.5 272 Z " /><path fill="rgb(202,200,216)" stroke="rgb(202,200,216)" stroke-width="1" opacity="0.9137254901960784" d="M 28.5 273 L 23.5 279 L 28.5 273 Z " /><path fill="rgb(202,200,216)" stroke="rgb(202,200,216)" stroke-width="1" opacity="0.9137254901960784" d="M 156.5 278 L 158.5 281 L 156.5 278 Z " /><path fill="rgb(202,200,216)" stroke="rgb(202,200,216)" stroke-width="1" opacity="0.9137254901960784" d="M 333.5 285 L 327.5 292 L 333.5 285 Z " /><path fill="rgb(202,200,216)" stroke="rgb(202,200,216)" stroke-width="1" opacity="0.9137254901960784" d="M 177.5 299 L 179.5 302 L 177.5 299 Z " /><path fill="rgb(202,200,216)" stroke="rgb(202,200,216)" stroke-width="1" opacity="0.9137254901960784" d="M 276.5 300 L 272.5 305 L 276.5 300 Z " /><path fill="rgb(202,200,216)" stroke="rgb(202,200,216)" stroke-width="1" opacity="0.9137254901960784" d="M 338.5 306 L 339 446.5 L 338 446.5 L 338.5 306 Z " /><path fill="rgb(202,200,216)" stroke="rgb(202,200,216)" stroke-width="1" opacity="0.9137254901960784" d="M 113.5 311 L 101.5 324 L 113.5 311 Z " /><path fill="rgb(202,200,216)" stroke="rgb(202,200,216)" stroke-width="1" opacity="0.9137254901960784" d="M 262.5 314 L 258.5 319 L 262.5 314 Z " /><path fill="rgb(202,200,216)" stroke="rgb(202,200,216)" stroke-width="1" opacity="0.9137254901960784" d="M 199.5 321 L 201.5 324 L 199.5 321 Z " /><path fill="rgb(202,200,216)" stroke="rgb(202,200,216)" stroke-width="1" opacity="0.9137254901960784" d="M 163.5 326 L 164.5 328 L 163.5 326 Z " /><path fill="rgb(202,200,216)" stroke="rgb(202,200,216)" stroke-width="1" opacity="0.9137254901960784" d="M 292.5 326 L 285.5 334 L 292.5 326 Z " /><path fill="rgb(202,200,216)" stroke="rgb(202,200,216)" stroke-width="1" opacity="0.9137254901960784" d="M 172.5 335 L 173.5 337 L 172.5 335 Z " /><path fill="rgb(202,200,216)" stroke="rgb(202,200,216)" stroke-width="1" opacity="0.9137254901960784" d="M 73.5 351 L 66.5 359 L 73.5 351 Z " /><path fill="rgb(202,200,216)" stroke="rgb(202,200,216)" stroke-width="1" opacity="0.9137254901960784" d="M 63.5 360 L 61.5 363 L 63.5 360 Z " /><path fill="rgb(202,200,216)" stroke="rgb(202,200,216)" stroke-width="1" opacity="0.9137254901960784" d="M 59.5 363 L 58.5 365 L 59.5 363 Z " /><path fill="rgb(202,200,216)" stroke="rgb(202,200,216)" stroke-width="1" opacity="0.9137254901960784" d="M 221.5 368 L 225 368.5 L 221.5 369 L 221.5 368 Z " /><path fill="rgb(202,200,216)" stroke="rgb(202,200,216)" stroke-width="1" opacity="0.9137254901960784" d="M 369.5 428 L 370 443.5 L 369 443.5 L 369.5 428 Z " /><path fill="rgb(202,200,216)" stroke="rgb(202,200,216)" stroke-width="1" opacity="0.9137254901960784" d="M 369.5 445 L 370 453.5 L 369 453.5 L 369.5 445 Z " /><path fill="rgb(202,200,216)" stroke="rgb(202,200,216)" stroke-width="1" opacity="0.9137254901960784" d="M 338.5 454 L 339 456.5 L 338 456.5 L 338.5 454 Z " /><path fill="rgb(202,200,216)" stroke="rgb(202,200,216)" stroke-width="1" opacity="0.9137254901960784" d="M 337.5 458 L 335.5 461 L 337.5 458 Z " /><path fill="rgb(253,253,253)" stroke="rgb(253,253,253)" stroke-width="1" opacity="0.38823529411764707" d="M 493.5 39 Q 498.6 41.4 500 47.5 L 499 47.5 L 493.5 39 Z " /><path fill="rgb(253,253,253)" stroke="rgb(253,253,253)" stroke-width="1" opacity="0.38823529411764707" d="M 386.5 41 L 392 41.5 Q 382 41.5 378 47.5 L 375.5 53 L 375 50.5 L 379.5 44 L 386.5 41 Z " /><path fill="rgb(253,253,253)" stroke="rgb(253,253,253)" stroke-width="1" opacity="0.38823529411764707" d="M 375.5 61 L 378 66.5 L 404 92.5 L 375.5 120 L 402 92.5 L 393.5 83 L 377 67.5 Q 374 65 375.5 61 Z " /><path fill="rgb(253,253,253)" stroke="rgb(253,253,253)" stroke-width="1" opacity="0.38823529411764707" d="M 499.5 76 L 500 97.5 L 499 98.5 L 499 118.5 L 498 119.5 L 497 147.5 Q 495.4 156.4 488.5 160 Q 484.5 163 477.5 163 L 471.5 161 L 458 148.5 L 444.5 134 L 415 163.5 L 415 165 L 413.5 165 L 290 288.5 Q 290.8 290.8 288.5 290 L 248 330.5 L 248 332 L 243.5 335 L 263 314.5 L 271.5 305 L 305 272.5 L 313.5 263 L 346 231.5 L 354.5 222 L 389 188.5 L 395.5 181 L 431 146.5 L 436.5 140 L 444.5 133 L 468.5 157 Q 472.1 161.4 479.5 162 Q 489.5 160 494 152.5 L 497 137.5 L 497 118.5 L 498 117.5 L 499.5 76 Z " /><path fill="rgb(253,253,253)" stroke="rgb(253,253,253)" stroke-width="1" opacity="0.38823529411764707" d="M 369.5 125 L 367 128.5 L 337.5 159 L 333.5 162 L 369.5 125 Z " /><path fill="rgb(253,253,253)" stroke="rgb(253,253,253)" stroke-width="1" opacity="0.38823529411764707" d="M 328.5 166 L 326 169.5 L 295.5 201 L 291.5 204 L 328.5 166 Z " /><path fill="rgb(253,253,253)" stroke="rgb(253,253,253)" stroke-width="1" opacity="0.38823529411764707" d="M 443.5 174 L 446.5 174 L 452 179.5 L 452 455.5 L 448.5 461 L 449 459.5 L 451 454.5 L 451 180.5 L 444.5 175 L 416.5 202 L 443.5 174 Z " /><path fill="rgb(253,253,253)" stroke="rgb(253,253,253)" stroke-width="1" opacity="0.38823529411764707" d="M 125.5 181 Q 136.4 179.6 142.5 183 Q 156.7 192.3 167 205.5 L 160.5 200 L 141.5 184 Q 135.8 180.8 125.5 182 L 114.5 187 L 4 297.5 L 0.5 306 L 0 302.5 Q 2.3 295.8 7.5 292 L 42 258.5 L 49.5 250 L 84 216.5 L 90.5 209 L 114.5 186 L 125.5 181 Z " /><path fill="rgb(253,253,253)" stroke="rgb(253,253,253)" stroke-width="1" opacity="0.38823529411764707" d="M 169.5 208 L 208.5 248 L 175 215.5 L 169.5 208 Z " /><path fill="rgb(253,253,253)" stroke="rgb(253,253,253)" stroke-width="1" opacity="0.38823529411764707" d="M 286.5 208 L 284 211.5 L 254.5 242 L 250.5 245 L 286.5 208 Z " /><path fill="rgb(253,253,253)" stroke="rgb(253,253,253)" stroke-width="1" opacity="0.38823529411764707" d="M 409.5 208 L 409 209.5 L 376.5 243 L 375 242.5 L 409.5 208 Z " /><path fill="rgb(253,253,253)" stroke="rgb(253,253,253)" stroke-width="1" opacity="0.38823529411764707" d="M 211.5 250 L 228.5 266 L 245 250.5 L 228.5 268 L 217 257.5 L 211.5 250 Z " /><path fill="rgb(253,253,253)" stroke="rgb(253,253,253)" stroke-width="1" opacity="0.38823529411764707" d="M 129.5 253 L 156 277.5 L 179.5 302 L 199 320.5 L 210.5 333 L 214 335.5 L 211.5 334 L 129.5 254 L 92.5 292 L 84 299.5 L 50.5 334 L 44.5 339 L 129.5 253 Z " /><path fill="rgb(253,253,253)" stroke="rgb(253,253,253)" stroke-width="1" opacity="0.38823529411764707" d="M 337.5 280 L 339 280.5 L 333.5 285 L 337.5 280 Z " /><path fill="rgb(253,253,253)" stroke="rgb(253,253,253)" stroke-width="1" opacity="0.38823529411764707" d="M 326.5 291 L 327 292.5 L 291.5 327 L 326.5 291 Z " /><path fill="rgb(253,253,253)" stroke="rgb(253,253,253)" stroke-width="1" opacity="0.38823529411764707" d="M 145 309 L 147.5 309 L 167 328.5 L 163.5 326 L 146.5 310 L 146 456.5 L 149 460.5 L 145 457.5 L 145 309 Z " /><path fill="rgb(253,253,253)" stroke="rgb(253,253,253)" stroke-width="1" opacity="0.38823529411764707" d="M 113.5 310 L 116 310.5 L 116 455.5 L 112.5 461 L 113 459.5 L 115 454.5 L 115 311 L 113.5 311 L 64.5 360 L 50.5 368 L 50.5 367 Q 71.1 357.1 84 339.5 L 88.5 334 L 113.5 310 Z " /><path fill="rgb(253,253,253)" stroke="rgb(253,253,253)" stroke-width="1" opacity="0.38823529411764707" d="M 0.5 319 Q 3.9 331.6 14 337.5 L 8.5 333 L 3 328.5 L 0 322.5 L 0.5 319 Z " /><path fill="rgb(253,253,253)" stroke="rgb(253,253,253)" stroke-width="1" opacity="0.38823529411764707" d="M 369.5 324 L 370 427.5 L 369 427.5 L 369.5 324 Z " /><path fill="rgb(253,253,253)" stroke="rgb(253,253,253)" stroke-width="1" opacity="0.38823529411764707" d="M 171.5 333 L 195.5 357 L 211.5 366 L 221 367.5 L 215.5 368 Q 203.2 364.8 194.5 358 L 174 337.5 L 171.5 333 Z " /><path fill="rgb(253,253,253)" stroke="rgb(253,253,253)" stroke-width="1" opacity="0.38823529411764707" d="M 284.5 333 L 285 334.5 L 263.5 356 L 258 359 L 258 457.5 L 262 461.5 L 257 457.5 L 257 358.5 L 258.5 358 L 284.5 333 Z " /><path fill="rgb(253,253,253)" stroke="rgb(253,253,253)" stroke-width="1" opacity="0.38823529411764707" d="M 15.5 338 L 16.5 340 L 15.5 338 Z " /><path fill="rgb(253,253,253)" stroke="rgb(253,253,253)" stroke-width="1" opacity="0.38823529411764707" d="M 42.5 339 L 41.5 341 Q 35.7 344.7 24.5 343 L 18 340.5 L 19.5 340 Q 24.9 343.6 35.5 342 L 42.5 339 Z " /><path fill="rgb(253,253,253)" stroke="rgb(253,253,253)" stroke-width="1" opacity="0.38823529411764707" d="M 225.5 368 L 228 368.5 L 228 454.5 L 227 459 L 222.5 462 L 226 457.5 L 227 453.5 L 227 369 L 225.5 368 Z " /><path fill="rgb(253,253,253)" stroke="rgb(253,253,253)" stroke-width="1" opacity="0.38823529411764707" d="M 33.5 372 L 34 455.5 L 35 458.5 L 34 458.5 L 33 455.5 L 33.5 372 Z " /><path fill="rgb(151,148,179)" stroke="rgb(151,148,179)" stroke-width="1" opacity="1" d="M 472.5 37 Q 483.4 35.6 490.5 38 L 498 44.5 L 500 48.5 L 500 75.5 L 499 76.5 L 499 96.5 L 498 97.5 L 498 117.5 L 497 118.5 L 496 146.5 Q 494.4 155.4 487.5 159 L 478.5 162 L 468.5 157 L 444.5 133 L 426 150.5 L 401.5 176 L 384 192.5 L 360.5 217 L 342 234.5 L 319.5 258 L 300 276.5 L 277.5 300 L 258 318.5 L 242.5 335 L 232.5 339 L 223.5 339 L 219.5 337 L 217.5 337 Q 207.8 332.7 202 324.5 L 177.5 299 L 159 281.5 L 134.5 256 L 129.5 253 L 43.5 339 L 35.5 342 L 24.5 342 Q 10.5 338.5 4 327.5 Q -1.8 320.8 0 306.5 L 4 297.5 L 22.5 279 L 29 273.5 L 63.5 238 L 71 231.5 L 104.5 197 L 117.5 185 L 121.5 183 L 135.5 182 Q 143.7 183.8 148.5 189 L 173 212.5 L 203.5 244 L 215 254.5 L 227.5 268 L 244 252.5 L 251.5 244 L 286 210.5 L 292.5 203 L 328 168.5 L 334.5 161 L 369 127.5 L 376.5 119 L 404 92.5 L 378 66.5 L 375 60.5 L 375 53.5 L 380.5 45 L 383.5 43 L 392.5 41 L 451.5 39 L 452.5 38 L 471.5 38 L 472.5 37 Z " /><path fill="rgb(151,148,179)" stroke="rgb(151,148,179)" stroke-width="1" opacity="1" d="M 444.5 175 L 451 180.5 L 451 454.5 L 447.5 461 L 443.5 463 L 377.5 463 L 372 461 L 370 456.5 L 370 249.5 L 390.5 229 L 392 229 L 392 227.5 L 444.5 175 Z " /><path fill="rgb(151,148,179)" stroke="rgb(151,148,179)" stroke-width="1" opacity="1" d="M 337.5 282 L 339 282.5 L 339 305.5 L 338 306.5 L 338 446.5 Q 340.5 448 339 453.5 L 338 457.5 L 333.5 462 L 330.5 463 L 265.5 463 L 258 457.5 L 258 359.5 L 259.5 359 L 337.5 282 Z " /><path fill="rgb(151,148,179)" stroke="rgb(151,148,179)" stroke-width="1" opacity="1" d="M 146.5 310 L 172 334.5 L 195.5 359 L 211.5 367 L 227 369 L 227 453.5 L 226 457.5 L 221.5 462 L 218.5 463 L 153.5 463 L 148 459.5 L 146 456.5 L 146.5 310 Z " /><path fill="rgb(151,148,179)" stroke="rgb(151,148,179)" stroke-width="1" opacity="1" d="M 114.5 311 L 115 454.5 L 111.5 461 L 107.5 463 L 41.5 463 L 36 459.5 L 34 454.5 L 34 372 L 46.5 370 L 58.5 365 L 74 351.5 L 100.5 324 L 114.5 311 Z " /></svg>