<svg width="500" height="500" version="1.1" xmlns="http://www.w3.org/2000/svg" desc="Created with imagetracer.js version 1.2.6" ><path fill="rgb(0,0,0)" stroke="rgb(0,0,0)" stroke-width="1" opacity="0" d="M 0 0 L 500 0 L 500 500 L 0 500 L 0 0 Z M 105 74 L 103 76 L 103 109 L 85 109 L 85 111 L 82 110 L 81 113 L 79 112 L 74 119 L 74 157 L 75 157 L 368 157 L 368 120 L 367 118 L 366 118 L 366 117 L 364 114 Q 365 111 363 112 L 363 114 L 361 110 L 357 111 L 357 109 L 338 109 L 338 74 L 315 74 L 313 76 L 313 109 L 276 109 L 276 77 L 275 76 L 275 74 L 252 74 L 250 76 L 250 109 L 202 109 L 202 74 L 177 74 L 177 109 L 129 109 L 129 76 L 128 74 L 105 74 Z M 76 179 L 74 181 L 74 359 L 77 360 L 76 363 L 81 366 L 83 365 L 83 367 L 85 366 L 85 368 L 241 368 L 242 367 L 240 351 L 239 354 L 238 354 L 241 323 L 245 309 L 250 299 L 249 296 L 252 295 L 251 292 L 253 292 L 256 287 L 254 287 Q 255 284 257 286 L 260 281 L 260 279 L 263 278 L 262 276 Q 264 271 266 274 Q 268 273 266 272 L 268 272 L 272 268 L 271 267 L 273 267 L 276 262 L 278 263 L 281 258 L 281 260 L 303 247 L 321 242 L 320 241 L 322 241 L 335 240 L 334 239 L 334 238 L 336 239 L 351 239 L 352 238 L 354 239 L 351 240 L 359 241 Q 364 243 366 240 L 365 242 L 367 242 L 368 241 L 368 181 L 367 179 L 76 179 Z M 333 261 L 328 262 L 328 264 L 327 263 L 317 265 L 317 267 L 316 266 L 312 267 L 312 269 L 311 268 L 303 272 Q 299 271 300 274 L 302 274 Q 301 276 300 274 L 297 275 Q 294 276 296 278 Q 295 280 294 278 L 292 279 L 288 285 L 289 283 L 288 282 L 283 288 L 285 288 Q 283 292 282 289 L 279 293 L 279 295 L 276 296 L 277 298 L 274 299 L 275 301 Q 274 303 273 301 Q 266 310 263 323 L 264 328 L 263 327 L 261 334 L 261 353 Q 263 354 262 359 L 264 359 L 263 361 L 263 365 L 266 374 L 274 389 L 278 391 L 276 391 L 283 401 L 302 415 L 317 422 L 321 422 L 324 424 Q 328 423 330 425 L 335 424 L 336 425 L 335 425 L 335 426 L 353 426 Q 356 423 364 424 L 367 422 L 371 422 Q 373 421 371 420 L 373 420 L 381 417 L 380 416 L 382 416 L 387 414 L 388 411 L 390 412 Q 393 410 392 408 L 394 409 L 400 401 L 399 403 L 401 403 L 405 398 L 403 398 Q 404 395 406 397 L 414 386 L 412 386 Q 413 383 415 385 L 420 375 L 419 372 L 421 372 L 424 364 Q 423 358 425 357 L 424 352 L 426 352 L 426 335 L 423 322 L 422 322 L 422 321 L 421 316 L 420 316 L 420 315 L 420 312 L 411 296 Q 409 291 406 293 L 407 291 L 395 279 L 393 279 L 393 278 Q 381 267 364 263 L 359 264 L 359 263 L 354 261 L 333 261 Z M 276 263 L 274 265 L 276 265 L 276 263 Z M 265 274 L 263 276 L 265 276 L 265 274 Z M 399 403 L 397 405 L 399 405 L 399 403 Z " /><path fill="rgb(0,0,0)" stroke="rgb(0,0,0)" stroke-width="1" opacity="0" d="M 252.5 75 L 252 76.5 L 251.5 78 L 251 76.5 L 252.5 75 Z " /><path fill="rgb(0,0,0)" stroke="rgb(0,0,0)" stroke-width="1" opacity="0" d="M 251.5 79 L 252 109.5 L 251 109.5 L 251.5 79 Z " /><path fill="rgb(0,0,0)" stroke="rgb(0,0,0)" stroke-width="1" opacity="0" d="M 200.5 83 L 201 86.5 L 200 86.5 L 200.5 83 Z " /><path fill="rgb(0,0,0)" stroke="rgb(0,0,0)" stroke-width="1" opacity="0" d="M 200.5 107 L 201 109.5 L 200 109.5 L 200.5 107 Z " /><path fill="rgb(0,0,0)" stroke="rgb(0,0,0)" stroke-width="1" opacity="0" d="M 128.5 180 L 136 180.5 L 128.5 181 L 128.5 180 Z " /><path fill="rgb(0,0,0)" stroke="rgb(0,0,0)" stroke-width="1" opacity="0" d="M 109.5 204 L 110 225.5 L 109 225.5 L 109.5 204 Z " /><path fill="rgb(0,0,0)" stroke="rgb(0,0,0)" stroke-width="1" opacity="0" d="M 111 204 L 144 204 L 144 226 L 137.5 227 L 133.5 225 L 111 225 L 111 204 Z " /><path fill="rgb(0,0,0)" stroke="rgb(0,0,0)" stroke-width="1" opacity="0" d="M 181 204 L 214 204 L 214 227 L 207.5 226 L 205.5 226 L 203.5 227 L 203 225 L 181 225 L 181 204 Z " /><path fill="rgb(0,0,0)" stroke="rgb(0,0,0)" stroke-width="1" opacity="0" d="M 251 204 L 284 204 L 284 226 L 267.5 226 L 265.5 227 L 264.5 226 L 251 226 L 251 204 Z " /><path fill="rgb(0,0,0)" stroke="rgb(0,0,0)" stroke-width="1" opacity="0" d="M 215.5 205 L 216 207.5 L 215 207.5 L 215.5 205 Z " /><path fill="rgb(0,0,0)" stroke="rgb(0,0,0)" stroke-width="1" opacity="0" d="M 249.5 223 L 250 225.5 L 249 225.5 L 249.5 223 Z " /><path fill="rgb(0,0,0)" stroke="rgb(0,0,0)" stroke-width="1" opacity="0" d="M 210.5 249 Q 215 248 216 250.5 L 214.5 250 Q 209.5 251 210.5 249 Z " /><path fill="rgb(0,0,0)" stroke="rgb(0,0,0)" stroke-width="1" opacity="0" d="M 109.5 250 L 110 272.5 L 109 272.5 L 109.5 250 Z " /><path fill="rgb(0,0,0)" stroke="rgb(0,0,0)" stroke-width="1" opacity="0" d="M 111 251 L 144 251 L 144 272 L 111 272 L 111 251 Z " /><path fill="rgb(0,0,0)" stroke="rgb(0,0,0)" stroke-width="1" opacity="0" d="M 181 251 L 214 251 L 214 272 L 181.5 272 L 181 271.5 L 181 262.5 L 181 260.5 L 181 251 Z " /><path fill="rgb(0,0,0)" stroke="rgb(0,0,0)" stroke-width="1" opacity="0" d="M 347.5 262 L 350 262.5 L 347.5 263 L 347.5 262 Z " /><path fill="rgb(0,0,0)" stroke="rgb(0,0,0)" stroke-width="1" opacity="0" d="M 111 297 L 144 297 L 144 319 L 111 319 L 111 297 Z " /><path fill="rgb(0,0,0)" stroke="rgb(0,0,0)" stroke-width="1" opacity="0" d="M 181 297 L 214 297 L 214 319 L 181 319 L 181 297 Z " /><path fill="rgb(0,0,0)" stroke="rgb(0,0,0)" stroke-width="1" opacity="0" d="M 215.5 297 L 216 299.5 L 215 299.5 L 215.5 297 Z " /><path fill="rgb(0,0,0)" stroke="rgb(0,0,0)" stroke-width="1" opacity="0" d="M 109.5 300 L 110 307.5 L 109 307.5 L 109.5 300 Z " /><path fill="rgb(0,0,0)" stroke="rgb(0,0,0)" stroke-width="1" opacity="0" d="M 109.5 309 L 110 312.5 L 109 312.5 L 109.5 309 Z " /><path fill="rgb(0,0,0)" stroke="rgb(0,0,0)" stroke-width="1" opacity="0" d="M 332 309 L 354 309 L 354 338.5 Q 355.3 341.3 356.5 339 L 366 348.5 Q 363.5 350 367 351.5 Q 366.3 353.8 368.5 353 L 368.5 351 L 374 356.5 Q 371.8 357.7 374.5 359 Q 376.2 356.3 378 360.5 Q 375.8 361.8 378.5 363 L 379.5 362 L 383 365.5 L 366.5 382 L 361 378.5 Q 363.3 377.3 360.5 376 Q 359.3 378.3 358 375.5 Q 360.8 373.7 356.5 372 Q 355.3 374.3 354 371.5 Q 356.3 370.2 353.5 369 Q 352.3 371.3 351 368.5 L 352 367.5 L 348.5 364 Q 347.3 366.3 346 363.5 Q 348.3 362.3 345.5 361 Q 343.8 363.7 342 359.5 Q 344.3 358.3 341.5 357 Q 340.3 359.3 339 356.5 Q 341.8 354.7 337.5 353 L 336.5 354 L 333 350.5 L 334 348.5 L 332.5 346 L 331 346.5 L 332 344.5 L 332 309 Z M 370 353 Q 368 356 371 355 L 370 353 Z " /><path fill="rgb(0,0,0)" stroke="rgb(0,0,0)" stroke-width="1" opacity="0" d="M 355.5 310 L 356 316.5 L 355 316.5 L 355.5 310 Z " /><path fill="rgb(0,0,0)" stroke="rgb(0,0,0)" stroke-width="1" opacity="0" d="M 109.5 317 L 110 319.5 L 109 319.5 L 109.5 317 Z " /><path fill="rgb(0,0,0)" stroke="rgb(0,0,0)" stroke-width="1" opacity="0" d="M 112.5 320 L 144 320.5 L 112.5 321 L 112.5 320 Z " /><path fill="rgb(0,0,0)" stroke="rgb(0,0,0)" stroke-width="1" opacity="0" d="M 181.5 320 L 214 320.5 L 181.5 321 L 181.5 320 Z " /><path fill="rgb(0,0,0)" stroke="rgb(0,0,0)" stroke-width="1" opacity="0" d="M 355.5 321 L 356 336.5 L 355 336.5 L 355.5 321 Z " /><path fill="rgb(0,0,0)" stroke="rgb(0,0,0)" stroke-width="1" opacity="0" d="M 424.5 337 L 425 348.5 L 424 348.5 L 424.5 337 Z " /><path fill="rgb(0,0,0)" stroke="rgb(0,0,0)" stroke-width="1" opacity="0" d="M 75.5 355 L 76 357.5 L 75 357.5 L 75.5 355 Z " /><path fill="rgb(0,0,0)" stroke="rgb(0,0,0)" stroke-width="1" opacity="0" d="M 78.5 362 L 79.5 364 L 78.5 362 Z " /><path fill="rgb(0,0,0)" stroke="rgb(0,0,0)" stroke-width="1" opacity="0" d="M 136.5 366 L 146 366.5 L 136.5 367 L 136.5 366 Z " /><path fill="rgb(0,0,0)" stroke="rgb(0,0,0)" stroke-width="1" opacity="0" d="M 147.5 366 L 192 366.5 L 147.5 367 L 147.5 366 Z " /><path fill="rgb(0,0,0)" stroke="rgb(0,0,0)" stroke-width="1" opacity="0" d="M 337.5 424 L 342 424.5 L 337.5 425 L 337.5 424 Z " /><path fill="rgb(0,0,0)" stroke="rgb(0,0,0)" stroke-width="1" opacity="0" d="M 345.5 424 L 351 424.5 L 345.5 425 L 345.5 424 Z " /><path fill="rgb(62,62,64)" stroke="rgb(62,62,64)" stroke-width="1" opacity="0.4549019607843137" d="M 106.5 74 L 121.5 74 L 128 75 L 128 108.5 L 129 109.5 L 127 110 L 127 76.5 Q 126.8 75.3 120.5 76 Q 119 73.5 113.5 75 L 112.5 76 L 105 76 L 105 109.5 L 103.5 110 L 104 108.5 L 104 75.5 L 105.5 75 L 106.5 74 Z " /><path fill="rgb(62,62,64)" stroke="rgb(62,62,64)" stroke-width="1" opacity="0.4549019607843137" d="M 179.5 74 L 181.5 74 Q 194.9 72.4 202 76 L 201.5 110 L 200 106.5 L 200 87.5 L 201 83.5 L 200 82.5 L 200 76 L 180.5 76 L 179.5 74 Z " /><path fill="rgb(62,62,64)" stroke="rgb(62,62,64)" stroke-width="1" opacity="0.4549019607843137" d="M 260.5 74 Q 268.5 73 273 75.5 L 253.5 76 L 253.5 75 Q 259 76.5 260.5 74 Z " /><path fill="rgb(62,62,64)" stroke="rgb(62,62,64)" stroke-width="1" opacity="0.4549019607843137" d="M 321.5 74 Q 330.5 72.5 335 75.5 L 316.5 76 L 316.5 75 L 321.5 74 Z " /><path fill="rgb(62,62,64)" stroke="rgb(62,62,64)" stroke-width="1" opacity="0.4549019607843137" d="M 177.5 75 L 178 109.5 L 177 109.5 L 177.5 75 Z " /><path fill="rgb(62,62,64)" stroke="rgb(62,62,64)" stroke-width="1" opacity="0.4549019607843137" d="M 314.5 75 L 315 109.5 L 314 109.5 L 314.5 75 Z " /><path fill="rgb(62,62,64)" stroke="rgb(62,62,64)" stroke-width="1" opacity="0.4549019607843137" d="M 337.5 75 L 338 109.5 L 337 109.5 L 337.5 75 Z " /><path fill="rgb(62,62,64)" stroke="rgb(62,62,64)" stroke-width="1" opacity="0.4549019607843137" d="M 274.5 78 L 275 109.5 L 274 109.5 L 274.5 78 Z " /><path fill="rgb(62,62,64)" stroke="rgb(62,62,64)" stroke-width="1" opacity="0.4549019607843137" d="M 82.5 110 L 84 110.5 L 77 115.5 L 75.5 119 L 76 117.5 L 76 115.5 L 80.5 111 L 82.5 110 Z " /><path fill="rgb(62,62,64)" stroke="rgb(62,62,64)" stroke-width="1" opacity="0.4549019607843137" d="M 362.5 112 L 366 116.5 L 363 114.5 L 362.5 112 Z " /><path fill="rgb(62,62,64)" stroke="rgb(62,62,64)" stroke-width="1" opacity="0.4549019607843137" d="M 366.5 118 L 367 157 L 75.5 157 L 74 155.5 L 74 123.5 L 75.5 121 L 76 123.5 L 75 124.5 L 75 138.5 L 76 140.5 L 75 141.5 L 75 156 L 365.5 156 L 366 155.5 L 366.5 118 Z " /><path fill="rgb(62,62,64)" stroke="rgb(62,62,64)" stroke-width="1" opacity="0.4549019607843137" d="M 75.5 180 L 77 180.5 L 75 181 L 75 212.5 L 76 213.5 L 76 354.5 L 74 353.5 L 74 181.5 L 75.5 180 Z " /><path fill="rgb(62,62,64)" stroke="rgb(62,62,64)" stroke-width="1" opacity="0.4549019607843137" d="M 78.5 180 L 128 180.5 L 78.5 181 L 78.5 180 Z " /><path fill="rgb(62,62,64)" stroke="rgb(62,62,64)" stroke-width="1" opacity="0.4549019607843137" d="M 136.5 180 L 362 180.5 L 136.5 181 L 136.5 180 Z " /><path fill="rgb(62,62,64)" stroke="rgb(62,62,64)" stroke-width="1" opacity="0.4549019607843137" d="M 364.5 180 L 367 180.5 L 367 240.5 L 366 240.5 L 366 181.5 L 364.5 181 L 364.5 180 Z " /><path fill="rgb(62,62,64)" stroke="rgb(62,62,64)" stroke-width="1" opacity="0.4549019607843137" d="M 110.5 203 L 144.5 203 L 146 204.5 L 146 225.5 L 144.5 227 L 141 226.5 L 145 226 L 145 204 L 110.5 204 L 110.5 203 Z " /><path fill="rgb(62,62,64)" stroke="rgb(62,62,64)" stroke-width="1" opacity="0.4549019607843137" d="M 180.5 203 L 214.5 203 L 216 204.5 L 214.5 204 L 180.5 204 Q 179.3 204.3 180 210.5 L 181 211.5 L 181 223.5 L 180 226 L 203 226.5 L 180.5 227 L 179 224.5 L 180 223.5 L 180 214.5 L 179 213.5 L 179 204.5 L 180.5 203 Z " /><path fill="rgb(62,62,64)" stroke="rgb(62,62,64)" stroke-width="1" opacity="0.4549019607843137" d="M 250.5 203 L 284.5 203 L 286 204.5 L 286 225.5 L 283.5 228 L 281 226.5 L 282.5 226 Q 283.8 228.3 285 225.5 L 285 204 L 250 204 L 249.5 223 L 249 204.5 L 250.5 203 Z " /><path fill="rgb(62,62,64)" stroke="rgb(62,62,64)" stroke-width="1" opacity="0.4549019607843137" d="M 215.5 208 L 216 223.5 L 215 223.5 L 215.5 208 Z " /><path fill="rgb(62,62,64)" stroke="rgb(62,62,64)" stroke-width="1" opacity="0.4549019607843137" d="M 109.5 226 L 137 226.5 L 109.5 227 L 109.5 226 Z " /><path fill="rgb(62,62,64)" stroke="rgb(62,62,64)" stroke-width="1" opacity="0.4549019607843137" d="M 250.5 226 L 259 226.5 L 250.5 227 L 250.5 226 Z " /><path fill="rgb(62,62,64)" stroke="rgb(62,62,64)" stroke-width="1" opacity="0.4549019607843137" d="M 262.5 226 L 265 226.5 L 262.5 227 L 262.5 226 Z " /><path fill="rgb(62,62,64)" stroke="rgb(62,62,64)" stroke-width="1" opacity="0.4549019607843137" d="M 267.5 226 L 270 226.5 L 267.5 227 L 267.5 226 Z " /><path fill="rgb(62,62,64)" stroke="rgb(62,62,64)" stroke-width="1" opacity="0.4549019607843137" d="M 273.5 226 L 276 226.5 L 273.5 227 L 273.5 226 Z " /><path fill="rgb(62,62,64)" stroke="rgb(62,62,64)" stroke-width="1" opacity="0.4549019607843137" d="M 335.5 238 L 351 238.5 L 335.5 239 L 335.5 238 Z " /><path fill="rgb(62,62,64)" stroke="rgb(62,62,64)" stroke-width="1" opacity="0.4549019607843137" d="M 323.5 239 L 330 239.5 L 321.5 241 L 321.5 240 L 323.5 239 Z " /><path fill="rgb(62,62,64)" stroke="rgb(62,62,64)" stroke-width="1" opacity="0.4549019607843137" d="M 357.5 239 L 365 240.5 L 362.5 241 L 357.5 240 L 357.5 239 Z " /><path fill="rgb(62,62,64)" stroke="rgb(62,62,64)" stroke-width="1" opacity="0.4549019607843137" d="M 319.5 240 L 320 242 L 307.5 245 L 308.5 243 Q 315.5 243 319.5 240 Z " /><path fill="rgb(62,62,64)" stroke="rgb(62,62,64)" stroke-width="1" opacity="0.4549019607843137" d="M 301.5 246 L 304 246.5 L 300.5 248 L 301.5 246 Z " /><path fill="rgb(62,62,64)" stroke="rgb(62,62,64)" stroke-width="1" opacity="0.4549019607843137" d="M 110.5 249 L 144.5 249 L 146 250.5 L 146 272.5 L 144.5 274 L 110 273.5 L 143.5 273 L 145 271.5 L 145 251.5 L 143.5 250 L 110.5 250 L 110.5 249 Z " /><path fill="rgb(62,62,64)" stroke="rgb(62,62,64)" stroke-width="1" opacity="0.4549019607843137" d="M 180.5 249 L 181 250.5 L 181 252.5 L 180 258.5 L 181 260.5 L 181 262.5 L 181 271.5 L 180 272.5 L 212 273.5 L 180.5 274 Q 178.3 273.3 179 269.5 Q 181.3 268.3 180 263.5 L 179 262.5 L 179 250.5 L 180.5 249 Z " /><path fill="rgb(62,62,64)" stroke="rgb(62,62,64)" stroke-width="1" opacity="0.4549019607843137" d="M 183.5 249 L 210 249.5 L 183.5 250 L 183.5 249 Z " /><path fill="rgb(62,62,64)" stroke="rgb(62,62,64)" stroke-width="1" opacity="0.4549019607843137" d="M 295.5 249 L 297 249.5 Q 282.6 256.1 272.5 267 L 272 265 L 295.5 249 Z " /><path fill="rgb(62,62,64)" stroke="rgb(62,62,64)" stroke-width="1" opacity="0.4549019607843137" d="M 214.5 250 L 215.5 252 L 214.5 250 Z " /><path fill="rgb(62,62,64)" stroke="rgb(62,62,64)" stroke-width="1" opacity="0.4549019607843137" d="M 215.5 255 L 216 270.5 L 215 270.5 L 215.5 255 Z " /><path fill="rgb(62,62,64)" stroke="rgb(62,62,64)" stroke-width="1" opacity="0.4549019607843137" d="M 339 261 L 347 261.5 L 339.5 263 L 339 261 Z " /><path fill="rgb(62,62,64)" stroke="rgb(62,62,64)" stroke-width="1" opacity="0.4549019607843137" d="M 330.5 262 L 337 262.5 L 330.5 263 L 330.5 262 Z " /><path fill="rgb(62,62,64)" stroke="rgb(62,62,64)" stroke-width="1" opacity="0.4549019607843137" d="M 350.5 262 L 356 262.5 L 350.5 263 L 350.5 262 Z " /><path fill="rgb(62,62,64)" stroke="rgb(62,62,64)" stroke-width="1" opacity="0.4549019607843137" d="M 321.5 264 L 324 264.5 L 321.5 265 L 321.5 264 Z " /><path fill="rgb(62,62,64)" stroke="rgb(62,62,64)" stroke-width="1" opacity="0.4549019607843137" d="M 363.5 264 L 366 264.5 L 363.5 265 L 363.5 264 Z " /><path fill="rgb(62,62,64)" stroke="rgb(62,62,64)" stroke-width="1" opacity="0.4549019607843137" d="M 317 265 L 320 265.5 L 317.5 267 L 317 265 Z " /><path fill="rgb(62,62,64)" stroke="rgb(62,62,64)" stroke-width="1" opacity="0.4549019607843137" d="M 370.5 266 L 384.5 272 L 387 274.5 L 384.5 273 L 370.5 267 L 370.5 266 Z " /><path fill="rgb(62,62,64)" stroke="rgb(62,62,64)" stroke-width="1" opacity="0.4549019607843137" d="M 270.5 267 L 267.5 271 L 270.5 267 Z " /><path fill="rgb(62,62,64)" stroke="rgb(62,62,64)" stroke-width="1" opacity="0.4549019607843137" d="M 312 267 L 314 267.5 L 312 268.5 L 312 267 Z " /><path fill="rgb(62,62,64)" stroke="rgb(62,62,64)" stroke-width="1" opacity="0.4549019607843137" d="M 310.5 268 L 309.5 270 L 308 269.5 L 310.5 268 Z " /><path fill="rgb(62,62,64)" stroke="rgb(62,62,64)" stroke-width="1" opacity="0.4549019607843137" d="M 305.5 270 L 307 270.5 L 302.5 273 L 302.5 272 L 305.5 270 Z " /><path fill="rgb(62,62,64)" stroke="rgb(62,62,64)" stroke-width="1" opacity="0.4549019607843137" d="M 215.5 272 L 214.5 274 L 213 273.5 L 215.5 272 Z " /><path fill="rgb(62,62,64)" stroke="rgb(62,62,64)" stroke-width="1" opacity="0.4549019607843137" d="M 300.5 273 L 297.5 277 L 296 276.5 L 300.5 273 Z " /><path fill="rgb(62,62,64)" stroke="rgb(62,62,64)" stroke-width="1" opacity="0.4549019607843137" d="M 264.5 274 L 261.5 278 L 264.5 274 Z " /><path fill="rgb(62,62,64)" stroke="rgb(62,62,64)" stroke-width="1" opacity="0.4549019607843137" d="M 388.5 275 L 392 277.5 L 390.5 277 L 388.5 275 Z " /><path fill="rgb(62,62,64)" stroke="rgb(62,62,64)" stroke-width="1" opacity="0.4549019607843137" d="M 293.5 278 L 294 280 L 287 284.5 L 285.5 287 L 282.5 289 L 289.5 281 L 293.5 278 Z " /><path fill="rgb(62,62,64)" stroke="rgb(62,62,64)" stroke-width="1" opacity="0.4549019607843137" d="M 259 279 L 261 279.5 L 256.5 285 L 257 283.5 L 259 279 Z " /><path fill="rgb(62,62,64)" stroke="rgb(62,62,64)" stroke-width="1" opacity="0.4549019607843137" d="M 393.5 279 L 401 284 L 407 291.5 L 405 292 L 405 290.5 L 396.5 282 L 393.5 280 L 393.5 279 Z " /><path fill="rgb(62,62,64)" stroke="rgb(62,62,64)" stroke-width="1" opacity="0.4549019607843137" d="M 255.5 286 L 254 288.5 L 252.5 291 L 252 289.5 L 255.5 286 Z " /><path fill="rgb(62,62,64)" stroke="rgb(62,62,64)" stroke-width="1" opacity="0.4549019607843137" d="M 281.5 290 L 280 292.5 Q 280.8 294.8 278.5 294 L 281.5 290 Z " /><path fill="rgb(62,62,64)" stroke="rgb(62,62,64)" stroke-width="1" opacity="0.4549019607843137" d="M 251.5 292 L 251 293.5 L 250.5 295 L 250 293.5 L 251.5 292 Z " /><path fill="rgb(62,62,64)" stroke="rgb(62,62,64)" stroke-width="1" opacity="0.4549019607843137" d="M 407.5 293 L 412 298.5 L 410 297.5 L 407.5 293 Z " /><path fill="rgb(62,62,64)" stroke="rgb(62,62,64)" stroke-width="1" opacity="0.4549019607843137" d="M 277.5 295 L 276 297.5 Q 277.1 300.8 274.5 300 L 273 300.5 L 277.5 295 Z " /><path fill="rgb(62,62,64)" stroke="rgb(62,62,64)" stroke-width="1" opacity="0.4549019607843137" d="M 109.5 296 L 144.5 296 L 146 297.5 L 146 319.5 L 144.5 321 L 144 319.5 L 145 318.5 L 145 297 L 109.5 297 L 109.5 296 Z " /><path fill="rgb(62,62,64)" stroke="rgb(62,62,64)" stroke-width="1" opacity="0.4549019607843137" d="M 180.5 296 L 216 296.5 L 180 297 L 179.5 318 L 179 297.5 L 180.5 296 Z " /><path fill="rgb(62,62,64)" stroke="rgb(62,62,64)" stroke-width="1" opacity="0.4549019607843137" d="M 249.5 296 L 249 297.5 L 247.5 301 L 248 299.5 L 249.5 296 Z " /><path fill="rgb(62,62,64)" stroke="rgb(62,62,64)" stroke-width="1" opacity="0.4549019607843137" d="M 412.5 300 L 419 311.5 L 418 311.5 L 412.5 300 Z " /><path fill="rgb(62,62,64)" stroke="rgb(62,62,64)" stroke-width="1" opacity="0.4549019607843137" d="M 272.5 302 L 273 303.5 L 270.5 307 L 271 305.5 L 272.5 302 Z " /><path fill="rgb(62,62,64)" stroke="rgb(62,62,64)" stroke-width="1" opacity="0.4549019607843137" d="M 215.5 303 L 216 312.5 L 215 312.5 L 215.5 303 Z " /><path fill="rgb(62,62,64)" stroke="rgb(62,62,64)" stroke-width="1" opacity="0.4549019607843137" d="M 245.5 305 L 245 306.5 L 243.5 312 L 243 308.5 L 245.5 305 Z " /><path fill="rgb(62,62,64)" stroke="rgb(62,62,64)" stroke-width="1" opacity="0.4549019607843137" d="M 332.5 307 L 332 308.5 L 331.5 310 L 331 308.5 L 332.5 307 Z " /><path fill="rgb(62,62,64)" stroke="rgb(62,62,64)" stroke-width="1" opacity="0.4549019607843137" d="M 269.5 308 L 270 309.5 L 265.5 320 L 265 317.5 L 269.5 308 Z " /><path fill="rgb(62,62,64)" stroke="rgb(62,62,64)" stroke-width="1" opacity="0.4549019607843137" d="M 353.5 308 L 356 309.5 L 354.5 309 L 353.5 308 Z " /><path fill="rgb(62,62,64)" stroke="rgb(62,62,64)" stroke-width="1" opacity="0.4549019607843137" d="M 242.5 313 L 243 315.5 L 240.5 320 L 241 318.5 L 242.5 313 Z " /><path fill="rgb(62,62,64)" stroke="rgb(62,62,64)" stroke-width="1" opacity="0.4549019607843137" d="M 215.5 314 L 216 316.5 L 215 316.5 L 215.5 314 Z " /><path fill="rgb(62,62,64)" stroke="rgb(62,62,64)" stroke-width="1" opacity="0.4549019607843137" d="M 331.5 314 L 332 317.5 L 331 317.5 L 331.5 314 Z " /><path fill="rgb(62,62,64)" stroke="rgb(62,62,64)" stroke-width="1" opacity="0.4549019607843137" d="M 355.5 317 L 356 320.5 L 355 320.5 L 355.5 317 Z " /><path fill="rgb(62,62,64)" stroke="rgb(62,62,64)" stroke-width="1" opacity="0.4549019607843137" d="M 111.5 319 L 113 319.5 L 110.5 321 L 111.5 319 Z " /><path fill="rgb(62,62,64)" stroke="rgb(62,62,64)" stroke-width="1" opacity="0.4549019607843137" d="M 331.5 319 L 332 324.5 L 331 324.5 L 331.5 319 Z " /><path fill="rgb(62,62,64)" stroke="rgb(62,62,64)" stroke-width="1" opacity="0.4549019607843137" d="M 240.5 321 L 241 323.5 L 239.5 329 L 239 323.5 L 240.5 321 Z " /><path fill="rgb(62,62,64)" stroke="rgb(62,62,64)" stroke-width="1" opacity="0.4549019607843137" d="M 264.5 321 L 265 323.5 L 264 323.5 L 264.5 321 Z " /><path fill="rgb(62,62,64)" stroke="rgb(62,62,64)" stroke-width="1" opacity="0.4549019607843137" d="M 423.5 326 L 424 330.5 L 423 330.5 L 423.5 326 Z " /><path fill="rgb(62,62,64)" stroke="rgb(62,62,64)" stroke-width="1" opacity="0.4549019607843137" d="M 331.5 329 L 332 344.5 L 331 344.5 Q 332.4 335.6 330 330.5 L 331.5 329 Z " /><path fill="rgb(62,62,64)" stroke="rgb(62,62,64)" stroke-width="1" opacity="0.4549019607843137" d="M 262.5 331 L 263 333.5 L 262 333.5 L 262.5 331 Z " /><path fill="rgb(62,62,64)" stroke="rgb(62,62,64)" stroke-width="1" opacity="0.4549019607843137" d="M 423.5 332 L 425 334.5 L 424 334.5 L 423.5 332 Z " /><path fill="rgb(62,62,64)" stroke="rgb(62,62,64)" stroke-width="1" opacity="0.4549019607843137" d="M 238.5 334 L 239 350.5 L 238 350.5 L 238.5 334 Z " /><path fill="rgb(62,62,64)" stroke="rgb(62,62,64)" stroke-width="1" opacity="0.4549019607843137" d="M 261 339 L 263 339.5 Q 260.7 340.7 262 345.5 L 263 348.5 L 262 348.5 L 261 339 Z " /><path fill="rgb(62,62,64)" stroke="rgb(62,62,64)" stroke-width="1" opacity="0.4549019607843137" d="M 332.5 347 L 334 349.5 L 332 348.5 L 332.5 347 Z " /><path fill="rgb(62,62,64)" stroke="rgb(62,62,64)" stroke-width="1" opacity="0.4549019607843137" d="M 366.5 349 L 367.5 351 Q 364.7 351.7 366.5 349 Z " /><path fill="rgb(62,62,64)" stroke="rgb(62,62,64)" stroke-width="1" opacity="0.4549019607843137" d="M 262.5 350 L 263 357.5 L 262 357.5 L 262.5 350 Z " /><path fill="rgb(62,62,64)" stroke="rgb(62,62,64)" stroke-width="1" opacity="0.4549019607843137" d="M 337.5 354 L 338.5 356 L 337.5 354 Z " /><path fill="rgb(62,62,64)" stroke="rgb(62,62,64)" stroke-width="1" opacity="0.4549019607843137" d="M 423.5 356 L 424 360.5 L 423 360.5 L 423.5 356 Z " /><path fill="rgb(62,62,64)" stroke="rgb(62,62,64)" stroke-width="1" opacity="0.4549019607843137" d="M 239.5 357 L 241 367 L 192 366.5 L 240 366 L 239.5 357 Z " /><path fill="rgb(62,62,64)" stroke="rgb(62,62,64)" stroke-width="1" opacity="0.4549019607843137" d="M 75.5 358 L 79.5 364 L 82 365.5 L 80.5 365 L 76 361.5 L 75.5 358 Z " /><path fill="rgb(62,62,64)" stroke="rgb(62,62,64)" stroke-width="1" opacity="0.4549019607843137" d="M 264.5 363 L 265 365.5 L 264 365.5 L 264.5 363 Z " /><path fill="rgb(62,62,64)" stroke="rgb(62,62,64)" stroke-width="1" opacity="0.4549019607843137" d="M 348.5 364 L 351 367.5 L 348 365.5 L 348.5 364 Z " /><path fill="rgb(62,62,64)" stroke="rgb(62,62,64)" stroke-width="1" opacity="0.4549019607843137" d="M 421.5 365 L 422 366.5 L 420 367.5 L 421.5 365 Z " /><path fill="rgb(62,62,64)" stroke="rgb(62,62,64)" stroke-width="1" opacity="0.4549019607843137" d="M 85.5 366 L 136 366.5 L 85.5 367 L 85.5 366 Z " /><path fill="rgb(62,62,64)" stroke="rgb(62,62,64)" stroke-width="1" opacity="0.4549019607843137" d="M 382 366 L 384 366.5 L 383 369 L 379 371.5 Q 379.8 373.8 377.5 373 L 371 381 L 369 381 Q 370.1 383.7 367.5 383 Q 365.8 385.8 364 381.5 L 365.5 382 L 367.5 382 L 382 367.5 L 382 366 Z " /><path fill="rgb(62,62,64)" stroke="rgb(62,62,64)" stroke-width="1" opacity="0.4549019607843137" d="M 266.5 370 L 276 389.5 L 291.5 406 L 312 418.5 L 310.5 419 L 296.5 411 L 284 401 L 272 384.5 L 266 371.5 L 266.5 370 Z " /><path fill="rgb(62,62,64)" stroke="rgb(62,62,64)" stroke-width="1" opacity="0.4549019607843137" d="M 419.5 372 L 420 373.5 L 413.5 384 L 415 381.5 L 419.5 372 Z " /><path fill="rgb(62,62,64)" stroke="rgb(62,62,64)" stroke-width="1" opacity="0.4549019607843137" d="M 356.5 373 L 357.5 375 L 356.5 373 Z " /><path fill="rgb(62,62,64)" stroke="rgb(62,62,64)" stroke-width="1" opacity="0.4549019607843137" d="M 413.5 385 L 412 387.5 L 405.5 396 L 407 393.5 L 413.5 385 Z " /><path fill="rgb(62,62,64)" stroke="rgb(62,62,64)" stroke-width="1" opacity="0.4549019607843137" d="M 404.5 397 L 397.5 405 L 402 399.5 Q 401.3 397.3 403.5 398 L 404.5 397 Z " /><path fill="rgb(62,62,64)" stroke="rgb(62,62,64)" stroke-width="1" opacity="0.4549019607843137" d="M 395.5 405 L 391.5 410 L 388.5 412 L 388 410 Q 393 409.4 395.5 405 Z " /><path fill="rgb(62,62,64)" stroke="rgb(62,62,64)" stroke-width="1" opacity="0.4549019607843137" d="M 385.5 412 L 387 412.5 L 381.5 416 L 383.5 413 L 385.5 412 Z " /><path fill="rgb(62,62,64)" stroke="rgb(62,62,64)" stroke-width="1" opacity="0.4549019607843137" d="M 378.5 416 L 380 416.5 L 372.5 420 L 372.5 419 L 378.5 416 Z " /><path fill="rgb(62,62,64)" stroke="rgb(62,62,64)" stroke-width="1" opacity="0.4549019607843137" d="M 313.5 419 L 318 420.5 L 315.5 421 L 313.5 419 Z " /><path fill="rgb(62,62,64)" stroke="rgb(62,62,64)" stroke-width="1" opacity="0.4549019607843137" d="M 319.5 421 L 330 423.5 L 325.5 424 L 319.5 422 L 319.5 421 Z " /><path fill="rgb(62,62,64)" stroke="rgb(62,62,64)" stroke-width="1" opacity="0.4549019607843137" d="M 365.5 421 L 368 421.5 L 363.5 423 L 363.5 422 L 365.5 421 Z " /><path fill="rgb(62,62,64)" stroke="rgb(62,62,64)" stroke-width="1" opacity="0.4549019607843137" d="M 354.5 423 L 353.5 425 L 351 424.5 L 354.5 423 Z " /><path fill="rgb(62,62,64)" stroke="rgb(62,62,64)" stroke-width="1" opacity="0.4549019607843137" d="M 356.5 423 L 362 423.5 L 356.5 424 L 356.5 423 Z " /><path fill="rgb(62,62,64)" stroke="rgb(62,62,64)" stroke-width="1" opacity="0.4549019607843137" d="M 342.5 424 L 345 424.5 L 342.5 425 L 342.5 424 Z " /><path fill="rgb(226,226,226)" stroke="rgb(226,226,226)" stroke-width="1" opacity="0.03529411764705882" d="M 104.5 74 L 106 74.5 L 104 75 L 104 108.5 L 102.5 110 L 84 109.5 L 103 109 L 103 75.5 L 104.5 74 Z " /><path fill="rgb(226,226,226)" stroke="rgb(226,226,226)" stroke-width="1" opacity="0.03529411764705882" d="M 122.5 74 Q 127.8 72.8 129 75.5 L 129 109 L 176.5 109 L 176.5 110 L 129.5 110 L 128 108.5 L 128 75.5 Q 127.9 74.4 122.5 75 L 122.5 74 Z " /><path fill="rgb(226,226,226)" stroke="rgb(226,226,226)" stroke-width="1" opacity="0.03529411764705882" d="M 196.5 74 Q 202.6 72.8 202 75.5 L 200.5 75 Q 195.5 76 196.5 74 Z " /><path fill="rgb(226,226,226)" stroke="rgb(226,226,226)" stroke-width="1" opacity="0.03529411764705882" d="M 251.5 74 L 260 74.5 L 251 75 L 251 108.5 L 249.5 110 L 202 109.5 L 250 109 L 250 75.5 L 251.5 74 Z " /><path fill="rgb(226,226,226)" stroke="rgb(226,226,226)" stroke-width="1" opacity="0.03529411764705882" d="M 269.5 74 L 275 74.5 L 269.5 75 L 269.5 74 Z " /><path fill="rgb(226,226,226)" stroke="rgb(226,226,226)" stroke-width="1" opacity="0.03529411764705882" d="M 314.5 74 L 321 74.5 L 314 75 L 314 110 L 277.5 110 L 277.5 109 L 313 109 L 313 75.5 L 314.5 74 Z " /><path fill="rgb(226,226,226)" stroke="rgb(226,226,226)" stroke-width="1" opacity="0.03529411764705882" d="M 332.5 74 L 338 74.5 L 332.5 75 L 332.5 74 Z " /><path fill="rgb(226,226,226)" stroke="rgb(226,226,226)" stroke-width="1" opacity="0.03529411764705882" d="M 275.5 76 L 276 109.5 L 275 109.5 L 275.5 76 Z " /><path fill="rgb(226,226,226)" stroke="rgb(226,226,226)" stroke-width="1" opacity="0.03529411764705882" d="M 338.5 109 L 357 109.5 L 338.5 110 L 338.5 109 Z " /><path fill="rgb(226,226,226)" stroke="rgb(226,226,226)" stroke-width="1" opacity="0.03529411764705882" d="M 359.5 110 L 362 111.5 L 360.5 111 L 359.5 110 Z " /><path fill="rgb(226,226,226)" stroke="rgb(226,226,226)" stroke-width="1" opacity="0.03529411764705882" d="M 78.5 112 L 76.5 115 L 78.5 112 Z " /><path fill="rgb(226,226,226)" stroke="rgb(226,226,226)" stroke-width="1" opacity="0.03529411764705882" d="M 75.5 116 L 76 117.5 L 74.5 123 L 74 118.5 L 75.5 116 Z " /><path fill="rgb(226,226,226)" stroke="rgb(226,226,226)" stroke-width="1" opacity="0.03529411764705882" d="M 367.5 119 L 368 156.5 L 367 156.5 L 367.5 119 Z " /><path fill="rgb(226,226,226)" stroke="rgb(226,226,226)" stroke-width="1" opacity="0.03529411764705882" d="M 75.5 179 L 366.5 179 L 368 180.5 L 368 240.5 L 366.5 242 L 365 241.5 L 367 241 L 367 180.5 L 366.5 180 L 75.5 180 L 74 180.5 L 75.5 179 Z " /><path fill="rgb(226,226,226)" stroke="rgb(226,226,226)" stroke-width="1" opacity="0.03529411764705882" d="M 110.5 204 L 111 225 L 134 225.5 L 110 226 L 110.5 204 Z " /><path fill="rgb(226,226,226)" stroke="rgb(226,226,226)" stroke-width="1" opacity="0.03529411764705882" d="M 144.5 204 L 145 225.5 L 144 225.5 L 144.5 204 Z " /><path fill="rgb(226,226,226)" stroke="rgb(226,226,226)" stroke-width="1" opacity="0.03529411764705882" d="M 180.5 204 L 181 210.5 L 180 210.5 L 180.5 204 Z " /><path fill="rgb(226,226,226)" stroke="rgb(226,226,226)" stroke-width="1" opacity="0.03529411764705882" d="M 214.5 204 L 215 225.5 L 214 225.5 L 214.5 204 Z " /><path fill="rgb(226,226,226)" stroke="rgb(226,226,226)" stroke-width="1" opacity="0.03529411764705882" d="M 250.5 204 L 251 225.5 L 250 225.5 L 250.5 204 Z " /><path fill="rgb(226,226,226)" stroke="rgb(226,226,226)" stroke-width="1" opacity="0.03529411764705882" d="M 284.5 204 L 285 225.5 L 283 226.5 L 284 225.5 L 284.5 204 Z " /><path fill="rgb(226,226,226)" stroke="rgb(226,226,226)" stroke-width="1" opacity="0.03529411764705882" d="M 180.5 224 L 181.5 225 L 203 225.5 L 180 226 L 180.5 224 Z " /><path fill="rgb(226,226,226)" stroke="rgb(226,226,226)" stroke-width="1" opacity="0.03529411764705882" d="M 259.5 226 L 262 226.5 L 259.5 227 L 259.5 226 Z " /><path fill="rgb(226,226,226)" stroke="rgb(226,226,226)" stroke-width="1" opacity="0.03529411764705882" d="M 330.5 239 L 335 239.5 L 330.5 240 L 330.5 239 Z " /><path fill="rgb(226,226,226)" stroke="rgb(226,226,226)" stroke-width="1" opacity="0.03529411764705882" d="M 351.5 239 L 357 239.5 L 351.5 240 L 351.5 239 Z " /><path fill="rgb(226,226,226)" stroke="rgb(226,226,226)" stroke-width="1" opacity="0.03529411764705882" d="M 324.5 240 L 327 240.5 L 324.5 241 L 324.5 240 Z " /><path fill="rgb(226,226,226)" stroke="rgb(226,226,226)" stroke-width="1" opacity="0.03529411764705882" d="M 358.5 240 L 362 240.5 L 358.5 241 L 358.5 240 Z " /><path fill="rgb(226,226,226)" stroke="rgb(226,226,226)" stroke-width="1" opacity="0.03529411764705882" d="M 312.5 243 L 314 243.5 L 309.5 245 L 309.5 244 L 312.5 243 Z " /><path fill="rgb(226,226,226)" stroke="rgb(226,226,226)" stroke-width="1" opacity="0.03529411764705882" d="M 306.5 245 L 308 245.5 L 304.5 247 L 304.5 246 L 306.5 245 Z " /><path fill="rgb(226,226,226)" stroke="rgb(226,226,226)" stroke-width="1" opacity="0.03529411764705882" d="M 301.5 247 L 300.5 249 L 297.5 250 L 297.5 249 L 301.5 247 Z " /><path fill="rgb(226,226,226)" stroke="rgb(226,226,226)" stroke-width="1" opacity="0.03529411764705882" d="M 110 250 L 143.5 250 L 145 251.5 L 145 271.5 L 143.5 273 L 110 273 L 110 250 Z M 111 251 L 111 272 L 144 272 L 144 251 L 111 251 Z " /><path fill="rgb(226,226,226)" stroke="rgb(226,226,226)" stroke-width="1" opacity="0.03529411764705882" d="M 181.5 250 L 213.5 250 L 215 251.5 L 215 273 L 180.5 273 L 180.5 272 L 214 272 L 214 251 L 181.5 251 L 180.5 252 L 181.5 250 Z " /><path fill="rgb(226,226,226)" stroke="rgb(226,226,226)" stroke-width="1" opacity="0.03529411764705882" d="M 295.5 250 L 294.5 252 L 293 251.5 L 295.5 250 Z " /><path fill="rgb(226,226,226)" stroke="rgb(226,226,226)" stroke-width="1" opacity="0.03529411764705882" d="M 291.5 252 L 290.5 254 L 291.5 252 Z " /><path fill="rgb(226,226,226)" stroke="rgb(226,226,226)" stroke-width="1" opacity="0.03529411764705882" d="M 180.5 254 L 181 258.5 L 180 258.5 L 180.5 254 Z " /><path fill="rgb(226,226,226)" stroke="rgb(226,226,226)" stroke-width="1" opacity="0.03529411764705882" d="M 288.5 254 L 287.5 256 L 288.5 254 Z " /><path fill="rgb(226,226,226)" stroke="rgb(226,226,226)" stroke-width="1" opacity="0.03529411764705882" d="M 285.5 256 L 284.5 258 L 285.5 256 Z " /><path fill="rgb(226,226,226)" stroke="rgb(226,226,226)" stroke-width="1" opacity="0.03529411764705882" d="M 282.5 258 L 281.5 260 L 282.5 258 Z " /><path fill="rgb(226,226,226)" stroke="rgb(226,226,226)" stroke-width="1" opacity="0.03529411764705882" d="M 278.5 261 L 277.5 263 L 278.5 261 Z " /><path fill="rgb(226,226,226)" stroke="rgb(226,226,226)" stroke-width="1" opacity="0.03529411764705882" d="M 332.5 261 L 339 261.5 L 332.5 262 L 332.5 261 Z " /><path fill="rgb(226,226,226)" stroke="rgb(226,226,226)" stroke-width="1" opacity="0.03529411764705882" d="M 347.5 261 L 354 261.5 L 347.5 262 L 347.5 261 Z " /><path fill="rgb(226,226,226)" stroke="rgb(226,226,226)" stroke-width="1" opacity="0.03529411764705882" d="M 327.5 262 L 330 262.5 L 327.5 263 L 327.5 262 Z " /><path fill="rgb(226,226,226)" stroke="rgb(226,226,226)" stroke-width="1" opacity="0.03529411764705882" d="M 322.5 263 L 325 263.5 L 322.5 264 L 322.5 263 Z " /><path fill="rgb(226,226,226)" stroke="rgb(226,226,226)" stroke-width="1" opacity="0.03529411764705882" d="M 372.5 266 L 376 267.5 L 374.5 268 L 372.5 266 Z " /><path fill="rgb(226,226,226)" stroke="rgb(226,226,226)" stroke-width="1" opacity="0.03529411764705882" d="M 271.5 267 L 265.5 274 L 271.5 267 Z " /><path fill="rgb(226,226,226)" stroke="rgb(226,226,226)" stroke-width="1" opacity="0.03529411764705882" d="M 308.5 268 L 310 268.5 L 306.5 270 L 306.5 269 L 308.5 268 Z " /><path fill="rgb(226,226,226)" stroke="rgb(226,226,226)" stroke-width="1" opacity="0.03529411764705882" d="M 304.5 270 L 303.5 272 L 304.5 270 Z " /><path fill="rgb(226,226,226)" stroke="rgb(226,226,226)" stroke-width="1" opacity="0.03529411764705882" d="M 385.5 272 L 390 275.5 L 388.5 275 L 385.5 272 Z " /><path fill="rgb(226,226,226)" stroke="rgb(226,226,226)" stroke-width="1" opacity="0.03529411764705882" d="M 298.5 274 L 297.5 276 L 294.5 278 L 296.5 275 L 298.5 274 Z " /><path fill="rgb(226,226,226)" stroke="rgb(226,226,226)" stroke-width="1" opacity="0.03529411764705882" d="M 391.5 276 L 393.5 279 L 391.5 276 Z " /><path fill="rgb(226,226,226)" stroke="rgb(226,226,226)" stroke-width="1" opacity="0.03529411764705882" d="M 262.5 277 L 261.5 279 L 262.5 277 Z " /><path fill="rgb(226,226,226)" stroke="rgb(226,226,226)" stroke-width="1" opacity="0.03529411764705882" d="M 291.5 279 L 290.5 281 L 291.5 279 Z " /><path fill="rgb(226,226,226)" stroke="rgb(226,226,226)" stroke-width="1" opacity="0.03529411764705882" d="M 395.5 279 L 399.5 284 L 395.5 279 Z " /><path fill="rgb(226,226,226)" stroke="rgb(226,226,226)" stroke-width="1" opacity="0.03529411764705882" d="M 259.5 281 L 258.5 283 L 259.5 281 Z " /><path fill="rgb(226,226,226)" stroke="rgb(226,226,226)" stroke-width="1" opacity="0.03529411764705882" d="M 287.5 282 L 283.5 287 L 287.5 282 Z " /><path fill="rgb(226,226,226)" stroke="rgb(226,226,226)" stroke-width="1" opacity="0.03529411764705882" d="M 257.5 284 L 256.5 286 L 257.5 284 Z " /><path fill="rgb(226,226,226)" stroke="rgb(226,226,226)" stroke-width="1" opacity="0.03529411764705882" d="M 401.5 285 L 406.5 291 L 401.5 285 Z " /><path fill="rgb(226,226,226)" stroke="rgb(226,226,226)" stroke-width="1" opacity="0.03529411764705882" d="M 255.5 287 L 254.5 289 L 255.5 287 Z " /><path fill="rgb(226,226,226)" stroke="rgb(226,226,226)" stroke-width="1" opacity="0.03529411764705882" d="M 281.5 289 L 279.5 292 L 281.5 289 Z " /><path fill="rgb(226,226,226)" stroke="rgb(226,226,226)" stroke-width="1" opacity="0.03529411764705882" d="M 253.5 290 L 252.5 292 L 253.5 290 Z " /><path fill="rgb(226,226,226)" stroke="rgb(226,226,226)" stroke-width="1" opacity="0.03529411764705882" d="M 407.5 292 L 410.5 296 L 407.5 292 Z " /><path fill="rgb(226,226,226)" stroke="rgb(226,226,226)" stroke-width="1" opacity="0.03529411764705882" d="M 251.5 293 L 252 294.5 L 250 295.5 L 251.5 293 Z " /><path fill="rgb(226,226,226)" stroke="rgb(226,226,226)" stroke-width="1" opacity="0.03529411764705882" d="M 277.5 294 L 276.5 296 L 277.5 294 Z " /><path fill="rgb(226,226,226)" stroke="rgb(226,226,226)" stroke-width="1" opacity="0.03529411764705882" d="M 110.5 297 L 111 319.5 L 110 319.5 L 110.5 297 Z " /><path fill="rgb(226,226,226)" stroke="rgb(226,226,226)" stroke-width="1" opacity="0.03529411764705882" d="M 144.5 297 L 145 318.5 L 143.5 320 L 113.5 320 L 113.5 319 L 144 319 L 144.5 297 Z " /><path fill="rgb(226,226,226)" stroke="rgb(226,226,226)" stroke-width="1" opacity="0.03529411764705882" d="M 180.5 297 L 181 319 L 214 319 L 214 297.5 L 215 297.5 L 215 320 L 181.5 320 L 180 318.5 L 180.5 297 Z " /><path fill="rgb(226,226,226)" stroke="rgb(226,226,226)" stroke-width="1" opacity="0.03529411764705882" d="M 411.5 297 L 416 303.5 L 414 302.5 L 411.5 297 Z " /><path fill="rgb(226,226,226)" stroke="rgb(226,226,226)" stroke-width="1" opacity="0.03529411764705882" d="M 248.5 300 L 248 301.5 L 247.5 303 L 247 301.5 L 248.5 300 Z " /><path fill="rgb(226,226,226)" stroke="rgb(226,226,226)" stroke-width="1" opacity="0.03529411764705882" d="M 271.5 303 L 271 304.5 L 268.5 310 L 268 308.5 L 271.5 303 Z " /><path fill="rgb(226,226,226)" stroke="rgb(226,226,226)" stroke-width="1" opacity="0.03529411764705882" d="M 246.5 304 L 247 305.5 L 245.5 308 L 245 306.5 L 246.5 304 Z " /><path fill="rgb(226,226,226)" stroke="rgb(226,226,226)" stroke-width="1" opacity="0.03529411764705882" d="M 332.5 308 L 353 308.5 L 332.5 309 L 332.5 308 Z " /><path fill="rgb(226,226,226)" stroke="rgb(226,226,226)" stroke-width="1" opacity="0.03529411764705882" d="M 244.5 309 L 245 311.5 L 243.5 314 L 243 312.5 L 244.5 309 Z " /><path fill="rgb(226,226,226)" stroke="rgb(226,226,226)" stroke-width="1" opacity="0.03529411764705882" d="M 354.5 309 L 355 338.5 L 356 339.5 L 354 338.5 L 354.5 309 Z " /><path fill="rgb(226,226,226)" stroke="rgb(226,226,226)" stroke-width="1" opacity="0.03529411764705882" d="M 267.5 311 L 268 312.5 L 266.5 315 L 266 313.5 L 267.5 311 Z " /><path fill="rgb(226,226,226)" stroke="rgb(226,226,226)" stroke-width="1" opacity="0.03529411764705882" d="M 242.5 316 L 243 318.5 L 241.5 322 L 241 319.5 L 242.5 316 Z " /><path fill="rgb(226,226,226)" stroke="rgb(226,226,226)" stroke-width="1" opacity="0.03529411764705882" d="M 263.5 322 L 264 324.5 L 263 324.5 L 263.5 322 Z " /><path fill="rgb(226,226,226)" stroke="rgb(226,226,226)" stroke-width="1" opacity="0.03529411764705882" d="M 423.5 323 L 424 325.5 L 423 325.5 L 423.5 323 Z " /><path fill="rgb(226,226,226)" stroke="rgb(226,226,226)" stroke-width="1" opacity="0.03529411764705882" d="M 240.5 324 L 241 326.5 L 240 326.5 L 240.5 324 Z " /><path fill="rgb(226,226,226)" stroke="rgb(226,226,226)" stroke-width="1" opacity="0.03529411764705882" d="M 262.5 327 L 263 330.5 L 262 330.5 L 262.5 327 Z " /><path fill="rgb(226,226,226)" stroke="rgb(226,226,226)" stroke-width="1" opacity="0.03529411764705882" d="M 239.5 329 L 240 334.5 L 239 334.5 L 239.5 329 Z " /><path fill="rgb(226,226,226)" stroke="rgb(226,226,226)" stroke-width="1" opacity="0.03529411764705882" d="M 424.5 330 L 425 332.5 L 424 332.5 L 424.5 330 Z " /><path fill="rgb(226,226,226)" stroke="rgb(226,226,226)" stroke-width="1" opacity="0.03529411764705882" d="M 261.5 333 L 262 338.5 L 261 338.5 L 261.5 333 Z " /><path fill="rgb(226,226,226)" stroke="rgb(226,226,226)" stroke-width="1" opacity="0.03529411764705882" d="M 425.5 334 L 426 351.5 L 425 351.5 L 425.5 334 Z " /><path fill="rgb(226,226,226)" stroke="rgb(226,226,226)" stroke-width="1" opacity="0.03529411764705882" d="M 261.5 347 L 262 352.5 L 261 352.5 L 261.5 347 Z " /><path fill="rgb(226,226,226)" stroke="rgb(226,226,226)" stroke-width="1" opacity="0.03529411764705882" d="M 334.5 350 L 343.5 360 L 334.5 350 Z " /><path fill="rgb(226,226,226)" stroke="rgb(226,226,226)" stroke-width="1" opacity="0.03529411764705882" d="M 239.5 351 L 240 356.5 L 239 356.5 L 239.5 351 Z " /><path fill="rgb(226,226,226)" stroke="rgb(226,226,226)" stroke-width="1" opacity="0.03529411764705882" d="M 367.5 351 L 368.5 353 Q 365.7 353.7 367.5 351 Z " /><path fill="rgb(226,226,226)" stroke="rgb(226,226,226)" stroke-width="1" opacity="0.03529411764705882" d="M 424.5 353 L 425 356.5 L 424 356.5 L 424.5 353 Z " /><path fill="rgb(226,226,226)" stroke="rgb(226,226,226)" stroke-width="1" opacity="0.03529411764705882" d="M 74.5 354 L 75 358.5 L 74 358.5 L 74.5 354 Z " /><path fill="rgb(226,226,226)" stroke="rgb(226,226,226)" stroke-width="1" opacity="0.03529411764705882" d="M 372.5 356 L 374.5 359 L 372.5 356 Z " /><path fill="rgb(226,226,226)" stroke="rgb(226,226,226)" stroke-width="1" opacity="0.03529411764705882" d="M 240.5 359 L 241 361.5 L 240 361.5 L 240.5 359 Z " /><path fill="rgb(226,226,226)" stroke="rgb(226,226,226)" stroke-width="1" opacity="0.03529411764705882" d="M 376.5 360 L 378.5 363 L 376.5 360 Z " /><path fill="rgb(226,226,226)" stroke="rgb(226,226,226)" stroke-width="1" opacity="0.03529411764705882" d="M 423.5 361 L 424 363.5 L 422.5 366 L 422 364.5 L 423.5 361 Z " /><path fill="rgb(226,226,226)" stroke="rgb(226,226,226)" stroke-width="1" opacity="0.03529411764705882" d="M 76.5 362 L 78.5 365 L 76.5 362 Z " /><path fill="rgb(226,226,226)" stroke="rgb(226,226,226)" stroke-width="1" opacity="0.03529411764705882" d="M 263.5 362 L 264 364.5 L 263 364.5 L 263.5 362 Z " /><path fill="rgb(226,226,226)" stroke="rgb(226,226,226)" stroke-width="1" opacity="0.03529411764705882" d="M 241.5 364 L 242 366.5 L 240.5 368 L 84.5 368 L 84.5 367 L 240.5 367 L 241.5 364 Z " /><path fill="rgb(226,226,226)" stroke="rgb(226,226,226)" stroke-width="1" opacity="0.03529411764705882" d="M 380.5 364 L 381.5 366 L 380.5 364 Z " /><path fill="rgb(226,226,226)" stroke="rgb(226,226,226)" stroke-width="1" opacity="0.03529411764705882" d="M 349.5 365 L 358.5 375 L 349.5 365 Z " /><path fill="rgb(226,226,226)" stroke="rgb(226,226,226)" stroke-width="1" opacity="0.03529411764705882" d="M 381.5 367 L 367.5 382 L 381.5 367 Z " /><path fill="rgb(226,226,226)" stroke="rgb(226,226,226)" stroke-width="1" opacity="0.03529411764705882" d="M 421.5 367 L 422 369.5 L 421 369.5 L 421.5 367 Z " /><path fill="rgb(226,226,226)" stroke="rgb(226,226,226)" stroke-width="1" opacity="0.03529411764705882" d="M 266.5 372 L 268 375.5 L 267 375.5 L 266.5 372 Z " /><path fill="rgb(226,226,226)" stroke="rgb(226,226,226)" stroke-width="1" opacity="0.03529411764705882" d="M 268.5 377 L 270 379.5 L 268 378.5 L 268.5 377 Z " /><path fill="rgb(226,226,226)" stroke="rgb(226,226,226)" stroke-width="1" opacity="0.03529411764705882" d="M 364.5 380 L 365.5 382 L 364.5 380 Z " /><path fill="rgb(226,226,226)" stroke="rgb(226,226,226)" stroke-width="1" opacity="0.03529411764705882" d="M 270.5 381 L 272 383.5 L 270 382.5 L 270.5 381 Z " /><path fill="rgb(226,226,226)" stroke="rgb(226,226,226)" stroke-width="1" opacity="0.03529411764705882" d="M 415.5 382 L 415 383.5 L 414.5 385 L 414 383.5 L 415.5 382 Z " /><path fill="rgb(226,226,226)" stroke="rgb(226,226,226)" stroke-width="1" opacity="0.03529411764705882" d="M 272.5 385 L 273.5 387 L 272.5 385 Z " /><path fill="rgb(226,226,226)" stroke="rgb(226,226,226)" stroke-width="1" opacity="0.03529411764705882" d="M 413.5 386 L 413 387.5 L 409.5 392 L 412 388.5 L 413.5 386 Z " /><path fill="rgb(226,226,226)" stroke="rgb(226,226,226)" stroke-width="1" opacity="0.03529411764705882" d="M 276.5 391 L 278.5 394 L 276.5 391 Z " /><path fill="rgb(226,226,226)" stroke="rgb(226,226,226)" stroke-width="1" opacity="0.03529411764705882" d="M 408.5 393 L 405.5 397 L 408.5 393 Z " /><path fill="rgb(226,226,226)" stroke="rgb(226,226,226)" stroke-width="1" opacity="0.03529411764705882" d="M 279.5 395 L 284 400.5 L 283 400.5 L 279.5 395 Z " /><path fill="rgb(226,226,226)" stroke="rgb(226,226,226)" stroke-width="1" opacity="0.03529411764705882" d="M 404.5 398 L 400.5 403 L 404.5 398 Z " /><path fill="rgb(226,226,226)" stroke="rgb(226,226,226)" stroke-width="1" opacity="0.03529411764705882" d="M 285.5 401 L 290.5 407 L 285.5 401 Z " /><path fill="rgb(226,226,226)" stroke="rgb(226,226,226)" stroke-width="1" opacity="0.03529411764705882" d="M 396.5 405 L 393.5 409 L 396.5 405 Z " /><path fill="rgb(226,226,226)" stroke="rgb(226,226,226)" stroke-width="1" opacity="0.03529411764705882" d="M 292.5 407 L 304 415.5 L 302.5 415 Q 295 412.6 292.5 407 Z " /><path fill="rgb(226,226,226)" stroke="rgb(226,226,226)" stroke-width="1" opacity="0.03529411764705882" d="M 390.5 410 L 389.5 412 L 390.5 410 Z " /><path fill="rgb(226,226,226)" stroke="rgb(226,226,226)" stroke-width="1" opacity="0.03529411764705882" d="M 387.5 412 L 386.5 414 L 387.5 412 Z " /><path fill="rgb(226,226,226)" stroke="rgb(226,226,226)" stroke-width="1" opacity="0.03529411764705882" d="M 371.5 420 L 370.5 422 L 368 421.5 L 371.5 420 Z " /><path fill="rgb(226,226,226)" stroke="rgb(226,226,226)" stroke-width="1" opacity="0.03529411764705882" d="M 316.5 421 L 319 421.5 L 316.5 422 L 316.5 421 Z " /><path fill="rgb(226,226,226)" stroke="rgb(226,226,226)" stroke-width="1" opacity="0.03529411764705882" d="M 329.5 424 L 333 424.5 L 329.5 425 L 329.5 424 Z " /><path fill="rgb(226,226,226)" stroke="rgb(226,226,226)" stroke-width="1" opacity="0.03529411764705882" d="M 354.5 424 L 357 424.5 L 354.5 425 L 354.5 424 Z " /><path fill="rgb(226,226,226)" stroke="rgb(226,226,226)" stroke-width="1" opacity="0.03529411764705882" d="M 334.5 425 L 353 425.5 L 334.5 426 L 334.5 425 Z " /><path fill="rgb(255,255,255)" stroke="rgb(255,255,255)" stroke-width="1" opacity="1" d="M 113.5 75 L 127 76 L 127 110 L 178 110 L 178 76.5 L 179.5 75 L 180.5 76 L 200 76 L 200 110 L 252 110 L 252 76 L 274 76 L 274 110 L 315 110 L 315 76 L 334.5 76 Q 335.8 73.8 337 76.5 L 337 110 L 355.5 110 Q 362 111.5 365 116.5 L 366 118.5 L 366 156 L 75.5 156 L 75 155.5 L 75 141.5 L 76 139.5 L 75 138.5 L 75 124.5 L 77 115.5 L 79.5 113 L 85.5 110 L 105 110 L 105 76.5 L 105.5 76 L 112.5 76 L 113.5 75 Z " /><path fill="rgb(255,255,255)" stroke="rgb(255,255,255)" stroke-width="1" opacity="1" d="M 75 181 L 365.5 181 L 366 181.5 L 366 240 L 353.5 238 L 332.5 238 L 331.5 239 L 323.5 239 L 308.5 243 L 291.5 251 Q 274.3 260.8 262 275.5 L 252 289.5 L 243 308.5 L 238 331.5 L 238 353.5 L 240 366 L 83.5 366 L 77 360.5 L 76 358.5 L 76 213.5 L 75 212.5 L 75 181 Z M 111 203 L 109 205 L 109 227 L 145 227 L 146 226 L 146 205 L 145 203 L 111 203 Z M 181 203 L 179 205 L 179 214 L 180 215 Q 182 222 179 226 L 181 227 L 216 227 L 216 203 L 181 203 Z M 251 203 L 249 205 L 249 226 L 251 227 L 282 227 L 284 228 L 286 226 L 286 205 L 285 203 L 251 203 Z M 111 249 L 109 251 L 109 273 L 111 274 L 145 274 L 146 273 L 146 251 L 145 249 L 111 249 Z M 181 249 L 179 251 L 179 263 L 180 264 L 179 273 L 181 274 L 215 274 L 216 273 L 216 251 L 215 249 L 181 249 Z M 109 296 L 109 320 L 111 321 L 145 321 L 146 320 L 146 298 L 145 296 L 109 296 Z M 181 296 L 179 298 L 179 319 L 180 321 L 215 321 L 216 320 L 216 296 L 181 296 Z " /><path fill="rgb(255,255,255)" stroke="rgb(255,255,255)" stroke-width="1" opacity="1" d="M 340.5 262 L 357.5 263 L 378.5 270 Q 394.1 277.9 405 290.5 Q 416.8 303.2 422 322.5 L 424 333.5 L 424 353.5 Q 421.5 355 423 360.5 L 418 375.5 L 410 389.5 L 401 401 L 386.5 412 L 370.5 420 L 353.5 424 L 332.5 424 L 315.5 420 L 306.5 416 Q 291.4 408.1 281 395.5 L 273 384.5 L 267 371.5 L 263 357.5 L 262 340.5 L 263 339.5 L 263 329.5 L 265 321.5 L 273 302.5 Q 280.9 289.4 292.5 280 Q 302.3 271.8 315.5 267 L 328.5 263 L 339.5 263 L 340.5 262 Z M 333 307 L 331 309 L 331 330 L 330 331 Q 333 336 331 347 L 333 351 L 367 384 L 368 383 Q 370 384 369 381 L 371 381 L 378 373 Q 380 374 379 371 L 381 371 L 381 369 L 383 369 L 383 368 L 384 367 L 356 339 L 356 308 L 336 308 L 333 307 Z " /></svg>