<svg width="500" height="500" version="1.1" xmlns="http://www.w3.org/2000/svg" desc="Created with imagetracer.js version 1.2.6" ><path fill="rgb(0,0,0)" stroke="rgb(0,0,0)" stroke-width="1" opacity="0" d="M 0 0 L 500 0 L 500 500 L 0 500 L 0 0 Z M 105 74 L 103 76 L 103 109 L 85 109 L 79 112 L 74 119 L 74 157 L 75 157 L 368 157 L 368 120 L 364 112 L 357 109 L 338 109 L 338 74 L 315 74 L 313 76 L 313 109 L 276 109 L 276 77 L 275 76 L 275 74 L 252 74 L 250 76 L 250 109 L 202 109 L 202 74 L 177 74 L 177 109 L 129 109 L 129 76 L 128 74 L 105 74 Z M 76 179 L 74 181 L 74 359 L 76 363 L 85 368 L 241 368 L 242 367 L 239 351 L 239 336 L 243 315 L 252 293 L 263 278 Q 262 275 265 276 L 265 275 L 275 265 Q 277 266 276 263 L 303 247 L 306 247 L 322 241 L 335 240 L 336 239 L 351 239 L 367 242 L 368 241 L 368 181 L 367 179 L 76 179 Z M 333 261 L 314 266 L 303 272 Q 299 271 300 274 L 297 275 L 288 282 L 270 305 L 263 323 L 261 334 L 261 353 L 263 360 L 263 365 L 270 383 L 283 401 L 297 412 L 312 420 L 335 426 L 353 426 Q 356 423 364 424 L 367 422 L 371 422 L 387 414 L 398 405 L 401 403 Q 413 392 420 375 L 424 364 L 424 358 L 426 352 L 426 335 Q 423 331 424 324 L 415 302 L 407 291 Q 394 275 374 266 L 354 261 L 333 261 Z " /><path fill="rgb(0,0,0)" stroke="rgb(0,0,0)" stroke-width="1" opacity="0" d="M 111 204 L 144 204 L 144 226 L 134.5 226 L 133.5 225 L 111 225 L 111 204 Z " /><path fill="rgb(0,0,0)" stroke="rgb(0,0,0)" stroke-width="1" opacity="0" d="M 181 204 L 214 204 L 214 226.5 L 212.5 226 L 181 225 L 181 204 Z " /><path fill="rgb(0,0,0)" stroke="rgb(0,0,0)" stroke-width="1" opacity="0" d="M 251 204 L 284 204 L 284 226 L 251 226 L 251 204 Z " /><path fill="rgb(0,0,0)" stroke="rgb(0,0,0)" stroke-width="1" opacity="0" d="M 111 251 L 144 251 L 144 272 L 111 272 L 111 251 Z " /><path fill="rgb(0,0,0)" stroke="rgb(0,0,0)" stroke-width="1" opacity="0" d="M 181 251 L 214 251 L 214 272 L 181 272 L 181 251 Z " /><path fill="rgb(0,0,0)" stroke="rgb(0,0,0)" stroke-width="1" opacity="0" d="M 111 297 L 144 297 L 144 319 L 111 319 L 111 297 Z " /><path fill="rgb(0,0,0)" stroke="rgb(0,0,0)" stroke-width="1" opacity="0" d="M 181 297 L 214 297 L 214 319 L 181 319 L 181 297 Z " /><path fill="rgb(0,0,0)" stroke="rgb(0,0,0)" stroke-width="1" opacity="0" d="M 332 309 L 354 309 L 354 338.5 L 367 351.5 L 367 353 L 369 353 Q 367.9 355.7 370.5 355 L 382 366.5 L 366.5 382 L 334 349.5 L 332 345.5 L 332 309 Z " /><path fill="rgb(40,40,41)" stroke="rgb(40,40,41)" stroke-width="1" opacity="0.5254901960784314" d="M 108.5 74 L 112 74.5 L 108.5 75 L 108.5 74 Z " /><path fill="rgb(40,40,41)" stroke="rgb(40,40,41)" stroke-width="1" opacity="0.5254901960784314" d="M 118.5 74 L 121 74.5 L 118.5 75 L 118.5 74 Z " /><path fill="rgb(40,40,41)" stroke="rgb(40,40,41)" stroke-width="1" opacity="0.5254901960784314" d="M 185.5 74 L 194 74.5 L 182.5 76 L 182.5 75 L 185.5 74 Z " /><path fill="rgb(40,40,41)" stroke="rgb(40,40,41)" stroke-width="1" opacity="0.5254901960784314" d="M 261.5 74 L 265 75.5 L 252 76 L 251.5 110 L 251 75 L 260.5 75 L 261.5 74 Z " /><path fill="rgb(40,40,41)" stroke="rgb(40,40,41)" stroke-width="1" opacity="0.5254901960784314" d="M 324.5 74 L 328 74.5 Q 323 77.1 315 76 L 314.5 110 L 314 75 L 323.5 75 L 324.5 74 Z " /><path fill="rgb(40,40,41)" stroke="rgb(40,40,41)" stroke-width="1" opacity="0.5254901960784314" d="M 104 75 L 106 75.5 L 105 76.5 L 104.5 110 L 104 75 Z " /><path fill="rgb(40,40,41)" stroke="rgb(40,40,41)" stroke-width="1" opacity="0.5254901960784314" d="M 126.5 75 L 128 75.5 L 128 109.5 L 127 109.5 L 127 76.5 L 126.5 75 Z " /><path fill="rgb(40,40,41)" stroke="rgb(40,40,41)" stroke-width="1" opacity="0.5254901960784314" d="M 177 75 L 179 75.5 L 178 76.5 L 177.5 110 L 177 75 Z " /><path fill="rgb(40,40,41)" stroke="rgb(40,40,41)" stroke-width="1" opacity="0.5254901960784314" d="M 200.5 75 Q 203.3 76.3 202 81.5 L 202 83.5 L 201 91.5 L 202 92.5 L 202 110 L 200 109.5 L 200 78.5 L 200 76.5 L 200.5 75 Z " /><path fill="rgb(40,40,41)" stroke="rgb(40,40,41)" stroke-width="1" opacity="0.5254901960784314" d="M 271.5 75 L 275 75.5 L 275 109.5 L 274 109.5 L 274 76.5 L 271.5 76 L 271.5 75 Z " /><path fill="rgb(40,40,41)" stroke="rgb(40,40,41)" stroke-width="1" opacity="0.5254901960784314" d="M 336.5 75 L 338 75.5 L 338 109.5 L 337 109.5 L 337 76.5 L 336.5 75 Z " /><path fill="rgb(40,40,41)" stroke="rgb(40,40,41)" stroke-width="1" opacity="0.5254901960784314" d="M 82.5 110 L 85 110.5 L 77 115.5 L 75.5 122 L 75 118.5 L 79.5 112 L 82.5 110 Z " /><path fill="rgb(40,40,41)" stroke="rgb(40,40,41)" stroke-width="1" opacity="0.5254901960784314" d="M 356.5 110 L 364 113.5 L 367 118.5 L 367 157 L 75 156.5 L 366 156 L 366 118.5 L 360.5 112 L 356.5 111 L 356.5 110 Z " /><path fill="rgb(40,40,41)" stroke="rgb(40,40,41)" stroke-width="1" opacity="0.5254901960784314" d="M 74.5 125 L 75 138.5 L 74 138.5 L 74.5 125 Z " /><path fill="rgb(40,40,41)" stroke="rgb(40,40,41)" stroke-width="1" opacity="0.5254901960784314" d="M 74.5 141 L 75 144.5 L 74 144.5 L 74.5 141 Z " /><path fill="rgb(40,40,41)" stroke="rgb(40,40,41)" stroke-width="1" opacity="0.5254901960784314" d="M 74.5 149 L 75 154.5 L 74 154.5 L 74.5 149 Z " /><path fill="rgb(40,40,41)" stroke="rgb(40,40,41)" stroke-width="1" opacity="0.5254901960784314" d="M 75.5 180 L 366.5 180 L 367 180.5 L 367 241 L 358 239.5 L 362.5 239 L 366 240 L 366 181.5 L 365.5 181 L 75.5 181 L 75.5 180 Z " /><path fill="rgb(40,40,41)" stroke="rgb(40,40,41)" stroke-width="1" opacity="0.5254901960784314" d="M 74.5 182 L 75 185.5 L 74 185.5 L 74.5 182 Z " /><path fill="rgb(40,40,41)" stroke="rgb(40,40,41)" stroke-width="1" opacity="0.5254901960784314" d="M 74.5 195 L 75 211.5 L 74 211.5 L 74.5 195 Z " /><path fill="rgb(40,40,41)" stroke="rgb(40,40,41)" stroke-width="1" opacity="0.5254901960784314" d="M 110.5 203 L 145 203.5 L 110 204 L 110 226 L 144.5 226 L 144.5 227 L 109 227 L 109 204.5 L 110.5 203 Z " /><path fill="rgb(40,40,41)" stroke="rgb(40,40,41)" stroke-width="1" opacity="0.5254901960784314" d="M 180.5 203 L 216 203 L 216 227 L 214 226.5 L 215 225.5 L 215 204 L 180.5 204 L 180.5 203 Z " /><path fill="rgb(40,40,41)" stroke="rgb(40,40,41)" stroke-width="1" opacity="0.5254901960784314" d="M 250.5 203 L 284.5 203 L 286 204.5 L 286 225.5 L 284.5 227 L 285 225.5 L 285 204 L 250 204 L 250 225.5 L 251 226.5 L 249 225.5 L 249 204.5 L 250.5 203 Z " /><path fill="rgb(40,40,41)" stroke="rgb(40,40,41)" stroke-width="1" opacity="0.5254901960784314" d="M 180.5 212 L 181 223.5 L 180 223.5 L 180.5 212 Z " /><path fill="rgb(40,40,41)" stroke="rgb(40,40,41)" stroke-width="1" opacity="0.5254901960784314" d="M 74.5 217 L 75 220.5 L 74 220.5 L 74.5 217 Z " /><path fill="rgb(40,40,41)" stroke="rgb(40,40,41)" stroke-width="1" opacity="0.5254901960784314" d="M 180.5 226 L 213 226.5 L 180.5 227 L 180.5 226 Z " /><path fill="rgb(40,40,41)" stroke="rgb(40,40,41)" stroke-width="1" opacity="0.5254901960784314" d="M 264.5 226 L 268 226.5 L 264.5 227 L 264.5 226 Z " /><path fill="rgb(40,40,41)" stroke="rgb(40,40,41)" stroke-width="1" opacity="0.5254901960784314" d="M 74.5 227 L 75 235.5 L 74 235.5 L 74.5 227 Z " /><path fill="rgb(40,40,41)" stroke="rgb(40,40,41)" stroke-width="1" opacity="0.5254901960784314" d="M 332.5 238 L 354 238.5 L 332.5 239 L 332.5 238 Z " /><path fill="rgb(40,40,41)" stroke="rgb(40,40,41)" stroke-width="1" opacity="0.5254901960784314" d="M 75.5 239 L 76 358.5 L 77 362 L 83 365.5 L 81.5 366 L 76 361.5 L 74 346.5 Q 76.8 344.8 75 338.5 Q 72.5 337 74 331.5 L 75 330.5 L 75 313.5 L 74 308.5 Q 76.3 307.3 75 302.5 Q 72.2 300.8 74 294.5 L 75 291.5 L 74 290.5 L 74 243.5 L 75.5 239 Z " /><path fill="rgb(40,40,41)" stroke="rgb(40,40,41)" stroke-width="1" opacity="0.5254901960784314" d="M 323.5 239 L 328 239.5 L 309.5 244 L 309.5 243 L 323.5 239 Z " /><path fill="rgb(40,40,41)" stroke="rgb(40,40,41)" stroke-width="1" opacity="0.5254901960784314" d="M 306.5 244 L 308 244.5 L 291.5 252 L 273 265 Q 274.1 267.7 271.5 267 Q 257.9 278.9 249.5 296 L 250 294.5 Q 259.2 274.7 275.5 262 Q 288.8 250.8 306.5 244 Z " /><path fill="rgb(40,40,41)" stroke="rgb(40,40,41)" stroke-width="1" opacity="0.5254901960784314" d="M 110.5 249 L 123 249.5 L 110 250 L 110 273 L 144.5 273 L 144.5 274 L 110.5 274 L 109 272.5 L 109 250.5 L 110.5 249 Z " /><path fill="rgb(40,40,41)" stroke="rgb(40,40,41)" stroke-width="1" opacity="0.5254901960784314" d="M 128.5 249 L 144.5 249 L 145 250.5 L 146 251.5 L 146 259.5 L 145 259.5 L 145 251.5 L 143.5 250 L 128.5 250 L 128.5 249 Z " /><path fill="rgb(40,40,41)" stroke="rgb(40,40,41)" stroke-width="1" opacity="0.5254901960784314" d="M 181.5 249 L 214.5 249 L 216 250.5 L 216 272.5 L 214.5 274 L 180 273.5 L 215 273 L 215 250 L 181.5 250 L 180.5 253 Q 177.5 253.7 179 250 L 181.5 249 Z " /><path fill="rgb(40,40,41)" stroke="rgb(40,40,41)" stroke-width="1" opacity="0.5254901960784314" d="M 180.5 260 L 181 272 L 179 271.5 L 180 270.5 L 180.5 260 Z " /><path fill="rgb(40,40,41)" stroke="rgb(40,40,41)" stroke-width="1" opacity="0.5254901960784314" d="M 339.5 261 L 346 261.5 L 331.5 263 L 331.5 262 Q 337.7 263.8 339.5 261 Z " /><path fill="rgb(40,40,41)" stroke="rgb(40,40,41)" stroke-width="1" opacity="0.5254901960784314" d="M 347.5 262 L 355 262.5 L 347.5 263 L 347.5 262 Z " /><path fill="rgb(40,40,41)" stroke="rgb(40,40,41)" stroke-width="1" opacity="0.5254901960784314" d="M 325.5 263 L 328 263.5 L 322.5 265 L 322.5 264 L 325.5 263 Z " /><path fill="rgb(40,40,41)" stroke="rgb(40,40,41)" stroke-width="1" opacity="0.5254901960784314" d="M 358.5 263 L 365 264.5 L 362.5 265 L 358.5 264 L 358.5 263 Z " /><path fill="rgb(40,40,41)" stroke="rgb(40,40,41)" stroke-width="1" opacity="0.5254901960784314" d="M 318.5 265 L 321 265.5 Q 294.5 273 280 292.5 Q 270.1 304.1 265.5 321 L 265 318.5 L 272 302.5 L 282 288 Q 284.7 289.1 284 286.5 L 288 283.5 Q 287.3 281.3 289.5 282 Q 301 270.5 318.5 265 Z " /><path fill="rgb(40,40,41)" stroke="rgb(40,40,41)" stroke-width="1" opacity="0.5254901960784314" d="M 366.5 265 L 378 269.5 L 376.5 269 L 366.5 266 L 366.5 265 Z " /><path fill="rgb(40,40,41)" stroke="rgb(40,40,41)" stroke-width="1" opacity="0.5254901960784314" d="M 379.5 270 Q 396.5 277.5 407 291.5 L 416 305.5 L 414 304.5 Q 407.7 290.8 396.5 282 L 379.5 271 L 379.5 270 Z " /><path fill="rgb(40,40,41)" stroke="rgb(40,40,41)" stroke-width="1" opacity="0.5254901960784314" d="M 109 296 L 144.5 296 L 146 297.5 L 146 319.5 L 144.5 321 L 110.5 321 L 109 319.5 L 109 296 Z M 110 297 L 110 320 L 112 319 L 114 320 L 145 320 L 145 297 L 110 297 Z " /><path fill="rgb(40,40,41)" stroke="rgb(40,40,41)" stroke-width="1" opacity="0.5254901960784314" d="M 180.5 296 L 216 296 L 216 319.5 L 214.5 321 L 180.5 321 L 180.5 320 L 215 320 L 215 297 L 180 297 L 180 318.5 L 179 318.5 L 179 297.5 L 180.5 296 Z " /><path fill="rgb(40,40,41)" stroke="rgb(40,40,41)" stroke-width="1" opacity="0.5254901960784314" d="M 248.5 297 L 249 298.5 L 246.5 303 L 246 301.5 L 248.5 297 Z " /><path fill="rgb(40,40,41)" stroke="rgb(40,40,41)" stroke-width="1" opacity="0.5254901960784314" d="M 245.5 304 L 246 305.5 L 241.5 319 L 241 315.5 L 245.5 304 Z " /><path fill="rgb(40,40,41)" stroke="rgb(40,40,41)" stroke-width="1" opacity="0.5254901960784314" d="M 416.5 307 Q 420.8 312.8 422 321.5 L 421 321.5 L 416.5 307 Z " /><path fill="rgb(40,40,41)" stroke="rgb(40,40,41)" stroke-width="1" opacity="0.5254901960784314" d="M 355.5 308 L 356 338.5 L 384 366.5 L 383 369 L 381 369 L 381 371 L 379 371 Q 380.1 373.7 377.5 373 L 369 381.5 L 369 383 L 366.5 384 L 333 350.5 L 331 344.5 L 332 344.5 L 334 350.5 L 366.5 383 L 383 366.5 L 355 338.5 L 355.5 308 Z " /><path fill="rgb(40,40,41)" stroke="rgb(40,40,41)" stroke-width="1" opacity="0.5254901960784314" d="M 240.5 320 L 241 323.5 L 239.5 328 L 239 323.5 L 240.5 320 Z " /><path fill="rgb(40,40,41)" stroke="rgb(40,40,41)" stroke-width="1" opacity="0.5254901960784314" d="M 264.5 322 L 265 324.5 L 263.5 328 L 263 325.5 L 264.5 322 Z " /><path fill="rgb(40,40,41)" stroke="rgb(40,40,41)" stroke-width="1" opacity="0.5254901960784314" d="M 422.5 323 Q 424.9 326.1 424 332.5 L 423 332.5 L 422.5 323 Z " /><path fill="rgb(40,40,41)" stroke="rgb(40,40,41)" stroke-width="1" opacity="0.5254901960784314" d="M 262.5 331 L 263 338.5 Q 260.3 340.2 262 346.5 Q 264.8 348.3 263 354.5 L 262 354.5 L 261 339.5 L 262.5 331 Z " /><path fill="rgb(40,40,41)" stroke="rgb(40,40,41)" stroke-width="1" opacity="0.5254901960784314" d="M 238.5 332 L 239 353.5 L 238 353.5 L 238.5 332 Z " /><path fill="rgb(40,40,41)" stroke="rgb(40,40,41)" stroke-width="1" opacity="0.5254901960784314" d="M 424.5 334 L 425 352.5 L 424 352.5 L 424.5 334 Z " /><path fill="rgb(40,40,41)" stroke="rgb(40,40,41)" stroke-width="1" opacity="0.5254901960784314" d="M 423.5 354 L 424 360.5 L 420 373.5 L 414 385.5 L 397.5 405 L 384.5 414 L 385.5 412 L 401 401 L 408 392.5 L 418 375.5 L 423 360.5 L 423.5 354 Z " /><path fill="rgb(40,40,41)" stroke="rgb(40,40,41)" stroke-width="1" opacity="0.5254901960784314" d="M 239.5 358 L 241 367 L 84 366.5 L 240 366 L 239.5 358 Z " /><path fill="rgb(40,40,41)" stroke="rgb(40,40,41)" stroke-width="1" opacity="0.5254901960784314" d="M 263.5 358 L 265 364.5 L 264 364.5 L 263.5 358 Z " /><path fill="rgb(40,40,41)" stroke="rgb(40,40,41)" stroke-width="1" opacity="0.5254901960784314" d="M 265.5 366 L 270 377.5 L 268 376.5 L 265 368.5 L 265.5 366 Z " /><path fill="rgb(40,40,41)" stroke="rgb(40,40,41)" stroke-width="1" opacity="0.5254901960784314" d="M 270.5 379 L 272 381.5 L 270 380.5 L 270.5 379 Z " /><path fill="rgb(40,40,41)" stroke="rgb(40,40,41)" stroke-width="1" opacity="0.5254901960784314" d="M 272.5 383 Q 279.8 396.7 291.5 406 L 299 411.5 L 297.5 411 Q 286.5 404.5 279 394.5 L 272 384.5 L 272.5 383 Z " /><path fill="rgb(40,40,41)" stroke="rgb(40,40,41)" stroke-width="1" opacity="0.5254901960784314" d="M 300.5 412 L 306 415.5 L 304.5 415 Q 300.5 414.5 300.5 412 Z " /><path fill="rgb(40,40,41)" stroke="rgb(40,40,41)" stroke-width="1" opacity="0.5254901960784314" d="M 382.5 414 L 381.5 416 Q 375 420.5 365.5 422 L 365.5 421 Q 375.6 419.1 382.5 414 Z " /><path fill="rgb(40,40,41)" stroke="rgb(40,40,41)" stroke-width="1" opacity="0.5254901960784314" d="M 307.5 416 L 310 417.5 L 308.5 417 L 307.5 416 Z " /><path fill="rgb(40,40,41)" stroke="rgb(40,40,41)" stroke-width="1" opacity="0.5254901960784314" d="M 311.5 418 L 315 419.5 L 313.5 420 L 311.5 418 Z " /><path fill="rgb(40,40,41)" stroke="rgb(40,40,41)" stroke-width="1" opacity="0.5254901960784314" d="M 316.5 420 L 325.5 423 L 332 423.5 L 325.5 424 L 316.5 421 L 316.5 420 Z " /><path fill="rgb(40,40,41)" stroke="rgb(40,40,41)" stroke-width="1" opacity="0.5254901960784314" d="M 361.5 422 L 364 422.5 Q 361.3 425.3 354.5 424 L 354.5 423 Q 360 424.5 361.5 422 Z " /><path fill="rgb(40,40,41)" stroke="rgb(40,40,41)" stroke-width="1" opacity="0.5254901960784314" d="M 333.5 424 L 353 424.5 L 333.5 425 L 333.5 424 Z " /><path fill="rgb(194,194,195)" stroke="rgb(194,194,195)" stroke-width="1" opacity="0.10588235294117647" d="M 104.5 74 L 108 74.5 L 104 75 L 104 110 L 84.5 110 L 84.5 109 L 103 109 L 103 75.5 L 104.5 74 Z " /><path fill="rgb(194,194,195)" stroke="rgb(194,194,195)" stroke-width="1" opacity="0.10588235294117647" d="M 112.5 74 L 118 74.5 L 112.5 75 L 112.5 74 Z " /><path fill="rgb(194,194,195)" stroke="rgb(194,194,195)" stroke-width="1" opacity="0.10588235294117647" d="M 121.5 74 Q 127.5 72.5 129 75.5 L 129 109 L 176.5 109 L 176.5 110 L 128 110 L 128 75.5 Q 127.8 74.3 121.5 75 L 121.5 74 Z " /><path fill="rgb(194,194,195)" stroke="rgb(194,194,195)" stroke-width="1" opacity="0.10588235294117647" d="M 177.5 74 L 185 74.5 L 177.5 75 L 177.5 74 Z " /><path fill="rgb(194,194,195)" stroke="rgb(194,194,195)" stroke-width="1" opacity="0.10588235294117647" d="M 194.5 74 L 201.5 74 L 202 75.5 L 200.5 75 L 194.5 75 L 194.5 74 Z " /><path fill="rgb(194,194,195)" stroke="rgb(194,194,195)" stroke-width="1" opacity="0.10588235294117647" d="M 251.5 74 L 261 74.5 L 251 75 L 251 110 L 202.5 110 L 202.5 109 L 250 109 L 250 75.5 L 251.5 74 Z " /><path fill="rgb(194,194,195)" stroke="rgb(194,194,195)" stroke-width="1" opacity="0.10588235294117647" d="M 263.5 74 L 266 74.5 L 263.5 75 L 263.5 74 Z " /><path fill="rgb(194,194,195)" stroke="rgb(194,194,195)" stroke-width="1" opacity="0.10588235294117647" d="M 268.5 74 L 275 74.5 L 268.5 75 L 268.5 74 Z " /><path fill="rgb(194,194,195)" stroke="rgb(194,194,195)" stroke-width="1" opacity="0.10588235294117647" d="M 314.5 74 L 324 74.5 L 314 75 L 314 110 L 275 110 L 275.5 76 L 276 109 L 313 109 L 313 75.5 L 314.5 74 Z " /><path fill="rgb(194,194,195)" stroke="rgb(194,194,195)" stroke-width="1" opacity="0.10588235294117647" d="M 332.5 74 L 338 74.5 L 332.5 75 L 332.5 74 Z " /><path fill="rgb(194,194,195)" stroke="rgb(194,194,195)" stroke-width="1" opacity="0.10588235294117647" d="M 338.5 109 L 357 109.5 L 338.5 110 L 338.5 109 Z " /><path fill="rgb(194,194,195)" stroke="rgb(194,194,195)" stroke-width="1" opacity="0.10588235294117647" d="M 81.5 110 L 80.5 112 L 81.5 110 Z " /><path fill="rgb(194,194,195)" stroke="rgb(194,194,195)" stroke-width="1" opacity="0.10588235294117647" d="M 359.5 110 L 362 111.5 L 360.5 111 L 359.5 110 Z " /><path fill="rgb(194,194,195)" stroke="rgb(194,194,195)" stroke-width="1" opacity="0.10588235294117647" d="M 78.5 112 L 76.5 115 L 78.5 112 Z " /><path fill="rgb(194,194,195)" stroke="rgb(194,194,195)" stroke-width="1" opacity="0.10588235294117647" d="M 364.5 114 L 365.5 116 L 364.5 114 Z " /><path fill="rgb(194,194,195)" stroke="rgb(194,194,195)" stroke-width="1" opacity="0.10588235294117647" d="M 75.5 116 L 76 117.5 L 74.5 123 L 74 118.5 L 75.5 116 Z " /><path fill="rgb(194,194,195)" stroke="rgb(194,194,195)" stroke-width="1" opacity="0.10588235294117647" d="M 367.5 119 L 368 156.5 L 367 156.5 L 367.5 119 Z " /><path fill="rgb(194,194,195)" stroke="rgb(194,194,195)" stroke-width="1" opacity="0.10588235294117647" d="M 75.5 179 L 366.5 179 L 368 180.5 L 368 240.5 L 366.5 242 L 365 241.5 L 367 241 L 367 180.5 L 366.5 180 L 75 180 L 74.5 182 L 74 180.5 L 75.5 179 Z " /><path fill="rgb(194,194,195)" stroke="rgb(194,194,195)" stroke-width="1" opacity="0.10588235294117647" d="M 74.5 190 L 75 194.5 L 74 194.5 L 74.5 190 Z " /><path fill="rgb(194,194,195)" stroke="rgb(194,194,195)" stroke-width="1" opacity="0.10588235294117647" d="M 110.5 204 L 111 225 L 134 225.5 L 110 226 L 110.5 204 Z " /><path fill="rgb(194,194,195)" stroke="rgb(194,194,195)" stroke-width="1" opacity="0.10588235294117647" d="M 144.5 204 L 145 225.5 L 144 225.5 L 144.5 204 Z " /><path fill="rgb(194,194,195)" stroke="rgb(194,194,195)" stroke-width="1" opacity="0.10588235294117647" d="M 180.5 204 L 181 211.5 L 180 211.5 L 180.5 204 Z " /><path fill="rgb(194,194,195)" stroke="rgb(194,194,195)" stroke-width="1" opacity="0.10588235294117647" d="M 214.5 204 L 215 225.5 L 214 225.5 L 214.5 204 Z " /><path fill="rgb(194,194,195)" stroke="rgb(194,194,195)" stroke-width="1" opacity="0.10588235294117647" d="M 250.5 204 L 251 226 L 264 226.5 L 251.5 227 L 250 225.5 L 250.5 204 Z " /><path fill="rgb(194,194,195)" stroke="rgb(194,194,195)" stroke-width="1" opacity="0.10588235294117647" d="M 284.5 204 L 285 225.5 L 283.5 227 L 268.5 227 L 268.5 226 L 284 226 L 284.5 204 Z " /><path fill="rgb(194,194,195)" stroke="rgb(194,194,195)" stroke-width="1" opacity="0.10588235294117647" d="M 74.5 212 L 75 216.5 L 74 216.5 L 74.5 212 Z " /><path fill="rgb(194,194,195)" stroke="rgb(194,194,195)" stroke-width="1" opacity="0.10588235294117647" d="M 74.5 221 L 75 226.5 L 74 226.5 L 74.5 221 Z " /><path fill="rgb(194,194,195)" stroke="rgb(194,194,195)" stroke-width="1" opacity="0.10588235294117647" d="M 180.5 224 L 181.5 225 L 203 225.5 L 180 226 L 180.5 224 Z " /><path fill="rgb(194,194,195)" stroke="rgb(194,194,195)" stroke-width="1" opacity="0.10588235294117647" d="M 74.5 236 L 75 242.5 L 74 242.5 L 74.5 236 Z " /><path fill="rgb(194,194,195)" stroke="rgb(194,194,195)" stroke-width="1" opacity="0.10588235294117647" d="M 328.5 239 L 335 239.5 L 328.5 240 L 328.5 239 Z " /><path fill="rgb(194,194,195)" stroke="rgb(194,194,195)" stroke-width="1" opacity="0.10588235294117647" d="M 351.5 239 Q 358.3 238.3 362 240.5 L 358.5 241 Q 357 238.5 351.5 240 L 351.5 239 Z " /><path fill="rgb(194,194,195)" stroke="rgb(194,194,195)" stroke-width="1" opacity="0.10588235294117647" d="M 324.5 240 L 327 240.5 L 324.5 241 L 324.5 240 Z " /><path fill="rgb(194,194,195)" stroke="rgb(194,194,195)" stroke-width="1" opacity="0.10588235294117647" d="M 315.5 242 L 318 242.5 L 315.5 243 L 315.5 242 Z " /><path fill="rgb(194,194,195)" stroke="rgb(194,194,195)" stroke-width="1" opacity="0.10588235294117647" d="M 312.5 243 L 314 243.5 L 304.5 247 L 304.5 246 L 312.5 243 Z " /><path fill="rgb(194,194,195)" stroke="rgb(194,194,195)" stroke-width="1" opacity="0.10588235294117647" d="M 301.5 247 L 300.5 249 L 297.5 250 L 297.5 249 L 301.5 247 Z " /><path fill="rgb(194,194,195)" stroke="rgb(194,194,195)" stroke-width="1" opacity="0.10588235294117647" d="M 110 250 L 143.5 250 L 145 251.5 L 145 273 L 110 273 L 110 250 Z M 111 251 L 111 272 L 144 272 L 144 251 L 111 251 Z " /><path fill="rgb(194,194,195)" stroke="rgb(194,194,195)" stroke-width="1" opacity="0.10588235294117647" d="M 181.5 250 L 215 250 L 215 273 L 180 272.5 L 214 272 L 214 251 L 181.5 251 L 180 251.5 L 181.5 250 Z " /><path fill="rgb(194,194,195)" stroke="rgb(194,194,195)" stroke-width="1" opacity="0.10588235294117647" d="M 295.5 250 L 294.5 252 L 293 251.5 L 295.5 250 Z " /><path fill="rgb(194,194,195)" stroke="rgb(194,194,195)" stroke-width="1" opacity="0.10588235294117647" d="M 291.5 252 L 290.5 254 L 291.5 252 Z " /><path fill="rgb(194,194,195)" stroke="rgb(194,194,195)" stroke-width="1" opacity="0.10588235294117647" d="M 180.5 253 L 181 259.5 L 180 259.5 L 180.5 253 Z " /><path fill="rgb(194,194,195)" stroke="rgb(194,194,195)" stroke-width="1" opacity="0.10588235294117647" d="M 288.5 254 L 287.5 256 L 288.5 254 Z " /><path fill="rgb(194,194,195)" stroke="rgb(194,194,195)" stroke-width="1" opacity="0.10588235294117647" d="M 285.5 256 L 284.5 258 L 285.5 256 Z " /><path fill="rgb(194,194,195)" stroke="rgb(194,194,195)" stroke-width="1" opacity="0.10588235294117647" d="M 282.5 258 L 281.5 260 L 282.5 258 Z " /><path fill="rgb(194,194,195)" stroke="rgb(194,194,195)" stroke-width="1" opacity="0.10588235294117647" d="M 279.5 260 L 277.5 263 L 279.5 260 Z " /><path fill="rgb(194,194,195)" stroke="rgb(194,194,195)" stroke-width="1" opacity="0.10588235294117647" d="M 332.5 261 L 339 261.5 L 332.5 262 L 332.5 261 Z " /><path fill="rgb(194,194,195)" stroke="rgb(194,194,195)" stroke-width="1" opacity="0.10588235294117647" d="M 346.5 261 L 354 261.5 L 346.5 262 L 346.5 261 Z " /><path fill="rgb(194,194,195)" stroke="rgb(194,194,195)" stroke-width="1" opacity="0.10588235294117647" d="M 327.5 262 L 331 262.5 L 327.5 263 L 327.5 262 Z " /><path fill="rgb(194,194,195)" stroke="rgb(194,194,195)" stroke-width="1" opacity="0.10588235294117647" d="M 355.5 262 L 359 262.5 L 355.5 263 L 355.5 262 Z " /><path fill="rgb(194,194,195)" stroke="rgb(194,194,195)" stroke-width="1" opacity="0.10588235294117647" d="M 322.5 263 L 325 263.5 L 319.5 265 L 319.5 264 L 322.5 263 Z " /><path fill="rgb(194,194,195)" stroke="rgb(194,194,195)" stroke-width="1" opacity="0.10588235294117647" d="M 365.5 264 L 368 264.5 L 365.5 265 L 365.5 264 Z " /><path fill="rgb(194,194,195)" stroke="rgb(194,194,195)" stroke-width="1" opacity="0.10588235294117647" d="M 372.5 266 L 376 267.5 L 374.5 268 L 372.5 266 Z " /><path fill="rgb(194,194,195)" stroke="rgb(194,194,195)" stroke-width="1" opacity="0.10588235294117647" d="M 271.5 267 L 265.5 274 L 271.5 267 Z " /><path fill="rgb(194,194,195)" stroke="rgb(194,194,195)" stroke-width="1" opacity="0.10588235294117647" d="M 308.5 268 L 310 268.5 L 303.5 272 L 304.5 270 L 308.5 268 Z " /><path fill="rgb(194,194,195)" stroke="rgb(194,194,195)" stroke-width="1" opacity="0.10588235294117647" d="M 377.5 268 L 380 269.5 L 378.5 270 L 377.5 268 Z " /><path fill="rgb(194,194,195)" stroke="rgb(194,194,195)" stroke-width="1" opacity="0.10588235294117647" d="M 381.5 270 L 390 275.5 L 388.5 275 L 382.5 272 L 381.5 270 Z " /><path fill="rgb(194,194,195)" stroke="rgb(194,194,195)" stroke-width="1" opacity="0.10588235294117647" d="M 300 272 L 302 272.5 L 300 273.5 L 300 272 Z " /><path fill="rgb(194,194,195)" stroke="rgb(194,194,195)" stroke-width="1" opacity="0.10588235294117647" d="M 298.5 274 L 297.5 276 L 293.5 279 L 296.5 275 L 298.5 274 Z " /><path fill="rgb(194,194,195)" stroke="rgb(194,194,195)" stroke-width="1" opacity="0.10588235294117647" d="M 391.5 276 L 407 290.5 L 395.5 280 L 391.5 276 Z " /><path fill="rgb(194,194,195)" stroke="rgb(194,194,195)" stroke-width="1" opacity="0.10588235294117647" d="M 262.5 277 L 260 280.5 L 256.5 286 L 257 284.5 L 262.5 277 Z " /><path fill="rgb(194,194,195)" stroke="rgb(194,194,195)" stroke-width="1" opacity="0.10588235294117647" d="M 291.5 279 L 289.5 282 L 291.5 279 Z " /><path fill="rgb(194,194,195)" stroke="rgb(194,194,195)" stroke-width="1" opacity="0.10588235294117647" d="M 287.5 282 L 288 283.5 L 284 286.5 L 283.5 288 L 283 286.5 L 287.5 282 Z " /><path fill="rgb(194,194,195)" stroke="rgb(194,194,195)" stroke-width="1" opacity="0.10588235294117647" d="M 255.5 287 L 254.5 289 L 255.5 287 Z " /><path fill="rgb(194,194,195)" stroke="rgb(194,194,195)" stroke-width="1" opacity="0.10588235294117647" d="M 281.5 289 L 279.5 292 L 281.5 289 Z " /><path fill="rgb(194,194,195)" stroke="rgb(194,194,195)" stroke-width="1" opacity="0.10588235294117647" d="M 253.5 290 L 252.5 292 L 253.5 290 Z " /><path fill="rgb(194,194,195)" stroke="rgb(194,194,195)" stroke-width="1" opacity="0.10588235294117647" d="M 74.5 291 L 75 293.5 L 74 293.5 L 74.5 291 Z " /><path fill="rgb(194,194,195)" stroke="rgb(194,194,195)" stroke-width="1" opacity="0.10588235294117647" d="M 407.5 292 Q 415.9 300.1 420 312.5 L 419 312.5 Q 414.4 300.1 407.5 292 Z " /><path fill="rgb(194,194,195)" stroke="rgb(194,194,195)" stroke-width="1" opacity="0.10588235294117647" d="M 251.5 293 L 252 294.5 L 245.5 308 L 245 306.5 L 251.5 293 Z " /><path fill="rgb(194,194,195)" stroke="rgb(194,194,195)" stroke-width="1" opacity="0.10588235294117647" d="M 278.5 293 L 276.5 296 L 278.5 293 Z " /><path fill="rgb(194,194,195)" stroke="rgb(194,194,195)" stroke-width="1" opacity="0.10588235294117647" d="M 110.5 297 L 111 319.5 L 110 319.5 L 110.5 297 Z " /><path fill="rgb(194,194,195)" stroke="rgb(194,194,195)" stroke-width="1" opacity="0.10588235294117647" d="M 144.5 297 L 145 320 L 113 319.5 L 144 319 L 144.5 297 Z " /><path fill="rgb(194,194,195)" stroke="rgb(194,194,195)" stroke-width="1" opacity="0.10588235294117647" d="M 180.5 297 L 181 319 L 214 319 L 214 297.5 L 215 297.5 L 215 320 L 180 320 L 180.5 297 Z " /><path fill="rgb(194,194,195)" stroke="rgb(194,194,195)" stroke-width="1" opacity="0.10588235294117647" d="M 275.5 297 L 274.5 299 L 275.5 297 Z " /><path fill="rgb(194,194,195)" stroke="rgb(194,194,195)" stroke-width="1" opacity="0.10588235294117647" d="M 273.5 300 L 272.5 302 L 273.5 300 Z " /><path fill="rgb(194,194,195)" stroke="rgb(194,194,195)" stroke-width="1" opacity="0.10588235294117647" d="M 74.5 302 L 75 307.5 L 74 307.5 L 74.5 302 Z " /><path fill="rgb(194,194,195)" stroke="rgb(194,194,195)" stroke-width="1" opacity="0.10588235294117647" d="M 271.5 303 L 271 304.5 L 268.5 310 L 268 308.5 L 271.5 303 Z " /><path fill="rgb(194,194,195)" stroke="rgb(194,194,195)" stroke-width="1" opacity="0.10588235294117647" d="M 332.5 308 L 355 308 L 355 338.5 L 383 366.5 L 366.5 383 L 334.5 350 L 366.5 382 L 382 366.5 L 370.5 355 L 369 355 L 369 353 Q 366.3 354.1 367 351.5 L 354 338.5 L 354 309 L 332 309 L 332 343.5 L 331 343.5 L 331 309.5 L 332.5 308 Z " /><path fill="rgb(194,194,195)" stroke="rgb(194,194,195)" stroke-width="1" opacity="0.10588235294117647" d="M 244.5 309 L 245 311.5 L 243.5 314 L 243 312.5 L 244.5 309 Z " /><path fill="rgb(194,194,195)" stroke="rgb(194,194,195)" stroke-width="1" opacity="0.10588235294117647" d="M 267.5 311 L 268 312.5 L 266.5 315 L 266 313.5 L 267.5 311 Z " /><path fill="rgb(194,194,195)" stroke="rgb(194,194,195)" stroke-width="1" opacity="0.10588235294117647" d="M 74.5 313 L 75 330.5 L 74 330.5 L 74.5 313 Z " /><path fill="rgb(194,194,195)" stroke="rgb(194,194,195)" stroke-width="1" opacity="0.10588235294117647" d="M 242.5 315 L 243 318.5 L 241.5 322 L 241 319.5 L 242.5 315 Z " /><path fill="rgb(194,194,195)" stroke="rgb(194,194,195)" stroke-width="1" opacity="0.10588235294117647" d="M 264.5 319 L 265 321.5 L 263.5 325 L 263 322.5 L 264.5 319 Z " /><path fill="rgb(194,194,195)" stroke="rgb(194,194,195)" stroke-width="1" opacity="0.10588235294117647" d="M 422.5 321 L 424 325.5 L 423 325.5 L 422.5 321 Z " /><path fill="rgb(194,194,195)" stroke="rgb(194,194,195)" stroke-width="1" opacity="0.10588235294117647" d="M 240.5 324 L 241 326.5 L 240 326.5 L 240.5 324 Z " /><path fill="rgb(194,194,195)" stroke="rgb(194,194,195)" stroke-width="1" opacity="0.10588235294117647" d="M 262.5 327 L 263 330.5 L 262 330.5 L 262.5 327 Z " /><path fill="rgb(194,194,195)" stroke="rgb(194,194,195)" stroke-width="1" opacity="0.10588235294117647" d="M 239.5 328 L 240 334.5 L 239 334.5 L 239.5 328 Z " /><path fill="rgb(194,194,195)" stroke="rgb(194,194,195)" stroke-width="1" opacity="0.10588235294117647" d="M 424.5 330 L 426 334.5 L 426 351.5 L 425 351.5 L 425 334.5 L 424.5 330 Z " /><path fill="rgb(194,194,195)" stroke="rgb(194,194,195)" stroke-width="1" opacity="0.10588235294117647" d="M 261.5 333 L 262 338.5 L 261 338.5 L 261.5 333 Z " /><path fill="rgb(194,194,195)" stroke="rgb(194,194,195)" stroke-width="1" opacity="0.10588235294117647" d="M 74.5 338 L 75 345.5 L 74 345.5 L 74.5 338 Z " /><path fill="rgb(194,194,195)" stroke="rgb(194,194,195)" stroke-width="1" opacity="0.10588235294117647" d="M 261.5 347 L 262 352.5 L 261 352.5 L 261.5 347 Z " /><path fill="rgb(194,194,195)" stroke="rgb(194,194,195)" stroke-width="1" opacity="0.10588235294117647" d="M 239.5 351 L 240 357.5 L 239 357.5 L 239.5 351 Z " /><path fill="rgb(194,194,195)" stroke="rgb(194,194,195)" stroke-width="1" opacity="0.10588235294117647" d="M 74.5 353 L 76 359.5 L 74 358.5 L 74.5 353 Z " /><path fill="rgb(194,194,195)" stroke="rgb(194,194,195)" stroke-width="1" opacity="0.10588235294117647" d="M 424.5 353 L 425 356.5 L 424 356.5 L 424.5 353 Z " /><path fill="rgb(194,194,195)" stroke="rgb(194,194,195)" stroke-width="1" opacity="0.10588235294117647" d="M 262.5 355 L 263 358.5 L 262 358.5 L 262.5 355 Z " /><path fill="rgb(194,194,195)" stroke="rgb(194,194,195)" stroke-width="1" opacity="0.10588235294117647" d="M 240.5 359 L 241 361.5 L 240 361.5 L 240.5 359 Z " /><path fill="rgb(194,194,195)" stroke="rgb(194,194,195)" stroke-width="1" opacity="0.10588235294117647" d="M 423.5 361 L 424 363.5 L 422.5 366 L 422 364.5 L 423.5 361 Z " /><path fill="rgb(194,194,195)" stroke="rgb(194,194,195)" stroke-width="1" opacity="0.10588235294117647" d="M 76.5 362 L 78.5 365 L 76.5 362 Z " /><path fill="rgb(194,194,195)" stroke="rgb(194,194,195)" stroke-width="1" opacity="0.10588235294117647" d="M 263.5 362 L 265 367.5 L 264 367.5 L 263.5 362 Z " /><path fill="rgb(194,194,195)" stroke="rgb(194,194,195)" stroke-width="1" opacity="0.10588235294117647" d="M 241.5 364 L 242 366.5 L 240.5 368 L 84.5 368 L 82 366.5 L 83.5 366 L 84.5 367 L 241 367 L 241.5 364 Z " /><path fill="rgb(194,194,195)" stroke="rgb(194,194,195)" stroke-width="1" opacity="0.10588235294117647" d="M 421.5 367 L 422 369.5 L 421 369.5 L 421.5 367 Z " /><path fill="rgb(194,194,195)" stroke="rgb(194,194,195)" stroke-width="1" opacity="0.10588235294117647" d="M 266.5 372 L 268 375.5 L 267 375.5 L 266.5 372 Z " /><path fill="rgb(194,194,195)" stroke="rgb(194,194,195)" stroke-width="1" opacity="0.10588235294117647" d="M 268.5 377 L 270 379.5 L 268 378.5 L 268.5 377 Z " /><path fill="rgb(194,194,195)" stroke="rgb(194,194,195)" stroke-width="1" opacity="0.10588235294117647" d="M 270.5 381 L 272 383.5 L 270 382.5 L 270.5 381 Z " /><path fill="rgb(194,194,195)" stroke="rgb(194,194,195)" stroke-width="1" opacity="0.10588235294117647" d="M 415.5 382 L 415 383.5 L 414.5 385 L 414 383.5 L 415.5 382 Z " /><path fill="rgb(194,194,195)" stroke="rgb(194,194,195)" stroke-width="1" opacity="0.10588235294117647" d="M 272.5 385 L 273.5 387 L 272.5 385 Z " /><path fill="rgb(194,194,195)" stroke="rgb(194,194,195)" stroke-width="1" opacity="0.10588235294117647" d="M 413.5 386 L 413 387.5 L 409.5 392 L 412 388.5 L 413.5 386 Z " /><path fill="rgb(194,194,195)" stroke="rgb(194,194,195)" stroke-width="1" opacity="0.10588235294117647" d="M 274.5 388 L 275.5 390 L 274.5 388 Z " /><path fill="rgb(194,194,195)" stroke="rgb(194,194,195)" stroke-width="1" opacity="0.10588235294117647" d="M 276.5 391 L 278.5 394 L 276.5 391 Z " /><path fill="rgb(194,194,195)" stroke="rgb(194,194,195)" stroke-width="1" opacity="0.10588235294117647" d="M 408.5 393 L 405.5 397 L 408.5 393 Z " /><path fill="rgb(194,194,195)" stroke="rgb(194,194,195)" stroke-width="1" opacity="0.10588235294117647" d="M 279.5 395 L 290.5 407 L 283 401 L 279.5 395 Z " /><path fill="rgb(194,194,195)" stroke="rgb(194,194,195)" stroke-width="1" opacity="0.10588235294117647" d="M 404.5 398 L 400.5 403 L 404.5 398 Z " /><path fill="rgb(194,194,195)" stroke="rgb(194,194,195)" stroke-width="1" opacity="0.10588235294117647" d="M 396.5 405 L 393.5 409 L 396.5 405 Z " /><path fill="rgb(194,194,195)" stroke="rgb(194,194,195)" stroke-width="1" opacity="0.10588235294117647" d="M 292.5 407 L 296.5 411 L 313 419.5 L 311.5 420 L 296.5 412 L 292.5 407 Z " /><path fill="rgb(194,194,195)" stroke="rgb(194,194,195)" stroke-width="1" opacity="0.10588235294117647" d="M 391.5 409 L 389.5 412 L 391.5 409 Z " /><path fill="rgb(194,194,195)" stroke="rgb(194,194,195)" stroke-width="1" opacity="0.10588235294117647" d="M 387.5 412 L 386.5 414 L 387.5 412 Z " /><path fill="rgb(194,194,195)" stroke="rgb(194,194,195)" stroke-width="1" opacity="0.10588235294117647" d="M 383.5 414 L 385 414.5 L 382.5 416 L 383.5 414 Z " /><path fill="rgb(194,194,195)" stroke="rgb(194,194,195)" stroke-width="1" opacity="0.10588235294117647" d="M 314.5 420 L 319 421.5 L 316.5 422 L 314.5 420 Z " /><path fill="rgb(194,194,195)" stroke="rgb(194,194,195)" stroke-width="1" opacity="0.10588235294117647" d="M 371.5 420 L 370.5 422 L 368 421.5 L 371.5 420 Z " /><path fill="rgb(194,194,195)" stroke="rgb(194,194,195)" stroke-width="1" opacity="0.10588235294117647" d="M 364.5 422 L 366 422.5 L 362.5 424 L 362.5 423 L 364.5 422 Z " /><path fill="rgb(194,194,195)" stroke="rgb(194,194,195)" stroke-width="1" opacity="0.10588235294117647" d="M 329.5 424 L 333 424.5 L 329.5 425 L 329.5 424 Z " /><path fill="rgb(194,194,195)" stroke="rgb(194,194,195)" stroke-width="1" opacity="0.10588235294117647" d="M 353.5 424 L 357 424.5 L 352.5 426 L 334.5 426 L 334.5 425 L 352.5 425 L 353.5 424 Z " /><path fill="rgb(150,148,178)" stroke="rgb(150,148,178)" stroke-width="1" opacity="1" d="M 106.5 75 L 113 75.5 L 106.5 76 L 106.5 75 Z " /><path fill="rgb(150,148,178)" stroke="rgb(150,148,178)" stroke-width="1" opacity="1" d="M 120.5 75 L 126 75.5 L 120.5 76 L 120.5 75 Z " /><path fill="rgb(150,148,178)" stroke="rgb(150,148,178)" stroke-width="1" opacity="1" d="M 187.5 75 L 200 75.5 L 187.5 76 L 187.5 75 Z " /><path fill="rgb(150,148,178)" stroke="rgb(150,148,178)" stroke-width="1" opacity="1" d="M 265.5 75 L 271 75.5 L 265.5 76 L 265.5 75 Z " /><path fill="rgb(150,148,178)" stroke="rgb(150,148,178)" stroke-width="1" opacity="1" d="M 324.5 75 L 335 75.5 L 329.5 77 L 324.5 76 L 324.5 75 Z " /><path fill="rgb(150,148,178)" stroke="rgb(150,148,178)" stroke-width="1" opacity="1" d="M 145.5 204 L 146 207.5 L 145 207.5 L 145.5 204 Z " /><path fill="rgb(150,148,178)" stroke="rgb(150,148,178)" stroke-width="1" opacity="1" d="M 179.5 204 L 180 213.5 L 179 213.5 L 179.5 204 Z " /><path fill="rgb(150,148,178)" stroke="rgb(150,148,178)" stroke-width="1" opacity="1" d="M 145.5 210 L 146 225.5 L 145 225.5 L 145.5 210 Z " /><path fill="rgb(150,148,178)" stroke="rgb(150,148,178)" stroke-width="1" opacity="1" d="M 75.5 213 L 76 238.5 L 75 238.5 L 75.5 213 Z " /><path fill="rgb(150,148,178)" stroke="rgb(150,148,178)" stroke-width="1" opacity="1" d="M 123.5 249 L 128 249.5 L 123.5 250 L 123.5 249 Z " /><path fill="rgb(150,148,178)" stroke="rgb(150,148,178)" stroke-width="1" opacity="1" d="M 179.5 253 L 180 262.5 L 179 262.5 L 179.5 253 Z " /><path fill="rgb(150,148,178)" stroke="rgb(150,148,178)" stroke-width="1" opacity="1" d="M 145.5 260 L 146 272.5 L 145 272.5 L 145.5 260 Z " /><path fill="rgb(150,148,178)" stroke="rgb(150,148,178)" stroke-width="1" opacity="1" d="M 330.5 330 L 331 332.5 L 330 332.5 L 330.5 330 Z " /><path fill="rgb(151,148,179)" stroke="rgb(151,148,179)" stroke-width="1" opacity="1" d="M 113.5 75 L 127 76 L 127 110 L 178 110 L 178 76.5 L 179.5 75 L 180.5 76 L 200 76 L 200 110 L 221.5 110 L 223.5 110 L 252 110 L 252 76 L 274 76 L 274 110 L 315 110 L 315 76 L 328.5 76 L 330.5 76 L 335.5 75 L 337 76.5 L 337 110 L 355.5 110 Q 362 111.5 365 116.5 L 366 118.5 L 366 156 L 75.5 156 L 75 155.5 L 75 141.5 L 76 139.5 L 75 138.5 L 75 124.5 L 77 115.5 L 79.5 113 L 85.5 110 L 105 110 L 105 76.5 L 105.5 76 L 112.5 76 L 113.5 75 Z " /><path fill="rgb(151,148,179)" stroke="rgb(151,148,179)" stroke-width="1" opacity="1" d="M 75 181 L 157.5 181 L 158.5 182 L 159.5 181 L 366 181 L 366 239.5 L 363.5 240 L 353.5 238 L 332.5 238 L 331.5 239 L 322.5 239 L 308.5 243 L 291.5 251 Q 274.3 260.8 262 275.5 L 252 289.5 L 243 308.5 L 238 331.5 L 238 353.5 L 240 366 L 83.5 366 L 77 360.5 L 76 358.5 L 76 213.5 L 75 212.5 L 75 181 Z M 111 203 L 109 205 L 109 227 L 145 227 L 146 226 L 146 205 L 145 203 L 111 203 Z M 181 203 L 179 205 L 179 214 L 180 215 Q 182 222 179 226 L 181 227 L 216 227 L 216 203 L 181 203 Z M 251 203 L 249 205 L 249 226 L 251 227 L 282 227 L 284 228 L 286 226 L 286 205 L 285 203 L 251 203 Z M 111 249 L 109 251 L 109 273 L 111 274 L 145 274 L 146 273 L 146 251 L 145 249 L 111 249 Z M 181 249 L 179 251 L 179 263 L 180 264 L 179 273 L 181 274 L 215 274 L 216 273 L 216 251 L 215 249 L 181 249 Z M 109 296 L 109 320 L 111 321 L 145 321 L 146 320 L 146 298 L 145 296 L 109 296 Z M 181 296 L 179 298 L 179 319 L 180 321 L 215 321 L 216 320 L 216 296 L 181 296 Z " /><path fill="rgb(151,148,179)" stroke="rgb(151,148,179)" stroke-width="1" opacity="1" d="M 340.5 262 L 357.5 263 L 378.5 270 Q 394.1 277.9 405 290.5 Q 416.8 303.2 422 322.5 L 424 333.5 L 424 353.5 Q 421.5 355 423 360.5 L 418 375.5 L 410 389.5 L 401 401 L 386.5 412 L 370.5 420 L 353.5 424 L 332.5 424 L 315.5 420 L 306.5 416 Q 291.4 408.1 281 395.5 L 273 384.5 L 267 371.5 L 263 357.5 L 262 340.5 L 263 339.5 L 263 329.5 L 265 321.5 L 273 302.5 Q 280.9 289.4 292.5 280 Q 302.3 271.8 315.5 267 L 328.5 263 L 339.5 263 L 340.5 262 Z M 333 307 L 331 309 L 331 330 L 330 331 Q 333 336 331 347 L 333 351 L 365 383 L 365 384 L 368 383 Q 370 384 369 381 L 371 381 L 378 373 Q 380 374 379 371 L 381 371 L 381 369 L 383 369 L 383 368 L 384 367 L 356 339 L 356 308 L 336 308 L 333 307 Z " /></svg>