<svg width="500" height="500" version="1.1" xmlns="http://www.w3.org/2000/svg" desc="Created with imagetracer.js version 1.2.6" ><path fill="rgb(117,117,117)" stroke="rgb(117,117,117)" stroke-width="1" opacity="0.8862745098039215" d="M 43.5 31 L 457 31.5 L 43.5 32 L 43.5 31 Z " /><path fill="rgb(117,117,117)" stroke="rgb(117,117,117)" stroke-width="1" opacity="0.8862745098039215" d="M 40.5 32 L 42 32.5 L 39.5 34 L 40.5 32 Z " /><path fill="rgb(117,117,117)" stroke="rgb(117,117,117)" stroke-width="1" opacity="0.8862745098039215" d="M 37.5 34 L 34.5 38 L 37.5 34 Z " /><path fill="rgb(117,117,117)" stroke="rgb(117,117,117)" stroke-width="1" opacity="0.8862745098039215" d="M 462.5 34 L 465.5 38 L 462.5 34 Z " /><path fill="rgb(117,117,117)" stroke="rgb(117,117,117)" stroke-width="1" opacity="0.8862745098039215" d="M 31.5 44 L 32 49.5 L 31 49.5 L 31.5 44 Z " /><path fill="rgb(117,117,117)" stroke="rgb(117,117,117)" stroke-width="1" opacity="0.8862745098039215" d="M 468.5 44 L 469 49.5 L 468 49.5 L 468.5 44 Z " /><path fill="rgb(117,117,117)" stroke="rgb(117,117,117)" stroke-width="1" opacity="0.8862745098039215" d="M 64.5 116 L 69 121.5 L 65 118.5 L 64.5 116 Z " /><path fill="rgb(117,117,117)" stroke="rgb(117,117,117)" stroke-width="1" opacity="0.8862745098039215" d="M 435.5 116 L 435 117.5 L 431.5 122 L 434 118.5 L 435.5 116 Z " /><path fill="rgb(117,117,117)" stroke="rgb(117,117,117)" stroke-width="1" opacity="0.8862745098039215" d="M 70.5 122 L 71.5 124 L 70.5 122 Z " /><path fill="rgb(117,117,117)" stroke="rgb(117,117,117)" stroke-width="1" opacity="0.8862745098039215" d="M 86.5 142 L 88 142.5 L 85.5 144 L 86.5 142 Z " /><path fill="rgb(117,117,117)" stroke="rgb(117,117,117)" stroke-width="1" opacity="0.8862745098039215" d="M 414.5 143 L 415.5 145 L 414.5 143 Z " /><path fill="rgb(117,117,117)" stroke="rgb(117,117,117)" stroke-width="1" opacity="0.8862745098039215" d="M 83.5 144 L 81.5 147 L 83.5 144 Z " /><path fill="rgb(117,117,117)" stroke="rgb(117,117,117)" stroke-width="1" opacity="0.8862745098039215" d="M 418.5 147 L 419.5 149 L 418.5 147 Z " /><path fill="rgb(117,117,117)" stroke="rgb(117,117,117)" stroke-width="1" opacity="0.8862745098039215" d="M 78.5 153 L 79 159.5 L 78 159.5 L 78.5 153 Z " /><path fill="rgb(117,117,117)" stroke="rgb(117,117,117)" stroke-width="1" opacity="0.8862745098039215" d="M 421.5 153 L 422 159.5 L 421 159.5 L 421.5 153 Z " /><path fill="rgb(117,117,117)" stroke="rgb(117,117,117)" stroke-width="1" opacity="0.8862745098039215" d="M 103.5 223 L 106 227.5 L 104 226.5 L 103.5 223 Z " /><path fill="rgb(117,117,117)" stroke="rgb(117,117,117)" stroke-width="1" opacity="0.8862745098039215" d="M 395.5 226 L 394.5 228 L 395.5 226 Z " /><path fill="rgb(117,117,117)" stroke="rgb(117,117,117)" stroke-width="1" opacity="0.8862745098039215" d="M 106.5 229 L 112 232.5 L 110.5 233 L 106.5 229 Z " /><path fill="rgb(117,117,117)" stroke="rgb(117,117,117)" stroke-width="1" opacity="0.8862745098039215" d="M 393.5 229 L 392.5 231 L 393.5 229 Z " /><path fill="rgb(117,117,117)" stroke="rgb(117,117,117)" stroke-width="1" opacity="0.8862745098039215" d="M 390.5 231 L 389.5 233 L 388 232.5 L 390.5 231 Z " /><path fill="rgb(117,117,117)" stroke="rgb(117,117,117)" stroke-width="1" opacity="0.8862745098039215" d="M 130.5 253 L 127.5 257 L 130.5 253 Z " /><path fill="rgb(117,117,117)" stroke="rgb(117,117,117)" stroke-width="1" opacity="0.8862745098039215" d="M 369.5 253 L 372.5 257 L 369.5 253 Z " /><path fill="rgb(117,117,117)" stroke="rgb(117,117,117)" stroke-width="1" opacity="0.8862745098039215" d="M 124.5 264 L 125 267.5 L 124 267.5 L 124.5 264 Z " /><path fill="rgb(117,117,117)" stroke="rgb(117,117,117)" stroke-width="1" opacity="0.8862745098039215" d="M 375.5 264 L 376 266.5 L 375 266.5 L 375.5 264 Z " /><path fill="rgb(117,117,117)" stroke="rgb(117,117,117)" stroke-width="1" opacity="0.8862745098039215" d="M 144.5 337 L 147.5 341 L 144.5 337 Z " /><path fill="rgb(117,117,117)" stroke="rgb(117,117,117)" stroke-width="1" opacity="0.8862745098039215" d="M 355.5 337 L 352.5 341 L 355.5 337 Z " /><path fill="rgb(117,117,117)" stroke="rgb(117,117,117)" stroke-width="1" opacity="0.8862745098039215" d="M 154.5 343 L 203 343.5 L 154.5 344 L 154.5 343 Z " /><path fill="rgb(117,117,117)" stroke="rgb(117,117,117)" stroke-width="1" opacity="0.8862745098039215" d="M 235.5 343 L 265 343.5 L 235.5 344 L 235.5 343 Z " /><path fill="rgb(117,117,117)" stroke="rgb(117,117,117)" stroke-width="1" opacity="0.8862745098039215" d="M 297.5 343 L 346 343.5 L 297.5 344 L 297.5 343 Z " /><path fill="rgb(117,117,117)" stroke="rgb(117,117,117)" stroke-width="1" opacity="0.8862745098039215" d="M 234.5 375 L 235 385.5 L 234 385.5 L 234.5 375 Z " /><path fill="rgb(117,117,117)" stroke="rgb(117,117,117)" stroke-width="1" opacity="0.8862745098039215" d="M 179.5 377 L 178.5 379 L 179.5 377 Z " /><path fill="rgb(117,117,117)" stroke="rgb(117,117,117)" stroke-width="1" opacity="0.8862745098039215" d="M 175.5 381 L 174.5 383 L 175.5 381 Z " /><path fill="rgb(117,117,117)" stroke="rgb(117,117,117)" stroke-width="1" opacity="0.8862745098039215" d="M 233.5 390 L 234 392.5 L 233 392.5 L 233.5 390 Z " /><path fill="rgb(117,117,117)" stroke="rgb(117,117,117)" stroke-width="1" opacity="0.8862745098039215" d="M 266.5 392 L 268 396.5 L 276 405.5 L 274 406.5 L 275 404.5 L 267 396.5 L 266.5 392 Z " /><path fill="rgb(117,117,117)" stroke="rgb(117,117,117)" stroke-width="1" opacity="0.8862745098039215" d="M 173.5 396 L 175 398.5 L 173 397.5 L 173.5 396 Z " /><path fill="rgb(117,117,117)" stroke="rgb(117,117,117)" stroke-width="1" opacity="0.8862745098039215" d="M 326.5 396 L 327 397.5 L 325 398.5 L 326.5 396 Z " /><path fill="rgb(117,117,117)" stroke="rgb(117,117,117)" stroke-width="1" opacity="0.8862745098039215" d="M 231.5 397 L 231 398.5 L 226.5 404 L 230 399.5 L 231.5 397 Z " /><path fill="rgb(117,117,117)" stroke="rgb(117,117,117)" stroke-width="1" opacity="0.8862745098039215" d="M 175.5 400 L 240.5 466 L 175.5 400 Z " /><path fill="rgb(117,117,117)" stroke="rgb(117,117,117)" stroke-width="1" opacity="0.8862745098039215" d="M 324.5 400 L 259.5 466 L 324.5 400 Z " /><path fill="rgb(117,117,117)" stroke="rgb(117,117,117)" stroke-width="1" opacity="0.8862745098039215" d="M 224.5 405 L 226.5 408 L 224.5 405 Z " /><path fill="rgb(117,117,117)" stroke="rgb(117,117,117)" stroke-width="1" opacity="0.8862745098039215" d="M 273.5 408 L 253.5 429 L 273.5 408 Z " /><path fill="rgb(117,117,117)" stroke="rgb(117,117,117)" stroke-width="1" opacity="0.8862745098039215" d="M 228.5 409 L 230.5 412 L 228.5 409 Z " /><path fill="rgb(117,117,117)" stroke="rgb(117,117,117)" stroke-width="1" opacity="0.8862745098039215" d="M 242.5 466 L 245 467.5 L 243.5 468 L 242.5 466 Z " /><path fill="rgb(117,117,117)" stroke="rgb(117,117,117)" stroke-width="1" opacity="0.8862745098039215" d="M 257.5 466 L 256.5 468 L 255 467.5 L 257.5 466 Z " /><path fill="rgb(117,117,117)" stroke="rgb(117,117,117)" stroke-width="1" opacity="0.8862745098039215" d="M 246.5 468 L 254 468.5 L 246.5 469 L 246.5 468 Z " /><path fill="rgb(150,148,178)" stroke="rgb(150,148,178)" stroke-width="1" opacity="1" d="M 235.5 416 L 241.5 423 L 235.5 416 Z " /><path fill="rgb(150,148,178)" stroke="rgb(150,148,178)" stroke-width="1" opacity="1" d="M 247.5 428 L 249.5 431 L 247.5 428 Z " /><path fill="rgb(151,148,179)" stroke="rgb(151,148,179)" stroke-width="1" opacity="1" d="M 42.5 32 L 416.5 32 L 417.5 33 L 418.5 32 L 457.5 32 L 466 38.5 Q 469 42.5 468 50.5 L 436 115.5 L 429.5 123 L 423.5 125 L 76.5 125 Q 69.1 123.9 66 118.5 L 33 53.5 L 32 43.5 L 36.5 36 L 39.5 34 L 42.5 32 Z " /><path fill="rgb(151,148,179)" stroke="rgb(151,148,179)" stroke-width="1" opacity="1" d="M 91.5 141 L 408.5 141 L 418 146.5 L 417.5 148 L 420 149.5 Q 422.7 153.3 421 161.5 L 396 225.5 L 391.5 231 L 384.5 234 L 351.5 234 L 349.5 234 L 115.5 234 L 106 228.5 L 79 161.5 L 79 151.5 L 84.5 144 L 91.5 141 Z " /><path fill="rgb(151,148,179)" stroke="rgb(151,148,179)" stroke-width="1" opacity="1" d="M 138.5 250 L 361.5 250 Q 369.6 251.4 373 257.5 Q 376.3 261.2 375 269.5 L 359 328.5 Q 357.5 337 351.5 341 L 347.5 343 L 297 343 L 297 375 L 313.5 375 Q 321.3 376.2 325 381.5 Q 328 385.5 328 392.5 L 325 399.5 L 258.5 466 Q 254.5 469.5 245.5 468 L 241.5 466 L 175 399.5 L 172 389.5 Q 173.3 382.8 177.5 379 L 186.5 375 L 203 375 L 203 343 L 152.5 343 L 144 336.5 L 126 273.5 L 125 261.5 L 132.5 252 L 138.5 250 Z M 236 343 L 234 345 L 234 390 L 230 400 L 224 406 L 250 431 L 254 429 L 276 406 L 268 397 L 266 392 L 266 345 L 265 343 L 236 343 Z " /><path fill="rgb(0,0,0)" stroke="rgb(0,0,0)" stroke-width="1" opacity="0" d="M 0 0 L 500 0 L 500 500 L 0 500 L 0 0 Z M 46 30 L 39 32 Q 32 36 30 46 L 30 50 L 34 59 L 34 61 Q 33 63 36 62 L 37 67 L 42 74 L 42 77 L 64 120 Q 68 125 76 126 L 426 126 L 434 123 L 446 100 Q 445 97 448 98 L 447 97 L 461 70 Q 460 66 463 67 L 471 47 L 468 39 L 462 32 L 455 30 L 46 30 Z M 93 139 L 85 142 L 78 149 L 79 150 L 77 156 L 78 164 L 81 168 L 87 188 L 91 196 L 91 199 L 93 201 L 103 228 Q 107 234 116 236 L 385 236 L 395 231 Q 394 228 397 229 L 399 222 L 401 220 L 401 217 L 403 215 Q 401 209 405 210 L 404 209 L 406 207 Q 407 198 411 194 L 423 159 L 423 154 L 420 147 L 415 141 L 407 139 L 107 139 L 106 140 L 93 139 Z M 139 249 L 130 252 Q 124 256 123 264 L 126 281 L 128 285 L 138 325 L 138 327 Q 141 327 140 332 L 140 334 L 143 337 L 143 339 Q 146 338 145 341 L 155 345 L 200 345 L 203 350 Q 200 358 202 372 L 201 374 Q 185 372 176 377 L 171 386 L 171 397 L 172 399 L 189 416 L 192 418 L 209 437 L 241 467 L 250 471 L 257 468 Q 261 469 260 466 L 266 463 L 265 462 Q 267 457 269 460 L 291 436 L 295 433 L 297 430 Q 299 426 301 428 Q 300 424 303 425 L 305 422 L 310 418 L 326 402 L 329 397 Q 331 386 327 382 L 320 375 L 297 374 L 298 373 L 298 348 L 301 345 L 347 345 L 350 343 L 353 343 Q 352 340 355 341 L 360 334 L 363 319 L 365 315 L 365 311 Q 368 309 366 308 L 371 291 L 371 289 Q 375 282 375 272 L 377 269 L 376 267 L 377 264 L 373 255 L 367 250 L 362 249 L 139 249 Z " /><path fill="rgb(0,0,0)" stroke="rgb(0,0,0)" stroke-width="1" opacity="0" d="M 237 345 L 262.5 345 L 263 346.5 L 265 348.5 L 265 365.5 L 264 366.5 L 264 375.5 L 265 376.5 L 265 388.5 L 264 391.5 L 268 401 Q 270.7 399.9 270 402.5 L 274 405.5 L 267.5 413 Q 265.3 412.3 266 414.5 L 263 416 L 261.5 419 L 249 429 L 248.5 426 Q 246.8 428.8 245 424.5 L 242.5 421 L 230 409.5 L 230.5 408 L 227 406.5 L 233 399.5 L 236 389.5 L 236 347.5 L 237 345 Z " /><path fill="rgb(195,195,195)" stroke="rgb(195,195,195)" stroke-width="1" opacity="0.23921568627450981" d="M 45.5 30 L 455 30.5 L 45.5 31 L 45.5 30 Z " /><path fill="rgb(195,195,195)" stroke="rgb(195,195,195)" stroke-width="1" opacity="0.23921568627450981" d="M 38.5 32 L 40 32.5 L 34 37.5 L 32.5 40 L 33 38.5 L 38.5 32 Z " /><path fill="rgb(195,195,195)" stroke="rgb(195,195,195)" stroke-width="1" opacity="0.23921568627450981" d="M 460.5 32 L 468 38.5 L 471 46.5 L 463 67 Q 460 65.8 461 69.5 L 447 96.5 L 447.5 98 Q 445.3 97.3 446 99.5 L 434 123 L 425.5 126 L 75.5 126 L 75.5 125 L 425.5 125 L 435 118.5 L 468 52.5 L 469 43.5 L 462.5 34 L 460.5 32 Z " /><path fill="rgb(195,195,195)" stroke="rgb(195,195,195)" stroke-width="1" opacity="0.23921568627450981" d="M 30.5 45 L 32 52.5 L 65 118.5 L 68.5 122 L 74 124.5 L 71.5 125 L 64 119.5 L 42 76.5 L 42 73.5 L 37 66.5 L 36 62 Q 33.3 63.1 34 60.5 L 34 58.5 L 30 49.5 L 30.5 45 Z " /><path fill="rgb(195,195,195)" stroke="rgb(195,195,195)" stroke-width="1" opacity="0.23921568627450981" d="M 92.5 139 L 105.5 140 L 106.5 139 L 406.5 139 L 414.5 141 L 420 146.5 L 422 151.5 L 421 151.5 Q 419.4 144.6 413.5 142 L 410.5 141 L 88.5 141 L 81 146.5 L 78.5 152 L 78 150.5 L 78 148.5 L 84.5 142 L 92.5 139 Z " /><path fill="rgb(195,195,195)" stroke="rgb(195,195,195)" stroke-width="1" opacity="0.23921568627450981" d="M 422.5 153 L 423 158.5 L 422 158.5 L 422.5 153 Z " /><path fill="rgb(195,195,195)" stroke="rgb(195,195,195)" stroke-width="1" opacity="0.23921568627450981" d="M 77.5 155 L 78 157.5 L 77 157.5 L 77.5 155 Z " /><path fill="rgb(195,195,195)" stroke="rgb(195,195,195)" stroke-width="1" opacity="0.23921568627450981" d="M 78.5 160 L 80 164.5 L 78 163.5 L 78.5 160 Z " /><path fill="rgb(195,195,195)" stroke="rgb(195,195,195)" stroke-width="1" opacity="0.23921568627450981" d="M 421.5 160 L 422 163.5 L 420 164.5 L 421.5 160 Z " /><path fill="rgb(195,195,195)" stroke="rgb(195,195,195)" stroke-width="1" opacity="0.23921568627450981" d="M 419.5 166 L 420 168.5 L 418 169.5 L 419.5 166 Z " /><path fill="rgb(195,195,195)" stroke="rgb(195,195,195)" stroke-width="1" opacity="0.23921568627450981" d="M 82.5 171 L 102 222.5 L 107.5 231 L 113.5 234 L 387.5 234 L 394 229.5 L 398 222.5 L 417.5 171 L 418 173.5 L 411 193.5 L 407 200.5 L 406 206.5 L 404 208.5 L 404.5 210 Q 401.1 209.1 403 214.5 L 401 216.5 L 401 219.5 L 399 221.5 L 397 229 Q 394.3 227.9 395 230.5 L 384.5 236 L 115.5 236 Q 107.2 233.9 103 227.5 L 93 200.5 L 91 198.5 L 91 195.5 L 82 173.5 L 82.5 171 Z " /><path fill="rgb(195,195,195)" stroke="rgb(195,195,195)" stroke-width="1" opacity="0.23921568627450981" d="M 138.5 249 L 362 249.5 L 138.5 250 L 138.5 249 Z " /><path fill="rgb(195,195,195)" stroke="rgb(195,195,195)" stroke-width="1" opacity="0.23921568627450981" d="M 133.5 250 L 136 250.5 Q 129.6 251.6 127 256.5 L 125 264 L 123 263.5 Q 124.4 256 129.5 252 L 133.5 250 Z " /><path fill="rgb(195,195,195)" stroke="rgb(195,195,195)" stroke-width="1" opacity="0.23921568627450981" d="M 364.5 250 Q 370.4 250.6 373 254.5 L 377 263.5 L 375 264 Q 374.8 256.4 369.5 253 L 364.5 251 L 364.5 250 Z " /><path fill="rgb(195,195,195)" stroke="rgb(195,195,195)" stroke-width="1" opacity="0.23921568627450981" d="M 375 267 Q 377.7 265.9 377 268.5 L 375.5 271 L 375 267 Z " /><path fill="rgb(195,195,195)" stroke="rgb(195,195,195)" stroke-width="1" opacity="0.23921568627450981" d="M 124.5 268 L 125 270.5 L 124 270.5 L 124.5 268 Z " /><path fill="rgb(195,195,195)" stroke="rgb(195,195,195)" stroke-width="1" opacity="0.23921568627450981" d="M 125.5 272 L 141 330.5 Q 142.6 337.4 147.5 341 L 150 342.5 L 148.5 343 L 145 341 Q 146 338 143 339 L 143 336.5 L 140 333.5 L 140 331.5 Q 140.8 327.3 138 326.5 L 138 324.5 L 128 284.5 L 126 280.5 L 125.5 272 Z " /><path fill="rgb(195,195,195)" stroke="rgb(195,195,195)" stroke-width="1" opacity="0.23921568627450981" d="M 374.5 272 L 375 276.5 L 371 288.5 L 371 290.5 L 366 307.5 Q 368.5 309 365 310.5 L 365 314.5 L 363 318.5 L 360 333.5 L 354.5 341 Q 351.9 340.3 353 343 L 349.5 343 L 346.5 345 L 300.5 345 L 298 347.5 L 297.5 373 L 297 344 L 346.5 344 L 356 337.5 L 361 323.5 L 374.5 272 Z " /><path fill="rgb(195,195,195)" stroke="rgb(195,195,195)" stroke-width="1" opacity="0.23921568627450981" d="M 151.5 343 L 154.5 344 L 203 344 L 202.5 349 L 199.5 345 L 154.5 345 L 151.5 344 L 151.5 343 Z " /><path fill="rgb(195,195,195)" stroke="rgb(195,195,195)" stroke-width="1" opacity="0.23921568627450981" d="M 234 344 L 266 344 L 266 394.5 L 275 405.5 L 250.5 431 L 242 423.5 L 225 405.5 Q 231.3 401.3 234 393.5 L 235 373.5 L 234 372.5 L 234 344 Z M 237 345 L 236 348 L 236 390 L 233 400 L 227 407 L 231 408 L 230 410 L 243 421 L 245 425 Q 247 429 249 426 L 249 429 L 262 419 L 263 416 L 266 415 Q 265 412 268 413 L 274 406 L 270 403 Q 271 400 268 401 L 264 392 L 265 389 L 265 377 L 264 376 L 264 367 L 265 366 L 265 349 L 263 347 L 263 345 L 237 345 Z " /><path fill="rgb(195,195,195)" stroke="rgb(195,195,195)" stroke-width="1" opacity="0.23921568627450981" d="M 202.5 353 L 203 375 L 185 374.5 L 201 374 L 202 371.5 L 202.5 353 Z " /><path fill="rgb(195,195,195)" stroke="rgb(195,195,195)" stroke-width="1" opacity="0.23921568627450981" d="M 297.5 374 L 315 374.5 L 297.5 375 L 297.5 374 Z " /><path fill="rgb(195,195,195)" stroke="rgb(195,195,195)" stroke-width="1" opacity="0.23921568627450981" d="M 180.5 375 L 183 375.5 L 174 382.5 Q 170.7 386.2 172 394.5 L 175 400.5 L 241 466.5 L 230.5 457 L 209 436.5 L 191.5 418 L 188.5 416 L 172 398.5 L 171 396.5 L 171 385.5 L 176 377 L 180.5 375 Z " /><path fill="rgb(195,195,195)" stroke="rgb(195,195,195)" stroke-width="1" opacity="0.23921568627450981" d="M 317.5 375 Q 324.6 375.9 327 381.5 Q 330.8 386.2 329 396.5 L 326 401.5 L 309.5 418 L 308 418.5 L 308.5 420 Q 306.8 417.3 305 421.5 L 302.5 425 Q 299.9 424.2 301 427.5 Q 299 425.8 297 429.5 L 294.5 433 L 291 435.5 L 268.5 460 Q 266.8 457.2 265 461.5 L 265.5 463 L 260 466 Q 261.3 469 257.5 468 L 257.5 467 L 325 400.5 Q 329.3 396.3 328 386.5 L 320.5 377 Q 316.7 376.8 317.5 375 Z " /><path fill="rgb(195,195,195)" stroke="rgb(195,195,195)" stroke-width="1" opacity="0.23921568627450981" d="M 254.5 468 L 256 468.5 L 249.5 471 L 247 469.5 L 254.5 468 Z " /></svg>