<svg width="500" height="500" version="1.1" xmlns="http://www.w3.org/2000/svg" desc="Created with imagetracer.js version 1.2.6" ><path fill="rgb(122,122,122)" stroke="rgb(122,122,122)" stroke-width="1" opacity="0.8941176470588236" d="M 232.5 33 L 234 33.5 L 231.5 35 L 232.5 33 Z " /><path fill="rgb(122,122,122)" stroke="rgb(122,122,122)" stroke-width="1" opacity="0.8941176470588236" d="M 194.5 52 L 196 52.5 L 193.5 54 L 194.5 52 Z " /><path fill="rgb(122,122,122)" stroke="rgb(122,122,122)" stroke-width="1" opacity="0.8941176470588236" d="M 305.5 52 L 306.5 54 L 305.5 52 Z " /><path fill="rgb(122,122,122)" stroke="rgb(122,122,122)" stroke-width="1" opacity="0.8941176470588236" d="M 187.5 59 L 187 60.5 Q 187.8 62.8 185.5 62 L 184 62.5 L 187.5 59 Z " /><path fill="rgb(122,122,122)" stroke="rgb(122,122,122)" stroke-width="1" opacity="0.8941176470588236" d="M 313.5 60 L 314.5 62 Q 311.7 62.7 313.5 60 Z " /><path fill="rgb(122,122,122)" stroke="rgb(122,122,122)" stroke-width="1" opacity="0.8941176470588236" d="M 74.5 94 L 82 94.5 L 74.5 95 L 74.5 94 Z " /><path fill="rgb(122,122,122)" stroke="rgb(122,122,122)" stroke-width="1" opacity="0.8941176470588236" d="M 418.5 94 L 426 94.5 L 418.5 95 L 418.5 94 Z " /><path fill="rgb(122,122,122)" stroke="rgb(122,122,122)" stroke-width="1" opacity="0.8941176470588236" d="M 453.5 104 L 454.5 106 L 453.5 104 Z " /><path fill="rgb(122,122,122)" stroke="rgb(122,122,122)" stroke-width="1" opacity="0.8941176470588236" d="M 113.5 107 L 117.5 112 L 113 109 L 113.5 107 Z " /><path fill="rgb(122,122,122)" stroke="rgb(122,122,122)" stroke-width="1" opacity="0.8941176470588236" d="M 386.5 107 L 382.5 112 L 386.5 107 Z " /><path fill="rgb(122,122,122)" stroke="rgb(122,122,122)" stroke-width="1" opacity="0.8941176470588236" d="M 24.5 142 L 25 153.5 L 24 153.5 L 24.5 142 Z " /><path fill="rgb(122,122,122)" stroke="rgb(122,122,122)" stroke-width="1" opacity="0.8941176470588236" d="M 475.5 142 L 476 146.5 L 475 146.5 L 475.5 142 Z " /><path fill="rgb(122,122,122)" stroke="rgb(122,122,122)" stroke-width="1" opacity="0.8941176470588236" d="M 475.5 148 L 476 153.5 L 475 153.5 L 475.5 148 Z " /><path fill="rgb(122,122,122)" stroke="rgb(122,122,122)" stroke-width="1" opacity="0.8941176470588236" d="M 317.5 167 L 318 168.5 L 316 169.5 L 317.5 167 Z " /><path fill="rgb(122,122,122)" stroke="rgb(122,122,122)" stroke-width="1" opacity="0.8941176470588236" d="M 187.5 173 L 193 179.5 L 187 174.5 L 187.5 173 Z " /><path fill="rgb(122,122,122)" stroke="rgb(122,122,122)" stroke-width="1" opacity="0.8941176470588236" d="M 313.5 173 L 306.5 181 L 306 179 L 313.5 173 Z " /><path fill="rgb(122,122,122)" stroke="rgb(122,122,122)" stroke-width="1" opacity="0.8941176470588236" d="M 122.5 178 L 121.5 180 L 122.5 178 Z " /><path fill="rgb(122,122,122)" stroke="rgb(122,122,122)" stroke-width="1" opacity="0.8941176470588236" d="M 377.5 178 L 378.5 180 L 377.5 178 Z " /><path fill="rgb(122,122,122)" stroke="rgb(122,122,122)" stroke-width="1" opacity="0.8941176470588236" d="M 34.5 179 L 35.5 181 L 34.5 179 Z " /><path fill="rgb(122,122,122)" stroke="rgb(122,122,122)" stroke-width="1" opacity="0.8941176470588236" d="M 380.5 181 L 386.5 188 L 388 188.5 L 386.5 189 L 380 182.5 L 380.5 181 Z " /><path fill="rgb(122,122,122)" stroke="rgb(122,122,122)" stroke-width="1" opacity="0.8941176470588236" d="M 118.5 183 L 117.5 185 L 118.5 183 Z " /><path fill="rgb(122,122,122)" stroke="rgb(122,122,122)" stroke-width="1" opacity="0.8941176470588236" d="M 197.5 183 L 198.5 185 L 197.5 183 Z " /><path fill="rgb(122,122,122)" stroke="rgb(122,122,122)" stroke-width="1" opacity="0.8941176470588236" d="M 39.5 185 L 41.5 188 L 39.5 185 Z " /><path fill="rgb(122,122,122)" stroke="rgb(122,122,122)" stroke-width="1" opacity="0.8941176470588236" d="M 460.5 185 L 459.5 187 L 460.5 185 Z " /><path fill="rgb(122,122,122)" stroke="rgb(122,122,122)" stroke-width="1" opacity="0.8941176470588236" d="M 115.5 186 L 112.5 190 L 115.5 186 Z " /><path fill="rgb(122,122,122)" stroke="rgb(122,122,122)" stroke-width="1" opacity="0.8941176470588236" d="M 45.5 190 L 46.5 192 L 45.5 190 Z " /><path fill="rgb(122,122,122)" stroke="rgb(122,122,122)" stroke-width="1" opacity="0.8941176470588236" d="M 109.5 191 L 108.5 193 L 109.5 191 Z " /><path fill="rgb(122,122,122)" stroke="rgb(122,122,122)" stroke-width="1" opacity="0.8941176470588236" d="M 390.5 191 L 391.5 193 L 390.5 191 Z " /><path fill="rgb(122,122,122)" stroke="rgb(122,122,122)" stroke-width="1" opacity="0.8941176470588236" d="M 280.5 195 L 279.5 197 L 280.5 195 Z " /><path fill="rgb(122,122,122)" stroke="rgb(122,122,122)" stroke-width="1" opacity="0.8941176470588236" d="M 72.5 201 L 76 201.5 L 72.5 202 L 72.5 201 Z " /><path fill="rgb(122,122,122)" stroke="rgb(122,122,122)" stroke-width="1" opacity="0.8941176470588236" d="M 80.5 201 L 84 201.5 L 80.5 202 L 80.5 201 Z " /><path fill="rgb(122,122,122)" stroke="rgb(122,122,122)" stroke-width="1" opacity="0.8941176470588236" d="M 242.5 201 L 246 201.5 L 242.5 202 L 242.5 201 Z " /><path fill="rgb(122,122,122)" stroke="rgb(122,122,122)" stroke-width="1" opacity="0.8941176470588236" d="M 254.5 201 L 258 201.5 L 254.5 202 L 254.5 201 Z " /><path fill="rgb(122,122,122)" stroke="rgb(122,122,122)" stroke-width="1" opacity="0.8941176470588236" d="M 416.5 201 L 420 201.5 L 416.5 202 L 416.5 201 Z " /><path fill="rgb(122,122,122)" stroke="rgb(122,122,122)" stroke-width="1" opacity="0.8941176470588236" d="M 424.5 201 L 428 201.5 L 424.5 202 L 424.5 201 Z " /><path fill="rgb(122,122,122)" stroke="rgb(122,122,122)" stroke-width="1" opacity="0.8941176470588236" d="M 233.5 234 L 238 234.5 L 232.5 236 L 233.5 234 Z " /><path fill="rgb(122,122,122)" stroke="rgb(122,122,122)" stroke-width="1" opacity="0.8941176470588236" d="M 259.5 234 Q 264.8 232.8 266 235.5 L 264.5 235 Q 258.5 236.3 259.5 234 Z " /><path fill="rgb(122,122,122)" stroke="rgb(122,122,122)" stroke-width="1" opacity="0.8941176470588236" d="M 96.5 235 L 99 236.5 L 97.5 236 L 96.5 235 Z " /><path fill="rgb(122,122,122)" stroke="rgb(122,122,122)" stroke-width="1" opacity="0.8941176470588236" d="M 276.5 235 Q 280.3 234.3 281 236.5 L 279.5 236 Q 275.5 236.8 276.5 235 Z " /><path fill="rgb(122,122,122)" stroke="rgb(122,122,122)" stroke-width="1" opacity="0.8941176470588236" d="M 402.5 235 L 404 235.5 L 401.5 237 L 402.5 235 Z " /><path fill="rgb(122,122,122)" stroke="rgb(122,122,122)" stroke-width="1" opacity="0.8941176470588236" d="M 217.5 236 L 216.5 238 L 217.5 236 Z " /><path fill="rgb(122,122,122)" stroke="rgb(122,122,122)" stroke-width="1" opacity="0.8941176470588236" d="M 291.5 237 L 292.5 239 L 291.5 237 Z " /><path fill="rgb(122,122,122)" stroke="rgb(122,122,122)" stroke-width="1" opacity="0.8941176470588236" d="M 110.5 238 L 111.5 240 L 110.5 238 Z " /><path fill="rgb(122,122,122)" stroke="rgb(122,122,122)" stroke-width="1" opacity="0.8941176470588236" d="M 295.5 238 L 296.5 240 L 295.5 238 Z " /><path fill="rgb(122,122,122)" stroke="rgb(122,122,122)" stroke-width="1" opacity="0.8941176470588236" d="M 23.5 250 L 22.5 252 L 23.5 250 Z " /><path fill="rgb(122,122,122)" stroke="rgb(122,122,122)" stroke-width="1" opacity="0.8941176470588236" d="M 475.5 250 L 478 251.5 L 476.5 251 L 475.5 250 Z " /><path fill="rgb(122,122,122)" stroke="rgb(122,122,122)" stroke-width="1" opacity="0.8941176470588236" d="M 18.5 255 L 15.5 259 L 18.5 255 Z " /><path fill="rgb(122,122,122)" stroke="rgb(122,122,122)" stroke-width="1" opacity="0.8941176470588236" d="M 482.5 256 L 484.5 259 L 482.5 256 Z " /><path fill="rgb(122,122,122)" stroke="rgb(122,122,122)" stroke-width="1" opacity="0.8941176470588236" d="M 123.5 258 L 121.5 261 L 123.5 258 Z " /><path fill="rgb(122,122,122)" stroke="rgb(122,122,122)" stroke-width="1" opacity="0.8941176470588236" d="M 160.5 262 L 159.5 264 L 160.5 262 Z " /><path fill="rgb(122,122,122)" stroke="rgb(122,122,122)" stroke-width="1" opacity="0.8941176470588236" d="M 339.5 262 L 340.5 264 L 339.5 262 Z " /><path fill="rgb(122,122,122)" stroke="rgb(122,122,122)" stroke-width="1" opacity="0.8941176470588236" d="M 381.5 264 L 382.5 266 L 381.5 264 Z " /><path fill="rgb(122,122,122)" stroke="rgb(122,122,122)" stroke-width="1" opacity="0.8941176470588236" d="M 384.5 268 L 385.5 270 L 384.5 268 Z " /><path fill="rgb(122,122,122)" stroke="rgb(122,122,122)" stroke-width="1" opacity="0.8941176470588236" d="M 351.5 274 L 353.5 277 L 351.5 274 Z " /><path fill="rgb(122,122,122)" stroke="rgb(122,122,122)" stroke-width="1" opacity="0.8941176470588236" d="M 356.5 280 L 357.5 282 L 356.5 280 Z " /><path fill="rgb(122,122,122)" stroke="rgb(122,122,122)" stroke-width="1" opacity="0.8941176470588236" d="M 98.5 300 L 97.5 302 L 98.5 300 Z " /><path fill="rgb(122,122,122)" stroke="rgb(122,122,122)" stroke-width="1" opacity="0.8941176470588236" d="M 404.5 309 L 405.5 311 L 404.5 309 Z " /><path fill="rgb(122,122,122)" stroke="rgb(122,122,122)" stroke-width="1" opacity="0.8941176470588236" d="M 89.5 344 L 90 346.5 L 89 346.5 L 89.5 344 Z " /><path fill="rgb(122,122,122)" stroke="rgb(122,122,122)" stroke-width="1" opacity="0.8941176470588236" d="M 410.5 344 L 411 346.5 L 410 346.5 L 410.5 344 Z " /><path fill="rgb(122,122,122)" stroke="rgb(122,122,122)" stroke-width="1" opacity="0.8941176470588236" d="M 117.5 360 L 118 368.5 L 117 368.5 L 117.5 360 Z " /><path fill="rgb(122,122,122)" stroke="rgb(122,122,122)" stroke-width="1" opacity="0.8941176470588236" d="M 88.5 361 L 89 367.5 L 88 367.5 L 88.5 361 Z " /><path fill="rgb(122,122,122)" stroke="rgb(122,122,122)" stroke-width="1" opacity="0.8941176470588236" d="M 411.5 363 L 412 375.5 L 411 375.5 L 411.5 363 Z " /><path fill="rgb(122,122,122)" stroke="rgb(122,122,122)" stroke-width="1" opacity="0.8941176470588236" d="M 411.5 380 L 412 397.5 L 411 397.5 L 411.5 380 Z " /><path fill="rgb(122,122,122)" stroke="rgb(122,122,122)" stroke-width="1" opacity="0.8941176470588236" d="M 88.5 386 L 89 401.5 L 88 401.5 L 88.5 386 Z " /><path fill="rgb(122,122,122)" stroke="rgb(122,122,122)" stroke-width="1" opacity="0.8941176470588236" d="M 117.5 388 L 118 399.5 L 117 399.5 L 117.5 388 Z " /><path fill="rgb(122,122,122)" stroke="rgb(122,122,122)" stroke-width="1" opacity="0.8941176470588236" d="M 381.5 405 L 382 413.5 L 381 413.5 L 381.5 405 Z " /><path fill="rgb(122,122,122)" stroke="rgb(122,122,122)" stroke-width="1" opacity="0.8941176470588236" d="M 381.5 424 L 382 428.5 L 381 428.5 L 381.5 424 Z " /><path fill="rgb(122,122,122)" stroke="rgb(122,122,122)" stroke-width="1" opacity="0.8941176470588236" d="M 118.5 426 L 119 432.5 L 118 432.5 L 118.5 426 Z " /><path fill="rgb(122,122,122)" stroke="rgb(122,122,122)" stroke-width="1" opacity="0.8941176470588236" d="M 415.5 435 L 416.5 437 L 415.5 435 Z " /><path fill="rgb(122,122,122)" stroke="rgb(122,122,122)" stroke-width="1" opacity="0.8941176470588236" d="M 451.5 435 L 469 435.5 L 451.5 436 L 451.5 435 Z " /><path fill="rgb(122,122,122)" stroke="rgb(122,122,122)" stroke-width="1" opacity="0.8941176470588236" d="M 50.5 436 L 65 436.5 L 50.5 437 L 50.5 436 Z " /><path fill="rgb(122,122,122)" stroke="rgb(122,122,122)" stroke-width="1" opacity="0.8941176470588236" d="M 67.5 436 L 82 436.5 L 67.5 437 L 67.5 436 Z " /><path fill="rgb(122,122,122)" stroke="rgb(122,122,122)" stroke-width="1" opacity="0.8941176470588236" d="M 418.5 436 L 434 436.5 L 418.5 437 L 418.5 436 Z " /><path fill="rgb(122,122,122)" stroke="rgb(122,122,122)" stroke-width="1" opacity="0.8941176470588236" d="M 436.5 436 L 448 436.5 L 436.5 437 L 436.5 436 Z " /><path fill="rgb(122,122,122)" stroke="rgb(122,122,122)" stroke-width="1" opacity="0.8941176470588236" d="M 126.5 455 L 127.5 457 L 126.5 455 Z " /><path fill="rgb(122,122,122)" stroke="rgb(122,122,122)" stroke-width="1" opacity="0.8941176470588236" d="M 373.5 456 L 370.5 460 L 373.5 456 Z " /><path fill="rgb(122,122,122)" stroke="rgb(122,122,122)" stroke-width="1" opacity="0.8941176470588236" d="M 129.5 458 L 130.5 460 L 129.5 458 Z " /><path fill="rgb(122,122,122)" stroke="rgb(122,122,122)" stroke-width="1" opacity="0.8941176470588236" d="M 136.5 463 L 139 464.5 L 137.5 464 L 136.5 463 Z " /><path fill="rgb(122,122,122)" stroke="rgb(122,122,122)" stroke-width="1" opacity="0.8941176470588236" d="M 150.5 467 L 192 467.5 L 150.5 468 L 150.5 467 Z " /><path fill="rgb(122,122,122)" stroke="rgb(122,122,122)" stroke-width="1" opacity="0.8941176470588236" d="M 285.5 467 L 288 467.5 L 285.5 468 L 285.5 467 Z " /><path fill="rgb(122,122,122)" stroke="rgb(122,122,122)" stroke-width="1" opacity="0.8941176470588236" d="M 311.5 467 L 315 467.5 L 311.5 468 L 311.5 467 Z " /><path fill="rgb(122,122,122)" stroke="rgb(122,122,122)" stroke-width="1" opacity="0.8941176470588236" d="M 334.5 467 L 339 467.5 L 334.5 468 L 334.5 467 Z " /><path fill="rgb(255,255,255)" stroke="rgb(255,255,255)" stroke-width="1" opacity="1" d="M 237.5 33 L 262.5 33 L 281.5 38 Q 300.5 46 313 60.5 Q 323.9 72.1 330 88.5 L 334 103.5 L 335 120.5 L 334 121.5 L 333 134.5 L 327 152.5 Q 319.4 167.9 307.5 179 Q 294 191.5 274.5 198 L 260.5 201 L 239.5 201 Q 206.5 195 188 174.5 Q 176.6 162.4 170 145.5 L 166 129.5 L 165 113.5 L 166 112.5 L 167 98.5 L 172 83.5 Q 180.3 65.3 194.5 53 Q 210.4 37.4 237.5 33 Z " /><path fill="rgb(255,255,255)" stroke="rgb(255,255,255)" stroke-width="1" opacity="1" d="M 71.5 95 L 84.5 95 L 99.5 99 Q 110.9 104.6 119 113.5 Q 126.4 122.1 130 134.5 L 131 138.5 L 131 157.5 Q 126.8 178.3 112.5 189 Q 103.9 196.4 91.5 200 L 86.5 201 L 69.5 201 Q 50.1 196.9 39 184.5 Q 24.5 171 25 142.5 Q 29.1 117.1 46.5 105 L 59.5 98 L 71.5 95 Z " /><path fill="rgb(255,255,255)" stroke="rgb(255,255,255)" stroke-width="1" opacity="1" d="M 415.5 95 L 428.5 95 L 440.5 98 Q 456 104 465 116.5 L 473 132.5 L 475 142.5 L 475 153.5 L 473 163.5 L 469 173.5 L 458.5 187 Q 450.3 194.8 438.5 199 L 430.5 201 L 413.5 201 Q 392.5 196.5 381 182.5 Q 373.2 174.3 370 161.5 L 369 157.5 L 369 138.5 Q 373.3 119.8 385.5 109 L 398.5 100 L 415.5 95 Z " /><path fill="rgb(255,255,255)" stroke="rgb(255,255,255)" stroke-width="1" opacity="1" d="M 233.5 235 L 279.5 236 L 305.5 242 Q 334.4 254.1 353 276.5 Q 371.1 296.9 379 327.5 L 381 338.5 L 381 413.5 Q 383.3 414.7 382 419.5 L 381 421.5 L 382 423.5 L 381 424.5 L 381 440.5 L 379 446.5 Q 375.9 454.9 369.5 460 L 361.5 464 L 351.5 466 L 342.5 466 L 341.5 467 L 288.5 468 L 285.5 467 L 283.5 467 L 148.5 467 Q 132.9 464.1 125 453.5 L 119 440.5 L 119 426.5 L 118 425.5 L 118 355.5 L 119 354.5 L 119 342.5 L 120 341.5 L 122 324.5 L 129 303.5 Q 140.7 278.2 161.5 262 Q 174.5 251 191.5 244 L 211.5 238 L 216.5 238 L 223.5 236 L 232.5 236 L 233.5 235 Z " /><path fill="rgb(255,255,255)" stroke="rgb(255,255,255)" stroke-width="1" opacity="1" d="M 56.5 236 L 97.5 236 Q 98.8 238.3 103.5 237 Q 119.7 240.5 130 249 L 113 270.5 L 105 283.5 Q 97.1 297.6 93 315.5 L 90 332.5 L 90 339.5 L 89 340.5 L 89 353.5 L 88 354.5 L 88 428.5 L 89 435 L 84.5 436 L 30.5 436 L 29.5 435 L 18.5 434 Q 10.1 430.4 5 423.5 L 0 409.5 L 0 297.5 L 1 296.5 L 2 284.5 L 10 266.5 L 24.5 250 Q 36.8 239.3 56.5 236 Z " /><path fill="rgb(255,255,255)" stroke="rgb(255,255,255)" stroke-width="1" opacity="1" d="M 402.5 236 L 443.5 236 L 452.5 238 Q 472.4 244.1 484 258.5 L 496 278.5 L 500 297.5 L 500 408.5 Q 497.5 424 486.5 431 L 477.5 435 L 416.5 436 L 411 435 L 412 431.5 L 412 429.5 L 412 353.5 L 411 352.5 L 411 339.5 L 410 338.5 L 410 331.5 L 407 314.5 Q 402 295 393 279.5 L 370 249 L 383.5 241 L 402.5 236 Z " /><path fill="rgb(64,64,64)" stroke="rgb(64,64,64)" stroke-width="1" opacity="0.6941176470588235" d="M 240.5 32 L 260 32.5 L 240.5 33 L 240.5 32 Z " /><path fill="rgb(64,64,64)" stroke="rgb(64,64,64)" stroke-width="1" opacity="0.6941176470588235" d="M 234.5 33 L 237 33.5 L 234.5 34 L 234.5 33 Z " /><path fill="rgb(64,64,64)" stroke="rgb(64,64,64)" stroke-width="1" opacity="0.6941176470588235" d="M 263.5 33 L 267 33.5 L 263.5 34 L 263.5 33 Z " /><path fill="rgb(64,64,64)" stroke="rgb(64,64,64)" stroke-width="1" opacity="0.6941176470588235" d="M 198.5 49 L 196.5 52 L 198.5 49 Z " /><path fill="rgb(64,64,64)" stroke="rgb(64,64,64)" stroke-width="1" opacity="0.6941176470588235" d="M 301.5 49 L 304.5 53 L 301.5 49 Z " /><path fill="rgb(64,64,64)" stroke="rgb(64,64,64)" stroke-width="1" opacity="0.6941176470588235" d="M 192.5 54 L 188.5 59 L 192.5 54 Z " /><path fill="rgb(64,64,64)" stroke="rgb(64,64,64)" stroke-width="1" opacity="0.6941176470588235" d="M 307.5 54 L 312.5 60 L 307.5 54 Z " /><path fill="rgb(64,64,64)" stroke="rgb(64,64,64)" stroke-width="1" opacity="0.6941176470588235" d="M 185.5 62 L 182.5 66 L 185.5 62 Z " /><path fill="rgb(64,64,64)" stroke="rgb(64,64,64)" stroke-width="1" opacity="0.6941176470588235" d="M 314.5 62 L 317.5 66 L 314.5 62 Z " /><path fill="rgb(64,64,64)" stroke="rgb(64,64,64)" stroke-width="1" opacity="0.6941176470588235" d="M 181.5 67 L 180.5 69 L 181.5 67 Z " /><path fill="rgb(64,64,64)" stroke="rgb(64,64,64)" stroke-width="1" opacity="0.6941176470588235" d="M 318.5 67 L 319.5 69 L 318.5 67 Z " /><path fill="rgb(64,64,64)" stroke="rgb(64,64,64)" stroke-width="1" opacity="0.6941176470588235" d="M 320.5 70 L 321.5 72 L 320.5 70 Z " /><path fill="rgb(64,64,64)" stroke="rgb(64,64,64)" stroke-width="1" opacity="0.6941176470588235" d="M 177.5 73 L 176.5 75 L 177.5 73 Z " /><path fill="rgb(64,64,64)" stroke="rgb(64,64,64)" stroke-width="1" opacity="0.6941176470588235" d="M 68.5 95 L 71 95.5 L 68.5 96 L 68.5 95 Z " /><path fill="rgb(64,64,64)" stroke="rgb(64,64,64)" stroke-width="1" opacity="0.6941176470588235" d="M 85.5 95 L 88 95.5 L 85.5 96 L 85.5 95 Z " /><path fill="rgb(64,64,64)" stroke="rgb(64,64,64)" stroke-width="1" opacity="0.6941176470588235" d="M 412.5 95 L 415 95.5 L 412.5 96 L 412.5 95 Z " /><path fill="rgb(64,64,64)" stroke="rgb(64,64,64)" stroke-width="1" opacity="0.6941176470588235" d="M 429.5 95 L 432 95.5 L 429.5 96 L 429.5 95 Z " /><path fill="rgb(64,64,64)" stroke="rgb(64,64,64)" stroke-width="1" opacity="0.6941176470588235" d="M 395.5 101 L 394.5 103 L 395.5 101 Z " /><path fill="rgb(64,64,64)" stroke="rgb(64,64,64)" stroke-width="1" opacity="0.6941176470588235" d="M 48.5 103 L 47.5 105 L 48.5 103 Z " /><path fill="rgb(64,64,64)" stroke="rgb(64,64,64)" stroke-width="1" opacity="0.6941176470588235" d="M 107.5 103 L 108.5 105 L 107.5 103 Z " /><path fill="rgb(64,64,64)" stroke="rgb(64,64,64)" stroke-width="1" opacity="0.6941176470588235" d="M 392.5 103 L 391.5 105 L 392.5 103 Z " /><path fill="rgb(64,64,64)" stroke="rgb(64,64,64)" stroke-width="1" opacity="0.6941176470588235" d="M 451.5 103 L 452.5 105 L 451.5 103 Z " /><path fill="rgb(64,64,64)" stroke="rgb(64,64,64)" stroke-width="1" opacity="0.6941176470588235" d="M 110.5 105 L 112.5 108 L 110.5 105 Z " /><path fill="rgb(64,64,64)" stroke="rgb(64,64,64)" stroke-width="1" opacity="0.6941176470588235" d="M 389.5 105 L 386.5 109 L 389.5 105 Z " /><path fill="rgb(64,64,64)" stroke="rgb(64,64,64)" stroke-width="1" opacity="0.6941176470588235" d="M 44.5 106 L 36.5 115 L 44.5 106 Z " /><path fill="rgb(64,64,64)" stroke="rgb(64,64,64)" stroke-width="1" opacity="0.6941176470588235" d="M 455.5 106 L 463.5 115 L 455.5 106 Z " /><path fill="rgb(64,64,64)" stroke="rgb(64,64,64)" stroke-width="1" opacity="0.6941176470588235" d="M 165.5 109 L 166 112.5 L 165 112.5 L 165.5 109 Z " /><path fill="rgb(64,64,64)" stroke="rgb(64,64,64)" stroke-width="1" opacity="0.6941176470588235" d="M 334.5 109 L 335 112.5 L 334 112.5 L 334.5 109 Z " /><path fill="rgb(64,64,64)" stroke="rgb(64,64,64)" stroke-width="1" opacity="0.6941176470588235" d="M 119.5 114 L 120.5 116 L 119.5 114 Z " /><path fill="rgb(64,64,64)" stroke="rgb(64,64,64)" stroke-width="1" opacity="0.6941176470588235" d="M 380.5 114 L 379.5 116 L 380.5 114 Z " /><path fill="rgb(64,64,64)" stroke="rgb(64,64,64)" stroke-width="1" opacity="0.6941176470588235" d="M 34.5 117 L 33.5 119 L 34.5 117 Z " /><path fill="rgb(64,64,64)" stroke="rgb(64,64,64)" stroke-width="1" opacity="0.6941176470588235" d="M 465.5 117 L 466.5 119 L 465.5 117 Z " /><path fill="rgb(64,64,64)" stroke="rgb(64,64,64)" stroke-width="1" opacity="0.6941176470588235" d="M 165.5 121 L 166 124.5 L 165 124.5 L 165.5 121 Z " /><path fill="rgb(64,64,64)" stroke="rgb(64,64,64)" stroke-width="1" opacity="0.6941176470588235" d="M 334.5 121 L 335 124.5 L 334 124.5 L 334.5 121 Z " /><path fill="rgb(64,64,64)" stroke="rgb(64,64,64)" stroke-width="1" opacity="0.6941176470588235" d="M 31.5 122 L 31 123.5 L 29.5 127 L 29 125.5 L 31.5 122 Z " /><path fill="rgb(64,64,64)" stroke="rgb(64,64,64)" stroke-width="1" opacity="0.6941176470588235" d="M 468.5 122 L 471 126.5 L 470 126.5 L 468.5 122 Z " /><path fill="rgb(64,64,64)" stroke="rgb(64,64,64)" stroke-width="1" opacity="0.6941176470588235" d="M 25.5 138 L 26 141.5 L 25 141.5 L 25.5 138 Z " /><path fill="rgb(64,64,64)" stroke="rgb(64,64,64)" stroke-width="1" opacity="0.6941176470588235" d="M 474.5 138 L 475 141.5 L 474 141.5 L 474.5 138 Z " /><path fill="rgb(64,64,64)" stroke="rgb(64,64,64)" stroke-width="1" opacity="0.6941176470588235" d="M 131.5 143 L 132 152.5 L 131 152.5 L 131.5 143 Z " /><path fill="rgb(64,64,64)" stroke="rgb(64,64,64)" stroke-width="1" opacity="0.6941176470588235" d="M 368.5 143 L 369 152.5 L 368 152.5 L 368.5 143 Z " /><path fill="rgb(64,64,64)" stroke="rgb(64,64,64)" stroke-width="1" opacity="0.6941176470588235" d="M 25.5 154 L 26 157.5 L 25 157.5 L 25.5 154 Z " /><path fill="rgb(64,64,64)" stroke="rgb(64,64,64)" stroke-width="1" opacity="0.6941176470588235" d="M 474.5 154 L 475 157.5 L 474 157.5 L 474.5 154 Z " /><path fill="rgb(64,64,64)" stroke="rgb(64,64,64)" stroke-width="1" opacity="0.6941176470588235" d="M 26.5 160 L 27 162.5 L 26 162.5 L 26.5 160 Z " /><path fill="rgb(64,64,64)" stroke="rgb(64,64,64)" stroke-width="1" opacity="0.6941176470588235" d="M 473.5 160 L 474 162.5 L 473 162.5 L 473.5 160 Z " /><path fill="rgb(64,64,64)" stroke="rgb(64,64,64)" stroke-width="1" opacity="0.6941176470588235" d="M 471.5 167 L 472 168.5 L 470.5 171 L 470 169.5 L 471.5 167 Z " /><path fill="rgb(64,64,64)" stroke="rgb(64,64,64)" stroke-width="1" opacity="0.6941176470588235" d="M 184.5 170 L 186.5 173 L 184.5 170 Z " /><path fill="rgb(64,64,64)" stroke="rgb(64,64,64)" stroke-width="1" opacity="0.6941176470588235" d="M 315.5 170 L 313.5 173 L 315.5 170 Z " /><path fill="rgb(64,64,64)" stroke="rgb(64,64,64)" stroke-width="1" opacity="0.6941176470588235" d="M 31.5 174 L 32.5 176 L 31.5 174 Z " /><path fill="rgb(64,64,64)" stroke="rgb(64,64,64)" stroke-width="1" opacity="0.6941176470588235" d="M 468.5 174 L 467.5 176 L 468.5 174 Z " /><path fill="rgb(64,64,64)" stroke="rgb(64,64,64)" stroke-width="1" opacity="0.6941176470588235" d="M 33.5 177 L 34.5 179 L 33.5 177 Z " /><path fill="rgb(64,64,64)" stroke="rgb(64,64,64)" stroke-width="1" opacity="0.6941176470588235" d="M 466.5 177 L 465.5 179 L 466.5 177 Z " /><path fill="rgb(64,64,64)" stroke="rgb(64,64,64)" stroke-width="1" opacity="0.6941176470588235" d="M 193.5 179 L 196.5 183 L 193.5 179 Z " /><path fill="rgb(64,64,64)" stroke="rgb(64,64,64)" stroke-width="1" opacity="0.6941176470588235" d="M 305.5 180 L 302.5 184 L 305.5 180 Z " /><path fill="rgb(64,64,64)" stroke="rgb(64,64,64)" stroke-width="1" opacity="0.6941176470588235" d="M 464.5 180 L 461.5 184 L 464.5 180 Z " /><path fill="rgb(64,64,64)" stroke="rgb(64,64,64)" stroke-width="1" opacity="0.6941176470588235" d="M 36.5 181 L 38.5 184 L 36.5 181 Z " /><path fill="rgb(64,64,64)" stroke="rgb(64,64,64)" stroke-width="1" opacity="0.6941176470588235" d="M 199.5 184 L 200.5 186 L 199.5 184 Z " /><path fill="rgb(64,64,64)" stroke="rgb(64,64,64)" stroke-width="1" opacity="0.6941176470588235" d="M 300.5 184 L 299.5 186 L 300.5 184 Z " /><path fill="rgb(64,64,64)" stroke="rgb(64,64,64)" stroke-width="1" opacity="0.6941176470588235" d="M 42.5 187 L 44.5 190 L 42.5 187 Z " /><path fill="rgb(64,64,64)" stroke="rgb(64,64,64)" stroke-width="1" opacity="0.6941176470588235" d="M 205.5 188 L 206.5 190 L 205.5 188 Z " /><path fill="rgb(64,64,64)" stroke="rgb(64,64,64)" stroke-width="1" opacity="0.6941176470588235" d="M 456.5 188 L 454.5 191 L 456.5 188 Z " /><path fill="rgb(64,64,64)" stroke="rgb(64,64,64)" stroke-width="1" opacity="0.6941176470588235" d="M 111.5 189 L 110.5 191 L 111.5 189 Z " /><path fill="rgb(64,64,64)" stroke="rgb(64,64,64)" stroke-width="1" opacity="0.6941176470588235" d="M 388.5 189 L 389.5 191 L 388.5 189 Z " /><path fill="rgb(64,64,64)" stroke="rgb(64,64,64)" stroke-width="1" opacity="0.6941176470588235" d="M 47.5 191 L 48.5 193 L 47.5 191 Z " /><path fill="rgb(64,64,64)" stroke="rgb(64,64,64)" stroke-width="1" opacity="0.6941176470588235" d="M 452.5 191 L 451.5 193 L 452.5 191 Z " /><path fill="rgb(64,64,64)" stroke="rgb(64,64,64)" stroke-width="1" opacity="0.6941176470588235" d="M 236.5 200 L 239 200.5 L 236.5 201 L 236.5 200 Z " /><path fill="rgb(64,64,64)" stroke="rgb(64,64,64)" stroke-width="1" opacity="0.6941176470588235" d="M 261.5 200 L 264 200.5 L 261.5 201 L 261.5 200 Z " /><path fill="rgb(64,64,64)" stroke="rgb(64,64,64)" stroke-width="1" opacity="0.6941176470588235" d="M 76.5 201 L 80 201.5 L 76.5 202 L 76.5 201 Z " /><path fill="rgb(64,64,64)" stroke="rgb(64,64,64)" stroke-width="1" opacity="0.6941176470588235" d="M 246.5 201 L 254 201.5 L 246.5 202 L 246.5 201 Z " /><path fill="rgb(64,64,64)" stroke="rgb(64,64,64)" stroke-width="1" opacity="0.6941176470588235" d="M 420.5 201 L 424 201.5 L 420.5 202 L 420.5 201 Z " /><path fill="rgb(64,64,64)" stroke="rgb(64,64,64)" stroke-width="1" opacity="0.6941176470588235" d="M 238.5 234 L 259 234.5 L 238.5 235 L 238.5 234 Z " /><path fill="rgb(64,64,64)" stroke="rgb(64,64,64)" stroke-width="1" opacity="0.6941176470588235" d="M 58.5 235 L 96 235.5 L 58.5 236 L 58.5 235 Z " /><path fill="rgb(64,64,64)" stroke="rgb(64,64,64)" stroke-width="1" opacity="0.6941176470588235" d="M 226.5 235 L 232 235.5 L 226.5 236 L 226.5 235 Z " /><path fill="rgb(64,64,64)" stroke="rgb(64,64,64)" stroke-width="1" opacity="0.6941176470588235" d="M 266.5 235 L 276 235.5 L 266.5 236 L 266.5 235 Z " /><path fill="rgb(64,64,64)" stroke="rgb(64,64,64)" stroke-width="1" opacity="0.6941176470588235" d="M 404.5 235 L 442 235.5 L 404.5 236 L 404.5 235 Z " /><path fill="rgb(64,64,64)" stroke="rgb(64,64,64)" stroke-width="1" opacity="0.6941176470588235" d="M 52.5 236 L 56 236.5 L 52.5 237 L 52.5 236 Z " /><path fill="rgb(64,64,64)" stroke="rgb(64,64,64)" stroke-width="1" opacity="0.6941176470588235" d="M 99.5 236 L 102 236.5 L 99.5 237 L 99.5 236 Z " /><path fill="rgb(64,64,64)" stroke="rgb(64,64,64)" stroke-width="1" opacity="0.6941176470588235" d="M 218.5 236 L 223 236.5 L 218.5 237 L 218.5 236 Z " /><path fill="rgb(64,64,64)" stroke="rgb(64,64,64)" stroke-width="1" opacity="0.6941176470588235" d="M 281.5 236 L 286 236.5 L 281.5 237 L 281.5 236 Z " /><path fill="rgb(64,64,64)" stroke="rgb(64,64,64)" stroke-width="1" opacity="0.6941176470588235" d="M 397.5 236 L 401 236.5 L 397.5 237 L 397.5 236 Z " /><path fill="rgb(64,64,64)" stroke="rgb(64,64,64)" stroke-width="1" opacity="0.6941176470588235" d="M 444.5 236 L 448 236.5 L 444.5 237 L 444.5 236 Z " /><path fill="rgb(64,64,64)" stroke="rgb(64,64,64)" stroke-width="1" opacity="0.6941176470588235" d="M 48.5 237 L 51 237.5 L 48.5 238 L 48.5 237 Z " /><path fill="rgb(64,64,64)" stroke="rgb(64,64,64)" stroke-width="1" opacity="0.6941176470588235" d="M 104.5 237 L 107 237.5 L 104.5 238 L 104.5 237 Z " /><path fill="rgb(64,64,64)" stroke="rgb(64,64,64)" stroke-width="1" opacity="0.6941176470588235" d="M 213.5 237 L 216 237.5 L 213.5 238 L 213.5 237 Z " /><path fill="rgb(64,64,64)" stroke="rgb(64,64,64)" stroke-width="1" opacity="0.6941176470588235" d="M 288.5 237 L 291 237.5 L 288.5 238 L 288.5 237 Z " /><path fill="rgb(64,64,64)" stroke="rgb(64,64,64)" stroke-width="1" opacity="0.6941176470588235" d="M 393.5 237 L 396 237.5 L 393.5 238 L 393.5 237 Z " /><path fill="rgb(64,64,64)" stroke="rgb(64,64,64)" stroke-width="1" opacity="0.6941176470588235" d="M 449.5 237 L 452 237.5 L 449.5 238 L 449.5 237 Z " /><path fill="rgb(64,64,64)" stroke="rgb(64,64,64)" stroke-width="1" opacity="0.6941176470588235" d="M 208.5 238 L 211 238.5 L 208.5 239 L 208.5 238 Z " /><path fill="rgb(64,64,64)" stroke="rgb(64,64,64)" stroke-width="1" opacity="0.6941176470588235" d="M 389.5 238 L 392 238.5 L 389.5 239 L 389.5 238 Z " /><path fill="rgb(64,64,64)" stroke="rgb(64,64,64)" stroke-width="1" opacity="0.6941176470588235" d="M 127.5 247 L 128.5 249 L 127.5 247 Z " /><path fill="rgb(64,64,64)" stroke="rgb(64,64,64)" stroke-width="1" opacity="0.6941176470588235" d="M 372.5 247 L 371.5 249 L 372.5 247 Z " /><path fill="rgb(64,64,64)" stroke="rgb(64,64,64)" stroke-width="1" opacity="0.6941176470588235" d="M 26.5 248 L 25.5 250 L 26.5 248 Z " /><path fill="rgb(64,64,64)" stroke="rgb(64,64,64)" stroke-width="1" opacity="0.6941176470588235" d="M 473.5 248 L 474.5 250 L 473.5 248 Z " /><path fill="rgb(64,64,64)" stroke="rgb(64,64,64)" stroke-width="1" opacity="0.6941176470588235" d="M 130.5 250 L 125.5 256 L 130.5 250 Z " /><path fill="rgb(64,64,64)" stroke="rgb(64,64,64)" stroke-width="1" opacity="0.6941176470588235" d="M 369.5 250 L 375.5 257 L 369.5 250 Z " /><path fill="rgb(64,64,64)" stroke="rgb(64,64,64)" stroke-width="1" opacity="0.6941176470588235" d="M 21.5 252 L 19.5 255 L 21.5 252 Z " /><path fill="rgb(64,64,64)" stroke="rgb(64,64,64)" stroke-width="1" opacity="0.6941176470588235" d="M 478.5 252 L 481.5 256 L 478.5 252 Z " /><path fill="rgb(64,64,64)" stroke="rgb(64,64,64)" stroke-width="1" opacity="0.6941176470588235" d="M 331.5 256 L 332.5 258 L 331.5 256 Z " /><path fill="rgb(64,64,64)" stroke="rgb(64,64,64)" stroke-width="1" opacity="0.6941176470588235" d="M 167.5 257 L 166.5 259 L 167.5 257 Z " /><path fill="rgb(64,64,64)" stroke="rgb(64,64,64)" stroke-width="1" opacity="0.6941176470588235" d="M 15.5 259 L 13.5 262 L 15.5 259 Z " /><path fill="rgb(64,64,64)" stroke="rgb(64,64,64)" stroke-width="1" opacity="0.6941176470588235" d="M 335.5 259 L 337.5 262 L 335.5 259 Z " /><path fill="rgb(64,64,64)" stroke="rgb(64,64,64)" stroke-width="1" opacity="0.6941176470588235" d="M 484.5 259 L 486.5 262 L 484.5 259 Z " /><path fill="rgb(64,64,64)" stroke="rgb(64,64,64)" stroke-width="1" opacity="0.6941176470588235" d="M 163.5 260 L 162.5 262 L 163.5 260 Z " /><path fill="rgb(64,64,64)" stroke="rgb(64,64,64)" stroke-width="1" opacity="0.6941176470588235" d="M 378.5 260 L 380.5 263 L 378.5 260 Z " /><path fill="rgb(64,64,64)" stroke="rgb(64,64,64)" stroke-width="1" opacity="0.6941176470588235" d="M 120.5 261 L 119.5 263 L 120.5 261 Z " /><path fill="rgb(64,64,64)" stroke="rgb(64,64,64)" stroke-width="1" opacity="0.6941176470588235" d="M 487.5 263 L 488.5 265 L 487.5 263 Z " /><path fill="rgb(64,64,64)" stroke="rgb(64,64,64)" stroke-width="1" opacity="0.6941176470588235" d="M 158.5 264 L 144.5 279 L 158.5 264 Z " /><path fill="rgb(64,64,64)" stroke="rgb(64,64,64)" stroke-width="1" opacity="0.6941176470588235" d="M 341.5 264 L 350.5 274 L 341.5 264 Z " /><path fill="rgb(64,64,64)" stroke="rgb(64,64,64)" stroke-width="1" opacity="0.6941176470588235" d="M 117.5 265 L 116.5 267 L 117.5 265 Z " /><path fill="rgb(64,64,64)" stroke="rgb(64,64,64)" stroke-width="1" opacity="0.6941176470588235" d="M 383.5 266 L 384.5 268 L 383.5 266 Z " /><path fill="rgb(64,64,64)" stroke="rgb(64,64,64)" stroke-width="1" opacity="0.6941176470588235" d="M 114.5 269 L 113.5 271 L 114.5 269 Z " /><path fill="rgb(64,64,64)" stroke="rgb(64,64,64)" stroke-width="1" opacity="0.6941176470588235" d="M 112.5 272 L 111.5 274 L 112.5 272 Z " /><path fill="rgb(64,64,64)" stroke="rgb(64,64,64)" stroke-width="1" opacity="0.6941176470588235" d="M 110.5 275 L 109.5 277 L 110.5 275 Z " /><path fill="rgb(64,64,64)" stroke="rgb(64,64,64)" stroke-width="1" opacity="0.6941176470588235" d="M 353.5 277 L 355.5 280 L 353.5 277 Z " /><path fill="rgb(64,64,64)" stroke="rgb(64,64,64)" stroke-width="1" opacity="0.6941176470588235" d="M 142.5 281 L 141.5 283 L 142.5 281 Z " /><path fill="rgb(64,64,64)" stroke="rgb(64,64,64)" stroke-width="1" opacity="0.6941176470588235" d="M 106.5 282 L 105.5 284 L 106.5 282 Z " /><path fill="rgb(64,64,64)" stroke="rgb(64,64,64)" stroke-width="1" opacity="0.6941176470588235" d="M 357.5 282 L 358.5 284 L 357.5 282 Z " /><path fill="rgb(64,64,64)" stroke="rgb(64,64,64)" stroke-width="1" opacity="0.6941176470588235" d="M 139.5 285 L 138.5 287 L 139.5 285 Z " /><path fill="rgb(64,64,64)" stroke="rgb(64,64,64)" stroke-width="1" opacity="0.6941176470588235" d="M 103.5 287 L 104 288.5 L 102.5 291 L 102 289.5 L 103.5 287 Z " /><path fill="rgb(64,64,64)" stroke="rgb(64,64,64)" stroke-width="1" opacity="0.6941176470588235" d="M 137.5 288 L 136.5 290 L 137.5 288 Z " /><path fill="rgb(64,64,64)" stroke="rgb(64,64,64)" stroke-width="1" opacity="0.6941176470588235" d="M 362.5 289 L 363.5 291 L 362.5 289 Z " /><path fill="rgb(64,64,64)" stroke="rgb(64,64,64)" stroke-width="1" opacity="0.6941176470588235" d="M 134.5 293 L 133.5 295 L 134.5 293 Z " /><path fill="rgb(64,64,64)" stroke="rgb(64,64,64)" stroke-width="1" opacity="0.6941176470588235" d="M 0.5 294 L 1 296.5 L 0 296.5 L 0.5 294 Z " /><path fill="rgb(64,64,64)" stroke="rgb(64,64,64)" stroke-width="1" opacity="0.6941176470588235" d="M 499.5 294 L 500 296.5 L 499 296.5 L 499.5 294 Z " /><path fill="rgb(64,64,64)" stroke="rgb(64,64,64)" stroke-width="1" opacity="0.6941176470588235" d="M 94.5 311 L 95 313.5 L 94 313.5 L 94.5 311 Z " /><path fill="rgb(64,64,64)" stroke="rgb(64,64,64)" stroke-width="1" opacity="0.6941176470588235" d="M 406.5 314 L 407 316.5 L 406 316.5 L 406.5 314 Z " /><path fill="rgb(64,64,64)" stroke="rgb(64,64,64)" stroke-width="1" opacity="0.6941176470588235" d="M 93.5 315 L 94 317.5 L 93 317.5 L 93.5 315 Z " /><path fill="rgb(64,64,64)" stroke="rgb(64,64,64)" stroke-width="1" opacity="0.6941176470588235" d="M 407.5 319 L 408 321.5 L 407 321.5 L 407.5 319 Z " /><path fill="rgb(64,64,64)" stroke="rgb(64,64,64)" stroke-width="1" opacity="0.6941176470588235" d="M 408.5 324 L 409 326.5 L 408 326.5 L 408.5 324 Z " /><path fill="rgb(64,64,64)" stroke="rgb(64,64,64)" stroke-width="1" opacity="0.6941176470588235" d="M 91.5 325 L 92 327.5 L 91 327.5 L 91.5 325 Z " /><path fill="rgb(64,64,64)" stroke="rgb(64,64,64)" stroke-width="1" opacity="0.6941176470588235" d="M 409.5 331 L 410 333.5 L 409 333.5 L 409.5 331 Z " /><path fill="rgb(64,64,64)" stroke="rgb(64,64,64)" stroke-width="1" opacity="0.6941176470588235" d="M 90.5 332 L 91 334.5 L 90 334.5 L 90.5 332 Z " /><path fill="rgb(64,64,64)" stroke="rgb(64,64,64)" stroke-width="1" opacity="0.6941176470588235" d="M 120.5 332 L 121 334.5 L 120 334.5 L 120.5 332 Z " /><path fill="rgb(64,64,64)" stroke="rgb(64,64,64)" stroke-width="1" opacity="0.6941176470588235" d="M 119.5 339 L 120 341.5 L 119 341.5 L 119.5 339 Z " /><path fill="rgb(64,64,64)" stroke="rgb(64,64,64)" stroke-width="1" opacity="0.6941176470588235" d="M 89.5 340 L 90 343.5 L 89 343.5 L 89.5 340 Z " /><path fill="rgb(64,64,64)" stroke="rgb(64,64,64)" stroke-width="1" opacity="0.6941176470588235" d="M 410.5 340 L 411 343.5 L 410 343.5 L 410.5 340 Z " /><path fill="rgb(64,64,64)" stroke="rgb(64,64,64)" stroke-width="1" opacity="0.6941176470588235" d="M 381.5 345 L 382 404.5 L 381 404.5 L 381.5 345 Z " /><path fill="rgb(64,64,64)" stroke="rgb(64,64,64)" stroke-width="1" opacity="0.6941176470588235" d="M 118.5 348 L 119 353.5 L 118 353.5 L 118.5 348 Z " /><path fill="rgb(64,64,64)" stroke="rgb(64,64,64)" stroke-width="1" opacity="0.6941176470588235" d="M 88.5 354 L 89 360.5 L 88 360.5 L 88.5 354 Z " /><path fill="rgb(64,64,64)" stroke="rgb(64,64,64)" stroke-width="1" opacity="0.6941176470588235" d="M 411.5 354 L 412 362.5 L 411 362.5 L 411.5 354 Z " /><path fill="rgb(64,64,64)" stroke="rgb(64,64,64)" stroke-width="1" opacity="0.6941176470588235" d="M 117.5 369 L 118 387.5 L 117 387.5 L 117.5 369 Z " /><path fill="rgb(64,64,64)" stroke="rgb(64,64,64)" stroke-width="1" opacity="0.6941176470588235" d="M 411.5 402 L 412 428.5 L 411 428.5 L 411.5 402 Z " /><path fill="rgb(64,64,64)" stroke="rgb(64,64,64)" stroke-width="1" opacity="0.6941176470588235" d="M 88.5 405 L 89 426.5 L 88 426.5 L 88.5 405 Z " /><path fill="rgb(64,64,64)" stroke="rgb(64,64,64)" stroke-width="1" opacity="0.6941176470588235" d="M 493.5 424 L 487.5 431 L 493.5 424 Z " /><path fill="rgb(64,64,64)" stroke="rgb(64,64,64)" stroke-width="1" opacity="0.6941176470588235" d="M 7.5 426 L 10.5 430 L 7.5 426 Z " /><path fill="rgb(64,64,64)" stroke="rgb(64,64,64)" stroke-width="1" opacity="0.6941176470588235" d="M 381.5 429 L 382 436.5 L 381 436.5 L 381.5 429 Z " /><path fill="rgb(64,64,64)" stroke="rgb(64,64,64)" stroke-width="1" opacity="0.6941176470588235" d="M 12.5 430 L 13.5 432 L 12.5 430 Z " /><path fill="rgb(64,64,64)" stroke="rgb(64,64,64)" stroke-width="1" opacity="0.6941176470588235" d="M 118.5 433 L 119 437.5 L 118 437.5 L 118.5 433 Z " /><path fill="rgb(64,64,64)" stroke="rgb(64,64,64)" stroke-width="1" opacity="0.6941176470588235" d="M 23.5 435 L 29 435.5 L 23.5 436 L 23.5 435 Z " /><path fill="rgb(64,64,64)" stroke="rgb(64,64,64)" stroke-width="1" opacity="0.6941176470588235" d="M 85.5 435 L 89 435.5 L 85.5 436 L 85.5 435 Z " /><path fill="rgb(64,64,64)" stroke="rgb(64,64,64)" stroke-width="1" opacity="0.6941176470588235" d="M 412.5 435 L 415 435.5 L 412.5 436 L 412.5 435 Z " /><path fill="rgb(64,64,64)" stroke="rgb(64,64,64)" stroke-width="1" opacity="0.6941176470588235" d="M 469.5 435 L 476 435.5 L 469.5 436 L 469.5 435 Z " /><path fill="rgb(64,64,64)" stroke="rgb(64,64,64)" stroke-width="1" opacity="0.6941176470588235" d="M 342.5 466 L 348 466.5 L 342.5 467 L 342.5 466 Z " /><path fill="rgb(64,64,64)" stroke="rgb(64,64,64)" stroke-width="1" opacity="0.6941176470588235" d="M 192.5 467 L 283 467.5 L 192.5 468 L 192.5 467 Z " /><path fill="rgb(64,64,64)" stroke="rgb(64,64,64)" stroke-width="1" opacity="0.6941176470588235" d="M 315.5 467 L 334 467.5 L 315.5 468 L 315.5 467 Z " /><path fill="rgb(0,0,0)" stroke="rgb(0,0,0)" stroke-width="1" opacity="0" d="M 0 0 L 500 0 L 500 285.5 L 499 285.5 Q 494.7 262.8 479.5 251 L 468.5 243 L 449.5 235 L 438.5 233 L 407.5 233 L 406.5 234 L 394.5 235 L 382.5 239 L 369 249.5 L 369 251.5 L 388 275.5 L 397 291.5 L 404 310.5 L 408 327.5 L 408 329.5 Q 410.3 334.2 409 342.5 L 410 343.5 L 410 354.5 L 411 355.5 Q 408.7 356.8 410 361.5 L 411 362.5 L 411 396.5 L 410 401.5 L 411 405.5 L 410 406.5 L 410 437 L 413.5 438 L 415.5 438 L 474.5 438 L 482.5 436 L 491 431 L 492.5 428 Q 494.8 428.8 494 426.5 L 499.5 417 L 500 500 L 0.5 500 L 0 499.5 L 0 417.5 L 1 417.5 Q 3.8 427.8 11.5 433 L 14 433 Q 12.9 435.7 15.5 435 L 24.5 438 L 84.5 438 L 87.5 437 L 90 435.5 L 91 432.5 L 90 431.5 L 90 399.5 L 89 398.5 L 89 361.5 L 90 360.5 L 91 335.5 L 93 330.5 L 93 324.5 L 96 315.5 L 96 311.5 L 100 300.5 L 110 279.5 L 132 249 L 120.5 241 L 105.5 235 L 92.5 234 L 91.5 233 L 60.5 233 L 43.5 237 L 26 246 Q 27.1 248.7 24.5 248 L 14 257.5 Q 3.8 268.3 0.5 286 L 0 0 Z M 243 31 L 242 32 L 231 33 L 218 37 Q 202 43 192 54 L 189 56 Q 177 68 170 84 L 165 101 L 165 110 L 164 111 L 164 124 L 165 125 L 165 134 L 167 142 Q 171 157 180 169 L 183 170 L 185 174 L 189 179 Q 206 198 238 203 L 240 203 L 263 203 L 273 201 L 289 195 L 307 183 Q 318 173 326 160 L 332 146 L 336 128 L 335 101 L 330 84 Q 323 68 312 56 Q 309 57 310 54 L 297 44 L 283 37 L 265 32 L 243 31 Z M 70 93 L 58 96 L 45 104 Q 34 113 27 127 L 23 142 L 23 152 L 23 154 L 26 168 L 30 175 Q 29 177 32 176 L 33 181 L 38 187 Q 49 199 68 203 L 89 203 L 92 202 L 94 202 L 109 195 L 119 186 Q 118 183 121 184 L 128 173 L 133 157 L 133 142 L 129 127 L 123 116 L 117 109 Q 109 100 97 96 L 95 96 Q 86 91 70 93 Z M 414 93 L 402 96 L 392 102 Q 389 101 390 104 L 385 107 Q 376 115 371 127 L 367 142 L 367 154 L 369 164 L 375 178 L 379 183 L 381 186 Q 389 194 401 200 L 411 203 L 419 203 L 420 204 L 422 203 L 424 204 L 438 202 L 443 200 Q 453 196 461 188 L 471 175 L 477 157 L 476 136 Q 472 122 464 113 Q 456 102 443 96 L 431 93 L 414 93 Z M 230 233 L 202 239 L 200 239 L 181 247 L 166 257 Q 163 256 164 259 L 162 260 Q 159 259 160 262 L 158 263 Q 138 279 127 304 L 121 325 L 118 342 L 118 352 L 117 353 L 117 433 L 118 434 L 118 442 L 121 451 L 130 462 L 133 462 L 140 467 L 150 469 L 316 469 L 317 470 L 321 469 L 351 468 L 352 467 L 363 466 L 369 463 L 378 453 L 383 439 L 383 354 L 382 353 L 381 332 L 377 315 L 371 300 L 353 274 Q 340 258 321 248 Q 318 249 319 246 L 308 242 Q 306 238 305 241 L 297 237 L 294 237 L 292 237 L 289 235 L 271 234 L 270 233 L 230 233 Z " /><path fill="rgb(219,219,219)" stroke="rgb(219,219,219)" stroke-width="1" opacity="0.15294117647058825" d="M 242.5 31 L 258 31.5 L 242.5 32 L 242.5 31 Z " /><path fill="rgb(219,219,219)" stroke="rgb(219,219,219)" stroke-width="1" opacity="0.15294117647058825" d="M 235.5 32 L 238 32.5 L 235.5 33 L 235.5 32 Z " /><path fill="rgb(219,219,219)" stroke="rgb(219,219,219)" stroke-width="1" opacity="0.15294117647058825" d="M 262.5 32 L 265 32.5 L 262.5 33 L 262.5 32 Z " /><path fill="rgb(219,219,219)" stroke="rgb(219,219,219)" stroke-width="1" opacity="0.15294117647058825" d="M 267.5 33 L 270 33.5 L 267.5 34 L 267.5 33 Z " /><path fill="rgb(219,219,219)" stroke="rgb(219,219,219)" stroke-width="1" opacity="0.15294117647058825" d="M 217.5 37 L 219 37.5 L 213.5 40 L 213.5 39 L 217.5 37 Z " /><path fill="rgb(219,219,219)" stroke="rgb(219,219,219)" stroke-width="1" opacity="0.15294117647058825" d="M 281.5 37 L 287 39.5 L 285.5 40 L 281.5 38 L 281.5 37 Z " /><path fill="rgb(219,219,219)" stroke="rgb(219,219,219)" stroke-width="1" opacity="0.15294117647058825" d="M 288.5 40 L 296.5 44 L 310 54 Q 308.9 56.7 311.5 56 Q 322.9 67.6 330 83.5 L 335 100.5 L 335 106.5 L 334 106.5 L 333 96.5 L 323 72.5 Q 315.8 60.8 305.5 52 L 289.5 42 L 288.5 40 Z " /><path fill="rgb(219,219,219)" stroke="rgb(219,219,219)" stroke-width="1" opacity="0.15294117647058825" d="M 209.5 41 L 208.5 43 Q 193.5 50 184 62.5 Q 172.3 75.8 167.5 96 L 167 92.5 Q 173.8 70.3 188.5 56 L 191.5 54 Q 198.5 45.5 209.5 41 Z " /><path fill="rgb(219,219,219)" stroke="rgb(219,219,219)" stroke-width="1" opacity="0.15294117647058825" d="M 69.5 93 Q 85.8 90.7 94.5 96 L 96.5 96 Q 108.9 100.1 117 108.5 L 123 115.5 L 129 126.5 L 133 141.5 L 133 156.5 L 128 172.5 L 121 184 Q 118.3 182.9 119 185.5 L 108.5 195 L 93.5 202 L 91.5 202 L 88.5 203 L 67.5 203 Q 49 198.5 38 186.5 L 32 177.5 L 34 178.5 L 41.5 188 Q 50.1 195.9 62.5 200 L 72.5 202 L 83.5 202 L 93.5 200 L 103.5 196 L 119 183.5 Q 127.3 174.3 131 160.5 L 132 141.5 Q 127.8 119.2 113.5 107 Q 100 94.5 74.5 94 L 63.5 96 L 49.5 102 L 35 115.5 L 26.5 132 L 26 129.5 Q 32.4 113.9 44.5 104 L 57.5 96 L 69.5 93 Z " /><path fill="rgb(219,219,219)" stroke="rgb(219,219,219)" stroke-width="1" opacity="0.15294117647058825" d="M 413.5 93 L 430.5 93 L 442.5 96 Q 455.5 102 464 112.5 Q 472.3 121.7 476 135.5 L 477 156.5 L 471 174.5 L 460.5 188 Q 453.1 195.6 442.5 200 L 437.5 202 L 423.5 204 L 421.5 203 L 419.5 204 L 418.5 203 L 410.5 203 L 400.5 200 Q 389.1 194.4 381 185.5 L 379 182.5 L 371 169.5 L 369 161.5 L 370 161.5 Q 373.9 179.6 386.5 189 Q 394.5 196.5 406.5 200 L 416.5 202 L 427.5 202 L 440.5 199 Q 452.7 194.2 461 185.5 Q 468.6 177.6 473 166.5 L 476 153.5 L 476 142.5 L 472 127.5 L 468 119.5 L 460 109 L 442.5 98 L 432.5 95 L 418.5 94 L 401.5 98 Q 389.8 102.8 382 111.5 L 374.5 122 L 375 120.5 Q 378.2 112.2 384.5 107 L 390 104 Q 388.9 101.3 391.5 102 L 401.5 96 L 413.5 93 Z " /><path fill="rgb(219,219,219)" stroke="rgb(219,219,219)" stroke-width="1" opacity="0.15294117647058825" d="M 166.5 97 L 167 100.5 L 165.5 107 L 165 100.5 L 166.5 97 Z " /><path fill="rgb(219,219,219)" stroke="rgb(219,219,219)" stroke-width="1" opacity="0.15294117647058825" d="M 335.5 109 L 336 127.5 L 332 145.5 L 326 159.5 Q 318.2 173.2 306.5 183 L 288.5 195 L 272.5 201 L 262.5 203 L 239.5 203 L 237.5 203 Q 206.4 197.6 189 178.5 L 185 173.5 L 183 170 L 180 168.5 Q 167.5 153 165 127.5 L 166 127.5 L 167 137.5 L 176 159.5 L 192.5 180 Q 204.1 190.9 220.5 197 L 242.5 202 L 257.5 202 L 273.5 199 L 292.5 191 Q 304.9 183.9 314 173.5 Q 323.1 163.1 329 149.5 L 335 126.5 L 335.5 109 Z " /><path fill="rgb(219,219,219)" stroke="rgb(219,219,219)" stroke-width="1" opacity="0.15294117647058825" d="M 164.5 110 L 165 123.5 L 164 123.5 L 164.5 110 Z " /><path fill="rgb(219,219,219)" stroke="rgb(219,219,219)" stroke-width="1" opacity="0.15294117647058825" d="M 373.5 123 L 374 124.5 L 370.5 132 L 370 129.5 L 373.5 123 Z " /><path fill="rgb(219,219,219)" stroke="rgb(219,219,219)" stroke-width="1" opacity="0.15294117647058825" d="M 25.5 133 L 26 135.5 Q 23.1 142.1 23.5 152 L 23 141.5 L 25.5 133 Z " /><path fill="rgb(219,219,219)" stroke="rgb(219,219,219)" stroke-width="1" opacity="0.15294117647058825" d="M 369.5 133 L 370 135.5 L 368 141.5 L 367.5 154 L 367 141.5 L 369.5 133 Z " /><path fill="rgb(219,219,219)" stroke="rgb(219,219,219)" stroke-width="1" opacity="0.15294117647058825" d="M 23.5 153 L 25 154.5 L 25 159.5 L 27 166.5 L 32 175.5 L 30 176 L 25 164.5 L 23.5 153 Z " /><path fill="rgb(219,219,219)" stroke="rgb(219,219,219)" stroke-width="1" opacity="0.15294117647058825" d="M 368.5 155 L 369 159.5 L 368 159.5 L 368.5 155 Z " /><path fill="rgb(219,219,219)" stroke="rgb(219,219,219)" stroke-width="1" opacity="0.15294117647058825" d="M 60.5 233 L 91.5 233 L 92.5 234 L 105.5 235 Q 120.7 238.8 130 248.5 L 126.5 246 L 113.5 239 L 97.5 235 L 56.5 235 Q 29.3 240.3 15 258.5 Q 3.4 270.9 0.5 292 L 0 286.5 Q 5 264.5 19.5 252 L 26 248 Q 24.9 245.3 27.5 246 L 43.5 237 L 60.5 233 Z " /><path fill="rgb(219,219,219)" stroke="rgb(219,219,219)" stroke-width="1" opacity="0.15294117647058825" d="M 229.5 233 L 269.5 233 L 270.5 234 L 288.5 235 L 291 236.5 L 288.5 237 L 287.5 236 L 265.5 235 L 264.5 234 L 233.5 234 L 232.5 235 L 217.5 236 L 201.5 240 L 201.5 239 L 229.5 233 Z " /><path fill="rgb(219,219,219)" stroke="rgb(219,219,219)" stroke-width="1" opacity="0.15294117647058825" d="M 407.5 233 L 438.5 233 L 456.5 237 L 466 242.5 L 464.5 242 Q 455.5 237 443.5 235 L 402.5 235 L 386.5 239 Q 376.2 242.7 369.5 250 L 373.5 245 L 387.5 237 L 407.5 233 Z " /><path fill="rgb(219,219,219)" stroke="rgb(219,219,219)" stroke-width="1" opacity="0.15294117647058825" d="M 292.5 236 L 298 238.5 L 296.5 239 L 292 238 L 292.5 236 Z " /><path fill="rgb(219,219,219)" stroke="rgb(219,219,219)" stroke-width="1" opacity="0.15294117647058825" d="M 199.5 239 L 200 241 Q 164.3 252.5 143 279.5 Q 131.6 293.1 125.5 312 L 125 309.5 Q 135.6 280.6 157.5 263 L 160 261.5 Q 159.3 259.3 161.5 260 L 164 259 Q 162.9 256.3 165.5 257 L 180.5 247 L 199.5 239 Z " /><path fill="rgb(219,219,219)" stroke="rgb(219,219,219)" stroke-width="1" opacity="0.15294117647058825" d="M 299.5 239 L 304 240.5 L 302.5 241 L 299.5 240 L 299.5 239 Z " /><path fill="rgb(219,219,219)" stroke="rgb(219,219,219)" stroke-width="1" opacity="0.15294117647058825" d="M 305.5 240 L 309 242.5 L 307.5 243 L 305 242 L 305.5 240 Z " /><path fill="rgb(219,219,219)" stroke="rgb(219,219,219)" stroke-width="1" opacity="0.15294117647058825" d="M 310.5 243 L 319 246 L 318.5 248 L 310.5 244 L 310.5 243 Z " /><path fill="rgb(219,219,219)" stroke="rgb(219,219,219)" stroke-width="1" opacity="0.15294117647058825" d="M 467.5 243 Q 478.4 248.6 486 257.5 L 495 271.5 L 499 282.5 L 500 291.5 L 499 291.5 L 498 283.5 L 493 270.5 Q 486.6 258.4 476.5 250 L 468.5 245 L 467.5 243 Z " /><path fill="rgb(219,219,219)" stroke="rgb(219,219,219)" stroke-width="1" opacity="0.15294117647058825" d="M 320.5 248 Q 339.8 257.7 353 273.5 L 371 299.5 L 377 314.5 L 378 320.5 L 377 320.5 Q 366.3 283.2 339.5 262 L 321.5 250 L 320.5 248 Z " /><path fill="rgb(219,219,219)" stroke="rgb(219,219,219)" stroke-width="1" opacity="0.15294117647058825" d="M 131.5 249 L 132 250.5 Q 115.3 267.8 104 290.5 L 96 311.5 L 91.5 335 L 91 330.5 L 95 311.5 L 102 291.5 Q 113.6 267.1 131.5 249 Z " /><path fill="rgb(219,219,219)" stroke="rgb(219,219,219)" stroke-width="1" opacity="0.15294117647058825" d="M 369.5 251 Q 397.9 276.6 407 321.5 L 406 321.5 L 404 310.5 L 397 291.5 L 388 275.5 L 369.5 251 Z " /><path fill="rgb(219,219,219)" stroke="rgb(219,219,219)" stroke-width="1" opacity="0.15294117647058825" d="M 378.5 322 L 379 324.5 L 378 324.5 L 378.5 322 Z " /><path fill="rgb(219,219,219)" stroke="rgb(219,219,219)" stroke-width="1" opacity="0.15294117647058825" d="M 407.5 323 L 408 326.5 L 407 326.5 L 407.5 323 Z " /><path fill="rgb(219,219,219)" stroke="rgb(219,219,219)" stroke-width="1" opacity="0.15294117647058825" d="M 379.5 326 L 380 328.5 L 379 328.5 L 379.5 326 Z " /><path fill="rgb(219,219,219)" stroke="rgb(219,219,219)" stroke-width="1" opacity="0.15294117647058825" d="M 407.5 328 L 409 331.5 L 408 331.5 L 407.5 328 Z " /><path fill="rgb(219,219,219)" stroke="rgb(219,219,219)" stroke-width="1" opacity="0.15294117647058825" d="M 380.5 331 L 381 333.5 L 380 333.5 L 380.5 331 Z " /><path fill="rgb(219,219,219)" stroke="rgb(219,219,219)" stroke-width="1" opacity="0.15294117647058825" d="M 119.5 334 L 120 337.5 L 119 337.5 L 119.5 334 Z " /><path fill="rgb(219,219,219)" stroke="rgb(219,219,219)" stroke-width="1" opacity="0.15294117647058825" d="M 90.5 336 L 91 342.5 L 90 342.5 L 90.5 336 Z " /><path fill="rgb(219,219,219)" stroke="rgb(219,219,219)" stroke-width="1" opacity="0.15294117647058825" d="M 409.5 336 L 410 342.5 L 409 342.5 L 409.5 336 Z " /><path fill="rgb(219,219,219)" stroke="rgb(219,219,219)" stroke-width="1" opacity="0.15294117647058825" d="M 381.5 337 L 382 342.5 L 381 342.5 L 381.5 337 Z " /><path fill="rgb(219,219,219)" stroke="rgb(219,219,219)" stroke-width="1" opacity="0.15294117647058825" d="M 118.5 341 L 119 345.5 L 118 345.5 L 118.5 341 Z " /><path fill="rgb(219,219,219)" stroke="rgb(219,219,219)" stroke-width="1" opacity="0.15294117647058825" d="M 89.5 347 L 90 360.5 L 89 360.5 L 89.5 347 Z " /><path fill="rgb(219,219,219)" stroke="rgb(219,219,219)" stroke-width="1" opacity="0.15294117647058825" d="M 410.5 347 L 411 354.5 L 410 354.5 L 410.5 347 Z " /><path fill="rgb(219,219,219)" stroke="rgb(219,219,219)" stroke-width="1" opacity="0.15294117647058825" d="M 117.5 352 L 118 359.5 L 117 359.5 L 117.5 352 Z " /><path fill="rgb(219,219,219)" stroke="rgb(219,219,219)" stroke-width="1" opacity="0.15294117647058825" d="M 382.5 353 L 383 438.5 L 378 452.5 L 368.5 463 L 362.5 466 L 351.5 467 L 350.5 468 L 320.5 469 L 316.5 470 L 315.5 469 L 149.5 469 L 139.5 467 L 132.5 462 L 130 462 L 121 450.5 L 119 443.5 L 120 443.5 Q 122.6 454.4 130.5 460 L 138.5 465 L 150.5 468 L 338.5 468 L 339.5 467 L 349.5 467 L 363.5 464 L 374 456.5 Q 379.7 449.2 382 438.5 L 382.5 353 Z " /><path fill="rgb(219,219,219)" stroke="rgb(219,219,219)" stroke-width="1" opacity="0.15294117647058825" d="M 410.5 356 L 411 361.5 L 410 361.5 L 410.5 356 Z " /><path fill="rgb(219,219,219)" stroke="rgb(219,219,219)" stroke-width="1" opacity="0.15294117647058825" d="M 88.5 371 L 89 385.5 L 88 385.5 L 88.5 371 Z " /><path fill="rgb(219,219,219)" stroke="rgb(219,219,219)" stroke-width="1" opacity="0.15294117647058825" d="M 411.5 376 L 412 379.5 L 411 379.5 L 411.5 376 Z " /><path fill="rgb(219,219,219)" stroke="rgb(219,219,219)" stroke-width="1" opacity="0.15294117647058825" d="M 410.5 397 L 411 401.5 L 410 401.5 L 410.5 397 Z " /><path fill="rgb(219,219,219)" stroke="rgb(219,219,219)" stroke-width="1" opacity="0.15294117647058825" d="M 89.5 399 L 90 431.5 L 91 433.5 L 88.5 437 L 86.5 438 L 84.5 438 L 24.5 438 L 14 435 Q 15.3 432 11.5 433 Q 2 427 0 413.5 L 1 413.5 Q 3.2 425.3 11.5 431 L 22.5 436 L 64.5 437 L 66.5 436 L 67.5 437 L 81.5 437 L 82.5 436 L 89 436 L 89.5 399 Z " /><path fill="rgb(219,219,219)" stroke="rgb(219,219,219)" stroke-width="1" opacity="0.15294117647058825" d="M 117.5 400 L 118 432.5 L 117 432.5 L 117.5 400 Z " /><path fill="rgb(219,219,219)" stroke="rgb(219,219,219)" stroke-width="1" opacity="0.15294117647058825" d="M 410.5 406 L 411 436 L 416.5 437 L 418.5 437 L 433.5 437 L 435.5 436 L 436.5 437 L 447.5 437 L 448.5 436 L 476.5 436 L 480.5 435 Q 489.9 431.4 495 423.5 Q 498.8 419.3 499.5 412 L 500 416.5 L 494 428 L 491 429.5 Q 491.8 431.8 489.5 431 L 482.5 436 L 474.5 438 L 415.5 438 L 413.5 438 L 410 437 L 410.5 406 Z " /><path fill="rgb(219,219,219)" stroke="rgb(219,219,219)" stroke-width="1" opacity="0.15294117647058825" d="M 118.5 439 L 119 441.5 L 118 441.5 L 118.5 439 Z " /></svg>