<svg width="500" height="500" version="1.1" xmlns="http://www.w3.org/2000/svg" desc="Created with imagetracer.js version 1.2.6" ><path fill="rgb(0,0,0)" stroke="rgb(0,0,0)" stroke-width="1" opacity="0" d="M 0 0 L 184 0.5 L 178 5.5 L 176 9.5 L 176 30 L 128.5 30 L 120 37.5 L 119 40.5 L 119 164 L 101.5 167 L 76.5 178 Q 56 189 41 205.5 L 39.5 208 L 35 211.5 Q 19 229.5 9 253.5 Q 2.6 267.6 0.5 286 L 0 0 Z " /><path fill="rgb(0,0,0)" stroke="rgb(0,0,0)" stroke-width="1" opacity="0" d="M 199.5 0 L 243 0.5 L 237 5.5 L 235 9.5 L 235 30 L 207 30 L 207 9.5 L 200.5 1 L 199.5 0 Z " /><path fill="rgb(0,0,0)" stroke="rgb(0,0,0)" stroke-width="1" opacity="0" d="M 257.5 0 L 301 0.5 L 295 5.5 L 293 9.5 L 293 30 L 265 30 L 265 9.5 L 258.5 1 L 257.5 0 Z " /><path fill="rgb(0,0,0)" stroke="rgb(0,0,0)" stroke-width="1" opacity="0" d="M 316.5 0 L 360 0.5 L 354 5.5 L 352 9.5 L 352 30 L 324 30 L 324 9.5 L 317.5 1 L 316.5 0 Z " /><path fill="rgb(0,0,0)" stroke="rgb(0,0,0)" stroke-width="1" opacity="0" d="M 374.5 0 L 419 0.5 L 413 5.5 L 411 9.5 L 411 30 L 382 30 L 382 9.5 L 375.5 1 L 374.5 0 Z " /><path fill="rgb(0,0,0)" stroke="rgb(0,0,0)" stroke-width="1" opacity="0" d="M 433.5 0 L 500 0 L 500 37.5 L 499 37.5 L 494.5 32 L 490.5 30 L 441 30 L 441 9.5 L 434.5 1 L 433.5 0 Z " /><path fill="rgb(0,0,0)" stroke="rgb(0,0,0)" stroke-width="1" opacity="0" d="M 149 60 L 176 60 L 176 79.5 L 182.5 87 Q 186.8 90.7 196.5 89 L 205 82.5 L 207 78.5 L 207 60 L 235 60 L 235 79.5 L 241.5 87 Q 245.5 90.5 254.5 89 L 264 81.5 L 265 79.5 L 265 60 L 293 60 L 293 78.5 L 299.5 87 Q 303.8 90.7 313.5 89 L 323 81.5 L 324 79.5 L 324 60 L 352 60 L 352 79.5 L 358.5 87 Q 362.8 90.7 372.5 89 L 381 81.5 L 382 79.5 L 382 60 L 411 60 L 411 79.5 L 418.5 88 Q 422.3 90.7 430.5 89 L 440 81.5 L 441 79.5 L 441 60 L 470 60 L 470 118 L 149.5 118 L 149 117.5 L 149 60 Z " /><path fill="rgb(0,0,0)" stroke="rgb(0,0,0)" stroke-width="1" opacity="0" d="M 149 148 L 470 148 L 470 470 L 149.5 470 L 149 469.5 L 149 457 L 172.5 455 L 189.5 451 Q 202.6 447.6 212.5 441 L 342.5 441 L 351 434.5 Q 354.7 430.2 353 420.5 L 346.5 413 L 342.5 411 L 254 410.5 Q 266.7 398.2 275.5 382 L 342.5 382 L 352 374.5 Q 354.7 370.7 353 362.5 L 346.5 354 L 342.5 352 L 289 352 L 292 340.5 L 292 334.5 Q 289.5 333 293 331.5 L 292 326.5 L 294.5 324 L 342.5 324 L 351 317.5 Q 354.7 313.2 353 303.5 L 346.5 295 L 342.5 293 L 294.5 293 L 292 290.5 L 293 286.5 L 291 283.5 Q 293.5 282 292 276.5 L 289 265 L 342.5 265 L 351 258.5 Q 354.5 254.5 353 245.5 L 346.5 237 L 342.5 235 L 275.5 235 L 274 233.5 Q 266.8 218.7 255.5 208 L 254 207.5 L 342.5 207 L 351 200.5 Q 354.7 196.2 353 186.5 L 346.5 178 L 342.5 176 L 212.5 176 L 192.5 167 L 166.5 162 L 149 161 L 149 148 Z M 392 176 L 388 178 L 381 187 Q 379 196 383 201 L 392 207 L 431 207 L 435 205 L 441 197 Q 443 187 439 183 L 431 176 L 392 176 Z M 392 235 L 388 237 L 381 246 Q 380 255 383 259 L 392 265 L 431 265 L 435 263 L 441 255 Q 442 246 439 242 L 431 235 L 392 235 Z M 392 293 L 388 295 L 381 304 Q 379 313 383 318 L 392 324 L 431 324 L 435 322 L 441 314 Q 443 304 439 300 L 431 293 L 392 293 Z M 392 352 L 388 354 L 381 363 Q 380 372 383 376 L 392 382 L 431 382 L 435 380 L 441 373 Q 443 363 439 359 L 431 352 L 392 352 Z M 392 411 L 388 413 L 381 421 Q 379 430 383 435 L 392 441 L 431 441 L 435 439 L 441 431 Q 443 422 440 419 L 431 411 L 392 411 Z " /><path fill="rgb(0,0,0)" stroke="rgb(0,0,0)" stroke-width="1" opacity="0" d="M 135.5 192 L 158.5 192 L 159.5 193 L 170.5 194 L 187.5 199 L 206.5 208 L 208 207.5 L 207.5 209 Q 223 217.5 234 230.5 L 248.5 250 L 250 250.5 L 250 252.5 L 257 269.5 L 262 287.5 L 264 311.5 L 263 312.5 L 263 323.5 L 261 334.5 Q 256.6 351.6 249 365.5 L 249.5 367 Q 247.3 366.3 248 368.5 L 244 375 Q 241.3 373.9 242 376.5 L 224.5 396 Q 211.6 408.1 194.5 416 L 165.5 424 Q 160 422.5 158.5 425 L 135.5 425 L 115.5 421 L 102.5 416 L 99.5 416 L 89.5 411 Q 73 400.6 60 386.5 L 46 368.5 L 37 347.5 L 32 329.5 L 30 305.5 L 31 304.5 L 31 293.5 L 35 275.5 L 41 261.5 L 42 255.5 L 45 251.5 L 44.5 250 L 48 247.5 Q 56.5 232 69.5 221 L 84.5 209 L 101.5 201 L 115.5 196 L 135.5 192 Z M 90 242 L 86 244 L 80 252 Q 78 263 83 268 L 109 292 L 125 310 L 138 322 L 142 324 L 195 324 L 199 322 L 205 314 Q 207 304 203 300 L 195 293 L 154 293 L 152 292 L 125 265 L 104 244 Q 99 240 90 242 Z " /><path fill="rgb(0,0,0)" stroke="rgb(0,0,0)" stroke-width="1" opacity="0" d="M 0.5 331 Q 3.6 356.4 14 374.5 Q 28.2 401.8 50.5 421 Q 68 436 90.5 446 L 111.5 453 L 119 454 L 119 490.5 L 125.5 499 L 127 499.5 L 0 500 L 0.5 331 Z " /><path fill="rgb(0,0,0)" stroke="rgb(0,0,0)" stroke-width="1" opacity="0" d="M 499.5 492 L 500 500 L 492 499.5 L 499 494.5 L 499.5 492 Z " /><path fill="rgb(164,162,179)" stroke="rgb(164,162,179)" stroke-width="1" opacity="0.5176470588235295" d="M 187.5 0 L 196 0.5 L 187.5 1 L 187.5 0 Z " /><path fill="rgb(164,162,179)" stroke="rgb(164,162,179)" stroke-width="1" opacity="0.5176470588235295" d="M 244.5 0 L 247 0.5 Q 240.6 1.6 238 6.5 L 236 11.5 L 236 13.5 L 236 29.5 L 234.5 31 L 206 30.5 L 235 30 L 235 10.5 Q 236.6 3.6 242.5 1 L 244.5 0 Z " /><path fill="rgb(164,162,179)" stroke="rgb(164,162,179)" stroke-width="1" opacity="0.5176470588235295" d="M 248.5 0 L 252 0.5 L 248.5 1 L 248.5 0 Z " /><path fill="rgb(164,162,179)" stroke="rgb(164,162,179)" stroke-width="1" opacity="0.5176470588235295" d="M 253.5 0 Q 260.7 1.8 264 7.5 L 265 10.5 L 265 30 L 294 30.5 L 265.5 31 L 264 29.5 L 264 11.5 Q 262.8 5.8 258.5 3 L 253.5 1 L 253.5 0 Z " /><path fill="rgb(164,162,179)" stroke="rgb(164,162,179)" stroke-width="1" opacity="0.5176470588235295" d="M 304.5 0 Q 317.4 -1.9 321 5.5 L 323 12.5 L 322 12.5 L 320 5 L 313.5 1 L 304.5 1 L 304.5 0 Z " /><path fill="rgb(164,162,179)" stroke="rgb(164,162,179)" stroke-width="1" opacity="0.5176470588235295" d="M 362.5 0 Q 377.3 -1.8 381 7.5 L 382 10.5 L 382 30 L 411 30.5 L 382.5 31 L 381 29.5 L 381 10.5 Q 379.6 4.4 374.5 2 L 362.5 1 L 362.5 0 Z " /><path fill="rgb(164,162,179)" stroke="rgb(164,162,179)" stroke-width="1" opacity="0.5176470588235295" d="M 420.5 0 Q 435.2 -2.2 439 6.5 L 441 13.5 L 439 12.5 L 439 8.5 L 437 5 L 435 5 Q 436.1 2.3 433.5 3 Q 430 -1 420.5 1 L 413 7.5 L 412.5 9 L 412 7.5 L 420.5 0 Z " /><path fill="rgb(164,162,179)" stroke="rgb(164,162,179)" stroke-width="1" opacity="0.5176470588235295" d="M 184.5 1 L 186 1.5 L 179 7.5 L 177.5 14 L 177 9.5 L 181.5 3 L 184.5 1 Z " /><path fill="rgb(164,162,179)" stroke="rgb(164,162,179)" stroke-width="1" opacity="0.5176470588235295" d="M 197.5 1 L 204 6.5 L 198.5 2 L 197.5 1 Z " /><path fill="rgb(164,162,179)" stroke="rgb(164,162,179)" stroke-width="1" opacity="0.5176470588235295" d="M 301.5 1 L 303 1.5 L 296 7.5 L 295.5 9 L 295 7.5 L 301.5 1 Z " /><path fill="rgb(164,162,179)" stroke="rgb(164,162,179)" stroke-width="1" opacity="0.5176470588235295" d="M 358.5 2 L 355 6.5 L 353 11.5 L 353 13.5 L 353 29.5 L 351.5 31 L 323 30.5 L 352 30 L 352 10.5 Q 353.4 4.4 358.5 2 Z " /><path fill="rgb(164,162,179)" stroke="rgb(164,162,179)" stroke-width="1" opacity="0.5176470588235295" d="M 205.5 10 L 206 13.5 L 205 13.5 L 205.5 10 Z " /><path fill="rgb(164,162,179)" stroke="rgb(164,162,179)" stroke-width="1" opacity="0.5176470588235295" d="M 294.5 10 L 295 13.5 L 294 13.5 L 294.5 10 Z " /><path fill="rgb(164,162,179)" stroke="rgb(164,162,179)" stroke-width="1" opacity="0.5176470588235295" d="M 411.5 10 L 412 28.5 L 411 28.5 L 411.5 10 Z " /><path fill="rgb(164,162,179)" stroke="rgb(164,162,179)" stroke-width="1" opacity="0.5176470588235295" d="M 440.5 15 L 441 28.5 L 440 28.5 L 440.5 15 Z " /><path fill="rgb(164,162,179)" stroke="rgb(164,162,179)" stroke-width="1" opacity="0.5176470588235295" d="M 129.5 30 L 177 30.5 L 129.5 31 L 121.5 37 L 125.5 32 L 129.5 30 Z " /><path fill="rgb(164,162,179)" stroke="rgb(164,162,179)" stroke-width="1" opacity="0.5176470588235295" d="M 441.5 30 L 489.5 30 L 499 37.5 L 500 41.5 L 499 41.5 Q 498.4 35.2 493.5 33 L 489.5 31 L 441.5 31 L 441.5 30 Z " /><path fill="rgb(164,162,179)" stroke="rgb(164,162,179)" stroke-width="1" opacity="0.5176470588235295" d="M 119.5 40 L 120 163.5 L 116.5 165 L 116.5 164 L 119 163.5 L 119.5 40 Z " /><path fill="rgb(164,162,179)" stroke="rgb(164,162,179)" stroke-width="1" opacity="0.5176470588235295" d="M 148 59 L 177 59.5 L 149 60 L 149 118 L 186.5 118 L 186.5 119 L 149.5 119 L 148 117.5 L 148 59 Z " /><path fill="rgb(164,162,179)" stroke="rgb(164,162,179)" stroke-width="1" opacity="0.5176470588235295" d="M 206.5 59 L 236 59 L 236 75.5 L 237 78.5 Q 237.5 84.1 241.5 86 Q 245.5 89.5 254.5 88 L 262 82.5 L 264 77.5 L 264 59 L 294 59.5 L 265 60 L 265 78.5 L 258.5 87 Q 254.5 90.5 245.5 89 L 237 82.5 L 235 78.5 L 235 60 L 206.5 60 L 206.5 59 Z " /><path fill="rgb(164,162,179)" stroke="rgb(164,162,179)" stroke-width="1" opacity="0.5176470588235295" d="M 323.5 59 L 353 59 L 353 75.5 L 356 84 L 358 84 Q 356.9 86.7 359.5 86 Q 362.7 89.8 371.5 88 L 379 82.5 L 381 78.5 L 381 60.5 L 382.5 59 L 410.5 59 L 412 60.5 L 412 78.5 L 417.5 86 Q 421.5 89.5 430.5 88 L 435 86 L 435 84 Q 437.7 85.1 437 82.5 L 440 75.5 L 440.5 64 L 441 77.5 Q 439.5 84 434.5 87 Q 430.5 90.5 421.5 89 L 413 82.5 L 411 78.5 L 411 60 L 382 60 L 382 78.5 L 375.5 87 Q 371.5 90.5 362.5 89 L 354 82.5 L 352 78.5 L 352 60 L 323.5 60 L 323.5 59 Z " /><path fill="rgb(164,162,179)" stroke="rgb(164,162,179)" stroke-width="1" opacity="0.5176470588235295" d="M 440.5 59 L 470.5 59 L 471 61.5 L 470 61.5 L 469.5 60 L 440.5 60 L 440.5 59 Z " /><path fill="rgb(164,162,179)" stroke="rgb(164,162,179)" stroke-width="1" opacity="0.5176470588235295" d="M 205.5 72 L 206 78.5 L 205 78.5 L 205.5 72 Z " /><path fill="rgb(164,162,179)" stroke="rgb(164,162,179)" stroke-width="1" opacity="0.5176470588235295" d="M 294.5 74 L 295 78.5 L 294 78.5 L 294.5 74 Z " /><path fill="rgb(164,162,179)" stroke="rgb(164,162,179)" stroke-width="1" opacity="0.5176470588235295" d="M 322.5 74 L 323 78.5 L 322 78.5 L 322.5 74 Z " /><path fill="rgb(164,162,179)" stroke="rgb(164,162,179)" stroke-width="1" opacity="0.5176470588235295" d="M 177.5 76 L 178 78.5 L 177 78.5 L 177.5 76 Z " /><path fill="rgb(164,162,179)" stroke="rgb(164,162,179)" stroke-width="1" opacity="0.5176470588235295" d="M 179.5 82 Q 182.9 89.6 195.5 88 L 197.5 87 L 197.5 88 Q 194.3 90.3 187.5 89 L 180 84.5 L 179.5 82 Z " /><path fill="rgb(164,162,179)" stroke="rgb(164,162,179)" stroke-width="1" opacity="0.5176470588235295" d="M 203.5 82 L 199.5 87 L 203.5 82 Z " /><path fill="rgb(164,162,179)" stroke="rgb(164,162,179)" stroke-width="1" opacity="0.5176470588235295" d="M 296.5 82 L 304.5 88 L 312.5 88 Q 318.3 86.8 320.5 82 L 320 83.5 Q 320.8 85.8 318.5 85 Q 315.1 90.6 304.5 89 Q 298.4 86.8 296.5 82 Z " /><path fill="rgb(164,162,179)" stroke="rgb(164,162,179)" stroke-width="1" opacity="0.5176470588235295" d="M 193.5 118 L 305 118.5 L 193.5 119 L 193.5 118 Z " /><path fill="rgb(164,162,179)" stroke="rgb(164,162,179)" stroke-width="1" opacity="0.5176470588235295" d="M 312.5 118 L 359 118.5 L 312.5 119 L 312.5 118 Z " /><path fill="rgb(164,162,179)" stroke="rgb(164,162,179)" stroke-width="1" opacity="0.5176470588235295" d="M 377.5 118 L 420 118.5 L 377.5 119 L 377.5 118 Z " /><path fill="rgb(164,162,179)" stroke="rgb(164,162,179)" stroke-width="1" opacity="0.5176470588235295" d="M 443.5 118 L 470 118.5 L 443.5 119 L 443.5 118 Z " /><path fill="rgb(164,162,179)" stroke="rgb(164,162,179)" stroke-width="1" opacity="0.5176470588235295" d="M 148 147 L 471 147.5 L 149 148 L 149 161 L 157.5 161 L 158.5 162 L 173.5 163 L 189 167.5 L 186.5 168 L 172.5 164 L 149.5 162 L 148 160.5 L 148 147 Z " /><path fill="rgb(164,162,179)" stroke="rgb(164,162,179)" stroke-width="1" opacity="0.5176470588235295" d="M 112.5 165 L 115 165.5 L 99.5 170 L 99.5 169 L 112.5 165 Z " /><path fill="rgb(164,162,179)" stroke="rgb(164,162,179)" stroke-width="1" opacity="0.5176470588235295" d="M 190.5 168 L 195 169.5 L 193.5 170 L 190.5 169 L 190.5 168 Z " /><path fill="rgb(164,162,179)" stroke="rgb(164,162,179)" stroke-width="1" opacity="0.5176470588235295" d="M 96.5 170 L 98 170.5 Q 60.7 184.2 37 211.5 Q 24.8 224.8 16.5 242 L 16 240.5 Q 29.8 214.3 51.5 196 L 70.5 182 L 96.5 170 Z " /><path fill="rgb(164,162,179)" stroke="rgb(164,162,179)" stroke-width="1" opacity="0.5176470588235295" d="M 196.5 170 L 205 173.5 L 203.5 174 L 196.5 171 L 196.5 170 Z " /><path fill="rgb(164,162,179)" stroke="rgb(164,162,179)" stroke-width="1" opacity="0.5176470588235295" d="M 206.5 174 L 212 176.5 L 210.5 177 L 206.5 175 L 206.5 174 Z " /><path fill="rgb(164,162,179)" stroke="rgb(164,162,179)" stroke-width="1" opacity="0.5176470588235295" d="M 340.5 177 L 343 177.5 L 340.5 178 L 340.5 177 Z " /><path fill="rgb(164,162,179)" stroke="rgb(164,162,179)" stroke-width="1" opacity="0.5176470588235295" d="M 391.5 177 L 395 177.5 L 387 180 L 387 182 Q 384.3 180.9 385 183.5 Q 381 187 383 196.5 L 389.5 204 L 391 204.5 L 389.5 205 L 385 201.5 Q 380.1 197.4 382 186.5 L 387.5 179 L 391.5 177 Z " /><path fill="rgb(164,162,179)" stroke="rgb(164,162,179)" stroke-width="1" opacity="0.5176470588235295" d="M 427.5 177 L 431 177.5 L 427.5 178 L 427.5 177 Z " /><path fill="rgb(164,162,179)" stroke="rgb(164,162,179)" stroke-width="1" opacity="0.5176470588235295" d="M 432.5 178 L 439 183.5 Q 442.2 186.8 441 194.5 Q 439.5 201 434.5 204 Q 432.2 206.7 426.5 206 L 426.5 205 Q 432.7 205.6 435 203 L 435 201 Q 437.7 202.1 437 199.5 L 439 196.5 L 439 185.5 L 434.5 180 L 432.5 178 Z " /><path fill="rgb(164,162,179)" stroke="rgb(164,162,179)" stroke-width="1" opacity="0.5176470588235295" d="M 346.5 179 L 353 187.5 L 353 195.5 L 346.5 204 Q 344.2 206.7 338.5 206 L 338.5 205 L 342.5 205 L 349 200.5 L 352 191.5 Q 349.8 190.3 351 185.5 L 346.5 179 Z " /><path fill="rgb(164,162,179)" stroke="rgb(164,162,179)" stroke-width="1" opacity="0.5176470588235295" d="M 137.5 190 L 156.5 190 L 157.5 191 L 170.5 192 L 190.5 198 L 204 205.5 L 202.5 205 L 187.5 198 L 173.5 195 L 170.5 193 L 168.5 194 L 156.5 191 L 155.5 192 L 138.5 192 L 137.5 190 Z " /><path fill="rgb(164,162,179)" stroke="rgb(164,162,179)" stroke-width="1" opacity="0.5176470588235295" d="M 129 191 L 136 191.5 L 129 193 L 129 191 Z " /><path fill="rgb(164,162,179)" stroke="rgb(164,162,179)" stroke-width="1" opacity="0.5176470588235295" d="M 123.5 192 L 128 192.5 L 124.5 194 L 122.5 194 L 120.5 195 L 118.5 195 Q 83.7 203.7 63 226.5 Q 52.7 236.7 45.5 250 L 45 248.5 Q 55.3 230.8 70.5 218 Q 91.5 199.5 123.5 192 Z " /><path fill="rgb(164,162,179)" stroke="rgb(164,162,179)" stroke-width="1" opacity="0.5176470588235295" d="M 253.5 205 L 256 205.5 L 253 206.5 Q 266.4 218.5 274 235 L 342.5 235 L 350 240.5 Q 354.2 244.3 353 253.5 Q 351.8 259.3 347.5 262 L 342.5 265 L 288 265 L 292 282.5 L 291 282.5 L 287 264 L 341.5 264 L 350 257.5 L 351 255.5 L 351 244.5 L 345.5 238 L 341.5 236 L 274.5 236 L 273 234.5 Q 264.5 218.5 252 206.5 L 253.5 205 Z " /><path fill="rgb(164,162,179)" stroke="rgb(164,162,179)" stroke-width="1" opacity="0.5176470588235295" d="M 392.5 205 L 405 205.5 L 392.5 206 L 392.5 205 Z " /><path fill="rgb(164,162,179)" stroke="rgb(164,162,179)" stroke-width="1" opacity="0.5176470588235295" d="M 205.5 206 L 206.5 208 L 205.5 206 Z " /><path fill="rgb(164,162,179)" stroke="rgb(164,162,179)" stroke-width="1" opacity="0.5176470588235295" d="M 210.5 209 Q 225.8 218.2 237 231.5 L 248 247.5 L 246 246.5 Q 235.6 228.4 219.5 216 Q 211.9 213.5 210.5 209 Z " /><path fill="rgb(164,162,179)" stroke="rgb(164,162,179)" stroke-width="1" opacity="0.5176470588235295" d="M 392.5 235 L 429.5 235 L 438 240.5 Q 441 243.5 441 249.5 L 441 251.5 L 440 257 L 438 256.5 L 439 255.5 L 439 244.5 L 433.5 238 L 429.5 236 L 394.5 236 L 391.5 237 L 385 241.5 L 383.5 244 L 384 242.5 L 388.5 237 L 392.5 235 Z " /><path fill="rgb(164,162,179)" stroke="rgb(164,162,179)" stroke-width="1" opacity="0.5176470588235295" d="M 90.5 242 Q 99.5 240.5 103.5 244 L 153 293.5 L 151.5 294 L 102.5 245 Q 98.8 241.7 90.5 243 L 82.5 249 L 86.5 244 L 90.5 242 Z " /><path fill="rgb(164,162,179)" stroke="rgb(164,162,179)" stroke-width="1" opacity="0.5176470588235295" d="M 13.5 247 L 14 248.5 L 11.5 253 L 11 250.5 L 13.5 247 Z " /><path fill="rgb(164,162,179)" stroke="rgb(164,162,179)" stroke-width="1" opacity="0.5176470588235295" d="M 382.5 248 L 383 251.5 L 382 251.5 L 382.5 248 Z " /><path fill="rgb(164,162,179)" stroke="rgb(164,162,179)" stroke-width="1" opacity="0.5176470588235295" d="M 81.5 250 L 82 251.5 L 81 252.5 L 81 261.5 L 83 266 L 84.5 266 L 109 290.5 Q 108.3 292.8 110.5 292 L 121.5 304 L 129 310.5 Q 128.3 312.8 130.5 312 L 139.5 321 L 146 322.5 L 141.5 323 L 137.5 321 L 82 265.5 Q 78.5 261.5 80 252.5 L 81.5 250 Z " /><path fill="rgb(164,162,179)" stroke="rgb(164,162,179)" stroke-width="1" opacity="0.5176470588235295" d="M 43 251 L 45 251.5 Q 33.7 268.2 30.5 293 L 30 287.5 Q 34.3 266.3 43 251 Z " /><path fill="rgb(164,162,179)" stroke="rgb(164,162,179)" stroke-width="1" opacity="0.5176470588235295" d="M 249.5 251 L 253 256.5 L 251 255.5 L 249.5 251 Z " /><path fill="rgb(164,162,179)" stroke="rgb(164,162,179)" stroke-width="1" opacity="0.5176470588235295" d="M 382.5 253 L 388.5 262 L 393.5 264 L 429.5 264 L 437.5 258 L 438 259.5 L 429.5 265 L 392.5 265 L 384 258.5 L 382.5 253 Z " /><path fill="rgb(164,162,179)" stroke="rgb(164,162,179)" stroke-width="1" opacity="0.5176470588235295" d="M 10.5 254 L 11 255.5 L 9.5 258 L 9 255.5 L 10.5 254 Z " /><path fill="rgb(164,162,179)" stroke="rgb(164,162,179)" stroke-width="1" opacity="0.5176470588235295" d="M 253.5 258 L 262 278.5 L 264 292.5 L 263 292.5 L 262 288.5 L 262 286.5 L 260 275.5 L 253 259.5 L 253.5 258 Z " /><path fill="rgb(164,162,179)" stroke="rgb(164,162,179)" stroke-width="1" opacity="0.5176470588235295" d="M 8.5 259 L 9 260.5 L 4 275.5 L 0.5 300 L 0 293.5 L 1 292.5 L 1 285.5 L 3 275.5 L 8.5 259 Z " /><path fill="rgb(164,162,179)" stroke="rgb(164,162,179)" stroke-width="1" opacity="0.5176470588235295" d="M 291.5 284 L 293 289.5 L 292 289.5 L 291.5 284 Z " /><path fill="rgb(164,162,179)" stroke="rgb(164,162,179)" stroke-width="1" opacity="0.5176470588235295" d="M 292.5 291 L 294 293.5 L 292 292.5 L 292.5 291 Z " /><path fill="rgb(164,162,179)" stroke="rgb(164,162,179)" stroke-width="1" opacity="0.5176470588235295" d="M 29.5 294 Q 32.3 295.3 30 296.5 L 29.5 306 L 29.5 294 Z " /><path fill="rgb(164,162,179)" stroke="rgb(164,162,179)" stroke-width="1" opacity="0.5176470588235295" d="M 191.5 294 L 194 294.5 L 191.5 295 L 191.5 294 Z " /><path fill="rgb(164,162,179)" stroke="rgb(164,162,179)" stroke-width="1" opacity="0.5176470588235295" d="M 392.5 294 L 398 294.5 L 392.5 295 L 392.5 294 Z " /><path fill="rgb(164,162,179)" stroke="rgb(164,162,179)" stroke-width="1" opacity="0.5176470588235295" d="M 406.5 294 L 415 294.5 L 406.5 295 L 406.5 294 Z " /><path fill="rgb(164,162,179)" stroke="rgb(164,162,179)" stroke-width="1" opacity="0.5176470588235295" d="M 426.5 294 Q 435.6 294.4 439 300.5 Q 442 304.5 441 312.5 L 434.5 321 Q 432.2 323.7 426.5 323 L 426.5 322 L 430.5 322 L 437 317.5 Q 440.7 313.2 439 303.5 L 437 299 L 435 299 Q 436.1 296.3 433.5 297 Q 431.8 294.2 426.5 295 L 426.5 294 Z " /><path fill="rgb(164,162,179)" stroke="rgb(164,162,179)" stroke-width="1" opacity="0.5176470588235295" d="M 263 295 L 265 295.5 L 265 305.5 L 264 305.5 Q 264.7 298.4 263 295 Z " /><path fill="rgb(164,162,179)" stroke="rgb(164,162,179)" stroke-width="1" opacity="0.5176470588235295" d="M 344.5 295 L 351 300.5 Q 354.3 304.2 353 312.5 L 346.5 321 L 339.5 323 L 339.5 322 L 342.5 322 L 349 317.5 L 352 310.5 L 351 307.5 L 351 305.5 Q 350.4 299.6 346.5 297 L 344.5 295 Z " /><path fill="rgb(164,162,179)" stroke="rgb(164,162,179)" stroke-width="1" opacity="0.5176470588235295" d="M 389.5 295 L 391 295.5 L 384 301.5 Q 381.3 305.3 383 313.5 L 389.5 321 L 399 322.5 L 391.5 323 L 384 317.5 Q 380.3 313.2 382 303.5 L 387.5 296 L 389.5 295 Z " /><path fill="rgb(164,162,179)" stroke="rgb(164,162,179)" stroke-width="1" opacity="0.5176470588235295" d="M 197.5 296 L 201 298.5 L 203 302.5 L 202 302.5 L 197.5 296 Z " /><path fill="rgb(164,162,179)" stroke="rgb(164,162,179)" stroke-width="1" opacity="0.5176470588235295" d="M 0.5 301 L 1 303.5 L 0 303.5 L 0.5 301 Z " /><path fill="rgb(164,162,179)" stroke="rgb(164,162,179)" stroke-width="1" opacity="0.5176470588235295" d="M 203.5 304 L 204 313.5 L 198.5 321 Q 196.2 323.7 190.5 323 L 190.5 322 Q 199.5 322 202 315.5 L 203.5 304 Z " /><path fill="rgb(164,162,179)" stroke="rgb(164,162,179)" stroke-width="1" opacity="0.5176470588235295" d="M 29.5 311 Q 29.9 335.6 38 352.5 Q 49.1 378.4 68.5 396 Q 88.3 414.2 118 422.5 L 115.5 423 L 103.5 419 L 73 402 L 71.5 399 L 64 393.5 Q 64.8 391.3 62.5 392 Q 46.9 375.6 37 353.5 L 30 329.5 L 29.5 311 Z " /><path fill="rgb(164,162,179)" stroke="rgb(164,162,179)" stroke-width="1" opacity="0.5176470588235295" d="M 264.5 311 L 265 322 Q 262.3 323.1 263 320.5 L 264 319.5 L 264.5 311 Z " /><path fill="rgb(164,162,179)" stroke="rgb(164,162,179)" stroke-width="1" opacity="0.5176470588235295" d="M 0.5 313 L 1 315.5 L 0 315.5 L 0.5 313 Z " /><path fill="rgb(164,162,179)" stroke="rgb(164,162,179)" stroke-width="1" opacity="0.5176470588235295" d="M 0.5 317 L 2 326.5 L 1 326.5 L 0.5 317 Z " /><path fill="rgb(164,162,179)" stroke="rgb(164,162,179)" stroke-width="1" opacity="0.5176470588235295" d="M 263.5 324 L 264 329 L 262 328.5 L 263.5 324 Z " /><path fill="rgb(164,162,179)" stroke="rgb(164,162,179)" stroke-width="1" opacity="0.5176470588235295" d="M 1.5 328 L 5 342.5 L 3 341.5 L 1.5 328 Z " /><path fill="rgb(164,162,179)" stroke="rgb(164,162,179)" stroke-width="1" opacity="0.5176470588235295" d="M 292.5 328 L 293 330.5 L 292 330.5 L 292.5 328 Z " /><path fill="rgb(164,162,179)" stroke="rgb(164,162,179)" stroke-width="1" opacity="0.5176470588235295" d="M 262.5 330 L 263 333.5 L 262 333.5 L 262.5 330 Z " /><path fill="rgb(164,162,179)" stroke="rgb(164,162,179)" stroke-width="1" opacity="0.5176470588235295" d="M 291.5 334 L 292 336.5 L 288 352 L 341.5 352 L 350 357.5 L 353 363.5 L 353 371.5 L 346.5 380 L 342.5 382 L 275.5 382 L 273 384.5 Q 265.3 399.8 253 410.5 L 342.5 411 L 351 417.5 Q 354.3 421.2 353 429.5 L 349 437 L 341.5 441 L 338.5 441 L 338.5 440 Q 346 439.5 349 434.5 L 351 431.5 L 351 420.5 L 349 416 L 347 416 Q 348.1 413.3 345.5 414 L 342.5 412 L 253.5 412 L 252 410.5 Q 265.1 397.6 274.5 381 L 342.5 381 L 349 377 Q 352.6 372.5 351 361.5 L 345.5 355 L 339.5 353 L 287 353 L 291.5 334 Z " /><path fill="rgb(164,162,179)" stroke="rgb(164,162,179)" stroke-width="1" opacity="0.5176470588235295" d="M 261.5 335 L 262 338.5 L 256 355.5 L 249.5 366 L 250 364.5 Q 257.8 351.8 261.5 335 Z " /><path fill="rgb(164,162,179)" stroke="rgb(164,162,179)" stroke-width="1" opacity="0.5176470588235295" d="M 4.5 344 L 14 369.5 L 12 368.5 L 5 349.5 L 4.5 344 Z " /><path fill="rgb(164,162,179)" stroke="rgb(164,162,179)" stroke-width="1" opacity="0.5176470588235295" d="M 392.5 352 L 429.5 352 L 439 359.5 Q 442.2 362.8 441 370.5 Q 439.5 377 434.5 380 L 430.5 382 L 392.5 382 L 384 375.5 Q 380.5 371.5 382 362.5 L 388.5 354 L 392.5 352 Z M 396 353 L 391 354 L 389 356 Q 386 355 387 358 L 385 358 L 383 363 Q 382 372 385 376 L 393 381 L 430 381 L 433 380 L 439 373 L 439 362 L 438 360 Q 435 354 428 353 L 396 353 Z " /><path fill="rgb(164,162,179)" stroke="rgb(164,162,179)" stroke-width="1" opacity="0.5176470588235295" d="M 248.5 367 L 249 368.5 L 228 396 L 206.5 411 Q 194.9 418.4 179.5 422 L 179.5 421 Q 213.5 411 234 387.5 L 248.5 367 Z " /><path fill="rgb(164,162,179)" stroke="rgb(164,162,179)" stroke-width="1" opacity="0.5176470588235295" d="M 16.5 375 Q 30 401.5 51.5 420 Q 70.9 436.6 97 446.5 L 95.5 447 Q 57 432 33 402.5 L 20 384.5 L 16 376.5 L 16.5 375 Z " /><path fill="rgb(164,162,179)" stroke="rgb(164,162,179)" stroke-width="1" opacity="0.5176470588235295" d="M 392.5 411 L 430.5 411 L 439 417.5 Q 442 421.5 441 429.5 L 433.5 439 L 426.5 441 L 426.5 440 Q 434.8 439.3 438 433.5 L 439 431.5 L 439 420.5 L 437 416 L 430.5 412 L 392.5 412 L 384.5 418 L 388.5 413 L 392.5 411 Z " /><path fill="rgb(164,162,179)" stroke="rgb(164,162,179)" stroke-width="1" opacity="0.5176470588235295" d="M 382.5 421 L 383 430.5 L 387.5 437 L 396 440.5 L 392.5 441 L 384 434.5 Q 380.2 430 382.5 421 Z " /><path fill="rgb(164,162,179)" stroke="rgb(164,162,179)" stroke-width="1" opacity="0.5176470588235295" d="M 176.5 422 L 178 422.5 L 175.5 424 L 158.5 427 L 135.5 427 L 119 423.5 L 122.5 423 L 135.5 426 L 158.5 426 L 176.5 422 Z " /><path fill="rgb(164,162,179)" stroke="rgb(164,162,179)" stroke-width="1" opacity="0.5176470588235295" d="M 210.5 440 L 213 440.5 L 204.5 445 L 180.5 452 L 180.5 451 Q 197.7 447.7 210.5 440 Z " /><path fill="rgb(164,162,179)" stroke="rgb(164,162,179)" stroke-width="1" opacity="0.5176470588235295" d="M 214.5 440 L 224 440.5 L 214.5 441 L 214.5 440 Z " /><path fill="rgb(164,162,179)" stroke="rgb(164,162,179)" stroke-width="1" opacity="0.5176470588235295" d="M 225.5 440 L 229 440.5 L 225.5 441 L 225.5 440 Z " /><path fill="rgb(164,162,179)" stroke="rgb(164,162,179)" stroke-width="1" opacity="0.5176470588235295" d="M 231.5 440 L 234 440.5 L 231.5 441 L 231.5 440 Z " /><path fill="rgb(164,162,179)" stroke="rgb(164,162,179)" stroke-width="1" opacity="0.5176470588235295" d="M 236.5 440 L 307 440.5 L 236.5 441 L 236.5 440 Z " /><path fill="rgb(164,162,179)" stroke="rgb(164,162,179)" stroke-width="1" opacity="0.5176470588235295" d="M 315.5 440 L 337 440.5 L 315.5 441 L 315.5 440 Z " /><path fill="rgb(164,162,179)" stroke="rgb(164,162,179)" stroke-width="1" opacity="0.5176470588235295" d="M 404.5 440 L 425 440.5 L 404.5 441 L 404.5 440 Z " /><path fill="rgb(164,162,179)" stroke="rgb(164,162,179)" stroke-width="1" opacity="0.5176470588235295" d="M 98.5 447 L 115 451.5 L 111.5 452 L 98.5 448 L 98.5 447 Z " /><path fill="rgb(164,162,179)" stroke="rgb(164,162,179)" stroke-width="1" opacity="0.5176470588235295" d="M 178.5 451 L 177.5 453 L 174 452.5 L 178.5 451 Z " /><path fill="rgb(164,162,179)" stroke="rgb(164,162,179)" stroke-width="1" opacity="0.5176470588235295" d="M 116.5 452 L 120 453.5 L 120 489.5 L 121 491.5 L 120 491.5 L 119 489.5 L 119 453 Q 115.7 453.8 116.5 452 Z " /><path fill="rgb(164,162,179)" stroke="rgb(164,162,179)" stroke-width="1" opacity="0.5176470588235295" d="M 167.5 453 L 173 453.5 L 167.5 454 L 167.5 453 Z " /><path fill="rgb(164,162,179)" stroke="rgb(164,162,179)" stroke-width="1" opacity="0.5176470588235295" d="M 161.5 454 L 166 454.5 L 161.5 455 L 161.5 454 Z " /><path fill="rgb(164,162,179)" stroke="rgb(164,162,179)" stroke-width="1" opacity="0.5176470588235295" d="M 149.5 455 L 157 455.5 L 149 456 L 148.5 465 L 148 456.5 L 149.5 455 Z " /><path fill="rgb(164,162,179)" stroke="rgb(164,162,179)" stroke-width="1" opacity="0.5176470588235295" d="M 148.5 467 L 149 470.5 L 148 470.5 L 148.5 467 Z " /><path fill="rgb(164,162,179)" stroke="rgb(164,162,179)" stroke-width="1" opacity="0.5176470588235295" d="M 499.5 487 L 500 489.5 Q 498.6 495.6 493.5 498 L 486.5 500 L 486.5 499 Q 494.8 498.3 498 492.5 L 499.5 487 Z " /><path fill="rgb(164,162,179)" stroke="rgb(164,162,179)" stroke-width="1" opacity="0.5176470588235295" d="M 121.5 493 Q 124.8 497.8 131 499.5 L 129.5 500 Q 123.4 497.8 121.5 493 Z " /><path fill="rgb(241,240,246)" stroke="rgb(241,240,246)" stroke-width="1" opacity="0.1607843137254902" d="M 184.5 0 L 187 0.5 L 179 5.5 L 177 9.5 L 176.5 30 L 176 9.5 L 182.5 1 L 184.5 0 Z " /><path fill="rgb(241,240,246)" stroke="rgb(241,240,246)" stroke-width="1" opacity="0.1607843137254902" d="M 196.5 0 Q 202.9 0.7 205 5.5 L 207 9.5 L 207 29.5 L 206 29.5 L 206 10.5 L 198.5 1 Q 195.5 1.5 196.5 0 Z " /><path fill="rgb(241,240,246)" stroke="rgb(241,240,246)" stroke-width="1" opacity="0.1607843137254902" d="M 255.5 0 L 263 5.5 L 258.5 2 Q 254.8 1.7 255.5 0 Z " /><path fill="rgb(241,240,246)" stroke="rgb(241,240,246)" stroke-width="1" opacity="0.1607843137254902" d="M 301.5 0 L 304 0.5 L 301.5 1 L 295 7.5 L 294 10.5 L 293.5 30 L 293 9.5 L 299.5 1 L 301.5 0 Z " /><path fill="rgb(241,240,246)" stroke="rgb(241,240,246)" stroke-width="1" opacity="0.1607843137254902" d="M 314.5 0 L 322 5.5 L 324 9.5 L 324 29.5 L 323 29.5 L 323 9.5 L 317.5 2 Q 313.8 1.7 314.5 0 Z " /><path fill="rgb(241,240,246)" stroke="rgb(241,240,246)" stroke-width="1" opacity="0.1607843137254902" d="M 360.5 0 L 362 0.5 L 354.5 6 L 358.5 1 L 360.5 0 Z " /><path fill="rgb(241,240,246)" stroke="rgb(241,240,246)" stroke-width="1" opacity="0.1607843137254902" d="M 431.5 0 L 439 5.5 L 434.5 2 Q 430.8 1.7 431.5 0 Z " /><path fill="rgb(241,240,246)" stroke="rgb(241,240,246)" stroke-width="1" opacity="0.1607843137254902" d="M 241.5 1 L 237.5 6 L 241.5 1 Z " /><path fill="rgb(241,240,246)" stroke="rgb(241,240,246)" stroke-width="1" opacity="0.1607843137254902" d="M 375.5 1 L 379.5 6 L 375.5 1 Z " /><path fill="rgb(241,240,246)" stroke="rgb(241,240,246)" stroke-width="1" opacity="0.1607843137254902" d="M 417.5 1 L 413.5 6 L 417.5 1 Z " /><path fill="rgb(241,240,246)" stroke="rgb(241,240,246)" stroke-width="1" opacity="0.1607843137254902" d="M 494.5 32 L 498.5 37 L 494.5 32 Z " /><path fill="rgb(241,240,246)" stroke="rgb(241,240,246)" stroke-width="1" opacity="0.1607843137254902" d="M 176.5 60 L 177 78.5 L 180 83.5 L 177 81.5 L 176 79.5 L 176.5 60 Z " /><path fill="rgb(241,240,246)" stroke="rgb(241,240,246)" stroke-width="1" opacity="0.1607843137254902" d="M 206.5 60 L 207 78.5 L 200.5 87 L 204 82.5 L 206 78.5 L 206.5 60 Z " /><path fill="rgb(241,240,246)" stroke="rgb(241,240,246)" stroke-width="1" opacity="0.1607843137254902" d="M 293.5 60 L 294 78.5 L 300 86.5 L 295 82.5 L 293 78.5 L 293.5 60 Z " /><path fill="rgb(241,240,246)" stroke="rgb(241,240,246)" stroke-width="1" opacity="0.1607843137254902" d="M 323.5 60 L 324 79.5 L 320.5 84 L 321 82.5 L 323 78.5 L 323.5 60 Z " /><path fill="rgb(241,240,246)" stroke="rgb(241,240,246)" stroke-width="1" opacity="0.1607843137254902" d="M 470.5 62 L 471 117.5 L 470 117.5 L 470.5 62 Z " /><path fill="rgb(241,240,246)" stroke="rgb(241,240,246)" stroke-width="1" opacity="0.1607843137254902" d="M 318.5 85 L 317.5 87 L 318.5 85 Z " /><path fill="rgb(241,240,246)" stroke="rgb(241,240,246)" stroke-width="1" opacity="0.1607843137254902" d="M 470.5 148 L 471 469.5 L 469.5 471 L 149.5 471 L 149.5 470 L 470 470 L 470.5 148 Z " /><path fill="rgb(241,240,246)" stroke="rgb(241,240,246)" stroke-width="1" opacity="0.1607843137254902" d="M 101.5 167 L 104 167.5 Q 86.9 172.4 73.5 181 L 73.5 180 Q 85.9 171.9 101.5 167 Z " /><path fill="rgb(241,240,246)" stroke="rgb(241,240,246)" stroke-width="1" opacity="0.1607843137254902" d="M 189.5 167 L 198.5 169 L 212.5 176 L 342.5 176 L 351 182.5 L 346.5 179 L 342.5 177 L 212.5 177 Q 202.9 170.6 189.5 168 L 189.5 167 Z " /><path fill="rgb(241,240,246)" stroke="rgb(241,240,246)" stroke-width="1" opacity="0.1607843137254902" d="M 391.5 176 L 430.5 176 L 439 182.5 L 434.5 179 L 430.5 177 L 391.5 177 L 384 182.5 Q 380.3 186.8 382 196.5 L 386.5 203 L 392.5 206 L 430.5 206 L 438.5 200 L 434.5 205 L 430.5 207 L 391.5 207 L 383 200.5 Q 379.3 196.2 381 186.5 L 387.5 178 L 391.5 176 Z " /><path fill="rgb(241,240,246)" stroke="rgb(241,240,246)" stroke-width="1" opacity="0.1607843137254902" d="M 69.5 182 L 68.5 184 L 69.5 182 Z " /><path fill="rgb(241,240,246)" stroke="rgb(241,240,246)" stroke-width="1" opacity="0.1607843137254902" d="M 66.5 184 L 65.5 186 L 66.5 184 Z " /><path fill="rgb(241,240,246)" stroke="rgb(241,240,246)" stroke-width="1" opacity="0.1607843137254902" d="M 63.5 186 L 62.5 188 L 63.5 186 Z " /><path fill="rgb(241,240,246)" stroke="rgb(241,240,246)" stroke-width="1" opacity="0.1607843137254902" d="M 60.5 188 L 58.5 191 L 60.5 188 Z " /><path fill="rgb(241,240,246)" stroke="rgb(241,240,246)" stroke-width="1" opacity="0.1607843137254902" d="M 55.5 192 L 52.5 196 L 55.5 192 Z " /><path fill="rgb(241,240,246)" stroke="rgb(241,240,246)" stroke-width="1" opacity="0.1607843137254902" d="M 128.5 192 L 127.5 194 L 125 193.5 L 128.5 192 Z " /><path fill="rgb(241,240,246)" stroke="rgb(241,240,246)" stroke-width="1" opacity="0.1607843137254902" d="M 123.5 193 L 122.5 195 L 121 194.5 L 123.5 193 Z " /><path fill="rgb(241,240,246)" stroke="rgb(241,240,246)" stroke-width="1" opacity="0.1607843137254902" d="M 170.5 193 L 173 194.5 L 171.5 195 L 170.5 193 Z " /><path fill="rgb(241,240,246)" stroke="rgb(241,240,246)" stroke-width="1" opacity="0.1607843137254902" d="M 119.5 194 L 118.5 196 L 116 195.5 L 119.5 194 Z " /><path fill="rgb(241,240,246)" stroke="rgb(241,240,246)" stroke-width="1" opacity="0.1607843137254902" d="M 175.5 195 L 187.5 198 L 206 207.5 L 204.5 207 L 187.5 199 L 175.5 196 L 175.5 195 Z " /><path fill="rgb(241,240,246)" stroke="rgb(241,240,246)" stroke-width="1" opacity="0.1607843137254902" d="M 50.5 196 L 41.5 206 L 50.5 196 Z " /><path fill="rgb(241,240,246)" stroke="rgb(241,240,246)" stroke-width="1" opacity="0.1607843137254902" d="M 112.5 196 L 115 196.5 Q 99.8 200.3 88.5 208 L 89.5 206 L 112.5 196 Z " /><path fill="rgb(241,240,246)" stroke="rgb(241,240,246)" stroke-width="1" opacity="0.1607843137254902" d="M 350.5 200 L 346.5 205 L 342.5 207 L 253.5 207 L 253.5 206 L 342.5 206 L 350.5 200 Z " /><path fill="rgb(241,240,246)" stroke="rgb(241,240,246)" stroke-width="1" opacity="0.1607843137254902" d="M 38.5 208 L 35.5 212 L 38.5 208 Z " /><path fill="rgb(241,240,246)" stroke="rgb(241,240,246)" stroke-width="1" opacity="0.1607843137254902" d="M 255.5 208 L 258.5 212 L 255.5 208 Z " /><path fill="rgb(241,240,246)" stroke="rgb(241,240,246)" stroke-width="1" opacity="0.1607843137254902" d="M 209.5 209 L 210.5 211 L 209.5 209 Z " /><path fill="rgb(241,240,246)" stroke="rgb(241,240,246)" stroke-width="1" opacity="0.1607843137254902" d="M 81.5 211 L 80.5 213 L 81.5 211 Z " /><path fill="rgb(241,240,246)" stroke="rgb(241,240,246)" stroke-width="1" opacity="0.1607843137254902" d="M 212.5 211 L 214.5 214 L 212.5 211 Z " /><path fill="rgb(241,240,246)" stroke="rgb(241,240,246)" stroke-width="1" opacity="0.1607843137254902" d="M 34.5 213 L 30.5 218 L 34.5 213 Z " /><path fill="rgb(241,240,246)" stroke="rgb(241,240,246)" stroke-width="1" opacity="0.1607843137254902" d="M 78.5 213 L 76.5 216 L 78.5 213 Z " /><path fill="rgb(241,240,246)" stroke="rgb(241,240,246)" stroke-width="1" opacity="0.1607843137254902" d="M 216.5 214 L 217.5 216 L 216.5 214 Z " /><path fill="rgb(241,240,246)" stroke="rgb(241,240,246)" stroke-width="1" opacity="0.1607843137254902" d="M 260.5 214 L 262.5 217 L 260.5 214 Z " /><path fill="rgb(241,240,246)" stroke="rgb(241,240,246)" stroke-width="1" opacity="0.1607843137254902" d="M 74.5 216 L 70.5 221 L 74.5 216 Z " /><path fill="rgb(241,240,246)" stroke="rgb(241,240,246)" stroke-width="1" opacity="0.1607843137254902" d="M 219.5 216 L 223.5 221 L 219.5 216 Z " /><path fill="rgb(241,240,246)" stroke="rgb(241,240,246)" stroke-width="1" opacity="0.1607843137254902" d="M 29.5 219 L 27.5 222 L 29.5 219 Z " /><path fill="rgb(241,240,246)" stroke="rgb(241,240,246)" stroke-width="1" opacity="0.1607843137254902" d="M 264.5 219 L 266.5 222 L 264.5 219 Z " /><path fill="rgb(241,240,246)" stroke="rgb(241,240,246)" stroke-width="1" opacity="0.1607843137254902" d="M 26.5 223 L 25.5 225 L 26.5 223 Z " /><path fill="rgb(241,240,246)" stroke="rgb(241,240,246)" stroke-width="1" opacity="0.1607843137254902" d="M 267.5 223 L 268.5 225 L 267.5 223 Z " /><path fill="rgb(241,240,246)" stroke="rgb(241,240,246)" stroke-width="1" opacity="0.1607843137254902" d="M 65.5 224 L 63.5 227 L 65.5 224 Z " /><path fill="rgb(241,240,246)" stroke="rgb(241,240,246)" stroke-width="1" opacity="0.1607843137254902" d="M 24.5 226 L 23.5 228 L 24.5 226 Z " /><path fill="rgb(241,240,246)" stroke="rgb(241,240,246)" stroke-width="1" opacity="0.1607843137254902" d="M 269.5 226 L 270.5 228 L 269.5 226 Z " /><path fill="rgb(241,240,246)" stroke="rgb(241,240,246)" stroke-width="1" opacity="0.1607843137254902" d="M 22.5 229 L 21.5 231 L 22.5 229 Z " /><path fill="rgb(241,240,246)" stroke="rgb(241,240,246)" stroke-width="1" opacity="0.1607843137254902" d="M 271.5 229 L 272.5 231 L 271.5 229 Z " /><path fill="rgb(241,240,246)" stroke="rgb(241,240,246)" stroke-width="1" opacity="0.1607843137254902" d="M 59.5 231 L 55.5 236 L 59.5 231 Z " /><path fill="rgb(241,240,246)" stroke="rgb(241,240,246)" stroke-width="1" opacity="0.1607843137254902" d="M 234.5 231 L 237.5 235 L 234.5 231 Z " /><path fill="rgb(241,240,246)" stroke="rgb(241,240,246)" stroke-width="1" opacity="0.1607843137254902" d="M 20.5 232 L 19.5 234 L 20.5 232 Z " /><path fill="rgb(241,240,246)" stroke="rgb(241,240,246)" stroke-width="1" opacity="0.1607843137254902" d="M 54.5 237 L 52.5 240 L 54.5 237 Z " /><path fill="rgb(241,240,246)" stroke="rgb(241,240,246)" stroke-width="1" opacity="0.1607843137254902" d="M 239.5 237 L 241.5 240 L 239.5 237 Z " /><path fill="rgb(241,240,246)" stroke="rgb(241,240,246)" stroke-width="1" opacity="0.1607843137254902" d="M 387.5 237 L 384 241.5 Q 380.5 245.5 382 254.5 L 388 262.5 L 383 258.5 Q 379.5 254.5 381 245.5 L 387.5 237 Z " /><path fill="rgb(241,240,246)" stroke="rgb(241,240,246)" stroke-width="1" opacity="0.1607843137254902" d="M 15.5 241 L 16 242.5 L 12.5 248 L 13 246.5 L 15.5 241 Z " /><path fill="rgb(241,240,246)" stroke="rgb(241,240,246)" stroke-width="1" opacity="0.1607843137254902" d="M 51.5 241 L 50.5 243 L 51.5 241 Z " /><path fill="rgb(241,240,246)" stroke="rgb(241,240,246)" stroke-width="1" opacity="0.1607843137254902" d="M 242.5 241 L 243.5 243 L 242.5 241 Z " /><path fill="rgb(241,240,246)" stroke="rgb(241,240,246)" stroke-width="1" opacity="0.1607843137254902" d="M 85.5 244 L 83.5 247 L 85.5 244 Z " /><path fill="rgb(241,240,246)" stroke="rgb(241,240,246)" stroke-width="1" opacity="0.1607843137254902" d="M 244.5 244 L 245.5 246 L 244.5 244 Z " /><path fill="rgb(241,240,246)" stroke="rgb(241,240,246)" stroke-width="1" opacity="0.1607843137254902" d="M 47.5 247 L 46.5 249 L 47.5 247 Z " /><path fill="rgb(241,240,246)" stroke="rgb(241,240,246)" stroke-width="1" opacity="0.1607843137254902" d="M 246.5 247 L 247.5 249 L 246.5 247 Z " /><path fill="rgb(241,240,246)" stroke="rgb(241,240,246)" stroke-width="1" opacity="0.1607843137254902" d="M 110.5 250 L 124.5 265 L 110.5 250 Z " /><path fill="rgb(241,240,246)" stroke="rgb(241,240,246)" stroke-width="1" opacity="0.1607843137254902" d="M 10.5 251 L 11 253.5 L 9 254.5 L 10.5 251 Z " /><path fill="rgb(241,240,246)" stroke="rgb(241,240,246)" stroke-width="1" opacity="0.1607843137254902" d="M 8.5 256 L 9 258.5 L 5 267.5 L 1.5 285 L 1 280.5 Q 3.3 266.8 8.5 256 Z " /><path fill="rgb(241,240,246)" stroke="rgb(241,240,246)" stroke-width="1" opacity="0.1607843137254902" d="M 251.5 256 L 253 258.5 L 252 258.5 L 251.5 256 Z " /><path fill="rgb(241,240,246)" stroke="rgb(241,240,246)" stroke-width="1" opacity="0.1607843137254902" d="M 40.5 260 L 41 261.5 L 38.5 266 L 38 264.5 L 40.5 260 Z " /><path fill="rgb(241,240,246)" stroke="rgb(241,240,246)" stroke-width="1" opacity="0.1607843137254902" d="M 253.5 260 L 258 269.5 L 263 287.5 L 261 286.5 L 259 275.5 L 253 261.5 L 253.5 260 Z " /><path fill="rgb(241,240,246)" stroke="rgb(241,240,246)" stroke-width="1" opacity="0.1607843137254902" d="M 37.5 267 L 38 268.5 L 35 275.5 L 32 287.5 L 32 292.5 L 30.5 295 L 30 293.5 L 33 278.5 L 37.5 267 Z " /><path fill="rgb(241,240,246)" stroke="rgb(241,240,246)" stroke-width="1" opacity="0.1607843137254902" d="M 83.5 267 L 107.5 292 L 83.5 267 Z " /><path fill="rgb(241,240,246)" stroke="rgb(241,240,246)" stroke-width="1" opacity="0.1607843137254902" d="M 289.5 268 L 291 274.5 L 290 274.5 L 289.5 268 Z " /><path fill="rgb(241,240,246)" stroke="rgb(241,240,246)" stroke-width="1" opacity="0.1607843137254902" d="M 291.5 276 L 292 279.5 L 291 279.5 L 291.5 276 Z " /><path fill="rgb(241,240,246)" stroke="rgb(241,240,246)" stroke-width="1" opacity="0.1607843137254902" d="M 0.5 286 L 1 292.5 L 0 292.5 L 0.5 286 Z " /><path fill="rgb(241,240,246)" stroke="rgb(241,240,246)" stroke-width="1" opacity="0.1607843137254902" d="M 262.5 289 L 264 294.5 L 263 294.5 L 262.5 289 Z " /><path fill="rgb(241,240,246)" stroke="rgb(241,240,246)" stroke-width="1" opacity="0.1607843137254902" d="M 152.5 292 L 153.5 293 L 194.5 293 L 203 299.5 Q 206.7 303.8 205 313.5 L 198.5 322 L 194.5 324 L 141.5 324 L 137.5 322 L 125 309.5 L 137.5 321 L 141.5 323 L 194.5 323 L 202 317.5 Q 205.5 313.5 204 304.5 L 199.5 297 L 193.5 294 L 153.5 294 L 152.5 292 Z " /><path fill="rgb(241,240,246)" stroke="rgb(241,240,246)" stroke-width="1" opacity="0.1607843137254902" d="M 293.5 292 L 294.5 293 L 342.5 293 L 351 299.5 L 346.5 296 L 342.5 294 L 294.5 294 L 293.5 292 Z " /><path fill="rgb(241,240,246)" stroke="rgb(241,240,246)" stroke-width="1" opacity="0.1607843137254902" d="M 391.5 293 L 430.5 293 L 439 299.5 L 434.5 296 L 430.5 294 L 392.5 294 L 385 298.5 Q 380.1 302.6 382 313.5 L 387.5 321 L 391.5 323 L 430.5 323 L 438.5 317 L 434.5 322 L 430.5 324 L 391.5 324 L 383 317.5 Q 379.3 313.2 381 303.5 L 387.5 295 L 391.5 293 Z " /><path fill="rgb(241,240,246)" stroke="rgb(241,240,246)" stroke-width="1" opacity="0.1607843137254902" d="M 30.5 296 L 31 304.5 L 30 304.5 L 30.5 296 Z " /><path fill="rgb(241,240,246)" stroke="rgb(241,240,246)" stroke-width="1" opacity="0.1607843137254902" d="M 263.5 298 L 264 303.5 L 263 303.5 L 263.5 298 Z " /><path fill="rgb(241,240,246)" stroke="rgb(241,240,246)" stroke-width="1" opacity="0.1607843137254902" d="M 29.5 306 L 30 310.5 L 29 310.5 L 29.5 306 Z " /><path fill="rgb(241,240,246)" stroke="rgb(241,240,246)" stroke-width="1" opacity="0.1607843137254902" d="M 264.5 306 L 265 310.5 L 264 310.5 L 264.5 306 Z " /><path fill="rgb(241,240,246)" stroke="rgb(241,240,246)" stroke-width="1" opacity="0.1607843137254902" d="M 30.5 312 L 33 334.5 L 41 356.5 L 40 356.5 L 32 334.5 L 30 323.5 L 30.5 312 Z " /><path fill="rgb(241,240,246)" stroke="rgb(241,240,246)" stroke-width="1" opacity="0.1607843137254902" d="M 263.5 312 L 264 319.5 L 263 319.5 L 263.5 312 Z " /><path fill="rgb(241,240,246)" stroke="rgb(241,240,246)" stroke-width="1" opacity="0.1607843137254902" d="M 350.5 317 L 346.5 322 L 342.5 324 L 294.5 324 L 293.5 325 L 294.5 323 L 342.5 323 L 350.5 317 Z " /><path fill="rgb(241,240,246)" stroke="rgb(241,240,246)" stroke-width="1" opacity="0.1607843137254902" d="M 263.5 322 L 264 323.5 L 262.5 328 L 262 324.5 L 263.5 322 Z " /><path fill="rgb(241,240,246)" stroke="rgb(241,240,246)" stroke-width="1" opacity="0.1607843137254902" d="M 0.5 324 L 1 330.5 L 0 330.5 L 0.5 324 Z " /><path fill="rgb(241,240,246)" stroke="rgb(241,240,246)" stroke-width="1" opacity="0.1607843137254902" d="M 262.5 329 L 262 330.5 L 262 334.5 L 259.5 341 L 259 338.5 L 262.5 329 Z " /><path fill="rgb(241,240,246)" stroke="rgb(241,240,246)" stroke-width="1" opacity="0.1607843137254902" d="M 1.5 332 Q 5 357.5 16 375.5 L 14 374.5 L 4 349.5 L 1 336.5 L 1.5 332 Z " /><path fill="rgb(241,240,246)" stroke="rgb(241,240,246)" stroke-width="1" opacity="0.1607843137254902" d="M 291.5 337 L 292 340.5 L 289.5 349 L 289 346.5 L 291.5 337 Z " /><path fill="rgb(241,240,246)" stroke="rgb(241,240,246)" stroke-width="1" opacity="0.1607843137254902" d="M 258.5 342 L 259 344.5 L 253.5 357 L 253 355.5 L 258.5 342 Z " /><path fill="rgb(241,240,246)" stroke="rgb(241,240,246)" stroke-width="1" opacity="0.1607843137254902" d="M 387.5 354 L 384 358.5 Q 380.5 362.5 382 371.5 L 388 379.5 L 383 375.5 Q 379.5 371.5 381 362.5 L 387.5 354 Z " /><path fill="rgb(241,240,246)" stroke="rgb(241,240,246)" stroke-width="1" opacity="0.1607843137254902" d="M 434.5 354 L 438.5 359 L 434.5 354 Z " /><path fill="rgb(241,240,246)" stroke="rgb(241,240,246)" stroke-width="1" opacity="0.1607843137254902" d="M 52.5 377 L 54.5 380 L 52.5 377 Z " /><path fill="rgb(241,240,246)" stroke="rgb(241,240,246)" stroke-width="1" opacity="0.1607843137254902" d="M 241.5 377 L 239.5 380 L 241.5 377 Z " /><path fill="rgb(241,240,246)" stroke="rgb(241,240,246)" stroke-width="1" opacity="0.1607843137254902" d="M 55.5 381 L 59.5 386 L 55.5 381 Z " /><path fill="rgb(241,240,246)" stroke="rgb(241,240,246)" stroke-width="1" opacity="0.1607843137254902" d="M 238.5 381 L 234.5 386 L 238.5 381 Z " /><path fill="rgb(241,240,246)" stroke="rgb(241,240,246)" stroke-width="1" opacity="0.1607843137254902" d="M 60.5 387 L 68.5 396 L 60.5 387 Z " /><path fill="rgb(241,240,246)" stroke="rgb(241,240,246)" stroke-width="1" opacity="0.1607843137254902" d="M 233.5 387 L 225.5 396 L 233.5 387 Z " /><path fill="rgb(241,240,246)" stroke="rgb(241,240,246)" stroke-width="1" opacity="0.1607843137254902" d="M 268.5 392 L 267.5 394 L 268.5 392 Z " /><path fill="rgb(241,240,246)" stroke="rgb(241,240,246)" stroke-width="1" opacity="0.1607843137254902" d="M 27.5 395 L 28.5 397 L 27.5 395 Z " /><path fill="rgb(241,240,246)" stroke="rgb(241,240,246)" stroke-width="1" opacity="0.1607843137254902" d="M 266.5 395 L 265.5 397 L 266.5 395 Z " /><path fill="rgb(241,240,246)" stroke="rgb(241,240,246)" stroke-width="1" opacity="0.1607843137254902" d="M 70.5 396 L 74.5 401 L 70.5 396 Z " /><path fill="rgb(241,240,246)" stroke="rgb(241,240,246)" stroke-width="1" opacity="0.1607843137254902" d="M 223.5 396 L 219.5 401 L 223.5 396 Z " /><path fill="rgb(241,240,246)" stroke="rgb(241,240,246)" stroke-width="1" opacity="0.1607843137254902" d="M 30.5 399 L 32.5 402 L 30.5 399 Z " /><path fill="rgb(241,240,246)" stroke="rgb(241,240,246)" stroke-width="1" opacity="0.1607843137254902" d="M 263.5 399 L 260.5 403 L 263.5 399 Z " /><path fill="rgb(241,240,246)" stroke="rgb(241,240,246)" stroke-width="1" opacity="0.1607843137254902" d="M 76.5 401 L 78.5 404 L 76.5 401 Z " /><path fill="rgb(241,240,246)" stroke="rgb(241,240,246)" stroke-width="1" opacity="0.1607843137254902" d="M 217.5 401 L 215.5 404 L 217.5 401 Z " /><path fill="rgb(241,240,246)" stroke="rgb(241,240,246)" stroke-width="1" opacity="0.1607843137254902" d="M 34.5 404 L 50.5 421 L 34.5 404 Z " /><path fill="rgb(241,240,246)" stroke="rgb(241,240,246)" stroke-width="1" opacity="0.1607843137254902" d="M 80.5 404 L 81.5 406 L 80.5 404 Z " /><path fill="rgb(241,240,246)" stroke="rgb(241,240,246)" stroke-width="1" opacity="0.1607843137254902" d="M 213.5 404 L 212.5 406 L 213.5 404 Z " /><path fill="rgb(241,240,246)" stroke="rgb(241,240,246)" stroke-width="1" opacity="0.1607843137254902" d="M 258.5 405 L 253.5 411 L 258.5 405 Z " /><path fill="rgb(241,240,246)" stroke="rgb(241,240,246)" stroke-width="1" opacity="0.1607843137254902" d="M 210.5 406 L 209.5 408 L 210.5 406 Z " /><path fill="rgb(241,240,246)" stroke="rgb(241,240,246)" stroke-width="1" opacity="0.1607843137254902" d="M 387.5 413 L 384 417.5 Q 380.5 421.5 382 430.5 L 388 438.5 L 383 434.5 Q 379.3 430.2 381 420.5 L 387.5 413 Z " /><path fill="rgb(241,240,246)" stroke="rgb(241,240,246)" stroke-width="1" opacity="0.1607843137254902" d="M 104.5 417 L 128.5 424 Q 134 422.5 135.5 425 L 158.5 425 L 178.5 421 L 189.5 417 L 189.5 418 L 175.5 423 L 165.5 425 Q 160 423.5 158.5 426 L 135.5 426 L 118.5 423 L 106.5 419 L 104.5 417 Z " /><path fill="rgb(241,240,246)" stroke="rgb(241,240,246)" stroke-width="1" opacity="0.1607843137254902" d="M 53.5 422 L 55.5 425 L 53.5 422 Z " /><path fill="rgb(241,240,246)" stroke="rgb(241,240,246)" stroke-width="1" opacity="0.1607843137254902" d="M 58.5 426 L 59.5 428 L 58.5 426 Z " /><path fill="rgb(241,240,246)" stroke="rgb(241,240,246)" stroke-width="1" opacity="0.1607843137254902" d="M 62.5 429 L 63.5 431 L 62.5 429 Z " /><path fill="rgb(241,240,246)" stroke="rgb(241,240,246)" stroke-width="1" opacity="0.1607843137254902" d="M 65.5 431 L 66.5 433 L 65.5 431 Z " /><path fill="rgb(241,240,246)" stroke="rgb(241,240,246)" stroke-width="1" opacity="0.1607843137254902" d="M 350.5 434 L 349.5 436 L 350.5 434 Z " /><path fill="rgb(241,240,246)" stroke="rgb(241,240,246)" stroke-width="1" opacity="0.1607843137254902" d="M 438.5 434 L 434.5 439 L 438.5 434 Z " /><path fill="rgb(241,240,246)" stroke="rgb(241,240,246)" stroke-width="1" opacity="0.1607843137254902" d="M 347.5 437 L 346.5 439 L 347.5 437 Z " /><path fill="rgb(241,240,246)" stroke="rgb(241,240,246)" stroke-width="1" opacity="0.1607843137254902" d="M 307.5 440 L 315 440.5 L 307.5 441 L 307.5 440 Z " /><path fill="rgb(241,240,246)" stroke="rgb(241,240,246)" stroke-width="1" opacity="0.1607843137254902" d="M 399.5 440 L 404 440.5 L 399.5 441 L 399.5 440 Z " /><path fill="rgb(241,240,246)" stroke="rgb(241,240,246)" stroke-width="1" opacity="0.1607843137254902" d="M 206.5 443 L 208 443.5 L 205.5 445 L 206.5 443 Z " /><path fill="rgb(241,240,246)" stroke="rgb(241,240,246)" stroke-width="1" opacity="0.1607843137254902" d="M 88.5 444 L 92 445.5 L 90.5 446 L 88.5 444 Z " /><path fill="rgb(241,240,246)" stroke="rgb(241,240,246)" stroke-width="1" opacity="0.1607843137254902" d="M 93.5 446 L 119 453.5 L 116.5 454 L 95.5 448 L 93.5 446 Z " /><path fill="rgb(241,240,246)" stroke="rgb(241,240,246)" stroke-width="1" opacity="0.1607843137254902" d="M 199.5 446 L 201 446.5 L 183.5 452 L 183.5 451 L 199.5 446 Z " /><path fill="rgb(241,240,246)" stroke="rgb(241,240,246)" stroke-width="1" opacity="0.1607843137254902" d="M 178.5 452 L 182 452.5 L 165.5 456 L 149.5 457 L 149.5 456 L 165.5 455 L 178.5 452 Z " /><path fill="rgb(241,240,246)" stroke="rgb(241,240,246)" stroke-width="1" opacity="0.1607843137254902" d="M 498.5 493 L 499 494.5 Q 496.3 498.8 490.5 500 L 490.5 499 Q 496.2 497.8 498.5 493 Z " /><path fill="rgb(241,240,246)" stroke="rgb(241,240,246)" stroke-width="1" opacity="0.1607843137254902" d="M 121.5 494 L 129 499.5 L 127.5 500 L 121.5 494 Z " /><path fill="rgb(254,254,254)" stroke="rgb(254,254,254)" stroke-width="1" opacity="1" d="M 187.5 118 L 193 118.5 L 187.5 119 L 187.5 118 Z " /><path fill="rgb(254,254,254)" stroke="rgb(254,254,254)" stroke-width="1" opacity="1" d="M 305.5 118 L 312 118.5 L 305.5 119 L 305.5 118 Z " /><path fill="rgb(254,254,254)" stroke="rgb(254,254,254)" stroke-width="1" opacity="1" d="M 359.5 118 L 377 118.5 L 359.5 119 L 359.5 118 Z " /><path fill="rgb(254,254,254)" stroke="rgb(254,254,254)" stroke-width="1" opacity="1" d="M 420.5 118 L 443 118.5 L 420.5 119 L 420.5 118 Z " /><path fill="rgb(254,254,254)" stroke="rgb(254,254,254)" stroke-width="1" opacity="1" d="M 302.5 294 L 307 294.5 L 302.5 295 L 302.5 294 Z " /><path fill="rgb(254,254,254)" stroke="rgb(254,254,254)" stroke-width="1" opacity="1" d="M 319.5 294 L 322 294.5 L 319.5 295 L 319.5 294 Z " /><path fill="rgb(254,254,254)" stroke="rgb(254,254,254)" stroke-width="1" opacity="1" d="M 399.5 322 L 402 322.5 L 399.5 323 L 399.5 322 Z " /><path fill="rgb(254,254,254)" stroke="rgb(254,254,254)" stroke-width="1" opacity="1" d="M 234.5 388 L 233.5 390 L 234.5 388 Z " /><path fill="rgb(255,255,255)" stroke="rgb(255,255,255)" stroke-width="1" opacity="1" d="M 186.5 1 Q 200.3 -0.8 204 7.5 L 206 14.5 L 206 31 L 234.5 31 L 236 29.5 L 236 13.5 L 237 12.5 L 237 10.5 Q 237.7 4.2 242.5 2 Q 246 -0.5 253.5 1 Q 259.3 2.3 262 6.5 L 264 11.5 L 264 29.5 L 265.5 31 L 294 31 L 294 15.5 L 296 7.5 L 301.5 2 Q 305.3 -0.7 313.5 1 L 320 5 L 323 14.5 L 323 31 L 353 31 L 353 13.5 L 354 10.5 L 356.5 5 Q 358.8 5.8 358 3.5 Q 361.4 -1.1 371.5 1 L 379 6.5 L 381 10.5 L 381 29.5 L 382.5 31 L 410.5 31 L 412 29.5 L 412 9.5 L 418.5 2 Q 422.3 -0.7 430.5 1 L 435 3 L 435 5 Q 437.7 3.9 437 6.5 L 439 8.5 L 440 13.5 L 440 31 L 489.5 31 L 497 36.5 L 500 43.5 L 500 486.5 Q 498.9 493.9 493.5 497 L 485.5 500 L 132.5 500 Q 124.9 498.2 121 492.5 L 120 489.5 L 120 453.5 L 118.5 452 L 97.5 447 L 74.5 436 Q 52.1 423.4 36 404.5 Q 18.9 385.1 9 358.5 L 3 336.5 L 0 304.5 L 1 303.5 L 1 294.5 L 2 293.5 L 4 275.5 L 14 246.5 Q 27.8 217.8 50.5 198 Q 67.2 183.7 88.5 174 L 107.5 167 L 118.5 165 L 120 163.5 L 120 40.5 L 125.5 33 L 129.5 31 L 177 31 L 178 9.5 L 184.5 2 L 186.5 1 Z M 148 59 L 148 118 L 150 119 L 470 119 L 471 118 L 471 59 L 440 59 L 440 76 L 437 84 L 431 88 Q 422 90 418 86 L 412 79 L 412 61 L 411 59 L 383 59 L 381 61 L 381 79 L 379 83 L 372 88 Q 363 90 360 86 Q 357 87 358 84 L 356 84 L 353 76 L 353 59 L 323 59 L 323 74 L 321 82 Q 319 87 313 88 Q 304 89 301 86 L 296 82 L 294 74 L 294 59 L 264 59 L 264 78 L 262 83 L 255 88 Q 246 90 242 86 Q 237 84 237 79 L 236 76 L 236 59 L 206 59 L 206 71 L 204 82 L 196 88 L 185 87 Q 178 84 177 76 L 177 59 L 148 59 Z M 148 147 L 148 161 L 150 162 L 167 163 L 183 166 L 196 170 L 211 177 L 340 177 L 346 179 L 351 186 Q 353 196 349 201 L 343 205 L 338 206 L 257 206 L 256 205 L 252 207 Q 265 218 273 235 L 275 236 L 342 236 L 346 238 L 351 245 L 351 256 L 350 258 L 342 264 L 287 264 L 291 281 L 292 293 L 294 294 L 302 294 L 303 295 L 308 294 Q 312 293 314 295 L 316 294 L 320 295 L 323 294 Q 338 292 347 297 L 351 304 Q 353 313 349 318 L 347 320 L 339 323 L 294 323 L 292 325 L 291 337 L 287 353 L 340 353 L 346 355 L 351 362 L 351 373 L 350 375 Q 348 380 342 381 L 275 381 Q 265 398 252 411 L 254 412 L 343 412 L 347 414 L 351 421 Q 353 430 349 435 Q 346 439 340 440 L 211 440 L 196 447 L 183 451 L 166 454 L 159 454 L 158 455 L 150 455 L 148 457 L 148 471 L 149 471 L 471 471 L 471 147 L 148 147 Z M 137 190 L 116 194 L 102 199 Q 84 206 71 218 Q 38 244 29 295 L 29 324 L 34 346 Q 44 373 63 392 Q 65 391 64 394 L 72 400 Q 74 399 73 402 L 104 419 L 119 424 L 136 427 L 159 427 L 176 424 Q 198 417 216 405 Q 218 406 217 403 L 228 396 L 229 394 L 234 390 Q 247 375 256 356 L 262 339 L 265 323 L 265 295 L 262 279 Q 254 251 237 232 L 216 212 L 191 198 L 166 191 L 137 190 Z " /><path fill="rgb(255,255,255)" stroke="rgb(255,255,255)" stroke-width="1" opacity="1" d="M 396.5 177 L 426.5 177 L 431.5 178 L 437 182.5 Q 440.7 186.8 439 196.5 L 435 203 L 424.5 206 L 407.5 206 L 406.5 205 L 391.5 205 L 384 198.5 Q 381.3 194.7 383 186.5 L 387 180 L 396.5 177 Z " /><path fill="rgb(255,255,255)" stroke="rgb(255,255,255)" stroke-width="1" opacity="1" d="M 394.5 236 L 429.5 236 L 438 242.5 L 439 244.5 L 439 255.5 L 433.5 262 L 429.5 264 L 394.5 264 Q 387.9 263.1 385 258.5 Q 381.5 254.5 383 245.5 L 388.5 238 L 394.5 236 Z " /><path fill="rgb(255,255,255)" stroke="rgb(255,255,255)" stroke-width="1" opacity="1" d="M 90.5 243 Q 98.8 241.7 102.5 245 L 151.5 294 L 190.5 294 Q 198.6 295.4 202 301.5 Q 204.7 305.3 203 313.5 L 196.5 321 L 189.5 323 L 146.5 323 L 139.5 321 L 130.5 312 L 129 312 L 122.5 304 L 112 294.5 L 82 263.5 Q 79.5 260 81 252.5 L 86.5 245 L 90.5 243 Z " /><path fill="rgb(255,255,255)" stroke="rgb(255,255,255)" stroke-width="1" opacity="1" d="M 399.5 294 L 416.5 295 L 417.5 294 L 425.5 294 L 435 297 L 435 299 Q 437.7 297.9 437 300.5 Q 441 304 439 313.5 L 434.5 320 L 425.5 323 L 406.5 323 L 405.5 322 L 391.5 322 L 384 315.5 Q 381.3 311.7 383 303.5 L 389.5 296 L 399.5 294 Z " /><path fill="rgb(255,255,255)" stroke="rgb(255,255,255)" stroke-width="1" opacity="1" d="M 395.5 353 L 427.5 353 Q 434.1 353.9 437 358.5 L 439 361.5 L 439 372.5 L 432.5 380 L 429.5 381 L 392.5 381 L 385 375.5 Q 381.5 371.5 383 362.5 L 385 358 L 387 358 Q 385.9 355.3 388.5 356 L 390.5 354 L 395.5 353 Z " /><path fill="rgb(255,255,255)" stroke="rgb(255,255,255)" stroke-width="1" opacity="1" d="M 392.5 412 L 430.5 412 L 437 416 Q 440.6 420.5 439 431.5 L 434.5 437 L 427.5 440 L 395.5 440 L 387 437 L 387 435 Q 384.3 436.1 385 433.5 Q 381 430 383 420.5 L 388.5 414 L 392.5 412 Z " /></svg>