<svg width="500" height="500" version="1.1" xmlns="http://www.w3.org/2000/svg" desc="Created with imagetracer.js version 1.2.6" ><path fill="rgb(0,0,0)" stroke="rgb(0,0,0)" stroke-width="1" opacity="0" d="M 0 0 L 499.5 0 L 500 0.5 L 500 45.5 L 499 45.5 L 493.5 39 Q 485.5 35 471.5 37 L 470.5 38 L 409.5 40 L 408.5 41 L 386.5 41 Q 379.9 41.9 377 46.5 L 375 50.5 L 375 63.5 L 377 67.5 L 392.5 83 L 402 91.5 L 370.5 125 L 333 161.5 L 329.5 166 L 291 203.5 L 287.5 208 L 250 244.5 L 245.5 250 L 227.5 266 L 209 248.5 L 169.5 208 L 167 206.5 L 149.5 188 Q 144.7 182.8 136.5 181 L 125.5 181 L 114.5 186 L 84 215.5 L 50.5 250 L 42 257.5 L 8.5 292 L 3 296.5 L 0.5 302 L 0 0 Z " /><path fill="rgb(0,0,0)" stroke="rgb(0,0,0)" stroke-width="1" opacity="0" d="M 499.5 98 L 500 500 L 0 500 L 0 323.5 L 1 323.5 Q 2.5 330 7.5 333 L 20.5 342 L 36.5 343 Q 45.2 340.2 50.5 334 L 84 300.5 L 91.5 292 L 125 259.5 L 129.5 254 L 210.5 334 Q 218 341 234.5 339 L 248 332 L 248 330.5 L 288.5 290 Q 290.8 290.8 290 288.5 L 413.5 165 L 415 165 L 415 163.5 L 444.5 134 L 467.5 158 Q 471.5 163 480.5 163 Q 490.5 161 495 153.5 L 498 138.5 L 499.5 98 Z M 444 174 L 416 203 L 410 208 L 369 250 L 369 456 L 370 459 L 377 463 L 445 463 L 449 461 L 452 456 L 452 180 L 447 174 L 444 174 Z M 338 280 L 333 286 L 327 291 L 291 328 L 259 358 L 257 359 L 257 458 L 265 463 L 333 463 L 339 458 L 339 281 L 338 280 Z M 145 309 L 145 458 L 153 463 L 220 463 L 227 459 L 228 455 L 228 368 L 212 366 L 202 361 L 196 357 L 171 333 L 167 329 L 148 309 L 145 309 Z M 114 310 L 89 334 L 84 340 Q 73 354 58 364 L 41 371 Q 35 370 33 372 L 33 456 L 34 457 L 34 459 Q 37 458 36 461 L 42 463 L 109 463 L 113 461 L 116 456 L 116 311 L 114 310 Z " /><path fill="rgb(253,253,253)" stroke="rgb(253,253,253)" stroke-width="1" opacity="0.9490196078431372" d="M 472.5 37 Q 487.2 34.8 494 40.5 L 492.5 40 Q 485.3 36.2 472.5 38 L 471.5 39 L 431.5 40 L 431.5 39 L 471.5 38 L 472.5 37 Z " /><path fill="rgb(253,253,253)" stroke="rgb(253,253,253)" stroke-width="1" opacity="0.9490196078431372" d="M 409.5 40 L 430 40.5 L 409.5 41 L 409.5 40 Z " /><path fill="rgb(253,253,253)" stroke="rgb(253,253,253)" stroke-width="1" opacity="0.9490196078431372" d="M 396.5 84 L 404 92.5 L 227.5 268 L 149.5 189 L 228.5 267 L 403 91.5 L 396.5 84 Z " /><path fill="rgb(253,253,253)" stroke="rgb(253,253,253)" stroke-width="1" opacity="0.9490196078431372" d="M 443.5 133 L 445.5 133 L 456 143.5 L 445.5 134 L 443.5 134 L 417.5 160 L 443.5 133 Z " /><path fill="rgb(253,253,253)" stroke="rgb(253,253,253)" stroke-width="1" opacity="0.9490196078431372" d="M 409.5 167 L 376.5 201 L 409.5 167 Z " /><path fill="rgb(253,253,253)" stroke="rgb(253,253,253)" stroke-width="1" opacity="0.9490196078431372" d="M 443.5 175 L 370 249.5 L 370 454.5 L 372 460 L 377.5 462 L 443.5 462 L 448.5 459 L 447.5 461 L 443.5 463 L 377.5 463 L 371 459.5 L 369 454.5 L 369 249.5 L 443.5 175 Z " /><path fill="rgb(253,253,253)" stroke="rgb(253,253,253)" stroke-width="1" opacity="0.9490196078431372" d="M 142.5 184 L 143.5 186 L 142.5 184 Z " /><path fill="rgb(253,253,253)" stroke="rgb(253,253,253)" stroke-width="1" opacity="0.9490196078431372" d="M 117.5 185 L 116.5 187 L 117.5 185 Z " /><path fill="rgb(253,253,253)" stroke="rgb(253,253,253)" stroke-width="1" opacity="0.9490196078431372" d="M 145.5 186 L 147.5 189 L 145.5 186 Z " /><path fill="rgb(253,253,253)" stroke="rgb(253,253,253)" stroke-width="1" opacity="0.9490196078431372" d="M 114.5 187 L 94.5 208 L 114.5 187 Z " /><path fill="rgb(253,253,253)" stroke="rgb(253,253,253)" stroke-width="1" opacity="0.9490196078431372" d="M 367.5 209 L 334.5 243 L 367.5 209 Z " /><path fill="rgb(253,253,253)" stroke="rgb(253,253,253)" stroke-width="1" opacity="0.9490196078431372" d="M 82.5 219 L 53.5 249 L 82.5 219 Z " /><path fill="rgb(253,253,253)" stroke="rgb(253,253,253)" stroke-width="1" opacity="0.9490196078431372" d="M 326.5 250 L 292.5 285 L 326.5 250 Z " /><path fill="rgb(253,253,253)" stroke="rgb(253,253,253)" stroke-width="1" opacity="0.9490196078431372" d="M 130.5 252 L 165.5 288 L 130.5 253 L 44.5 339 L 35.5 343 L 25.5 343 Q 16.1 340.9 11 334.5 L 14.5 337 L 25.5 342 L 35.5 342 L 44.5 338 L 130.5 252 Z " /><path fill="rgb(253,253,253)" stroke="rgb(253,253,253)" stroke-width="1" opacity="0.9490196078431372" d="M 40.5 261 L 11.5 291 L 40.5 261 Z " /><path fill="rgb(253,253,253)" stroke="rgb(253,253,253)" stroke-width="1" opacity="0.9490196078431372" d="M 337.5 281 L 339 281.5 L 339 456.5 L 335.5 461 L 331.5 463 L 265.5 463 L 260 459.5 L 262.5 461 L 265.5 462 L 331.5 462 L 337 458.5 L 338 456.5 L 338 282.5 L 263 355.5 L 337.5 281 Z " /><path fill="rgb(253,253,253)" stroke="rgb(253,253,253)" stroke-width="1" opacity="0.9490196078431372" d="M 170.5 292 L 208.5 331 L 170.5 292 Z " /><path fill="rgb(253,253,253)" stroke="rgb(253,253,253)" stroke-width="1" opacity="0.9490196078431372" d="M 284.5 292 L 250.5 327 L 284.5 292 Z " /><path fill="rgb(253,253,253)" stroke="rgb(253,253,253)" stroke-width="1" opacity="0.9490196078431372" d="M 147.5 310 L 194.5 358 L 147.5 310 Z " /><path fill="rgb(253,253,253)" stroke="rgb(253,253,253)" stroke-width="1" opacity="0.9490196078431372" d="M 113.5 311 L 91.5 334 L 113.5 311 Z " /><path fill="rgb(253,253,253)" stroke="rgb(253,253,253)" stroke-width="1" opacity="0.9490196078431372" d="M 213.5 334 Q 219.8 339.7 233.5 338 L 242.5 334 L 242.5 335 Q 236.2 340.7 222.5 339 L 214.5 336 L 213.5 334 Z " /><path fill="rgb(253,253,253)" stroke="rgb(253,253,253)" stroke-width="1" opacity="0.9490196078431372" d="M 82.5 342 L 66.5 359 L 82.5 342 Z " /><path fill="rgb(253,253,253)" stroke="rgb(253,253,253)" stroke-width="1" opacity="0.9490196078431372" d="M 261.5 356 L 258.5 360 L 261.5 356 Z " /><path fill="rgb(253,253,253)" stroke="rgb(253,253,253)" stroke-width="1" opacity="0.9490196078431372" d="M 196.5 358 L 211.5 366 L 227 368.5 L 220.5 369 L 206.5 365 L 197.5 360 L 196.5 358 Z " /><path fill="rgb(253,253,253)" stroke="rgb(253,253,253)" stroke-width="1" opacity="0.9490196078431372" d="M 64.5 359 L 61.5 363 L 50.5 369 L 40.5 372 L 35.5 372 L 34 373.5 L 34 454.5 L 38.5 461 L 41.5 462 L 107.5 462 L 112.5 459 L 111.5 461 L 107.5 463 L 41.5 463 L 36 461 L 33 454.5 L 33 372 L 50.5 368 L 64.5 359 Z " /><path fill="rgb(253,253,253)" stroke="rgb(253,253,253)" stroke-width="1" opacity="0.9490196078431372" d="M 151.5 461 L 153.5 462 L 219.5 462 L 221.5 461 L 221.5 462 L 219.5 463 L 153.5 463 L 151.5 461 Z " /><path fill="rgb(254,254,254)" stroke="rgb(254,254,254)" stroke-width="1" opacity="0.2196078431372549" d="M 493.5 39 Q 498.6 41.4 500 47.5 L 499 47.5 L 493.5 39 Z " /><path fill="rgb(254,254,254)" stroke="rgb(254,254,254)" stroke-width="1" opacity="0.2196078431372549" d="M 386.5 41 L 392 41.5 Q 382 41.5 378 47.5 L 375.5 53 L 375 50.5 L 379.5 44 L 386.5 41 Z " /><path fill="rgb(254,254,254)" stroke="rgb(254,254,254)" stroke-width="1" opacity="0.2196078431372549" d="M 375.5 61 L 378 66.5 L 403 92.5 L 375 119.5 L 402 91.5 L 377 67.5 Q 374 65 375.5 61 Z " /><path fill="rgb(254,254,254)" stroke="rgb(254,254,254)" stroke-width="1" opacity="0.2196078431372549" d="M 499.5 76 L 500 97.5 L 499 98.5 L 499 118.5 L 498 119.5 L 497 147.5 Q 495.4 156.4 488.5 160 Q 484.5 163 477.5 163 L 471.5 161 L 458 148.5 L 445 134.5 L 468.5 157 Q 472.1 161.4 479.5 162 Q 489.5 160 494 152.5 L 497 138.5 L 497 118.5 L 498 117.5 L 499.5 76 Z " /><path fill="rgb(254,254,254)" stroke="rgb(254,254,254)" stroke-width="1" opacity="0.2196078431372549" d="M 369.5 125 L 333.5 162 L 369.5 125 Z " /><path fill="rgb(254,254,254)" stroke="rgb(254,254,254)" stroke-width="1" opacity="0.2196078431372549" d="M 443.5 134 L 415 163.5 Q 415.8 165.8 413.5 165 L 290 288.5 L 290 290 L 288.5 290 L 248 330.5 Q 248.8 332.8 246.5 332 L 243 334.5 L 443.5 134 Z " /><path fill="rgb(254,254,254)" stroke="rgb(254,254,254)" stroke-width="1" opacity="0.2196078431372549" d="M 328.5 166 L 291.5 204 L 328.5 166 Z " /><path fill="rgb(254,254,254)" stroke="rgb(254,254,254)" stroke-width="1" opacity="0.2196078431372549" d="M 443.5 174 L 446.5 174 L 452 179.5 L 452 455.5 L 448.5 461 L 449 459.5 L 451 454.5 L 451 180.5 L 445.5 175 L 443.5 175 L 416 201.5 L 443.5 174 Z " /><path fill="rgb(254,254,254)" stroke="rgb(254,254,254)" stroke-width="1" opacity="0.2196078431372549" d="M 125.5 181 Q 136.4 179.6 142.5 183 Q 156.7 192.3 167 205.5 L 149.5 189 Q 144.7 183.8 136.5 182 L 125.5 182 L 114.5 187 L 4 297.5 L 0.5 306 L 0 302.5 Q 2.3 295.8 7.5 292 L 42 258.5 L 49.5 250 L 84 216.5 L 90.5 209 L 114.5 186 L 125.5 181 Z " /><path fill="rgb(254,254,254)" stroke="rgb(254,254,254)" stroke-width="1" opacity="0.2196078431372549" d="M 169.5 208 L 208.5 248 L 169.5 208 Z " /><path fill="rgb(254,254,254)" stroke="rgb(254,254,254)" stroke-width="1" opacity="0.2196078431372549" d="M 286.5 208 L 250.5 245 L 286.5 208 Z " /><path fill="rgb(254,254,254)" stroke="rgb(254,254,254)" stroke-width="1" opacity="0.2196078431372549" d="M 409.5 208 L 375.5 243 L 409.5 208 Z " /><path fill="rgb(254,254,254)" stroke="rgb(254,254,254)" stroke-width="1" opacity="0.2196078431372549" d="M 211.5 250 L 228.5 266 L 245 250.5 L 227.5 267 L 211.5 250 Z " /><path fill="rgb(254,254,254)" stroke="rgb(254,254,254)" stroke-width="1" opacity="0.2196078431372549" d="M 130.5 253 L 214 335.5 L 211.5 334 L 130.5 253 Z " /><path fill="rgb(254,254,254)" stroke="rgb(254,254,254)" stroke-width="1" opacity="0.2196078431372549" d="M 124.5 259 L 92.5 292 L 124.5 259 Z " /><path fill="rgb(254,254,254)" stroke="rgb(254,254,254)" stroke-width="1" opacity="0.2196078431372549" d="M 337.5 280 L 339 280.5 L 333.5 285 L 337.5 280 Z " /><path fill="rgb(254,254,254)" stroke="rgb(254,254,254)" stroke-width="1" opacity="0.2196078431372549" d="M 326.5 291 L 291.5 327 L 326.5 291 Z " /><path fill="rgb(254,254,254)" stroke="rgb(254,254,254)" stroke-width="1" opacity="0.2196078431372549" d="M 83.5 300 L 50.5 334 L 83.5 300 Z " /><path fill="rgb(254,254,254)" stroke="rgb(254,254,254)" stroke-width="1" opacity="0.2196078431372549" d="M 145 309 L 147.5 309 L 167 328.5 L 147.5 310 L 146 310.5 L 146 456.5 L 149 460.5 L 145 457.5 L 145 309 Z " /><path fill="rgb(254,254,254)" stroke="rgb(254,254,254)" stroke-width="1" opacity="0.2196078431372549" d="M 113.5 310 L 116 310.5 L 116 455.5 L 112.5 461 L 113 459.5 L 115 454.5 L 115 311 L 113.5 311 L 61.5 362 L 64.5 358 L 84 339.5 L 88.5 334 L 113.5 310 Z " /><path fill="rgb(254,254,254)" stroke="rgb(254,254,254)" stroke-width="1" opacity="0.2196078431372549" d="M 0.5 319 Q 3.9 331.6 14 337.5 L 8.5 333 L 3 328.5 L 0 322.5 L 0.5 319 Z " /><path fill="rgb(254,254,254)" stroke="rgb(254,254,254)" stroke-width="1" opacity="0.2196078431372549" d="M 171.5 333 L 198 358.5 L 196.5 358 L 171.5 333 Z " /><path fill="rgb(254,254,254)" stroke="rgb(254,254,254)" stroke-width="1" opacity="0.2196078431372549" d="M 284.5 333 L 262.5 356 L 258 359.5 L 258 457.5 L 262 461.5 L 257 457.5 L 257 358.5 L 258.5 358 L 284.5 333 Z " /><path fill="rgb(254,254,254)" stroke="rgb(254,254,254)" stroke-width="1" opacity="0.2196078431372549" d="M 15.5 338 L 16.5 340 L 15.5 338 Z " /><path fill="rgb(254,254,254)" stroke="rgb(254,254,254)" stroke-width="1" opacity="0.2196078431372549" d="M 199.5 359 L 200.5 361 L 199.5 359 Z " /><path fill="rgb(254,254,254)" stroke="rgb(254,254,254)" stroke-width="1" opacity="0.2196078431372549" d="M 59.5 362 L 58.5 364 L 59.5 362 Z " /><path fill="rgb(254,254,254)" stroke="rgb(254,254,254)" stroke-width="1" opacity="0.2196078431372549" d="M 227.5 368 L 228 454.5 L 227 459 L 222.5 462 L 226 457.5 L 227 454.5 L 227.5 368 Z " /><path fill="rgb(254,254,254)" stroke="rgb(254,254,254)" stroke-width="1" opacity="0.996078431372549" d="M 473.5 38 Q 484.6 36.4 491 39.5 L 487.5 40 L 486.5 39 L 473.5 39 L 472.5 40 L 452.5 40 L 452.5 39 L 472.5 39 L 473.5 38 Z " /><path fill="rgb(254,254,254)" stroke="rgb(254,254,254)" stroke-width="1" opacity="0.996078431372549" d="M 430.5 40 L 433 40.5 L 430.5 41 L 430.5 40 Z " /><path fill="rgb(254,254,254)" stroke="rgb(254,254,254)" stroke-width="1" opacity="0.996078431372549" d="M 393 41 L 409 41.5 L 395.5 42 L 393 43 L 393 41 Z " /><path fill="rgb(254,254,254)" stroke="rgb(254,254,254)" stroke-width="1" opacity="0.996078431372549" d="M 410.5 41 L 413 41.5 L 410.5 42 L 410.5 41 Z " /><path fill="rgb(254,254,254)" stroke="rgb(254,254,254)" stroke-width="1" opacity="0.996078431372549" d="M 493.5 41 L 498 44.5 L 497 46.5 L 499 46.5 L 498 48.5 L 500 51.5 L 498 50.5 L 493.5 41 Z " /><path fill="rgb(254,254,254)" stroke="rgb(254,254,254)" stroke-width="1" opacity="0.996078431372549" d="M 386 42 Q 391.2 40.3 390 44 Q 384.8 45.7 386 42 Z " /><path fill="rgb(254,254,254)" stroke="rgb(254,254,254)" stroke-width="1" opacity="0.996078431372549" d="M 383.5 43 L 384.5 45 L 383 44.5 L 377 53.5 L 377 60.5 Q 382.1 71.4 391.5 78 Q 393.8 77.3 393 79.5 L 396 81 Q 394.9 83.7 397.5 83 L 401 88 L 404 89.5 L 405 93.5 L 361 136.5 L 345.5 153 L 344 153 L 344 155 Q 341.3 153.9 342 156.5 L 333.5 164 L 396.5 100 L 404 93.5 L 404 91.5 L 395.5 83 L 391 79.5 L 379.5 67 Q 376.9 67.8 378 64.5 L 375 60.5 L 376 57.5 L 375 53 L 377 52.5 L 376.5 51 L 378 50.5 L 377.5 49 L 380 47.5 L 379.5 46 Q 382.8 47.1 382 44.5 L 383.5 43 Z " /><path fill="rgb(254,254,254)" stroke="rgb(254,254,254)" stroke-width="1" opacity="0.996078431372549" d="M 498 73 Q 500.7 71.9 500 74.5 L 498.5 78 L 498 73 Z " /><path fill="rgb(254,254,254)" stroke="rgb(254,254,254)" stroke-width="1" opacity="0.996078431372549" d="M 497.5 85 L 498 89.5 L 497 89.5 L 497.5 85 Z " /><path fill="rgb(254,254,254)" stroke="rgb(254,254,254)" stroke-width="1" opacity="0.996078431372549" d="M 497.5 92 L 499 95.5 L 497 96.5 L 497.5 92 Z " /><path fill="rgb(254,254,254)" stroke="rgb(254,254,254)" stroke-width="1" opacity="0.996078431372549" d="M 496.5 99 L 498 101.5 L 498 116 L 496 115.5 L 496.5 99 Z " /><path fill="rgb(254,254,254)" stroke="rgb(254,254,254)" stroke-width="1" opacity="0.996078431372549" d="M 495.5 120 L 496 136.5 L 497 137.5 L 495 145.5 L 495 147.5 Q 494.1 154.1 489.5 157 Q 485.5 162 475.5 161 L 456 144.5 L 445.5 133 L 443.5 133 L 417 159.5 L 410.5 167 L 376 200.5 L 368.5 209 L 341 234.5 L 327.5 250 Q 311.9 260.9 300 275.5 L 285.5 292 L 273 302 L 273 304 L 271 304 L 271 306 L 269 306 L 269 308 L 267 308 L 267 310 L 265 310 L 265 312 L 263 312 L 263 314 Q 260.3 312.9 261 315.5 L 243.5 334 L 233.5 338 L 223.5 338 L 219 336.5 L 222.5 336 L 223.5 337 L 233.5 337 L 241.5 333 L 264 310.5 L 264 309 L 266 309 L 266 307 L 268 307 Q 266.9 304.3 269.5 305 L 309.5 264 L 311 264 L 311 262 Q 313.7 263.1 313 260.5 L 442.5 132 L 445.5 132 L 458 143.5 L 459.5 146 L 474.5 159 L 481.5 160 L 487.5 156 L 490 156 L 494 148.5 L 495.5 120 Z " /><path fill="rgb(254,254,254)" stroke="rgb(254,254,254)" stroke-width="1" opacity="0.996078431372549" d="M 330.5 166 L 326 171.5 L 297.5 201 L 291.5 206 L 302.5 194 L 307.5 190 L 330.5 166 Z " /><path fill="rgb(254,254,254)" stroke="rgb(254,254,254)" stroke-width="1" opacity="0.996078431372549" d="M 444 175 Q 446.7 173.9 446 176.5 L 451 180.5 L 449.5 183 L 446.5 178 L 444.5 178 L 429.5 193 L 428 193 Q 429.1 195.7 426.5 195 L 403 218.5 L 403 220 Q 400.3 218.9 401 221.5 L 397 224 L 397 225.5 L 379.5 243 L 372 249.5 L 371 251.5 L 370.5 274 L 370 251.5 L 370 249.5 L 374.5 245 L 394 226.5 L 411.5 208 L 416 204.5 L 427.5 192 L 444 176.5 L 444 175 Z " /><path fill="rgb(254,254,254)" stroke="rgb(254,254,254)" stroke-width="1" opacity="0.996078431372549" d="M 125 182 L 128 183.5 L 125 184 L 125 182 Z " /><path fill="rgb(254,254,254)" stroke="rgb(254,254,254)" stroke-width="1" opacity="0.996078431372549" d="M 134.5 182 L 137.5 184 L 138.5 183 L 143.5 186 L 146 187.5 Q 145.2 190.1 148.5 189 L 156.5 198 L 159.5 200 L 183 223.5 L 183 225 L 184.5 225 L 226 266.5 Q 225.2 269.1 228.5 268 L 289 208.5 L 262.5 236 L 236 261.5 L 229.5 269 Q 223.8 269.8 223 265.5 L 199.5 241 L 173 215.5 L 160.5 202 L 144.5 188 Q 140.3 184.3 133 183.5 L 134.5 182 Z " /><path fill="rgb(254,254,254)" stroke="rgb(254,254,254)" stroke-width="1" opacity="0.996078431372549" d="M 122.5 183 L 123.5 185 L 119.5 186 L 103.5 200 L 11 292.5 Q 1.4 299.4 1 315.5 L 2 317.5 L 0 316.5 L 0 306.5 L 2 306 L 2 304.5 L 1.5 303 L 3 302.5 L 2.5 301 L 4 300.5 L 3.5 299 L 5 298.5 L 4.5 297 L 6 297.5 L 6 295.5 L 10.5 291 L 41 261.5 L 52.5 249 L 83 219.5 L 84.5 217 L 86 217 L 86 215 L 88 215 L 88 213 L 90 213 L 90 211 Q 92.7 212.1 92 209.5 L 115 188.5 Q 114.2 185.5 118 187 L 118 185 L 120.5 185 L 122.5 183 Z " /><path fill="rgb(254,254,254)" stroke="rgb(254,254,254)" stroke-width="1" opacity="0.996078431372549" d="M 449 184 L 451 184.5 L 451 203.5 L 450 206.5 L 451 274.5 L 450 275.5 L 450 287.5 L 451 288.5 L 451 392.5 L 450 393.5 L 450 413.5 L 451 414.5 L 451 438.5 L 450 439.5 L 450 452.5 L 451 455 L 449 455.5 L 450 458 L 441.5 462 L 378.5 462 L 372 460 L 371 457.5 Q 373.5 456 370 454.5 L 371 452.5 L 371 441.5 L 370 440.5 L 370 311.5 L 371 310.5 L 371.5 282 L 372 455.5 L 373 459 L 378.5 461 L 441.5 461 L 445 460 L 445 458 Q 447.7 459.1 447 456.5 L 449 454.5 L 449 204.5 L 450 203.5 L 450 193.5 L 449 192.5 L 449 184 Z " /><path fill="rgb(254,254,254)" stroke="rgb(254,254,254)" stroke-width="1" opacity="0.996078431372549" d="M 130.5 251 L 131.5 253 L 130.5 252 L 125.5 257 L 96 285.5 L 91.5 291 L 89 292.5 L 84.5 298 Q 82.3 297.3 83 299.5 L 48 333.5 L 44.5 338 L 39.5 340 L 40.5 338 L 43.5 337 L 54 326.5 L 56.5 323 L 63.5 317 L 99.5 280 L 104.5 276 L 107 272 L 111 269.5 L 111 268 L 113 268 L 113 266 L 115 266 L 115 264 L 117 264 Q 115.9 261.3 118.5 262 L 130.5 251 Z " /><path fill="rgb(254,254,254)" stroke="rgb(254,254,254)" stroke-width="1" opacity="0.996078431372549" d="M 133.5 253 L 164 283.5 L 164 285 L 168 287.5 Q 167.3 289.8 169.5 289 L 172 293 L 175 294.5 L 176.5 297 L 216 334.5 L 214.5 334 L 209 332 L 207 327.5 L 183.5 304 L 180.5 302 L 166 288.5 L 133.5 253 Z " /><path fill="rgb(254,254,254)" stroke="rgb(254,254,254)" stroke-width="1" opacity="0.996078431372549" d="M 337.5 283 L 338 310.5 L 337 310.5 L 336.5 285 L 300.5 322 L 285 336.5 L 281 341.5 L 265.5 357 L 260 360 L 260 456.5 L 263.5 460 L 265.5 461 L 329.5 461 L 336 456.5 L 337 454.5 L 337.5 441 L 338 454.5 L 337 457.5 L 335.5 460 L 331.5 462 L 329.5 462 L 265.5 462 L 259 459 L 258 456.5 L 258 441.5 L 259 440.5 L 259 432.5 L 258 431.5 L 258 391.5 L 259 390.5 L 259 380.5 L 258 379.5 L 258 361.5 L 262.5 356 L 264 356.5 L 273.5 346 L 288 332.5 L 289.5 330 L 292 328.5 L 294.5 325 L 298 322.5 Q 297.3 320.3 299.5 321 L 332.5 287 L 337.5 283 Z " /><path fill="rgb(254,254,254)" stroke="rgb(254,254,254)" stroke-width="1" opacity="0.996078431372549" d="M 114.5 311 L 115 312.5 L 114 313.5 L 114 325.5 L 115 326.5 L 115 335.5 L 114 336.5 L 114 350.5 L 115 351.5 L 115 369.5 L 114 370.5 L 114 437.5 L 115 438.5 L 115 452.5 L 113 456.5 L 114 457.5 L 111.5 460 L 107.5 462 L 42.5 462 L 42.5 461 L 106.5 461 L 112 457.5 L 113 455.5 L 113 315.5 L 66.5 361 Q 56.6 370.6 39.5 373 L 39.5 372 L 42.5 371 L 43.5 372 L 51.5 368 L 65 361 Q 63.8 358 67.5 359 L 71 354 L 72.5 354 L 82 344.5 L 83 341.5 L 90.5 334 L 91.5 335 L 102 324.5 L 106.5 319 L 111 315.5 L 112.5 313 Q 115 313.7 114.5 311 Z " /><path fill="rgb(254,254,254)" stroke="rgb(254,254,254)" stroke-width="1" opacity="0.996078431372549" d="M 146 312 L 147.5 312 Q 170.7 337.8 197 359 Q 195.8 362 199.5 361 L 209.5 367 Q 211 364.5 212.5 368 L 218.5 369 L 220.5 369 L 223.5 370 L 227 369.5 L 223.5 371 Q 195.6 366.9 182 348.5 L 147.5 313 L 147 314.5 L 148 319.5 L 147 320.5 L 147 328.5 L 148 329.5 L 148 456.5 L 151.5 460 L 153.5 461 L 217.5 461 L 224 458 L 226 449.5 L 226 441.5 L 225 440.5 L 225 373.5 L 226 373.5 L 227 407.5 L 226 408.5 L 226 434.5 L 227 435.5 L 227 453.5 L 225 456.5 L 226 457.5 L 222.5 461 L 219.5 462 L 217.5 462 L 153.5 462 L 148 459.5 L 148.5 458 L 146 456.5 L 147 448.5 L 146 447.5 L 146 423.5 Q 148.3 422.2 147 417.5 L 146 416.5 L 146 375.5 L 147 374.5 L 147 331.5 L 146 330.5 L 146 312 Z " /><path fill="rgb(254,254,254)" stroke="rgb(254,254,254)" stroke-width="1" opacity="0.996078431372549" d="M 2.5 319 L 5 325.5 L 16.5 337 Q 22.1 341.4 32.5 341 L 37.5 340 L 37.5 341 Q 34 343.5 26.5 342 Q 15.1 338.9 8 331.5 Q 8.8 329.3 6.5 330 L 4 327.5 L 4 325.5 L 3 321 L 1 320.5 L 2.5 319 Z " /><path fill="rgb(254,254,254)" stroke="rgb(254,254,254)" stroke-width="1" opacity="0.996078431372549" d="M 337.5 320 L 338 328.5 L 337 328.5 L 337.5 320 Z " /><path fill="rgb(254,254,254)" stroke="rgb(254,254,254)" stroke-width="1" opacity="0.996078431372549" d="M 336.5 334 L 337 347.5 L 338 348.5 L 338 409.5 L 337 410.5 L 336.5 436 L 336.5 334 Z " /><path fill="rgb(254,254,254)" stroke="rgb(254,254,254)" stroke-width="1" opacity="0.996078431372549" d="M 35.5 372 L 36 374.5 L 35 375.5 L 35 452.5 L 37 457.5 L 35 456.5 L 34 453.5 L 34 374.5 L 35.5 372 Z " /><path fill="rgb(255,255,255)" stroke="rgb(255,255,255)" stroke-width="1" opacity="1" d="M 472.5 38 L 473.5 39 L 486.5 39 L 493 40 L 495.5 45 Q 496.8 42.8 498 45.5 L 500 49.5 L 498 49.5 L 500 52.5 L 500 73 Q 496.3 71.7 498 77.5 L 499 78.5 L 499 94.5 L 498 94.5 L 497.5 92 L 497 96.5 L 499 96.5 L 497.5 101 L 496.5 99 L 496 116 L 498 116.5 L 496 117.5 L 497 118.5 L 497 136.5 L 496 136.5 L 495.5 120 L 494 148.5 L 494.5 150 L 493 149.5 L 490 156 L 487.5 156 L 482 159.5 L 484 160.5 L 482.5 161 L 474.5 159 L 458 144.5 L 452.5 138 L 445.5 132 L 442.5 132 L 353 221.5 L 354 222.5 L 341.5 235 L 340.5 234 L 319 255.5 L 320 256.5 L 300.5 276 L 299.5 275 L 273 301.5 L 273.5 303 Q 272.3 300.8 271 303.5 L 271.5 305 L 269.5 305 L 268 305 L 268 307 L 266 307 L 266 309 Q 263.3 307.9 264 310.5 L 263.5 313 Q 262.3 310.8 261 313.5 L 261.5 315 L 260.5 314 L 241.5 333 L 233.5 337 L 223.5 337 L 222.5 338 L 222.5 336 L 218.5 337 L 217.5 335 L 216 335.5 L 215.5 334 L 214 334.5 Q 216.3 333.2 213.5 332 L 207.5 327 L 206.5 328 L 183 304.5 Q 185.3 303.3 182.5 302 L 181 302.5 L 182 301.5 L 177.5 297 L 175 295.5 L 173.5 293 Q 171.3 293.8 172 291.5 L 168 289 L 165.5 285 Q 163.3 285.8 164 283.5 L 143.5 263 L 142.5 264 L 132 253.5 L 130.5 251 L 124 256.5 L 125 257.5 L 96.5 286 L 100.5 280 L 95 284.5 L 90 290.5 Q 92.3 291.8 89.5 293 L 88.5 292 L 83 297.5 L 83.5 299 L 82.5 298 L 75 305.5 L 76 306.5 L 48.5 334 L 47.5 333 L 43.5 337 L 40 338.5 L 40.5 340 L 39 339.5 L 38.5 341 L 33.5 340 Q 32.2 342.2 27.5 341 L 22.5 340 L 21 340.5 L 21.5 339 L 19.5 340 L 19.5 338 L 17.5 339 L 17.5 337 L 15.5 336 L 14 336.5 L 15 335.5 L 6.5 327 Q 4.8 329.7 3 325.5 L 1 321.5 L 3 321 L 2.5 319 Q 1.3 321.3 0 318.5 L 0.5 317 L 2 317.5 L 1 309.5 L 2 306.5 L 1 304.5 L 2 304.5 L 2.5 306 L 3 303.5 L 2.5 302 L 4 302.5 L 3 300.5 L 5 300.5 L 4 298.5 L 5.5 296 L 6.5 298 L 86 217.5 L 85.5 216 Q 86.8 218.3 88 215.5 L 87.5 214 Q 88.7 216.3 90 213.5 L 89.5 212 Q 90.8 214.3 92 211.5 L 91.5 210 L 92.5 211 L 103.5 200 L 106 198.5 L 105 197.5 L 114.5 188 L 116.5 189 L 117.5 186 L 119.5 186 L 121 185.5 L 120.5 184 L 123.5 185 L 123.5 183 L 127.5 184 L 127.5 182 L 134 182.5 L 133.5 184 L 137.5 183 L 137.5 185 L 140.5 184 L 140.5 186 L 145.5 189 L 147 188.5 Q 144.8 189.8 147.5 191 L 150.5 193 L 151.5 192 L 157 197.5 Q 154.8 198.8 157.5 200 L 159 199.5 Q 156.8 200.8 159.5 202 L 173 214.5 L 182.5 225 L 184 224.5 L 183 225.5 L 198.5 241 L 223 264.5 L 225.5 268 L 227 267.5 L 226.5 269 L 229.5 269 L 236 262.5 L 261.5 236 L 284 214.5 L 290.5 206 L 304 194.5 L 303.5 193 Q 304.8 195.3 306 192.5 L 305.5 191 Q 306.8 193.3 308 190.5 L 307 189.5 L 315.5 181 L 316.5 182 L 326 172.5 L 332.5 164 L 342 156.5 L 342 155 L 344 155 Q 342.9 152.3 345.5 153 L 393.5 104 L 398 100.5 L 397 99.5 L 403.5 93 L 405 93.5 L 402.5 88 Q 400.3 88.8 401 86.5 L 396.5 83 L 395 83.5 L 396 81 L 393 79.5 Q 393.8 77.3 391.5 78 L 390.5 79 L 379 67.5 L 381 67.5 L 378.5 64 L 377 64.5 L 378 61.5 L 376 52.5 L 378 52.5 L 377 50.5 L 379 50.5 L 378 47 L 380.5 48 L 381.5 46 L 380 45.5 L 381.5 45 L 383 45.5 L 384.5 43 L 390 44 Q 388.8 41 392.5 42 L 394.5 43 L 395.5 42 L 408.5 42 L 409.5 41 L 412.5 42 L 413.5 41 L 432.5 41 L 433.5 40 L 450.5 40 L 451.5 39 L 452.5 40 L 472.5 40 L 472.5 38 Z M 498 85 L 497 90 L 498 90 L 498 85 Z M 316 258 L 313 262 L 317 259 L 316 258 Z M 117 262 L 117 264 L 119 263 L 117 262 Z M 311 262 L 311 264 L 313 263 L 311 262 Z M 115 264 L 115 266 L 117 265 L 115 264 Z M 310 264 L 305 270 L 311 265 L 310 264 Z M 113 266 L 113 268 L 115 267 L 113 266 Z M 111 268 L 111 270 L 113 269 L 111 268 Z M 107 272 L 107 274 L 109 273 L 107 272 Z M 103 276 L 103 278 L 105 277 L 103 276 Z M 101 278 L 101 280 L 103 279 L 101 278 Z M 62 317 L 62 319 L 64 318 L 62 317 Z M 60 319 L 60 321 L 62 320 L 60 319 Z M 4 321 L 3 324 L 4 324 L 4 321 Z M 58 321 L 58 323 L 60 322 L 58 321 Z M 57 323 L 54 327 L 58 324 L 57 323 Z " /><path fill="rgb(255,255,255)" stroke="rgb(255,255,255)" stroke-width="1" opacity="1" d="M 375.5 57 L 376 59.5 L 375 59.5 L 375.5 57 Z " /><path fill="rgb(255,255,255)" stroke="rgb(255,255,255)" stroke-width="1" opacity="1" d="M 459.5 147 L 468.5 157 L 459.5 147 Z " /><path fill="rgb(255,255,255)" stroke="rgb(255,255,255)" stroke-width="1" opacity="1" d="M 493.5 152 L 492.5 154 L 493.5 152 Z " /><path fill="rgb(255,255,255)" stroke="rgb(255,255,255)" stroke-width="1" opacity="1" d="M 470.5 157 L 472.5 160 L 470.5 157 Z " /><path fill="rgb(255,255,255)" stroke="rgb(255,255,255)" stroke-width="1" opacity="1" d="M 488.5 157 L 487.5 159 L 488.5 157 Z " /><path fill="rgb(255,255,255)" stroke="rgb(255,255,255)" stroke-width="1" opacity="1" d="M 443.5 176 L 428.5 192 L 443.5 176 Z " /><path fill="rgb(255,255,255)" stroke="rgb(255,255,255)" stroke-width="1" opacity="1" d="M 446.5 176 L 450 179.5 L 449 180.5 L 449.5 183 L 450.5 181 L 451 184 L 449 184.5 L 449 192.5 L 450 193.5 L 450 203.5 L 451 204.5 L 449 204.5 L 449 454.5 L 450 455.5 L 447 456.5 L 445 459.5 L 445.5 461 L 442.5 460 L 442.5 461 L 444 461.5 L 442.5 462 L 441.5 461 L 378.5 461 L 377 461.5 L 377.5 460 L 374.5 461 L 374.5 459 Q 371.9 459.8 373 456.5 L 371 456.5 L 372 455.5 L 372 282.5 L 371 282.5 L 370.5 311 L 370 274.5 L 371 273.5 L 371 251.5 L 370.5 250 L 372 250.5 L 376 245.5 L 375 244.5 L 393.5 226 L 378.5 243 L 397 225.5 Q 396.3 223.3 398.5 224 L 401 220 Q 403.7 221.1 403 218.5 L 413 208.5 L 412 207.5 L 415.5 204 L 416.5 205 L 426.5 195 L 429.5 193 L 444.5 178 L 447 177.5 L 446.5 176 Z " /><path fill="rgb(255,255,255)" stroke="rgb(255,255,255)" stroke-width="1" opacity="1" d="M 450.5 206 L 451 234.5 L 450 234.5 L 450.5 206 Z " /><path fill="rgb(255,255,255)" stroke="rgb(255,255,255)" stroke-width="1" opacity="1" d="M 450.5 275 L 451 287.5 L 450 287.5 L 450.5 275 Z " /><path fill="rgb(255,255,255)" stroke="rgb(255,255,255)" stroke-width="1" opacity="1" d="M 337.5 282 L 336 284.5 L 337 285.5 L 337 310.5 L 338 311.5 L 338 319.5 L 337 320.5 L 337 328.5 L 338 329.5 L 338 347.5 L 337 347.5 L 336.5 334 L 336 435.5 L 337 435.5 L 337.5 410 L 338 440.5 L 337 441.5 L 337 454.5 L 337.5 456 L 336 455.5 L 333 459.5 L 333.5 461 L 330.5 460 L 330.5 462 L 329.5 461 L 265.5 461 L 263.5 460 L 262 460.5 L 263 459.5 L 260 456.5 L 259.5 360 L 258 360.5 Q 259.3 357.8 260.5 360 L 264 357.5 L 263.5 356 L 265.5 357 L 281 340.5 L 274 345.5 L 287.5 332 Q 289.2 334.8 291 330.5 Q 288.8 329.3 291.5 328 L 292.5 329 L 296 325.5 Q 293.3 323.8 297.5 322 L 299.5 322 L 327 295.5 L 326.5 294 L 299 320.5 L 328.5 291 L 329.5 292 L 334 287.5 L 333 286.5 L 337.5 282 Z M 285 336 L 283 338 L 285 338 L 285 336 Z M 283 338 L 281 340 L 283 340 L 283 338 Z " /><path fill="rgb(255,255,255)" stroke="rgb(255,255,255)" stroke-width="1" opacity="1" d="M 146.5 310 L 181 344.5 Q 178.5 346 182 347.5 L 191.5 358 L 196.5 361 L 198.5 360 L 198.5 361 L 197 361.5 L 206.5 366 L 208.5 365 L 209.5 368 L 213.5 367 L 213.5 368 L 212 368.5 Q 215.1 370.9 221.5 370 L 223.5 369 L 227 370.5 L 226.5 383 L 225.5 373 L 225 440.5 L 226 441.5 L 226 449.5 L 224 458 L 218 460.5 L 218.5 462 L 217.5 461 L 153.5 461 L 149.5 458 L 148 458.5 L 148 456.5 L 148 329.5 L 147 328.5 L 147 320.5 L 148 315.5 L 147 313.5 L 147.5 312 Q 144.7 312.7 146.5 310 Z " /><path fill="rgb(255,255,255)" stroke="rgb(255,255,255)" stroke-width="1" opacity="1" d="M 113.5 312 L 115 313.5 L 115 325.5 L 114 325.5 L 114 313.5 L 113.5 312 Z " /><path fill="rgb(255,255,255)" stroke="rgb(255,255,255)" stroke-width="1" opacity="1" d="M 110.5 315 L 113 315.5 L 113 455.5 L 114 456.5 L 112 456.5 L 110.5 459 L 106.5 461 L 42.5 461 L 41.5 462 L 41 460 L 38.5 461 L 38 459 L 35 457.5 L 36 453.5 L 35 452.5 L 35 375.5 L 36 372 L 43.5 373 L 43.5 371 L 46.5 372 L 46.5 370 L 49.5 371 L 49.5 369 L 51.5 370 L 61.5 365 L 65 361.5 L 64.5 360 L 66.5 361 Q 69.3 359.7 67 358.5 L 70.5 355 Q 71.8 357.3 73 354.5 L 72 353.5 L 81.5 344 L 82.5 345 L 88 339.5 L 87 338.5 L 101.5 324 L 102.5 325 L 108 319.5 L 107 318.5 L 110.5 315 Z " /><path fill="rgb(255,255,255)" stroke="rgb(255,255,255)" stroke-width="1" opacity="1" d="M 146.5 331 L 147 374.5 L 146 374.5 L 146.5 331 Z " /><path fill="rgb(255,255,255)" stroke="rgb(255,255,255)" stroke-width="1" opacity="1" d="M 114.5 336 L 115 350.5 L 114 350.5 L 114.5 336 Z " /><path fill="rgb(255,255,255)" stroke="rgb(255,255,255)" stroke-width="1" opacity="1" d="M 216.5 368 L 219 368.5 L 216.5 369 L 216.5 368 Z " /><path fill="rgb(255,255,255)" stroke="rgb(255,255,255)" stroke-width="1" opacity="1" d="M 114.5 370 L 115 437.5 L 114 437.5 L 114.5 370 Z " /><path fill="rgb(255,255,255)" stroke="rgb(255,255,255)" stroke-width="1" opacity="1" d="M 258.5 380 L 259 390.5 L 258 390.5 L 258.5 380 Z " /><path fill="rgb(255,255,255)" stroke="rgb(255,255,255)" stroke-width="1" opacity="1" d="M 450.5 393 L 451 413.5 L 450 413.5 L 450.5 393 Z " /><path fill="rgb(255,255,255)" stroke="rgb(255,255,255)" stroke-width="1" opacity="1" d="M 226.5 408 L 227 434.5 L 226 434.5 L 226.5 408 Z " /><path fill="rgb(255,255,255)" stroke="rgb(255,255,255)" stroke-width="1" opacity="1" d="M 146.5 417 L 147 422.5 L 146 422.5 L 146.5 417 Z " /><path fill="rgb(255,255,255)" stroke="rgb(255,255,255)" stroke-width="1" opacity="1" d="M 258.5 432 L 259 440.5 L 258 440.5 L 258.5 432 Z " /><path fill="rgb(255,255,255)" stroke="rgb(255,255,255)" stroke-width="1" opacity="1" d="M 450.5 439 L 451 452.5 L 450 452.5 L 450.5 439 Z " /><path fill="rgb(255,255,255)" stroke="rgb(255,255,255)" stroke-width="1" opacity="1" d="M 370.5 441 L 371 452.5 L 370 452.5 L 370.5 441 Z " /><path fill="rgb(255,255,255)" stroke="rgb(255,255,255)" stroke-width="1" opacity="1" d="M 146.5 448 L 147 454.5 L 146 454.5 L 146.5 448 Z " /><path fill="rgb(255,255,255)" stroke="rgb(255,255,255)" stroke-width="1" opacity="1" d="M 448.5 458 L 447.5 460 L 448.5 458 Z " /></svg>